<!-- ðŸ•Šï¸ Icono de Causas -->
<svg viewBox="0 0 127.56 126.142" xmlns="http://www.w3.org/2000/svg">
    <path fill-rule="evenodd" clip-rule="evenodd" fill="currentColor" d="M63.375,2.406c17.735,10.16,35.475,20.315,53.208,30.48v28.331
	c-0.894-0.29-1.847-0.458-2.834-0.482V34.497L88.207,19.866L62.666,5.234L22.92,28.002l-3.023-1.505
	C34.151,18.329,48.409,10.164,62.667,2L63.375,2.406z M8.749,44.521V32.887l9.24-5.296l0.656,2.861l-7.062,4.045V45.21
	c-0.887-0.234-1.78-0.448-2.701-0.621L8.749,44.521z M8.749,75.549V60.939c0.221,0.174,0.432,0.332,0.629,0.473
	c0.732,0.52,1.468,0.984,2.206,1.401v11.5C10.48,74.759,9.484,75.18,8.749,75.549z M27.949,105.645l-19.2-10.999V81.106l2.834,0.364
	v11.564l16.696,9.564C28.122,103.591,28.01,104.606,27.949,105.645z M9.51,78.357l28.846,3.71
	c-5.921-3.36-9.371-6.716-10.491-13.647c-0.061,0.021-6.579,4.759-8.214,5.605C17.261,75.264,10.814,77.492,9.51,78.357z
	 M114.569,75.098c2.442-0.34,4.38-1.992,5.102-4.033l4.414-0.206c0.595-0.027,1.059-0.536,1.03-1.131l-0.008-0.162
	c-0.027-0.595-0.537-1.06-1.131-1.032l-4.04,0.189c-0.347-3.036-3.307-5.318-6.788-5.155c-5.2,0.242-9.673,9.944-18.24,11.537
	c-5.354,0.996-10.165-1.062-12.787-5.881c-2.769-5.089-3.99-8.248-10.474-9.176c-2.612-0.374-5.085-0.326-7.656-1.174
	c-16.353-5.398-3.19-7.958-30.854-7.733c-0.335,0.003-11.363-0.726-13.157-0.974c-4.475-0.617-8.156-2.195-11.974-2.86L2.1,44.35
	l-2.066-0.885c-0.618,4.435,7.482,13.156,10.982,15.645c7.64,5.429,16.3,4.188,18.626,5.54c1.73,4.505,0.177,6.372,4.427,11.214
	c2.522,2.875,8.235,4.975,8.67,5.491c-0.073,0.751-13.191,12.325-11.927,28.295l14.849-11.162l15.471-7.215l0.151,0.338
	c-1.053-1.199-3.648-2.19-5.465-4.379c-1.747-2.104-2.943-4.798-3.108-7.596c-0.211-1.979-4.954-2.541-6.797-3.461
	c-2.396-1.197-4.252-2.537-6.144-4.421c-3.415-3.4-7.435-10.925-7.404-15.69l3.932,1.175c3.827,2.513,22.236,6.577,27.616,7.833
	c6.965,1.629,8.695,0.316,11.673,7.213c3.25,7.529,9.972,4.078,12.732,5.592l-2.797,1.793c-4.171,0.782-7.974-0.663-10.605-3.961
	c-3.987-4.995,0.318-5.697-7.685-7.512c-6.773-1.536-16.209-4.434-22.619-5.418l-8.992-3.083c1.063,6.585,7.02,12.773,13.517,15.28
	c12.196,4.705,1.839,4.31,9.293,11.645c2.278,2.242,4.454,2.781,7.416,3.703c-0.568,2.101-5.114,6.579-7.029,8.282
	c-2.1,1.867-8.38,5.634-9.262,6.582l10.359-0.259c5.394,1.334,19.46-5.161,24.287-8.389c3.475-2.322,13.62-12.229,14.81-15.776
	c0.812-0.297,3.386-3.017,5.548-3.93c3.063-1.295,5.453-1.161,8.62-1.546C113.573,75.24,114.219,75.146,114.569,75.098z
	 M64.861,50.537c-2.476-0.791-1.814-7.06-9.534-9.092l-15.432-4.062L29.62,34.502l-8.065-4.016
	c1.646,7.176,3.174,11.319,8.574,16.529c2.467,3.178,14.051,1.674,18.767,2.063c8.065,0.754,6.096,3.671,12.575,6.52
	c3.039,1.337,7.8,1.809,10.947,2.27c2.801,0.41,7.219,3.184,7.414,3.194c0.092-0.051,3.545-4.643,5.007-5.798
	c5.737-4.533,9.912-2.48,14.747-4.259c1.772-0.57,3.253-1.833,3.875-3.596l4.193-0.196c0.565-0.026,1.006-0.51,0.979-1.074
	l-0.007-0.154c-0.026-0.565-0.511-1.006-1.075-0.98l-3.838,0.179c-0.483-4.22-5.507-5.788-9.176-4.072
	c-4.566,2.137-8.473,8.742-16.936,11.341C74.368,53.446,66.882,53.887,64.861,50.537z M51.554,35.286l-9.488,0.164
	c1.214,0.751,7.778,2.101,9.7,2.572c5.139,1.255,4.597,1.355,8.941,3.519c6.437-8.247,5.206-6.133,15.971-7.903
	c2.379-0.392,4.863-1.52,5.72-3.948l3.973-0.186c0.536-0.025,0.953-0.483,0.928-1.018l-0.006-0.146
	c-0.025-0.536-0.483-0.953-1.02-0.928l-3.636,0.169c-0.229-2.004-1.723-3.643-3.739-4.316c-2.593-1.04-5.707-0.41-8.033,1.271
	C63.727,29.695,62.559,34.465,51.554,35.286z M77.446,26.021c0.781-0.037,1.444,0.548,1.479,1.306s-0.57,1.402-1.352,1.438
	c-0.783,0.036-1.445-0.549-1.481-1.307C76.058,26.702,76.664,26.058,77.446,26.021z M114.168,66.989
	c0.869-0.041,1.605,0.608,1.645,1.45c0.04,0.842-0.633,1.558-1.502,1.598c-0.869,0.041-1.606-0.608-1.646-1.451
	C112.626,67.744,113.3,67.029,114.168,66.989z M98.233,43.537c0.825-0.039,1.524,0.579,1.562,1.378
	c0.038,0.8-0.601,1.48-1.427,1.519c-0.826,0.038-1.525-0.579-1.563-1.379C96.769,44.255,97.407,43.576,98.233,43.537z
	 M116.583,77.522v17.123c-17.973,10.295-35.949,20.583-53.917,30.887l-27.403-15.697l2.442-1.836l24.96,14.299l51.083-29.263V78.068
	l0.914-0.128l0.294-0.041C115.518,77.821,116.062,77.693,116.583,77.522z"/>
</svg>