<!-- ðŸ›¡ï¸ Icono de Estirpes -->
<svg viewBox="0 0 127.56 126.142" xmlns="http://www.w3.org/2000/svg">
    <path fill-rule="evenodd" clip-rule="evenodd" fill="currentColor" d="M66.619,6.841c-1.377,0-2.493,1.076-2.493,2.403c0,1.328,1.116,2.404,2.493,2.404
	s2.494-1.076,2.494-2.404C69.113,7.917,67.996,6.841,66.619,6.841 M28.248,94.694l11.782,10.564l14.16-12.951l-10.271,16.231
	l17.494,16.285l0.42-39.578c-2.818-1.423-6.279-3.498-7.392-5.23C48.661,85.287,36.035,94.64,28.248,94.694z M66.788,84.862
	c-0.166,3.569-0.654,38.611-0.023,39.974l17.304-16.149l-9.768-16.464c3.337,2.177,9.386,11.125,14.413,12.718l11.526-10.21
	c-1.128-1.216-13.437-2.941-26.333-14.244L66.788,84.862z M26.866,41.989c-8.408-4.762-13.711-12.204-15.091-12.928L1.22,42.974
	c4.49,5.667,26.656,12.513,30.067,15.268l-0.126,0.553c-2.608-0.59-29.038-6.762-29.939-7.457
	c0.384,1.829,11.783,19.048,12.522,19.341l20.847,1.086l-18.858,4.38l8.529,13.741c13.431-1.246,26.08-10.216,26.745-12.839
	c-2.173-5.947-4.46-6.477-4.352-14.419c0.096-6.995,1.89-8.968,4.067-14.668c-2.636-2.036-7.422-3.802-11.148-6.712
	c-2.963-2.314-6.396-6.548-8.368-9.757c-6.738-10.967-5.693-17.461-6.382-29.426C22.35,6.254,13.344,17.98,14.275,22.792
	C15.287,28.014,22.911,38.371,26.866,41.989z M73.96,73.731c14.838,11.159,17.371,12.093,30.172,16.3l8.1-13.979
	c-1.333,0.303-16.487-3.534-19.064-4.122c2.503-0.143,20.432-0.878,21.276-1.37l11.896-19.242
	c-0.963,0.635-26.763,6.87-29.394,7.468l-0.132-0.571c2.741-2.319,25.416-10.148,29.463-15.635l-9.775-13.694
	c-1.615,0.185-8.022,10.165-14.302,12.277c3.034-4.888,11.352-12.706,11.695-18.852c0.189-3.375-7.75-18.174-10.643-19.97
	c0.803,20.301-8.892,43.069-31.166,47.003l-0.148-0.05c-0.654-2.725,5.619-13.02,8.761-26.806
	c1.886-8.272-3.134-19.811-12.719-21.103c-5.466-0.737-10.027,3.805-10.353,8.607h-6.402c-0.943,0-1.714,0.768-1.714,1.706v0.255
	c0,0.938,0.771,1.705,1.714,1.705h6.995c1.29,3.158,4.487,5.51,8.362,5.971c4.64,7.839-10.911,27.097-11.78,28.548
	c-2.789,3.544-4.449,7.988-4.449,12.813c0,1.961,0.274,3.858,0.787,5.658c1.004,3.886,3.141,7.414,6.458,10.221
	C65.979,83.961,67.232,78.677,73.96,73.731z"/>
</svg>