<!-- 🪶 Icono de Gansos -->
<svg viewBox="0 0 127.56 126.142" xmlns="http://www.w3.org/2000/svg">
    <path fill-rule="evenodd" clip-rule="evenodd" fill="currentColor" d="M3.372,99.619c1.269,3.724,5.925,7.088,9.513,9.004
	c-0.616,1.067-1.103,0.381-0.225,1.09c1.734,1.399,6.447,1.569,8.322,2.071c-0.729,0.585-0.641,0.317-2.691,0.432
	c-0.985,0.054-1.907,0.058-2.972-0.057c-5.6-0.604-3.525-1.081-6.194-1.563c0.888,2.606,8.251,6.748,14.137,6.493
	c1.368-0.06,3.775-0.981,5.692-1.979c-3.222-2.552-6.198-5.447-8.882-8.639l-0.64-0.085c-3.591-0.689-5.786-1.436-8.91-2.863
	c-5.368-2.452-3.804-2.182-6.169-3.702C4.034,99.617,3.761,99.362,3.372,99.619 M1.345,88.647L1.22,89.11l1.432,3.679
	c0.429,0.737,0.612,0.875,1.071,1.536c1.859,2.677,1.465,2.146,3.727,4.508c3.082,3.218,6.027,5.522,10.961,6.811
	c0.351,0.091,0.771,0.2,1.235,0.313c-2.848-3.46-5.355-7.257-7.468-11.329l-6.921-6.671c-0.25,1.021-0.181,0.916,0.228,1.63
	c0.267,0.465,0.433,0.703,0.7,1.164c0.523,0.902,0.924,1.592,1.439,2.498c0.979,1.721,3.21,3.809,3.464,4.464
	C8.035,96.821,3.258,90.423,1.345,88.647z M124.187,99.619c-1.269,3.724-5.924,7.088-9.512,9.004
	c0.615,1.067,1.103,0.381,0.225,1.09c-1.734,1.399-6.447,1.569-8.322,2.071c0.729,0.585,0.641,0.317,2.69,0.432
	c0.985,0.054,1.907,0.058,2.973-0.057c5.6-0.604,3.524-1.081,6.193-1.563c-0.889,2.606-8.252,6.748-14.137,6.493
	c-1.368-0.06-3.775-0.981-5.692-1.979c3.222-2.552,6.199-5.447,8.883-8.639l0.641-0.085c3.59-0.689,5.785-1.436,8.909-2.863
	c5.368-2.452,3.804-2.182,6.17-3.702C123.524,99.617,123.798,99.362,124.187,99.619z M126.214,88.647l0.125,0.463l-1.432,3.679
	c-0.43,0.737-0.613,0.875-1.071,1.536c-1.859,2.677-1.465,2.146-3.727,4.508c-3.082,3.218-6.026,5.522-10.961,6.811
	c-0.351,0.091-0.771,0.2-1.235,0.313c2.848-3.46,5.355-7.257,7.469-11.329l6.92-6.671c0.25,1.021,0.182,0.916-0.228,1.63
	c-0.267,0.465-0.433,0.703-0.7,1.164c-0.523,0.902-0.925,1.592-1.439,2.498c-0.979,1.721-3.21,3.809-3.465,4.464
	C119.524,96.821,124.301,90.423,126.214,88.647z M29.448,115.502c-1.431,0.922-2.852,1.693-3.946,2.07
	c-2.935,1.012-5.879,0.874-6.739,1.563c2.353,1.257,3.017,1.592,5.776,1.519c3.887-0.103,6.074-0.842,8.585-2.521
	C31.867,117.306,30.641,116.427,29.448,115.502z M94.436,118.134c2.512,1.679,4.698,2.418,8.585,2.521
	c2.76,0.073,3.424-0.262,5.776-1.519c-0.859-0.689-3.805-0.552-6.739-1.563c-1.095-0.377-2.516-1.148-3.946-2.07
	C96.918,116.427,95.692,117.306,94.436,118.134z M89.761,120.907c0.688,0.512,1.498,0.975,2.521,1.376
	c0.633,0.248,1.102,0.481,1.724,0.747c1.217,0.521,2.985,0.165,4.099,0.708l1.854-0.497c0.226-0.884-1.613-0.876-3.945-2.668
	c-0.564-0.434-0.833-0.527-1.422-0.932c-0.396-0.272-0.752-0.58-1.097-0.903C92.277,119.508,91.032,120.231,89.761,120.907z
	 M85.495,122.957c2.227,1.167,6.408,2.431,6.874,1.624c0.248-0.429-0.492-0.643-1.056-0.948c-0.896-0.485-1.831-1.242-2.709-2.128
	C87.583,122.019,86.548,122.505,85.495,122.957z M82.333,124.196c0.688,0.286,1.383,0.399,2.044,0.237
	c-0.241-0.259-0.471-0.506-0.69-0.743C83.238,123.865,82.787,124.033,82.333,124.196z M43.872,123.69
	c-0.219,0.237-0.449,0.484-0.69,0.743c0.661,0.162,1.355,0.049,2.044-0.237C44.772,124.033,44.321,123.865,43.872,123.69z
	 M38.954,121.505c-0.878,0.886-1.813,1.643-2.708,2.128c-0.563,0.306-1.304,0.52-1.056,0.948c0.466,0.807,4.647-0.457,6.874-1.624
	C41.012,122.505,39.976,122.019,38.954,121.505z M63.779,1.305c29.975,0,54.273,27.636,54.273,61.728s-24.299,61.728-54.273,61.728
	c-29.974,0-54.273-27.636-54.273-61.728S33.805,1.305,63.779,1.305z M62.415,28.996c-6.269,2.59-2.154,11.196,3.556,8.863
	C71.452,35.619,68.519,26.474,62.415,28.996z M63.779,4.385c28.479,0,51.565,26.258,51.565,58.648
	c0,23.893-12.563,44.445-30.585,53.587c-0.008-3.536-0.202-6.314-0.693-6.872c0.301-4.153-3.14-11.871-4.985-14.968
	c-5.635-9.451-18.728-18.839-18.919-30.562c-0.051-3.074,0.689-4.782,1.264-6.144c8.359,0.342,15.42-2.758,19.335-9.526L95.1,50.533
	c1.932,0.267,3.731-1.091,3.999-3.021l0.074-0.525c0.268-1.929-1.095-3.724-3.026-3.992l-13.124-1.815
	c0.61-8.625-5.359-17.14-14.354-19.826c-0.465-0.215-0.996-0.427-1.606-0.638c-7.274-2.503-17.893-0.576-23.612,3.725
	c-9.247,6.333-15.747,20.03-12.982,36.488c1.174,6.986,3.92,12.957,6.43,18.817c2.184,5.1,5.937,13.277,5.403,19.932
	c-1.432-0.218-3.537-0.984-5.016-1.362c-3.664-0.935-12.507-2.591-16.084-2.198c-5.668-9.418-8.986-20.81-8.986-33.084
	C12.213,30.643,35.301,4.385,63.779,4.385z M27.6,123.241l1.854,0.497c1.113-0.543,2.882-0.188,4.099-0.708
	c0.622-0.266,1.091-0.499,1.724-0.747c1.023-0.401,1.834-0.864,2.521-1.376c-1.271-0.676-2.516-1.4-3.734-2.169
	c-0.345,0.323-0.701,0.631-1.097,0.903c-0.588,0.404-0.857,0.498-1.422,0.932C29.213,122.365,27.375,122.357,27.6,123.241z"/>
</svg>