<?xml version="1.0" encoding="utf-8"?>
<!-- Generator: Adobe Illustrator 16.0.0, SVG Export Plug-In . SVG Version: 6.00 Build 0)  -->
<!DOCTYPE svg PUBLIC "-//W3C//DTD SVG 1.1//EN" "http://www.w3.org/Graphics/SVG/1.1/DTD/svg11.dtd">
<svg version="1.1" id="Capa_1" xmlns="http://www.w3.org/2000/svg" xmlns:xlink="http://www.w3.org/1999/xlink" x="0px" y="0px"
	 width="127.118px" height="125.531px" viewBox="0 0 127.118 125.531" enable-background="new 0 0 127.118 125.531"
	 xml:space="preserve">
<path fill="currentColor" d="M83.188,15.628c-6.977-1.429-8.742,7.243-2.403,8.564
	C86.869,25.461,89.981,17.021,83.188,15.628 M110.015,63.006c-2.373,1.087-0.446,3.916,1.717,2.936
	C113.806,65.001,112.325,61.949,110.015,63.006z M113.633,80.265c1.711,0.989,3.229,2.394,4.538,4.009
	c0.271,0.273,0.524,0.548,0.754,0.823c0.046,0.056,0.094,0.115,0.144,0.179l-0.114,0.023c2.61,3.615,4.264,7.999,4.828,11.156
	c1.568,8.77-2.691,19.018-14.144,19.998c-2.905,0.249-5.481-0.134-7.706-0.989c0.118,0.893,0.11,1.729-0.05,2.489
	c-0.502,2.383-2.579,5.818-6.019,7.095c-3.375,1.252-8.813,0.085-8.283-3.656c0.386-2.728,2.673-5.099,3.556-8.129
	c-0.928,0.95-1.023,1.555-1.844,2.74c-7.371,10.652-20.169,10.177-22.83,7.473c0.551-1.433,2.21-1.965,4.096-3.127
	c3.878-2.391,8.71-6.188,10.651-9.541c-1.971,1.29-4.485,3.961-6.89,5.751c-13.606,10.128-25.704,5.798-26.388,2.449
	c2.444-1.647,14.769-3.965,20.308-9.537c-6.595,2.588-12.427,7.348-23.021,7.925c-7.705,0.419-16.362-3.73-16.717-7.922
	c2.048-0.936,8.289,0.118,11.381,0.029c7.034-0.202,12.339-2.071,18.505-4.612c-14.854,3.487-28.39,5.606-40.074-3.758
	c-1.752-1.405-8.974-7.464-8.665-9.643c1.655-0.376,2.868,0.804,4.063,1.485c3.069,1.751,8.443,4.405,11.465,5.208
	c4.358,1.154,12.574,3.175,17.48,1.527c-1.861,0.481-10.136-0.964-11.852-1.378c-3.577-0.865-7.491-2.55-10.684-4.377
	c-5.128-2.935-9.69-7.611-13.266-12.374c-1.747-2.326-3.231-3.691-2.646-5.075c1.46,0.03,1.116,0.114,2.258,1.096
	c3.584,3.083,8.959,6.697,13.314,8.638c4.682,2.086,12.92,4.521,18.235,4.026c-0.589-0.266-0.013-0.051-0.871-0.328
	c-0.141-0.045-0.643-0.182-0.83-0.229c-0.643-0.162-1.003-0.228-1.587-0.384c-1.358-0.36-1.725-0.458-3.138-0.907
	c-1.307-0.416-1.69-0.423-3.097-0.996c-0.981-0.4-1.719-0.682-2.769-1.073c-8.703-3.244-14.796-8.835-19.601-16.395
	c-1.595-2.508-6.898-10.776-6.03-12.926c1.482,0.071,2.491,2.065,4.154,4.056c4.608,5.517,6.694,7.619,12.4,12.307
	c4.869,3.999,14.45,8.008,19.799,9.208c-7.981-4.202-14.194-6.696-21.099-13.758C11.398,64.801-1.075,48.691,0.206,44.956
	c1.622,0.037,2.826,2.067,3.906,3.265L14.74,59.277c6.904,6.585,13.834,10.899,20.638,13.971C9.64,40.787,42.229,1.487,69.708,2.005
	c7.559-0.15,17.862,4.118,22.567,9.911c0.396,0.486,0.721,0.931,0.987,1.343c6.069,6.856,5.953,16.458,0.118,22.601l10.15,8.424
	c1.495,1.241,1.559,3.321,0.142,4.624l-0.387,0.355c-1.418,1.304-3.8,1.355-5.294,0.115l-11.09-9.205
	c-7.53,2.973-15.501,1.5-22.468-3.255c-1.333,0.713-3.019,1.596-4.869,3.931c-15.682,19.79,10.7,41.14,33.055,54.823
	c1.17-5.201,4.246-11.524,8.96-14.771c-1.135-1.825-2.318-3.695-2.987-5.918c-1.677-5.57,0.39-10.482,3.801-12.949
	c2.095-1.657,6.202-2.652,9.153-2.02c0.247,0.053,0.463,0.11,0.654,0.169c3.634,0.642,6.286,3.382,6.355,6.365l5.227,0.214
	c0.77,0.031,1.369,0.606,1.334,1.277l-0.011,0.184c-0.037,0.671-0.696,1.194-1.465,1.163l-5.711-0.233
	c-1.298,2.448-3.964,3.735-7.264,3.879c-0.178,0.486-0.407,1.097-0.277,2.151C110.626,77.099,111.991,78.739,113.633,80.265z"/>
</svg>
