<?xml version="1.0" encoding="utf-8"?>
<!-- Generator: Adobe Illustrator 16.0.0, SVG Export Plug-In . SVG Version: 6.00 Build 0)  -->
<!DOCTYPE svg PUBLIC "-//W3C//DTD SVG 1.1//EN" "http://www.w3.org/Graphics/SVG/1.1/DTD/svg11.dtd">
<svg version="1.1" id="Capa_1" xmlns="http://www.w3.org/2000/svg" xmlns:xlink="http://www.w3.org/1999/xlink" x="0px" y="0px"
	 width="82.617px" height="97.905px" viewBox="0 0 82.617 97.905" enable-background="new 0 0 82.617 97.905" xml:space="preserve">
<path fill="currentColor" d="M14.002,32.134c-3-0.442-5.544-2.704-7.525-5.008
	c-0.438-0.511-0.586-0.455-0.996-1.022c-3.157-4.385-2.941-5.401-4.734-10.3c-1.1,1.883-0.813,7.535-0.235,9.911
	c0.754,3.095,2.018,5.598,3.577,7.347c4.182,4.686,7.307,6.209,13.356,7.793c-3.685,0.532-6.857-0.069-10.139-1.525
	c-1.999-0.886-3.88-1.944-5.481-3.477c-0.653-0.625-1.051-1.092-1.683-1.566c0.117,1.205,0.838,2.683,1.251,3.564
	c1.571,3.354,4.21,5.713,7.217,7.33c4.428,2.381,11.001,2.17,16.097,1.88c-1.516,1.033-3.977,2.138-5.733,2.736
	c-2.783,0.949-4.514,0.861-7.411,0.407c1.114,1.45,3.419,2.729,5.741,3.206c2.872,0.59,4.894,0.045,7.557-0.802
	c6.064-1.926,9.793-0.278,11.425,5.541c1.15,4.106-0.364,6.396-2.17,9.058c-0.375,0.552-0.59,0.944-0.977,1.478
	c-2.823,3.898-4.624,9.914-2.246,14.77c0.479,0.979,1.317,2.384,1.91,2.788c-0.885-4.253,0.124-8.332,1.918-11.886l3.254-5.452
	c0.583,6.931-2.421,8.31-2.917,14.244c-0.312,3.737,0.481,7.571,2.37,10.565c0.404,0.64,1.301,2.032,1.788,2.365
	c-1.845-7.467-1.087-9.062,1.216-15.664l0.483-1.41c0.2-0.499,0.078-0.27,0.307-0.635c0.462,6.662-1.54,9.168-1.131,15.114
	l1.143,4.422c0.154-4.188,0.345-5.186,1.963-8.539c5.896-12.219-1.389-16.388-2.313-24.647c0.833,3.222,10.31,11.143,6.448,21.456
	c0.729-0.536,1.825-2.361,2.283-3.529c0.624-1.589,1.044-3.389,0.946-5.271c-0.432-8.293-5.825-10.234-7.399-16.682
	c-0.652-2.668-0.106-6.338,1.436-8.532c0.354-0.504,0.402-0.394,0.759-0.785c-0.717,2.357-1.075,4.037-0.564,6.652l0.171-0.268
	c1.091-2.161,1.116-3.439,3.623-4.938c5.192-3.102,10.244,3.432,17.757-0.536l2.627-2.085c-3.018,0.304-4.227,0.662-7.299-0.399
	c-1.95-0.673-4.089-2.277-5.646-2.712c7.321-0.006,14.161,0.696,20.009-4.71c1.778-1.644,3.645-4.819,4.305-7.88
	c-2.634,1.791-1.86,2.521-7.088,4.936c-3.291,1.52-6.693,1.795-10.327,1.482c1.073-0.546,2.666-0.729,3.932-1.192
	c3.091-1.134,5.727-2.684,8.233-4.883c0.555-0.486,0.664-0.978,1.289-1.547c1.437-1.308,2.948-4.51,3.636-7.288
	c0.944-3.819,0.664-6.424-0.054-10.117c-0.032,0.05-0.072,0.068-0.085,0.159l-0.218,0.483c-1.516,4.217-1.519,5.708-4.789,9.653
	c-2.196,2.649-5.318,5.764-8.702,6.018c0.895-0.045,3.765-2.638,4.443-3.514c0.882-1.136,1.791-1.912,2.552-3.144
	c3.043-4.923,3.729-10.931,1.472-16.537c-0.93-2.307-3.336-5.993-4.582-6.795c0.713,2.378,1.398,3.375,1.669,6.432
	c0.45,5.08-0.817,10.829-3.967,14.427c-8.249,9.421-16.679,6.903-20.848,16.947c-1.316-8.109-1.578-3.52-1.665-13.286
	c-0.016-1.851-0.361-2.826-0.606-4.525c2.122,0.504,2.488,0.329,4.417-0.412c-0.6-0.596-1.498-0.46-2.543-1.559
	c1.853-0.218,4.438-1.29,4.681-3.765c-5.838,4.266-9.859-4.448-14.398-1.838c-0.875,0.503-0.946,0.583-1.409,1.423
	c-1.405,0.009-5.271,0.182-5.189,2.613c4.943-0.523,7.621,3.627,7.507,9.142c-0.084,4.07-1.676,6.581-3.084,10.01
	c-0.463,1.129-0.705,2.44-1.033,3.569c-0.329-1.104-0.402-2.147-0.904-3.284c-0.439-0.994-0.988-1.716-1.639-2.446
	c-1.28-1.436-2.683-2.846-4.499-3.725c-1.77-0.857-3.665-1.601-5.426-2.469c-2.828-1.395-4.914-2.912-7.107-5.072
	c-2.122-2.09-3.624-4.704-4.433-8.111C8.363,11.173,8.958,6.113,10.933,2C10.228,2.326,9.61,3.332,8.999,3.98
	c-1.042,1.104-2.048,3.057-2.694,4.5c-2.825,6.316-1.825,13.027,1.93,18.149c1.042,1.422,1.436,1.727,2.672,3.007
	C11.79,30.55,13.076,31.136,14.002,32.134"/>
</svg>
