<?xml version="1.0" encoding="utf-8"?>
<!-- Generator: Adobe Illustrator 16.0.0, SVG Export Plug-In . SVG Version: 6.00 Build 0)  -->
<!DOCTYPE svg PUBLIC "-//W3C//DTD SVG 1.1//EN" "http://www.w3.org/Graphics/SVG/1.1/DTD/svg11.dtd">
<svg version="1.1" id="Capa_1" xmlns="http://www.w3.org/2000/svg" xmlns:xlink="http://www.w3.org/1999/xlink" x="0px" y="0px"
	 width="103.483px" height="97.405px" viewBox="0 0 103.483 97.405" enable-background="new 0 0 103.483 97.405"
	 xml:space="preserve">
<path fill="currentColor" d="M29.287,80.321c-0.028,6.393,0.51,7.809,2.622,12.917l9.02-1.076
	c-0.578-0.38-3.854-6.73-4.441-7.793c0.893,0.832,7.161,6.875,7.664,7.033l12.663-1.221c-0.606-0.158-11.974-7.411-13.116-8.161
	l0.215-0.205c1.958,0.309,13.016,6.026,16.842,5.908l2.975-7.226c-0.618-0.512-7.266,0.038-10.301-1.562
	c3.221-0.305,9.52,0.413,12.42-1.181c1.594-0.876,5.676-7.769,5.532-9.278c-6.645,4.416-15.826,7.189-23.864,5.586
	c-1.657,1.207-3.701,2.356-6.06,3.357C37.332,79.171,33.001,80.148,29.287,80.321 M65.057,38.005
	c8.335-6.095,9.313,2.128,20.188-13.522c3.231-4.65,14.994-17.905,16.239-20.191C86.038,0.815,73.365,0.726,58.916,8.039
	c-5.196,2.629-11.28,6.795-15.537,10.9c-9.208,8.88-4.907,7.721-5.316,18.957l-4.671-6.716c-7.17,4.854-15.379,33.015-9.836,41.516
	c4.101-10.445,29.473-47.557,48.129-54.999c-8.095,7.467-21.624,17.639-38.554,42.319c-3.149,5.551-16.048,32.307-12.355,36.958
	l1.474,0.431l5.536-19.818c14.051-2.659,21.901-6.659,31.165-17.831l-9.941-3.468c4.828,0.101,12.391,0.762,15.814-3.252
	c2.256-2.645,8.695-10.375,9.427-13.285L65.057,38.005z M21.179,77.036c-6.017,2.786-7.586,2.889-13.316,3.102l-2.876-8.973
	c0.608,0.381,8.012,0.731,9.268,0.826c-1.17-0.483-9.576-3.788-9.941-4.194L0,55.325c0.411,0.504,12.157,8.097,13.357,8.851
	l0.101-0.293c-1.136-1.713-11.302-9.674-12.841-13.337l5.533-5.923c0.749,0.363,3.098,6.87,5.917,9.043
	c-1.101-3.17-4.497-8.8-4.245-12.224c0.139-1.881,4.878-8.707,6.363-9.222c-1.297,8.172,0.049,18.03,5.029,24.918
	c-0.423,2.085-0.625,4.509-0.551,7.166C18.792,68.952,19.74,73.458,21.179,77.036z"/>
</svg>
