<?xml version="1.0" encoding="utf-8"?>
<!-- Generator: Adobe Illustrator 16.0.0, SVG Export Plug-In . SVG Version: 6.00 Build 0)  -->
<!DOCTYPE svg PUBLIC "-//W3C//DTD SVG 1.1//EN" "http://www.w3.org/Graphics/SVG/1.1/DTD/svg11.dtd">
<svg version="1.1" id="Capa_1" xmlns="http://www.w3.org/2000/svg" xmlns:xlink="http://www.w3.org/1999/xlink" x="0px" y="0px"
	 width="82.617px" height="97.905px" viewBox="0 0 82.617 97.905" enable-background="new 0 0 82.617 97.905" xml:space="preserve">
<path fill="currentColor" d="M44.471,38.156c8.284-6.163,9.33,2.052,20.075-13.688
	c3.192-4.675,14.845-18.027,16.071-20.323C65.145,0.795,52.472,0.812,38.083,8.243c-5.174,2.672-11.223,6.887-15.445,11.027
	c-9.134,8.955-4.843,7.76-5.159,19l-4.726-6.677C5.624,36.505-2.352,64.732,3.26,73.187C7.276,62.708,32.338,25.39,50.932,17.795
	c-8.032,7.533-21.475,17.816-38.202,42.634C9.627,66.005-3.05,92.865,0.681,97.487l1.477,0.418l5.372-19.862
	c14.028-2.775,21.844-6.84,31.015-18.087l-9.968-3.386c4.827,0.061,12.396,0.66,15.786-3.383c2.233-2.663,8.608-10.445,9.316-13.361
	L44.471,38.156z"/>
</svg>
