<!-- ðŸ† Icono de Ranking -->
<svg viewBox="0 0 127.56 126.142" xmlns="http://www.w3.org/2000/svg">
    <path fill-rule="evenodd" clip-rule="evenodd" fill="currentColor" d="M31.877,53.232c-1.234,9.059-10.27,16.526-21.292,17.228
	c-0.066-0.604-0.1,2.24-0.1-1.839s4.942-13.937,11.805-16.215V28.151c0-4.458,4.423-8.135,8.573-8.135
	c4.478,0,8.138,3.103,8.402,7.019h5.196c0.765,0,1.391,0.626,1.391,1.39v0.208c0,0.765-0.626,1.391-1.391,1.391h-5.677
	c-1.047,2.575-3.642,4.493-6.787,4.868v17.122v0.426C31.996,52.715,31.954,52.981,31.877,53.232 M34.929,53.011
	c6.036,2.676,10.239,8.708,10.239,15.61s-4.084,12.761-9.982,15.492v10.399h-2.99v-9.334c-1.396,0.358-2.885,0.548-4.37,0.548
	s-2.877-0.179-4.232-0.514v9.3h-2.99V84.177c-4.674-2.115-8.23-6.219-9.555-11.213C23.559,71.993,33.73,63.375,34.929,53.011z
	 M68.032,36.282c-1.299,9.539-10.814,17.402-22.421,18.141c-0.069-0.636-0.105-1.282-0.105-1.936
	c0-7.938,5.205-14.675,12.431-17.075V9.871c0-4.694,4.659-8.566,9.028-8.566c4.714,0,8.569,3.268,8.847,7.391h5.472
	c0.806,0,1.465,0.659,1.465,1.464v0.219c0,0.805-0.659,1.464-1.465,1.464h-5.978c-1.103,2.711-3.836,4.731-7.147,5.127V35v0.448
	C68.158,35.738,68.114,36.018,68.032,36.282z M71.247,36.05c6.355,2.818,10.781,9.118,10.781,16.438
	c0,7.215-4.301,13.438-10.512,16.314v10.95h-3.148v-9.829c-1.47,0.377-3.012,0.577-4.601,0.577c-1.537,0-3.03-0.188-4.457-0.541
	v9.793h-3.148V68.867c-4.921-2.227-8.666-6.547-10.062-11.807C59.273,56.039,69.984,46.963,71.247,36.05z M103.568,59.32
	c-1.224,8.979-10.181,16.381-21.106,17.077c-0.064-0.599-0.099-1.207-0.099-1.822c0-7.472,4.899-13.814,11.701-16.073V34.458
	c0-4.417,4.386-8.063,8.498-8.063c4.438,0,8.066,3.076,8.328,6.957h5.15c0.758,0,1.379,0.621,1.379,1.378v0.206
	c0,0.758-0.621,1.378-1.379,1.378h-5.628c-1.037,2.553-3.609,4.454-6.728,4.826v16.971v0.422
	C103.686,58.808,103.645,59.071,103.568,59.32z M106.594,59.102c5.982,2.652,10.148,8.583,10.148,15.473
	c0,6.791-4.048,12.648-9.895,15.355v10.309h-2.964v-9.252c-1.384,0.354-2.835,0.543-4.331,0.543c-1.447,0-2.853-0.177-4.195-0.509
	v9.218h-2.964V89.993c-4.633-2.097-8.157-6.164-9.471-11.114C95.322,77.917,105.405,69.374,106.594,59.102z M2.193,122.144h10.803
	V98.198c0-0.459,0.375-0.835,0.834-0.835h30.531c0.458,0,0.834,0.376,0.834,0.835c0,3.839,0,21.736,0,25.547
	c0,0.535-0.438,0.974-0.974,0.974H2.193c-0.535,0-0.973-0.438-0.973-0.974v-0.628C1.22,122.581,1.658,122.144,2.193,122.144z
	 M48.666,82.603h30.227c0.543,0,0.986,0.445,0.986,0.986v40.261c0,0.542-0.444,0.986-0.986,0.986H48.666
	c-0.542,0-0.987-0.443-0.987-0.986V83.589C47.679,83.047,48.123,82.603,48.666,82.603z M125.365,122.144h-10.803V103.84
	c0-0.413-0.338-0.75-0.75-0.75H83.114c-0.413,0-0.751,0.338-0.751,0.75c0,1.969,0,17.955,0,19.905c0,0.535,0.438,0.974,0.974,0.974
	h42.028c0.535,0,0.974-0.438,0.974-0.974v-0.628C126.339,122.581,125.899,122.144,125.365,122.144z M103.656,30.807
	c1.107,0,2.006,0.87,2.006,1.942c0,1.073-0.898,1.943-2.006,1.943c-1.108,0-2.006-0.87-2.006-1.943
	C101.65,31.676,102.548,30.807,103.656,30.807z M68.127,5.991c1.177,0,2.131,0.924,2.131,2.063c0,1.14-0.954,2.064-2.131,2.064
	c-1.178,0-2.132-0.924-2.132-2.064C65.995,6.915,66.949,5.991,68.127,5.991z M31.966,24.466c1.118,0,2.024,0.878,2.024,1.96
	c0,1.083-0.907,1.96-2.024,1.96s-2.024-0.878-2.024-1.96C29.942,25.344,30.848,24.466,31.966,24.466z"/>
</svg>