<?xml version="1.0" encoding="utf-8"?>
<!-- Generator: Adobe Illustrator 16.0.0, SVG Export Plug-In . SVG Version: 6.00 Build 0)  -->
<!DOCTYPE svg PUBLIC "-//W3C//DTD SVG 1.1//EN" "http://www.w3.org/Graphics/SVG/1.1/DTD/svg11.dtd">
<svg version="1.1" id="Capa_1" xmlns="http://www.w3.org/2000/svg" xmlns:xlink="http://www.w3.org/1999/xlink" x="0px" y="0px"
	 width="82.617px" height="97.905px" viewBox="0 0 82.617 97.905" enable-background="new 0 0 82.617 97.905" xml:space="preserve">
<path fill-rule="evenodd" clip-rule="evenodd" fill="currentColor" d="M30.273,22.944c-5.306,2.022-3.261,12.701,2.244,10.807
	C37.769,31.944,35.766,20.85,30.273,22.944 M47.93,22.949c-5.279,1.938-3.06,12.768,2.458,10.768
	C55.361,31.914,53.651,20.848,47.93,22.949z M39.427,37.747c-6.965,1.861-4.331,13.84,2.036,12.125
	c2.539-0.684,4.135-3.693,3.747-7.228C44.902,39.835,42.445,36.941,39.427,37.747z M36.854,2.336
	c-6.831,1.212-11.113,5.077-14.194,9C13.099,23.513,19.384,36.742,5.427,66.48c-2.964,6.316-7.342,11.576-4.514,17.209
	c1.201,2.391,3.875,4.404,7.436,4.005c3.787-0.425,3.892-3.688,7.548-4c7.793-0.664,3.616,8.487,10.797,12.873
	c8.303,5.07,9.152-6.186,16.515-2.31c2.583,1.361,3.256,4.006,7.628,3.503c8.145-0.937,7.149-11.468,10.401-13.305
	c4.111-2.322,6.536,0.891,7.98,2.029c4.516,3.56,13.013-0.604,11.131-9.062c-1.29-5.797-12.69-20.431-15.512-44.604
	c-0.415-3.548-0.836-7.305-1.691-10.562C60.143,10.819,50.384-0.066,36.854,2.336z"/>
</svg>
