<?xml version="1.0" encoding="utf-8"?>
<!-- Generator: Adobe Illustrator 16.0.0, SVG Export Plug-In . SVG Version: 6.00 Build 0)  -->
<!DOCTYPE svg PUBLIC "-//W3C//DTD SVG 1.1//EN" "http://www.w3.org/Graphics/SVG/1.1/DTD/svg11.dtd">
<svg version="1.1" id="Capa_1" xmlns="http://www.w3.org/2000/svg" xmlns:xlink="http://www.w3.org/1999/xlink" x="0px" y="0px"
	 width="67.737px" height="126.724px" viewBox="0 0 67.737 126.724" enable-background="new 0 0 67.737 126.724"
	 xml:space="preserve">
<path fill-rule="evenodd" clip-rule="evenodd" fill="currentColor" d="M33.392,123.683C24.363,91.447-0.355,51.952,1.059,35.497
	c-0.041-0.536-0.057-1.053-0.047-1.547C1.009,33.89,1.002,33.82,1,33.762C1.078,15.992,15.238,1.55,32.896,1.015
	C33.172,1.007,33.449,1.001,33.727,1h0.013l0.128,0.001h0.002L33.998,1h0.014c0.277,0.001,0.554,0.007,0.83,0.015
	C52.499,1.55,66.659,15.992,66.737,33.762c-0.002,0.058-0.009,0.127-0.012,0.188c0.01,0.494-0.007,1.011-0.047,1.547
	c1.414,16.455-23.305,55.95-32.333,88.186C33.916,126.404,33.82,126.404,33.392,123.683 M34.012,9.454
	c13.568,0,24.567,10.999,24.567,24.568c0,9.449-5.336,17.651-13.158,21.761c-2.822-5.613-10.393-10.584-10.5-17.091
	c-0.026-1.614,0.362-2.51,0.664-3.225c4.387,0.18,8.091-1.447,10.146-4.999l7.524,1.042c1.013,0.14,1.958-0.573,2.099-1.585
	l0.038-0.276c0.141-1.012-0.574-1.954-1.588-2.094l-6.886-0.953c0.319-4.526-2.813-8.993-7.532-10.403
	c-0.244-0.113-0.522-0.224-0.844-0.334c-3.817-1.314-9.389-0.303-12.39,1.954C21.3,21.143,17.889,28.33,19.34,36.966
	c0.616,3.665,2.057,6.799,3.375,9.874c1.124,2.626,3.039,6.804,2.848,10.259C16.156,53.653,9.443,44.622,9.443,34.022
	C9.443,20.453,20.442,9.454,34.012,9.454z M36.104,20.209c-3.289,1.359-1.13,5.874,1.866,4.65
	C40.846,23.685,39.307,18.886,36.104,20.209z"/>
</svg>
