<?xml version="1.0" encoding="utf-8"?>
<!-- Generator: Adobe Illustrator 16.0.0, SVG Export Plug-In . SVG Version: 6.00 Build 0)  -->
<!DOCTYPE svg PUBLIC "-//W3C//DTD SVG 1.1//EN" "http://www.w3.org/Graphics/SVG/1.1/DTD/svg11.dtd">
<svg version="1.1" id="Capa_1" xmlns="http://www.w3.org/2000/svg" xmlns:xlink="http://www.w3.org/1999/xlink" x="0px" y="0px"
	 width="82.617px" height="97.905px" viewBox="0 0 82.617 97.905" enable-background="new 0 0 82.617 97.905" xml:space="preserve">
<path fill="currentColor" d="M36.55,19.341c1.481-5.086,11.308-4.608,12.996,4.021
	c2.915,14.911-34.377,20.498-24.88,43.982c1.482,3.666,3.852,6.127,6.323,8.972c1.079,1.243,6.546,7.528,7.568,8.153
	c-6.479-20.746,10.659-28.033,19.485-38.922C93.799,1.438,16.005-14.948,25.12,23.818c4.036,9.03,21.991,3.784,19.636-2.836
	C43.523,17.517,39.336,16.46,36.55,19.341 M43.385,87.379c0.543-0.341,3.783-5.354,4.695-6.438c1.347-1.6,4.248-4.323,6.061-5.55
	c9.901-6.696,23.297-11.575,24.771-22.087c0.063-0.458,0.092-0.926,0.088-1.399c0.027-3.009-1.328-6.293-3.731-8.934h-0.181
	c-1.191-1.267-2.627-2.376-4.27-3.225c0.061,1.3,0.134,2.404,0.139,3.397c-0.016,3.218-0.836,5.289-5.422,9.201
	c-1.746,1.488-4.215,3.121-6.137,4.352c-10.02,6.41-17.109,13.346-17.065,25.223v0.061C42.326,84.007,42.627,85.919,43.385,87.379z
	 M43.816,97.905c1.781-4.873,8.779-9.076,14.438-11.914c6.301-3.16,12.388-4.42,17.929-9.777c2.538-2.455,4.469-6.46,4.435-10.235
	c0.004-0.565-0.033-1.126-0.12-1.677c-0.925,0.431-0.339,0.099-1.14,0.902c-0.533,0.535-0.57,0.621-1.023,1.141
	c-0.725,0.83-1.438,1.434-2.358,2.078c-8.967,6.275-19.716,7.081-27.779,18.05c-3.554,4.835-3.11,5.13-4.513,9.729
	c-0.082,0.271-0.183,0.513-0.164,0.761l0.002,0.042l-0.004,0.049c-0.135-0.382-0.139-0.237-0.104-0.041
	c-0.083-0.069,0.147,0.975,0.114,0.285l0.002-0.019c0.023,0.068,0.052,0.152,0.084,0.254L43.816,97.905z M38.664,97.515
	c-0.718-8.534-6.595-13.941-12.118-19.425c-4.876-4.843-8.677-8.449-9.286-15.109c-0.048-0.521-0.071-1.027-0.075-1.524
	c0.032-7.737,5.164-12.609,7.054-17.793c1.331-3.649,1.646-6.727-0.668-10.008c-1.114-1.582-2.534-2.492-4.02-3.477
	c-2.667-1.767-3.635-1.591-5.436-2.38c0.309,1.488,1.965,2.768,2.32,4.887c0.446,2.668-0.722,5.085-2.503,7.354v-0.195
	c-1.899,2.42-4.493,4.67-6.567,6.879c-5.157,5.49-7.441,10.361-7.363,14.822c0.017,8.008,7.624,14.7,19.91,21.296
	C27.5,86.915,33.994,90.2,37.645,96.35l1.02,1.359l-0.021-0.223L38.664,97.515z"/>
</svg>
