<?xml version="1.0" encoding="utf-8"?>
<!-- Generator: Adobe Illustrator 16.0.0, SVG Export Plug-In . SVG Version: 6.00 Build 0)  -->
<!DOCTYPE svg PUBLIC "-//W3C//DTD SVG 1.1//EN" "http://www.w3.org/Graphics/SVG/1.1/DTD/svg11.dtd">
<svg version="1.1" id="Capa_1" xmlns="http://www.w3.org/2000/svg" xmlns:xlink="http://www.w3.org/1999/xlink" x="0px" y="0px"
	 width="82.617px" height="97.905px" viewBox="0 0 82.617 97.905" enable-background="new 0 0 82.617 97.905" xml:space="preserve">
<path fill="currentColor" d="M2.386,35.673c0.543-1.893,2.055-9.623,2.932-10.989
	c0.651,1.168,0.975,1.776,1.669,2.458c0.58,0.569,0.956,1.367,1.378,1.758L2.386,35.673z M9.812,27.33
	c-1.312-1.008-2.554-3.115-3.828-4.47c-1.557-1.658-2.749-1.843-2.404-5.425C5.01,2.572,21.954-3.521,31.87,8.028
	c5.834,6.796,4.458,18.213,0.527,26.336c-6.393,13.208-16.351,19.353-14.709,35.427c1.146,11.231,5.768,7.416,6.537,4.656
	c2.687-9.637,7.592-15.198,13.599-19.844c4.996-3.863,24.33-13.454,31.958-17.216c2.235-1.103,9.175-5.116,10.836-5.424
	c-0.264,9.311,0.629,15.515-4.474,23.003c-0.979,1.437-1.225,1.563-2.575,3.086c-1.618,1.825-3.677,3.433-6.102,4.764
	c-1.967,1.08-6.166,2.075-6.516,4.482c-0.271,1.857,0.745,3.036,1.999,3.377c2.289,0.622,9.139-3.825,10.837-5.023
	c3.504-2.475,2.354-2.276,6.637-4.329c-0.526,10.916-1.326,19.647-6.542,26.514c-9.226,12.143-21.563,9.909-37.614,9.9
	c-4.578-0.003-10.93,0.396-15.239-0.317C2.524,94.357-7.048,71.135,6.083,55.113c0.939-1.146,1.129-1.322,1.893-2.362l13.019-15.311
	c1.96-2.315,3.681-3.904,4.916-7.522c1.542-4.518,0.944-10.297-1.403-13.538c-2.57-3.547-7.701-6.699-7.869,1.23
	c-0.071,3.366-1.175,4.059-2.739,5.541C12.484,24.491,11.565,25.718,9.812,27.33z"/>
</svg>
