<?xml version="1.0" encoding="utf-8"?>
<!-- Generator: Adobe Illustrator 16.0.0, SVG Export Plug-In . SVG Version: 6.00 Build 0)  -->
<!DOCTYPE svg PUBLIC "-//W3C//DTD SVG 1.1//EN" "http://www.w3.org/Graphics/SVG/1.1/DTD/svg11.dtd">
<svg version="1.1" id="Capa_1" xmlns="http://www.w3.org/2000/svg" xmlns:xlink="http://www.w3.org/1999/xlink" x="0px" y="0px"
	 width="82.617px" height="97.903px" viewBox="0 0 82.617 97.903" enable-background="new 0 0 82.617 97.903" xml:space="preserve">
<path fill="currentColor" d="M26.819,69.281c0.587,0.205,8.988-9.437,10.725-10.86
	c11.516-9.44,29.821-7.209,37.054-22.901c0.86-1.864,2.122-6.104-0.231-3.475c-2.782,3.108-20.489,12.803-22.714,12.397
	C51.197,42.065,72.326,30.729,75.75,26.83c2.186-2.489,4.323-6.122,4.324-10.453c0-0.279-0.051-0.417-0.12-0.601
	c-0.518,0.02-0.602,0.271-0.896,0.683c-3.755,5.257-8.958,7.432-14.479,10.525c-5.462,3.061-10.056,7.936-13.957,12.792
	c-5.232,5.903-10.496,11.723-15.618,17.718C33.829,58.889,26.343,68.139,26.819,69.281 M12.631,32.509
	c0.173-0.72-2.466-5.114,2.763-8.56c6.032-3.975,14.583-1.666,21.368-0.699c1.382,0.197,11.541,1.088,11.577,1.115
	c0.074,0.077-26.227,28.442-32.848,36.882C11.841,65.9,9,69.706,5.832,74.978c-3.275,5.448-7.498,14.236-5.153,20.685
	c0.184,0.506,1.094,2.526,1.789,2.207c0.377-0.391,0.656-1.984,0.882-2.601c9.886-26.953,46.866-0.934,61.943-10.842
	c10.204-6.705,7.291-19.019,4.688-19.17c-0.94,1.736-0.751,4.34-4.762,7.652c-7.636,6.307-29.436-1.938-45.94,0.421
	c0.21-1.801,31.352-39.887,37.992-45.566c7.456-6.377,19.646-8.152,22.977-18.811c0.676-2.163,0.45-6.214-0.897-6.953
	c-0.393,0.181-0.263,0.048-0.462,0.496c-2.984,6.733-9.879,10.5-16.851,11.985C43.027,18.53,22.196,6.139,9.806,14.758
	c-2.682,1.866-5.235,5.303-4.475,10.2c0.144,0.925,0.534,2.095,0.922,2.81C7.493,30.052,10.654,32.972,12.631,32.509z"/>
</svg>
