<?xml version="1.0" encoding="utf-8"?>
<!-- Generator: Adobe Illustrator 16.0.0, SVG Export Plug-In . SVG Version: 6.00 Build 0)  -->
<!DOCTYPE svg PUBLIC "-//W3C//DTD SVG 1.1//EN" "http://www.w3.org/Graphics/SVG/1.1/DTD/svg11.dtd">
<svg version="1.1" id="Capa_1" xmlns="http://www.w3.org/2000/svg" xmlns:xlink="http://www.w3.org/1999/xlink" x="0px" y="0px"
	 width="141.732px" height="34.016px" viewBox="0 0 141.732 34.016" enable-background="new 0 0 141.732 34.016"
	 xml:space="preserve">
<text transform="matrix(1 0 0 1 49.9033 26.3984)" fill="#FFFFFF" font-family="'Albertus-Medium'" font-size="23.945">DM</text>
<text transform="matrix(1 0 0 1 88.7539 26.3984)" fill="#FFFFFF" font-family="'Albertus-Medium'" font-size="28.826"> </text>
<text transform="matrix(1 0 0 1 97.791 26.3984)" fill="#FFFFFF" font-family="'Albertus-Medium'" font-size="23.945">QC</text>
<polygon fill-rule="evenodd" clip-rule="evenodd" fill="#FF0000" points="93,11.705 95.881,17.381 93,23.059 90.119,17.381 "/>
<path fill-rule="evenodd" clip-rule="evenodd" fill="#FFFFFF" d="M13.854,20.302c1.65-0.054,2.418,0.078,3.549-0.053
	c0.039-0.411-0.323-0.532-0.429-0.628c-0.06-0.009-2.267,0.667-4.144-0.708c2.237,0.002,2.19,0.241,3.833,0.11
	c-0.062-0.271-0.124-0.546-0.171-0.819c-0.393-0.169-0.706-0.264-1.292-0.297c-0.584-0.033-1.446-0.005-2.933,0.075
	c-0.262-0.126-0.063-0.12-0.058-0.121c0.215-0.114,1.004-0.324,1.898-0.439c0.898-0.116,1.888-0.138,2.471,0.127
	c0.35-0.011,0.221-0.262,0.256-0.417c0.045-0.155,0.14-0.304,0.057-0.483c-1.429-0.254-3.821-0.28-3.827-0.284
	c0.639-0.247,0.627-0.806,4.037-0.226c0.066-0.213,0.146-0.427,0.227-0.642c-0.032-0.011-2.845-0.011-3.402-0.327
	c-0.154-0.089-0.198-0.099-0.325-0.184c1.656,0.373,2.552-0.146,3.677-0.08c-0.092-0.121,0.33-0.121,0.344-0.462
	c-0.06-0.102-0.144-0.169-0.117-0.215c-1.137-0.278-1.91-0.261-3.558-0.55c0.153-0.028,0.194-0.02,0.372-0.047
	c0.596-0.086,1.397-0.09,2.192-0.079c0.396,0.004,0.752,0.068,1.082,0.074c0.015-0.236,0.029-0.472,0.051-0.708
	c-0.559-0.163-1.162-0.298-1.67-0.385c-0.813-0.139-0.716-0.108-1.593-0.357c0.369-0.127,1.006-0.054,1.485-0.058
	c0.527-0.005,0.944,0.013,1.794,0.214c0.114-0.152,0.092-0.341,0.108-0.514c0.02-0.177,0.174-0.393-0.064-0.532
	c-0.241-0.116-0.907-0.333-1.57-0.536c-0.653-0.2-1.311-0.392-1.592-0.456c-0.003-0.002-0.121-0.067,0.078-0.113
	c0.537,0.002,1.073,0.003,1.61,0.003c0.221,0.004,0.153-0.006,0.48,0.073c0.43,0.104,0.729,0.169,1.09,0.295
	c0.087-0.276,0.166-0.555,0.241-0.834c-0.569-0.233-1.036-0.542-1.689-0.743c-0.658-0.2-0.997-0.193-1.519-0.296
	c-0.036-0.089-0.045-0.18-0.034-0.267c0.452-0.015,0.835-0.077,1.071-0.081c0.335-0.003,0.724,0.019,1.143,0.147
	c0.063,0.018,0.242,0.079,0.296,0.103c0.42,0.172-0.234-0.112,0.129,0.058c0.021,0.011,0.043,0.023,0.059,0.031
	c0.016,0.007,0.04,0.02,0.058,0.029c0.577,0.127,0.46,0.207,1.233,0.505c0.258,0.019,0.909-0.032,1.247,0.182
	c0.559,0.319-0.402,0.03,0.201,0.607c0.019,0.02,0.052,0.057,0.068,0.076c0.229,0.123,0.198,0.103,0.354,0.227
	c0.097,0.076,0.181,0.122,0.231,0.198c0.082,0.034,0.163,0.068,0.245,0.103c-0.02,0.027-0.041,0.053-0.061,0.078
	c0.029,0.194,0.315,0.248,0.548,0.44c0.239,0.192,0.162,0.111,0.286,0.176c0.045,0.011,0.029,0.003,0.127,0.073
	c-0.099-0.07-0.083-0.062-0.127-0.073c0.027,0.015,0.068,0.038,0.127,0.073c0.312,0.195,0.581,0.271,0.646,0.467
	c0.088,0.124,0.326,0.314,0.557,0.451l-0.085-0.338c0.154-0.105,0.003,0.06,0.194-0.027c-0.125-0.319-0.168-0.366-0.263-0.8
	c-0.008-0.003-0.024-0.006-0.026-0.007c-0.023-0.012-0.087,0.002-0.077-0.114c0.029-0.319-0.002,0.247,0.028-0.086
	c0.004-0.047,0.003-0.051-0.01-0.1c-0.057-0.207-0.012,0.036-0.089-0.227c-0.138-0.47-0.237-0.791-0.191-1.176l0.014-0.175
	c0.016-0.367-0.054-0.208-0.149-0.323c-0.092-0.111-0.035-0.35-0.506-0.963c-0.757-0.984,0.832-1.504,1.619-0.503
	c0.955,1.212,0.931,0.618,1.235,1.234c0.212,0.432-0.109,0.28-0.017,0.97l0.641,5.019c0.202-0.166,0.459-0.637,0.542-0.974
	c0.046-0.477,0.259-0.499,0.51-0.804c0.046-0.055,0.08-0.088,0.104-0.107c-0.038,0.001-0.024-0.011-0.104,0.107
	c0.079-0.118,0.066-0.105,0.104-0.107c0.103-0.085,0.037,0.072,0.236-0.266c0.2-0.339,0.439-0.286,0.474-0.767l-0.047-0.244
	l0.214-0.097c0.049-0.158,0.124-0.218,0.212-0.345c0.144-0.205,0.114-0.182,0.323-0.333c0.016-0.035,0.045-0.111,0.065-0.145
	c0.584-1.042-0.291-0.995,0.227-1.412c0.323-0.299,0.903,0.306,1.139,0.447c0.733-0.194,0.633-0.481,1.176-0.376
	c0.017-0.014,0.04-0.027,0.056-0.035c0.016-0.008,0.038-0.024,0.058-0.033c0.358-0.159-0.281,0.07,0.127-0.052
	c0.053-0.016,0.226-0.038,0.286-0.04c0.4-0.014,0.763,0.22,1.074,0.48c0.219,0.183,0.566,0.627,0.979,1.001
	c-0.01,0.225-0.037,0.438-0.089,0.632c-0.495-0.129-0.803-0.397-1.433-0.377c-0.63,0.02-1.104,0.449-1.647,0.626l0.031,2.227
	c0.331-0.065,0.598-0.024,0.989,0.023c0.299,0.037,0.239,0.015,0.426,0.155l1.357,1.098c0.149,0.242,0.025,0.314,0.021,0.319
	c-0.52-0.079-2.443,0.008-2.88,0.267c-0.218,0.192-0.142,0.825-0.163,1.272c-0.021,0.442-0.075,0.893-0.017,1.343
	c0.68,0.031,0.999,0.251,1.394,0.591c0.359,0.309,0.859,0.527,1.093,1.063c-0.725,0.058-0.646,0.042-1.279-0.116
	c-0.392-0.098-0.859-0.132-1.291-0.063l-0.052,1.82c0.232,0.178,0.489,0.228,0.768,0.447c0.558,0.44,1.115,0.917,1.515,1.482
	c0.118,0.166,0.147,0.172,0.248,0.331c-1.211-0.24-1.737-0.75-2.578-0.667c-0.128,1.363,0.307,1.604,0.188,1.932
	c-0.264-0.025-0.212-0.155-0.404-0.41c-0.482-0.639-0.312-0.16-1.163-1.516l-1.186-0.003c-0.39,0.075-0.054,0.007-0.322,0.13
	c-0.556,0.254-1.177,0.063-1.328,0.188c-0.219,0.337-0.045,1.065-0.173,1.39c0.058,0.511,0.059,1.056,0.124,1.563
	c0.138,1.077,0.079,0.626,0.338,1.22c0.258,0.594-0.845,0.201-1.009,0.094c-0.208-0.136-0.237-0.238-0.426-0.35l-0.443-0.232
	c-0.21-0.153-0.301,0.046-0.568-0.637c-0.395-1.009-0.038-0.592,0.008-0.732l-0.239,0.027l0.175-0.658
	c0.128-0.164,0.207-0.378,0.188-0.602l-0.132,0.018c0.023-0.28,0.06-0.411,0.072-0.712l0.009-0.06
	c-0.062-0.89,0.203-0.409,0.176-0.846l-0.003-0.04c-0.098,0.039-0.209,0.077-0.333,0.118c-0.247,0.089-0.557,0.299-0.651,0.436
	c-0.047,0.188-0.298,0.223-0.588,0.37c-0.054,0.027-0.09,0.043-0.118,0.054c0.044-0.006,0.03,0.001,0.118-0.054
	c-0.088,0.055-0.074,0.048-0.118,0.054c-0.117,0.045-0.046-0.022-0.267,0.131c-0.219,0.153-0.495,0.165-0.514,0.352
	c0.02,0.03,0.04,0.058,0.062,0.086c-0.08,0.022-0.158,0.043-0.236,0.063c-0.05,0.067-0.131,0.1-0.226,0.158
	c-0.153,0.096-0.121,0.084-0.346,0.167c-0.015,0.016-0.045,0.05-0.064,0.064c-0.596,0.471,0.356,0.34-0.195,0.565
	c-0.337,0.154-0.987,0-1.247-0.021c-0.773,0.169-0.653,0.264-1.238,0.295c-0.016,0.007-0.041,0.016-0.059,0.02
	c-0.016,0.005-0.04,0.014-0.061,0.021c-0.376,0.105,0.298-0.063-0.135,0.035c-0.056,0.013-0.238,0.045-0.303,0.052
	c-0.425,0.058-0.819,0.018-1.162-0.042c-0.24-0.04-0.631-0.165-1.089-0.253c-0.011-0.088-0.003-0.172,0.029-0.253
	c0.534-0.016,0.885,0.048,1.549-0.043c0.67-0.089,1.147-0.314,1.719-0.452c-0.071-0.28-0.149-0.563-0.235-0.845
	c-0.362,0.067-0.664,0.085-1.102,0.116c-0.333,0.025-0.264,0.025-0.488-0.004c-0.546-0.081-1.095-0.163-1.648-0.245
	c-0.202-0.074-0.078-0.118-0.073-0.12c0.292-0.018,0.97-0.097,1.633-0.189c0.672-0.093,1.338-0.203,1.577-0.28
	c0.232-0.102,0.072-0.334,0.046-0.509c-0.026-0.171-0.013-0.351-0.135-0.516c-0.832,0.074-1.248,0.029-1.778-0.053
	c-0.481-0.072-1.121-0.095-1.5-0.271c0.875-0.112,0.779-0.097,1.584-0.114c0.502-0.011,1.089-0.056,1.626-0.134
	c-0.047-0.234-0.092-0.47-0.134-0.703c-0.326-0.039-0.669-0.028-1.062-0.078c-0.79-0.101-1.591-0.216-2.206-0.385
	C14.054,20.35,14.016,20.351,13.854,20.302 M36.298,18.863c-0.014,0.016-0.016,0.021,0.013,0.015l0.012-0.003l-0.014-0.01
	L36.298,18.863z M36.323,18.875c0.014-0.005,0.001-0.007-0.014-0.01L36.323,18.875z M23.785,19.062l-0.041,0.001
	c-0.558,0.013-2.953,0.017-3.746,0.333c-0.521,0.206,0.191,0.399,0.105,0.619c0.289-0.022,0.579-0.046,0.869-0.07
	c0.554-0.075,0.076-0.009,0.457-0.087c0.795-0.162,1.699-0.161,1.92-0.226c0.127,0.029,0.238,0.039,0.333,0.039
	c0.027-0.055,0.051-0.111,0.065-0.209C23.778,19.265,23.674,19.206,23.785,19.062z M23.678,18.078
	c-0.007-0.105-0.015-0.21-0.02-0.307c-0.018-0.135-0.035-0.166-0.404-0.221c-0.042-0.003-0.083-0.009-0.123-0.014
	c-0.298-0.041,0.137,0.03-0.259-0.037c-0.829-0.138-1.793-0.25-2.722-0.365c-0.881-0.054-0.712-0.04-0.764,0.193
	c-0.021,0.124-0.003,0.35-0.148,0.436c1.077,0.131,2.095,0.108,2.923,0.212c0.021-0.013-0.009-0.096,0.762,0.004
	C23.248,18.023,22.966,18.023,23.678,18.078z M23.725,17.118c0.101-0.329-0.102-0.246-0.165-0.611
	c-0.97-0.196-1.781-0.346-2.967-0.462c-1.526-0.149-0.891,0.103-1.101,0.394c0.291,0.116,0.055,0.045,0.516,0.136
	c0.475,0.096,2.626,0.358,2.777,0.381C23.17,17.013,23.269,17.071,23.725,17.118z M23.512,15.848
	c0.027-0.015,0.063-0.031,0.113-0.052l-0.179-0.088c-0.003-0.037-0.006-0.07-0.007-0.102c-0.417-0.085-0.988-0.2-1.527-0.372
	c-0.42-0.134,0.102,0.002-0.5-0.155c-0.603-0.128-1.2-0.255-1.79-0.382c-0.356,0.069-0.59,0.107-0.76,0.131
	c0.163,0.085,0.401,0.222,0.812,0.469c0.607,0.104,1.217,0.208,1.834,0.313c0.614,0.076,0.084,0.011,0.51,0.038
	C22.543,15.681,23.097,15.776,23.512,15.848z M23.485,14.96l0.054-0.551l0.006-0.014l-0.002-0.005
	c-0.457-0.134-0.543-0.108-0.908-0.193c-0.142-0.033-2.084-0.563-2.507-0.645c-0.407-0.077-0.194-0.06-0.461-0.052
	c0.134,0.373-0.471,0.386,0.915,0.803C21.729,14.641,22.517,14.793,23.485,14.96z M23.415,13.526l-0.003-0.021l0.005-0.001
	c0.001-0.039,0-0.078-0.005-0.126c-0.646-0.215-0.39-0.107-0.681-0.185c-0.674-0.185-0.646-0.258-0.665-0.28
	c-0.706-0.202-1.535-0.605-2.392-0.869c0.098,0.145,0.053,0.373,0.052,0.512c0.005,0.256-0.135,0.21,0.592,0.481
	c0.795,0.222,1.64,0.468,2.381,0.633c0.358,0.08-0.034-0.01,0.235,0.06c0.035,0.011,0.074,0.02,0.11,0.029
	c0.387,0.094,0.349,0.046,0.364-0.138C23.41,13.586,23.413,13.556,23.415,13.526z M23.329,12.695
	c-0.002-0.001-0.003-0.003-0.003-0.005c-0.048-0.085-0.189-0.158-0.654-0.434c-0.579-0.359-1.846-1.014-1.938-1.104
	c-0.417-0.144-0.294-0.177-0.731-0.337c0.035,0.207-0.197,0.25-0.172,0.435c0.117,0.137,0.237,0.273,0.359,0.408
	c0.275,0-0.019,0.026,0.063-0.019c0.015-0.014,0.031-0.028,0.048-0.044c0.646,0.299,0.647,0.264,1.099,0.501
	c0.006,0.004,0.142,0.07,0.145,0.072c0.096,0.031,0.192,0.062,0.289,0.093c0.205,0.083,0.071,0.063,0.591,0.252
	c0.384,0.137,0.611,0.237,0.935,0.358C23.351,12.788,23.352,12.739,23.329,12.695z M25.591,20.383c0.109,0.006,0.036,0.005,0-0.017
	L25.591,20.383z M25.593,20.32l-0.001,0.046c0.035,0.021,0.109,0.022,0,0.017l-0.031,1.132c0.728,0.121,1.274,0.199,2.114-0.052
	c0.96-0.287,0.539-0.676,0.643-1.562c-0.189-0.183-0.037-0.1-0.328-0.14c-0.301-0.04-1.644,0.217-1.739,0.224
	c-0.247,0.017-0.309-0.104-0.612-0.013L25.593,20.32z M27.869,18.304c0.547-0.252,0.442-0.218,0.465-0.875
	c0.012-0.352,0-0.962,0.088-1.27c-0.676,0.135-1.311,0.662-1.832,0.756c-0.014,0.044,0.008,0.256-0.478,0.333
	c-0.206,0.032-0.026-0.097-0.48,0.084c0,0.249,0.011,0.409,0.024,0.653c0.028,0.503,0.006,0.609,0.271,0.589l0.077-0.017
	c0.186-0.028-0.087-0.02,0.162-0.019C26.686,18.542,27.289,18.404,27.869,18.304z M28.059,14.844l0.329-0.802
	c0.043-0.446-0.14-0.714-0.089-1.218c-0.377,0.117-0.281,0.278-0.633,0.372c-0.082,0.172-1.112,1.035-1.553,1.61
	c-0.52,0.68-0.486,0.561-0.484,1.203c0.233-0.12,0.397-0.246,0.681-0.368c0.392-0.17,0.291-0.202,0.447-0.288l0.221-0.062
	c0.003-0.002,0.109-0.089,0.113-0.093c0.36-0.324,0.359-0.233,0.887-0.582l0.034,0.139C28.07,14.925,27.842,14.666,28.059,14.844z
	 M33.703,7.569l0.046-0.014c0.037,0.036,0.059,0.058,0.059,0.058C33.773,7.599,33.738,7.583,33.703,7.569z M14.407,7.148
	c-0.016-0.007-0.032-0.013-0.05-0.021c-0.039,0.002-0.06,0.006-0.06,0.006C14.334,7.138,14.372,7.143,14.407,7.148z M19.826,18.339
	c-0.172,0.068-0.34,0.136-0.509,0.204c-0.056,0.15,0.241,0.296,0.175,0.466c0.585,0.059,0.431-0.027,0.978,0.032
	c0.125-0.04,1.72-0.082,2.41-0.174c0.822-0.112,0.766-0.076,0.779-0.309c-0.37-0.02-0.627-0.017-1.073-0.047
	c-0.618-0.042-0.459-0.003-0.706-0.014c-0.116-0.013-0.232-0.024-0.347-0.036c-0.005-0.001-0.172,0.003-0.18,0.003
	c-0.567,0.022-0.564-0.009-1.397-0.021c-0.02-0.021-0.037-0.04-0.053-0.061C19.808,18.305,20.172,18.461,19.826,18.339z
	 M14.503,26.668c-0.016,0.003-0.034,0.007-0.048,0.01c-0.041-0.007-0.063-0.014-0.063-0.014
	C14.429,26.665,14.466,26.667,14.503,26.668z M20.229,23.172c-0.113,0.115-0.225,0.23-0.334,0.346
	c-0.02,0.176,0.211,0.254,0.181,0.452c0.425-0.092,0.307-0.142,0.708-0.221c0.085-0.077,1.27-0.532,1.792-0.806
	c0.64-0.321,0.598-0.274,0.593-0.515c-0.295,0.073-0.499,0.141-0.851,0.224c-0.482,0.111-0.354,0.111-0.546,0.164
	c-0.089,0.018-0.177,0.034-0.267,0.051c-0.003,0-0.129,0.046-0.134,0.05c-0.42,0.166-0.424,0.133-1.033,0.331
	c-0.016-0.016-0.033-0.032-0.047-0.049C20.209,23.143,20.497,23.211,20.229,23.172z M20.239,21.831
	c-0.676,0.163-0.548,0.137-0.525,0.39c0.011,0.136,0.072,0.367-0.012,0.496c0.814-0.137,1.576-0.415,2.232-0.515
	c0.017-0.019-0.019-0.097,0.604-0.184c0.266-0.037,0.034,0.033,0.624-0.091c-0.002-0.094-0.017-0.154-0.036-0.245
	c-0.04-0.188-0.01-0.229-0.363-0.189c-0.034,0.005-0.068,0.009-0.102,0.015c-0.247,0.033,0.115-0.002-0.214,0.027
	C21.759,21.598,20.979,21.722,20.239,21.831z M23.208,20.792c-0.001-0.006-0.001-0.012,0-0.018c-0.046-0.004-0.15,0.005,0-0.006
	c0.015-0.144,0.032-0.288,0.049-0.432c-1.026,0.04-1.794,0.075-2.943,0.27c-1.281,0.224-0.69,0.321-0.766,0.67
	c0.261,0.049,0.056,0.035,0.439,0.015c0.4-0.021,2.188-0.28,2.318-0.293c0.337-0.037,0.422,0.001,0.839-0.069
	C23.167,20.885,23.186,20.838,23.208,20.792z M23.209,20.769c-0.151,0.011-0.047,0.002,0,0.006
	C23.208,20.772,23.207,20.771,23.209,20.769z"/>
<path fill-rule="evenodd" clip-rule="evenodd" fill="#FF0000" d="M14.955,2.679c0.08-0.06,0.16-0.119,0.24-0.175
	c0.073-0.051,0.148-0.1,0.223-0.146c0.094-0.057,0.188-0.125,0.279-0.19c0.122-0.088,0.24-0.173,0.373-0.245
	c0.254-0.138,0.437-0.258,0.597-0.364c0.122-0.081,0.233-0.154,0.351-0.22c0.106-0.06,0.313-0.179,0.54-0.317l-0.552,0.251
	C16.6,1.45,15.549,2.119,14.971,2.486l-0.208,0.132c-0.542,0.342-1.115,0.805-1.67,1.332c-0.579,0.55-1.139,1.171-1.624,1.8
	c-0.096,0.124-0.35,0.33-0.477,0.45c-0.237,0.226-0.473,0.475-0.697,0.729C10.055,7.202,9.832,7.478,9.637,7.74L9.613,7.773
	C9.513,7.909,9.437,8.011,9.348,8.141c-0.341,0.497-0.642,1.01-0.906,1.542c-0.263,0.532-0.493,1.086-0.694,1.669
	c-0.039,0.109-0.096,0.295-0.157,0.515l0.14-0.205L7.628,12.65c-0.016,0.155-0.058,0.356-0.106,0.592
	c-0.067,0.327-0.149,0.726-0.19,1.137c-0.05,0.495-0.07,1.001-0.06,1.511c0.049-0.876,0.194-1.728,0.449-2.482l0.819-2.422
	l-0.17,1.299c0.102-0.324,0.221-0.661,0.353-0.979c0.239-0.578,0.522-1.106,0.826-1.418l0.675-0.692l-0.252,0.932
	c-0.031,0.116-0.155,0.359-0.278,0.599c-0.089,0.174-0.178,0.348-0.217,0.445c-0.07,0.17-0.132,0.336-0.193,0.51
	c-0.057,0.164-0.118,0.348-0.185,0.559c-0.354,1.123-0.526,2.39-0.543,3.682c-0.018,1.384,0.142,2.8,0.446,4.099l0.274,1.174
	L8.859,20.64c0.074,0.241,0.154,0.478,0.238,0.711c0.112,0.309,0.247,0.651,0.384,1.001c0.522,1.319,1.038,2.365,1.677,3.293
	c0.64,0.929,1.409,1.748,2.44,2.618c0.324,0.273,0.643,0.525,0.968,0.763c0.326,0.238,0.658,0.463,1.005,0.682l0.23,0.132
	c0.195,0.111,0.418,0.237,0.517,0.327l0.478,0.432l-0.645,0.005c-0.31,0.001-0.668-0.103-1.037-0.261l0.161,0.086
	c0.088,0.047,0.176,0.093,0.289,0.162c0.172,0.102,0.376,0.193,0.583,0.285c0.151,0.066,0.303,0.134,0.433,0.2l1.133,0.571
	l-0.394-0.03c0.263,0.095,0.509,0.177,0.695,0.235c1.298,0.41,2.66,0.792,4.051,1.038c1.385,0.245,2.797,0.356,4.199,0.226
	c2.181-0.203,4.142-0.833,5.828-1.744c1.85-0.999,3.369-2.338,4.483-3.824c0.925-1.232,1.983-3.054,2.666-5.116
	c0.52-1.567,0.821-3.272,0.678-4.957c-0.048-0.577-0.131-1.111-0.294-1.587c-0.158-0.463-0.394-0.875-0.75-1.223
	c-0.271-0.264-0.686-0.521-1.168-0.64c-0.379-0.093-0.799-0.1-1.222,0.045c-0.223,0.076-0.461,0.191-0.667,0.325
	c-0.183,0.119-0.339,0.25-0.432,0.375c-0.099,0.135-0.188,0.351-0.213,0.586c-0.02,0.184,0,0.377,0.084,0.546
	c0.091,0.181,0.189,0.329,0.287,0.477c0.159,0.24,0.319,0.479,0.472,0.885c0.082,0.216,0.152,0.443,0.216,0.675
	c0.066,0.243,0.12,0.463,0.17,0.676c0.004,0.021,0.006,0.04,0.004,0.059l0.28-0.335l0.131,0.453c0.596,2.059-0.12,3.918-0.328,4.46
	c-0.023,0.062-0.035,0.07-0.037,0.085l-0.499-0.053l0-0.008c0.011-0.097,0.028-0.193,0.047-0.293
	c-0.097,0.145-0.196,0.272-0.288,0.364l-0.621,0.625l0.198-0.857c0.029-0.127,0.114-0.361,0.212-0.636
	c0.125-0.351,0.278-0.774,0.359-1.099l0.05-0.222l-0.393,0.495l0.012-0.327l-0.112,0.332c-0.079,0.226-0.163,0.449-0.26,0.692
	c-0.093,0.23-0.185,0.458-0.28,0.682c-0.094,0.221-0.192,0.439-0.298,0.661l-0.082,0.17c-0.175,0.369-0.349,0.732-0.58,1.127
	c-0.32,0.546-0.775,1.091-1.288,1.599c-0.497,0.493-1.051,0.955-1.587,1.352c0.189-0.098,0.376-0.205,0.56-0.319
	c0.881-0.551,1.675-1.272,2.268-1.996c0.029-0.035,0.084-0.109,0.144-0.188c0.122-0.163,0.26-0.348,0.351-0.424l0.437-0.366
	l-0.025,0.569c-0.011,0.244-0.163,0.564-0.364,0.886c-0.283,0.45-0.672,0.922-0.88,1.15c-0.812,0.89-1.856,1.691-2.998,2.354
	c-1.189,0.689-2.487,1.229-3.74,1.556c-1.357,0.354-2.892,0.454-4.397,0.316c-1.506-0.138-2.986-0.513-4.233-1.107l-0.265-0.134
	c-0.254-0.138-0.489-0.273-0.721-0.447c-0.022-0.021-0.032-0.033-0.054-0.06l-0.474-0.575l0.659,0.132l-0.086-0.047
	c-0.174-0.095-0.319-0.17-0.462-0.242l-0.246-0.127c-0.548-0.286-1.26-0.733-1.909-1.223c-0.549-0.414-1.059-0.861-1.392-1.269
	c-0.387-0.474-0.737-0.949-1.064-1.461c-0.325-0.509-0.625-1.048-0.916-1.65c-1.214-2.518-1.802-5.021-1.728-7.45
	c0.073-2.391,0.786-4.706,2.171-6.888c1.407-2.216,3.191-3.862,5.276-4.959c2.144-1.128,4.605-1.673,7.298-1.66
	c1.344,0.006,2.502,0.19,3.559,0.49c1.054,0.299,2.007,0.714,2.943,1.184c0.467,0.234,0.93,0.5,1.376,0.787
	c0.385,0.248,0.762,0.512,1.121,0.784l-0.227-0.196c-0.369-0.309-0.759-0.61-1.158-0.884c-0.363-0.249-0.735-0.477-1.106-0.669
	l-0.205-0.101c-0.233-0.111-0.524-0.251-0.669-0.372l-0.582-0.488l0.757,0.044c0.379,0.022,0.887,0.253,1.404,0.562
	c0.425,0.252,0.862,0.56,1.236,0.841l-0.186-0.21l0.959,0.431c-0.168-0.147-0.335-0.284-0.503-0.416
	c-0.261-0.204-0.533-0.401-0.814-0.6c-0.26-0.185-0.553-0.391-0.848-0.577c-0.293-0.186-0.591-0.355-0.865-0.471
	c-0.149-0.063-0.281-0.133-0.41-0.201c-0.166-0.087-0.329-0.172-0.505-0.229c-0.096-0.032-0.188-0.075-0.285-0.12
	c-0.067-0.032-0.139-0.065-0.216-0.095l-0.243-0.091l-0.249-0.086c-1.526-0.513-2.91-0.774-4.382-0.782
	c-1.478-0.008-3.053,0.239-4.958,0.743c-0.753,0.199-1.457,0.425-2.119,0.677c-0.663,0.253-1.281,0.532-1.862,0.835l-2.618,1.369
	L14.955,2.679z"/>
</svg>
