<?xml version="1.0" encoding="utf-8"?>
<!-- Generator: Adobe Illustrator 16.0.0, SVG Export Plug-In . SVG Version: 6.00 Build 0)  -->
<!DOCTYPE svg PUBLIC "-//W3C//DTD SVG 1.1//EN" "http://www.w3.org/Graphics/SVG/1.1/DTD/svg11.dtd">
<svg version="1.1" id="Capa_1" xmlns="http://www.w3.org/2000/svg" xmlns:xlink="http://www.w3.org/1999/xlink" x="0px" y="0px"
	 width="1740px" height="2200px" viewBox="0 0 1740 2200" enable-background="new 0 0 1740 2200" xml:space="preserve">
<path fill="#FF0000" d="M793,157c3.591,1.287,7.299-0.154,11-0.725c6.581-1.016,13.342-2.138,20-2.275
	C815.436,150.406,801.382,153.94,793,157 M399,349c4.8-5.252,11.382-9.054,17-13.424c13.229-10.292,26.676-20.294,40-30.46
	c26.94-20.554,53.757-41.024,82-59.76c21.051-13.965,43.452-26.168,65-39.356c-3.849-0.641-7.496,2.047-11,3.576
	c-8.547,3.729-16.9,7.953-25,12.574c-31.914,18.209-64.059,37.538-94,58.85c-33.681,23.974-64.131,52.385-91.83,83
	c-12.252,13.541-22.881,28.642-35.26,42c-18.41,19.866-38.986,37.297-56.638,58c-37.475,43.948-67.144,93.756-89.284,147
	c-7.689,18.491-15.51,37.42-19.988,57l5-5c-0.608,29.515-8.045,58.078-12.919,87C167.6,776.59,166,803.077,166,830
	c3.137-7.471,2.258-17.922,3.429-26c2.434-16.806,5.634-33.646,10.166-50c7.86-28.366,18.645-56.067,27.921-84
	c3.845-11.576,8.732-23.106,11.484-35c0.742,4.389-0.36,8.598-0.834,13c-1.246,11.591-4.134,23.351-4.166,35
	c3.973-6.32,5.772-14.97,8.424-22c5.536-14.677,11.637-29.053,18.834-43c12.567-24.348,31.569-42.828,50.742-62
	c-2.628,15.52-7.234,32.531-13.427,47c-5.265,12.301-12.441,23.705-17.722,36c-10.707,24.929-19.113,51.605-25.349,78
	C208.218,832.498,220.128,957.626,252,1071c-5.492-6.93-9.942-15.59-17-21c6.234,26.95,18.553,53.38,28.8,79
	c19.093,47.73,41.4,94.76,70.921,137c26.742,38.27,59.09,72.16,94.279,102.72c25.827,22.431,53.139,43.82,82,62.23
	c22.014,14.04,47.234,25.26,64,46.05c-12.039,0-25.095,1.42-37-0.439c-10.375-1.621-19.857-6.211-30-8.561
	c3.831,3.17,8.678,5.11,13,7.58c13.221,7.56,27.177,13.38,41,19.73c17.304,7.939,33.984,19.629,52,25.689
	c-4.759,1.39-9.141,0.21-14,0c5.506,3.46,12.839,4.9,19,7c13.561,4.61,27.278,8.7,41,12.77c41.904,12.42,84.077,23.62,127,32.03
	c54.351,10.66,110.523,17.59,166,15.16c92.94-4.07,185.91-27.79,269-69.93c62.82-31.851,120.851-74.431,168.91-126.03
	c59.48-63.85,104.971-142.21,137.29-223c32.65-81.61,51.75-168.88,45.71-257c-3.29-48.078-15.79-101.993-56.91-131.842
	c-32.399-23.519-73.64-26.126-109-8.405c-15.899,7.967-30.77,18.792-36.64,36.247c-3,8.891-3.97,20.922-1.14,30
	c5.229,16.809,18.52,30.504,26.52,46c12.73,24.654,18.681,51.29,25.26,78c4.25-3.131,7.801-7.188,10-12h3
	c3.141,16.185,8.99,31.67,11.561,48c5.85,37.17,3.15,74.39-4.98,111c-3.02,13.57-7.26,26.91-11.89,40
	c-1.42,4.02-2.88,11.7-6.96,13.88c-4.73,2.53-14.43-0.84-19.73-0.88l1-11c-4.25,3.43-7.27,8.05-11.039,12
	c-8.78,9.189-17.971,18.01-26.961,27c4.591-17.76,7.5-35.65,13.69-53c4.87-13.63,9.601-27.23,14.06-41
	c2.551-7.9,5.521-15.65,6.25-24c-6.189,5.01-10.489,12.24-16,18v-11c-2.659,4.9-3.819,10.76-5.81,16c-4.82,12.71-9.67,25.4-14.79,38
	c-17.71,43.5-37.15,87.84-64.83,126c-17.79,24.54-39.71,46.77-62.57,66.58c-8.229,7.13-16.489,14.21-25,21.02
	c-4.649,3.721-10.899,7.28-14,12.4c12.431-4.55,24.221-13.73,35-21.28c25.53-17.87,48.931-38.6,69.83-61.72
	c9.771-10.811,17.67-23.17,27.341-34c7.04-7.87,15.659-14.37,23.829-21c-0.789,10.05,0.301,21.28-2.43,31
	c-6.25,22.27-21.16,42.16-35.37,60c-31.84,39.96-70.79,73.061-113.2,101.33c-66.14,44.1-141.92,78-220,93.859
	c-79.785,16.211-165.995,14.36-245-5.439c-31.953-8.01-62.799-17.54-93-30.89c-16.765-7.41-34.639-16.101-48.91-27.761
	c-9.296-7.59-16.55-18.81-24.09-28.1c8.627,1.97,17.202,3.88,26,5c-5.795-4.85-13.271-7.88-20-11.25
	c-10.5-5.25-20.873-10.811-31-16.76c-32.78-19.26-64.419-41.16-93-66.28c-29.134-25.6-52.746-57.19-73.691-89.71
	c-40.759-63.27-70.884-132.95-92.272-205c-28.294-95.307-32.938-198.903-11.612-296C308.551,584.185,406.202,442.925,535,358.003
	c89.824-59.225,196.041-91.588,303-98.914c53.521-3.665,108.109-1.662,161,7.235c55.28,9.299,109.671,29.583,160,53.935
	c26.4,12.775,52.32,26.54,77,42.434c14.48,9.326,28.08,20.809,43,29.308c-2.539-4.322-7.17-7.227-11-10.414
	c-7.77-6.46-15.869-12.477-24-18.47c-19.81-14.611-40.329-28.087-62-39.808c-22.81-12.339-46.479-22.124-64-42.309
	c17.53,0,35.271,0.88,52,6.516c24.851,8.374,47.5,24.2,69,38.828c7.03,4.786,13.61,10.446,21,14.656c-1.079-2.419-2.239-3.988-4-6
	c12.391,5.081,24.33,11.685,37,16c-4.199-5.845-10.409-10.126-16-14.6c-10.06-8.052-20.51-15.629-31-23.109
	c-18.25-13.015-36.529-26.244-56-37.419c-22.039-12.653-45.619-23.179-69-33.026c-69.489-29.265-142.768-45.512-218-48.807
	c-12.062-0.528-24.006,0.396-36,0.922c-45.489,1.992-90.615,8.441-135,18.804c-42.567,9.938-84.728,20.488-126,35.099
	c-42.271,14.965-82.411,34.466-122,55.355c-14.954,7.892-29.9,15.931-45,23.533C425.67,334.465,411.461,340.782,399,349z"/>
<path fill="#FFFFFF" d="M850,673l4,14c-7.219-4.019-14.196-9.065-19.956-15.015c-3.561-3.679-6.022-8.237-10.059-11.456
	c-9.482-7.563-21.546-12.048-31.985-18.059c-3.926-2.26-7.25-5.424-11-7.951c-7.851-5.291-21.228-9.088-18-20.52
	c-9.526-2.607-16.17-9.681-24-15.359c-5.051-3.662-10.526-6.149-14.961-10.655c-6.96-7.075-10.198-12.914-0.039-17.985
	c-2.82-5.738-9.151-8.606-15-10.655c-9.022-3.162-19.473-4.097-29-4.33c-5.845-0.144-12.291,0.839-18-0.625
	c-11.916-3.052-22.938-10.437-34-15.607c-6.072-2.84-12.721-4.037-19-6.326c-7.428-2.708-14.416-6.304-22-8.711
	c-23.474-7.448-46.871-6.604-71-4.834c-8.596,0.631-17.529,0.517-26,2.089c0.026,3.195-0.361,7.824,1.938,10.396
	c1.818,2.034,5.566,1.948,8.062,2.357c6.313,1.035,12.642,2.389,19,3.08c20.106,2.185,40.495,7.852,59,16.028
	c17.372,7.675,34.006,18.011,52,24.138c-3.678,11.503-8.237,24.071-10,36c-19.395-6.311-40.634-13.646-61-15.826
	c-14.031-1.503-28.886-0.174-43-0.174c-12.468,0-25.713-1.281-38,1c1.52,4.688,5.634,4.968,10,6.151
	c8.369,2.268,16.689,4.661,25,7.128c23.071,6.846,46.063,13.887,69,21.216c10.668,3.408,24.939,6.288,33.956,13.143
	c7.928,6.027,3.383,14.296,2.333,22.362c-0.475,3.658-0.091,7.359-0.754,11c-0.695,3.825-2.051,8.836-6.553,9.509
	c-4.296,0.642-9.732-1.853-13.982-2.589c-10.978-1.903-21.908-3.695-33-4.75c-30.099-2.865-60.996-1.542-91,0.83
	c6.649,5.468,18.763,6.556,27,8.734c24.779,6.554,50.856,9.718,76,14.816c9.026,1.83,18.195,4.069,27,6.789
	c2.699,0.834,7.35,1.268,8.884,3.975c1.233,2.178,0.255,5.332,0.155,7.686c-0.292,7.003-1.033,13.996-1.039,21
	c-14.448,0-28.619-1.926-43-2.911c-18.716-1.281-38.242-0.534-57-0.074c-18.402,0.45-36.642,4.196-55,4.985
	c4.16,2.858,10.077,2.933,15,3.753c10.576,1.762,21.342,3.269,32,4.413c22.63,2.431,45.577,5.19,68,9.084
	c11.862,2.06,24.04,5.773,36,6.75c0.777,4.017,4.411,7.941,4.164,12c-0.313,5.176-5.38,8.632-9.149,11.343
	c-2.291,1.648-4.518,4.059-7.185,5.068c-3.27,1.239-7.399,0.52-10.83,0.604c-6.214,0.152-12.863,0.746-19,1.739
	c-27.817,4.5-56.759,9.444-85,8.207c-13.433-0.589-26.889-3.255-40-5.961c11.729,12.095,32.157,14.258,48,16.155
	c36.643,4.387,74.11,5.845,111,5.845c-1.972,6.049-4.311,11.966-6.332,18c-0.882,2.626-1.591,6.349-4.087,7.968
	c-3.275,2.125-9.053,0.037-12.581-0.554c-9.989-1.676-19.964-3.036-30-4.414c-31.809-4.369-68.973-9.011-100,1.333
	c-7.187,2.396-13.441,5.927-20,9.666c-3.169,1.807-6.834,3.046-9,6.001c35.171,0,69.979,2.456,105,4.911
	c12.711,0.891,25.343,2.249,38,3.804c5.541,0.682,11.654,0.692,16.956,2.629c9.451,3.452,2.041,15.14,1.229,21.656
	c-0.629,5.057,0.889,10.731-3.413,14.567c-5.317,4.741-12.066,0.855-17.772-0.847c-13.178-3.931-27.36-4.696-41-5.632
	c-11.229-0.769-22.813,1.051-34,1.822c-25.176,1.733-50.413,5.776-75,11.592c-10.425,2.466-20.575,7.644-31,9.497
	c3.658,6.97,11.419,4.796,18,4.17c15.108-1.438,30.828-1.466,46-2.131c29.919-1.311,60.341-2.438,90,2.547
	c7.813,1.314,15.547,3.403,23,6.109c3.062,1.111,7.17,2.31,9.411,4.803c2.577,2.866,2.525,7.898,3.2,11.502
	c1.455,7.765,2.981,15.47,5.389,23c-16.021,0.33-31.898,2.666-48,1.961c-13.673-0.599-27.372-2.494-41-3.791
	c-24.721-2.353-50.169-3.17-75-3.17c2.497,4.247,6.853,6.505,11,9c7.095,4.267,14.38,8.311,22,11.573
	c33.448,14.316,71.852,20.606,108,15.847c6.668-0.87,13.375-1.15,20-2.42c4.51-0.87,10.425-2.92,15-2.2
	c11.786,1.86,19.53,15.41,20,26.2c-7.675,0.33-15.325,1.62-23,1.96c-42.486,1.86-85.468,0.04-128,0.04
	c3.606,2.57,7.803,2.65,12,3.76c9.978,2.62,19.859,5.09,30,7.04c36.929,7.13,75.364,13.2,113,13.2c0.829,10.42,3.893,20.79,6,31
	c-12.997,0.04-26.025,3.02-39,3.91c-20.962,1.439-42.051,0.74-63,2.18c-12.038,0.82-23.976,2.96-36,3.91
	c10.465,7.83,28.484,7.74,41,9.28c32.818,4.05,66.968,10.85,100,4.72c1.08,3.75,3.032,7.18,3.878,11
	c1.097,4.97,1.004,10.07,2.277,15c1.032,3.99,3.528,8.93,1.627,12.98c-2.401,5.13-7.778,6.439-12.782,7.47
	c-7.986,1.64-15.953,3.13-24,4.47c-25.25,4.21-50.608,7.641-76,10.8c-10.141,1.261-22.589,0.311-32,4.28
	c5.898,6.68,19.604,6.01,28,7.41c16.716,2.81,34.095,6.34,51,7.5c10.296,0.71,20.729-0.5,31-0.95c7.632-0.33,15.438-1.44,23-2.54
	c2.97-0.43,7.828-2.02,10.581-0.35c3.022,1.83,3.483,6.84,4.304,9.93c2.22,8.36,4.752,16.67,7.115,25
	c-20.017,4.14-38.979,12.53-59,16.79c-11.723,2.5-23.107,3.49-35,4.3c-7.707,0.53-15.254,1.5-23,0.49
	c-5.643-0.75-11.313-0.62-16.998-0.58c-2.199,0.02-5.278-0.35-6.822,1.6c-2.333,2.95-1.5,8.92,1.969,10.511
	c3.475,1.59,8.124,1.569,11.852,2.52c8.989,2.3,17.948,4.83,27,6.87c19.15,4.33,40.612,5.09,60,2.061
	c6.885-1.07,13.248-3.61,20-5.041c5.243-1.119,10.73-0.85,16-2.029c12.115-2.721,23.494-9.12,36-10.311
	c4.755-0.46,9.328,1.08,14,1.66c10.477,1.311,20.469,2.811,31,1.29c6.181-0.89,14.037-2.51,16-9.13c-9.614-5.05-5.495-10.92,1-16.95
	c4.157-3.85,9.137-5.239,14-7.91c8.254-4.54,14.779-9.75,24-12.14c-4.455-11.39,14.484-15.7,22-20.32
	c10.281-6.31,22.742-8.779,32.985-15.16c6.031-3.76,9.226-10.709,15.017-15.039c10.492-7.851,22.043-11.601,33.998-16.48
	c-0.007,2.58,0.252,5.46-0.741,7.91c-1.84,4.54-5.789,6.93-6.79,12.09c-1.574,8.12,0.005,16.78-0.558,25
	c-0.617,9.02-2.724,17.96-2.911,27l6-1c-0.044,10.439-4.919,16.78-8.527,26c-1.743,4.46-2.675,9.37-3.833,14
	c-0.936,3.74-5.752,12.88-0.64,14c-3.51,11.98,5.922,30.37,11.248,41c2.048,4.08,4.24,8.34,7.927,11.2
	c8.816,6.84,21.263,10.02,30.825,16.03c6.938,4.359,12.024,10.93,19,15.14c8.52,5.14,21.031,9.149,31,9.59
	c3.82,0.17,8.683,0.33,11.683-2.47c3.625-3.391,1.884-8.561,0.303-12.49c-2.495-6.2-6.565-11.76-8.853-18
	c-1.953-5.33-2.139-11.43-3.053-17c-2.993-18.25-3.909-36.61-5.169-55c-0.567-8.28-1.902-16.7-1.902-25c0-7.04,1.805-13.97,1.977-21
	c0.294-11.98-2.985-29.35,4.021-39.939c3.188-4.82,8.751-5.03,13.994-5.061c10.07-0.05,20.017,0.26,30-1.3
	c9.87-1.54,17.461-8.061,27-10.03c9.87-2.04,20.94,0.33,31,0.33c5.591,0,15.761-1.95,20.671,1.03c3.59,2.17,5.739,7.569,8,10.97
	c5.6,8.439,11.01,17.07,17.329,25c10.391,13.03,22.591,23.54,31.28,37.99c1.87,3.09,6.65,9.37,10.98,5.979
	c4.76-3.739-1.54-16.55-2.91-20.97c-6.09-19.52-6.9-40.811-4.351-61c38.601,0,72.66,21.3,110,29c-3.779-8.939-11.72-17.55-17.92-25
	c-16.39-19.71-35.72-36.8-56.08-52.35c-6.579-5.021-13.63-8.711-21-12.4c-4.069-2.04-9.67-4.12-11.97-8.34
	c-1.43-2.63-1.03-6.03-1.03-8.91c0-6.42,0.221-12.62,0.83-19c0.971-10.21,0.051-20.75,0.17-31c0.08-6.35,1-12.61,1-19
	c14.49-0.62,28.53-1.72,43,0.43c12.82,1.9,25.11,7.15,38,8.4c9.73,0.939,19.32-0.8,29-0.83c-1.76-9.11-9.34-16.814-16-22.83
	c-7.51-6.783-16-12.26-24-18.405c-10.819-8.305-20.52-17.135-33-22.982c-7.64-3.584-15.699-5.148-24-6.354
	c-3.729-0.542-8.439-0.006-9.68-4.486c-3.67-13.271-1.189-30.495,0.391-43.941c1.63-13.776,0.25-28.137,1.199-42
	c0.48-6.986,0.261-14.041,4.73-19.957c5.33-7.064,16.24-8.232,24.359-9.843c22.86-4.536,47.721-6.191,71-6.2
	c7.381-0.003,14.671-0.146,22,0.714c2.83,0.333,7.16,0.958,9.391-1.317c3.01-3.071,0.34-8.618-1.811-11.357
	c-5.85-7.448-15.22-13.151-22.58-19.039c-9.029-7.226-18-14.538-27-21.803c-5-4.04-9.949-9.133-16-11.583
	c-5.17-2.098-11.5-2.046-17-2.664c-12.689-1.425-24.31-1.495-37-0.95l-1-96c8.181-1.408,15.65-6.08,23-9.753
	c15.391-7.694,31.37-16.361,49-17.144c12.391-0.549,25.671,4.004,37,8.497c7.73,3.067,15.58,7.015,24,7.399
	c1.37-7.284,5.041-18.82,2.4-26c-2.96-8.021-13.58-14.847-19.31-21c-19.98-21.448-41.94-45.902-74.091-42.83
	c-3.17,0.303-6.84,0.57-9.829,1.684c-2.88,1.069-5.091,3.242-8.171,3.868c-6.13,1.244-12.029-0.484-18,2.184
	c-9.459,4.228-19,13.644-30,13.65c-4.6,0.002-8.539-4.092-12-6.683c-9.51-7.132-25.63-20.755-38-12.22
	c-1.76,1.216-3.39,2.726-4.77,4.361c-7.48,8.872,2.311,18.319,2.73,27.985c0.51,11.669-4.74,23.013-10.49,32.91
	c-2.42,4.166-6.91,6.468-9.96,10.129c-5.33,6.406-9.04,14.266-14.32,20.571c-1.99,2.373-5.51,3.134-7.16,5.779
	c-2.01,3.232-0.01,8.054-0.08,11.61c-0.12,5.471-2.1,10.698-5.479,14.985c-3.2,4.063-7.57,6.957-10.8,11.019
	c-3.5,4.395-5.841,9.836-9.86,13.787c-8.273,8.145-18.42,15.561-25.161,25.209c-4.829,6.911-5.005,16.182-7.653,24
	c-4.355,12.86-11.621,25.199-20.996,35c-8.168-64.634-17.892-129.2-24.834-194c-1.287-12.018-3.717-23.854-3.126-36
	c0.273-5.6,3.23-10.487,3.762-16c0.709-7.354-3.509-15.53-8.13-20.985c-7.045-8.316-18.557-12.685-26.656-20.185
	c-10.029-9.285-17.158-21.362-27.03-30.74C856.346,461.034,841.821,455.976,826,456c-9.828,0.015-20.211,2.792-26.441,11.015
	c-13.735,18.123,8.392,36.927,16.184,51.985c3.484,6.734,5.265,14.365,8.816,20.946c1.896,3.514,6.082,5.061,7.124,9.072
	c1.654,6.366-0.365,13.581-0.644,19.981c-0.316,7.308,0.972,14.85,2.41,22c1.558,7.74,3.751,15.504,6.223,23
	c1.293,3.925,3.578,7.884,4.101,12c0.298,2.346-0.43,4.578-0.338,6.896c0.123,3.121,2.841,4.594,4.138,7.207
	c3.271,6.596,4.276,14.942,7.029,21.896c0.9,2.274,3.219,6.102,2.042,8.593C855.698,672.596,851.855,672.536,850,673
	 M470.668,465.333c-0.444,0.444,0.61,0.389,0.666,0.334C471.778,465.222,470.722,465.278,470.668,465.333 M1306.671,484.333
	c-0.45,0.444,0.609,0.389,0.659,0.334C1307.78,484.223,1306.72,484.277,1306.671,484.333 M716,624
	c37.059,19.757,75.301,37.948,111,60.319c11.354,7.115,31.861,13.284,32,28.681c-26.319-10.209-53.114-19.787-79-30.873
	c-7.494-3.21-14.521-7.449-22-10.703c-8.812-3.834-17.827-8.748-27-11.585c-3.305-1.022-6.942,0.326-9.984-1.485
	c-4.475-2.662-14.104-12.728-13.441-18.354C708.144,635.163,713.594,628.388,716,624 M702,677c20.957,9.29,43.528,16.407,65,24.576
	c13.581,5.166,28.509,8.902,41,16.31c11.531,6.838,25.363,8.144,38,11.693c4.119,1.158,12.361,2.212,14.973,5.931
	c3.096,4.41,1.226,17.113-4.991,17.393c-10.395,0.466-21.888-5.052-31.981-7.24c-27.286-5.918-54.075-14.131-81-21.51
	c-9.256-2.537-18.03-5.313-27-8.729c-3.868-1.473-8.67-2.646-11.562-5.813c-4.411-4.83-1.028-17.324-1.531-23.61
	C702.658,682.892,701.359,680.04,702,677 M1072,711c0,17.16,6.25,34.934,3.791,52c-1.7,11.779-9.66,22.539-12.791,34
	c-1.88-0.176-3.199-0.438-5-1c2.48-1.925,1.301-4.099,1-7c-15.399,5.83-27.55,17.247-41,26.146c-4.02,2.661-8.92,3.33-13,5.848
	c-15.371,9.47-31.184,19.968-48,27.006c0-8.326-0.73-17.01,2.104-25c3.192-8.995,10.859-16.497,16.522-24
	c16.42-21.756,37.523-41.592,57.794-59.745c3.8-3.403,6.739-7.707,10.62-10.979c3.3-2.787,7.55-4.015,10.959-6.665
	C1060.631,717.232,1064.97,713.026,1072,711 M865,803c-39.899-5.152-79.212-15.822-118-26.116c-10.475-2.78-20.823-6.206-31-9.937
	c-5.018-1.84-11.063-3.847-14.562-8.132c-3.884-4.758-0.367-12.956-1.438-18.815c14.438,0,28.056,4.03,42,7.346
	c26.49,6.299,52.584,14.155,79,20.76c10.6,2.649,21.373,4.145,32,6.546c3.593,0.811,9.526,1.013,12.397,3.488
	c2.191,1.891,1.504,5.354,1.179,7.86C865.845,791.625,865.048,797.325,865,803 M870,839c-6.488,3.105-13.201,0.479-20-0.576
	c-12.316-1.91-24.652-3.358-37-5c-9.281-1.232-18.709-0.706-28-1.594c-15.401-1.472-30.743-5.04-46-7.583
	c-12.394-2.066-25.978-3.162-38-6.753c-12.385-3.699-23.063-14.352-35-19.494c8.919-4.005,24.222-6.656,34-5.826
	c8.42,0.714,16.731,3.372,25,5.026c18.319,3.664,36.955,7.092,55,11.951c12.115,3.263,23.804,7.9,36,10.954
	c9.625,2.408,19.28,4.879,29,6.892c4.869,1.008,11.326,1.188,15.701,3.655C863.914,832.463,867.09,836.539,870,839 M868,869
	c2.261,9.739,10.097,16.525,7,27c-42.046-7.834-84.615-12.486-127-18.572c-18.305-2.628-37.603-3.726-55-10.428
	c0.971-4.247,0.237-12.411,2.758-15.697c2.895-3.773,9.038-3.296,13.242-3.303c11.115-0.018,21.957,0.727,33,1.831
	c26.441,2.644,52.837,5.866,79,10.593C836.469,863.219,852.342,867.754,868,869 M1077,855c-0.199,4.746-1.579,9.278-1.909,14
	c-0.94,13.344-1.091,26.604-1.091,40c0,8.208,1.9,19.439-2.439,26.826c-3.98,6.758-14.37,10.174-21.561,11.824
	c-20.09,4.611-42.359,9.248-63,9.349c-6.599,0.032-20.287,4.768-25.262-0.652c-2.955-3.221-2.711-9.284-2.736-13.347
	c-0.053-8.13-0.334-16.926-1.287-25c-0.411-3.486-1.998-9.185,0.313-12.301c3.952-5.328,12.45-4,17.972-4.155
	c4.446-0.125,9.068-1.306,13-3.369c5.142-2.698,6.871-7.906,11.301-10.896c6.38-4.31,15.689-6.024,22.699-9.525
	C1039.56,869.479,1058.15,856.646,1077,855 M873,937c-17.838-0.002-35.239-4.701-53-5.911c-5.184-0.353-9.954,1.576-15,1.382
	c-14.022-0.537-28.011-2.423-42-3.382c-12.299-0.842-24.694-0.336-37-1.178c-14.688-1.007-29.32-2.752-44-3.911
	c3.581-6.01,4.906-11.11,5.87-18c0.415-2.971,0.33-7.695,3.444-9.258c3.202-1.607,8.21-0.742,11.686-0.742
	c9.797,0,19.261,1.31,29,1.975c32.985,2.254,66.389,7.991,99,13.271c8.293,1.343,16.67,2.46,25,3.624
	c4.081,0.57,9.282,0.787,12.772,3.219C873.802,921.596,872.996,931.564,873,937 M872,958c-0.06,2.465,0.115,5.349-1.741,7.271
	c-2.581,2.673-7.816,2.771-11.259,3.305c-9.297,1.441-18.671,2.494-28,3.706c-14.563,1.891-29.365,1.805-44,2.807
	c-17.595,1.206-35.371,3.181-53,3.652c-13.508,0.359-27.406-0.741-41-0.741c-0.359-5.375-3.051-8.527-5.75-13
	c-1.25-2.069-2.814-4.984-1.206-7.301c1.083-1.561,3.309-2.249,4.962-2.979c4.501-1.986,11.79-6.148,16.824-5.313
	c2.978,0.493,5.089,2.98,8.175,3.446c6.474,0.974,13.433,0.353,19.995,0.977c15.528,1.478,31.42-0.473,47,0.209
	C812.51,955.332,842.361,957.918,872,958 M1417,971l1,1L1417,971 M877,980c-1.206,6.503,1.541,19.656-3.652,24.4
	c-3.111,2.83-8.636,0.67-12.348,0.5c-9.511-0.45-19.535,1.319-29,2.27c-13.682,1.37-27.375,2.29-41,4.26
	c-9.086,1.311-17.935,4.221-27,5.41c-14.903,1.96-30.252,1.42-45,4.16c-0.897-5.82-5.152-8.78-8.891-13
	c-2.132-2.41-4.569-5.48-2.886-8.813c1.733-3.436,6.424-4.906,9.776-6.133c9.938-3.635,20.605-4.943,31-6.481
	C790.433,980.292,834.147,980,877,980 M1044,1010.29c6.53-0.79,20.641-2.59,25.851,2.03c4.74,4.21,2.29,10.26,2.16,15.68
	c-0.29,12.9,5.3,30.561-2.811,41.99c-4.51,6.34-12.08,9.42-19.2,11.84c-12.31,4.189-25.06,6.76-38,8c-13.625,1.3-28.53,0.46-42-1.75
	c-3.923-0.641-11.253-0.48-14.396-3.09c-3.442-2.86-0.653-11.141-0.607-14.99c0.144-12.04,0.639-24.01,0.99-36
	c0.115-3.92-0.446-11.28,2.617-14.26c5.191-5.04,18.02-0.19,24.396-0.49C1003.28,1018.28,1023.801,1012.7,1044,1010.29 M855,1035
	c-0.272,6.37-0.114,21.2-6.214,24.82c-2.521,1.5-5.963,1.229-8.786,1.6c-8.252,1.1-16.692,0.92-25,1.75
	c-27.743,2.77-55.216,8.4-83,10.83c-8.019,0.7-15.969,1.57-24,2.09c-3.503,0.221-7.439,1.18-10.682-0.74
	c-2.597-1.55-2.256-4.77-2.926-7.35c-1.49-5.75-3.798-10.48,2.652-14c5.459-2.99,11.955-3.939,17.955-5.21
	c10.907-2.32,21.948-4.271,33-5.79c14.246-1.96,28.657-3.91,43-4.91C812.309,1036.6,833.616,1035,855,1035 M702,1137
	c2.104-7.48,1.063-13.42,0.155-21c-0.397-3.33-1.625-7.72,1.179-10.3c2.718-2.5,7.219-3.09,10.666-3.931
	c7.072-1.729,13.794-3.09,21-4.06c26.34-3.55,52.47-8.66,79-10.8c8.019-0.641,15.97-2.311,24-2.82
	c3.495-0.22,7.646-0.21,9.687,3.141c1.926,3.159,4.91,13.93,0.992,16.26c-3.398,2.02-8.837,2.109-12.679,2.64
	c-8.963,1.25-18.197,1.271-27,3.63c-4.934,1.32-9.134,4.33-14,5.7c-20.303,5.72-41.422,10.44-62,15.19
	C722.825,1133,712.493,1136.55,702,1137 M851,1125c-0.009,2.59,0.279,5.54-1.027,7.9c-1.647,2.96-5.156,4.489-7.973,6.1
	c-6.474,3.71-13.253,7.03-20,10.22c-19.745,9.33-39.97,17.521-60,26.2c-13.757,5.97-29.025,13.561-44,15.58
	c-0.832-6.27-6.477-10.061-7.512-16c-1.211-6.96,10.684-16.36,16.512-18c3.18,2.85,6.089,1.71,10,0.58
	c7.328-2.13,14.758-4.19,22-6.58C789.087,1141.061,819.883,1131.42,851,1125 M859,1265c-2.052,0.87-3.746,0.95-6,1
	C855.052,1265.13,856.747,1265.05,859,1265 M1274,2010c-7.029-5.89-15.729-9.92-23-15.67c-13.67-10.8-26.01-23.66-36.789-37.33
	c-4.08-5.17-7.92-10.5-11.54-16c-1.301-1.97-3.46-4.45-3.36-6.96c0.18-4.92,10.37-10.04,13.689-13.13
	c11.761-10.93,21.87-23.04,29.99-36.91c27.4-46.84,23.11-112.14-3.85-158c-14.83-25.23-38.24-46.07-65.141-57.57
	c-52.89-22.619-120.609-10.55-163,27.74c-57.655,52.08-62.886,148.13-15.331,208.83c22.542,28.77,57.252,50.3,94.331,52.91
	c12.211,0.859,23.791,1.15,36-0.08c4.99-0.5,12.291-3.34,17-0.94c3.87,1.971,6.98,6.091,10,9.11c6.07,6.07,12.23,12.03,19,17.33
	C1201.131,2006.15,1237.301,2021.74,1274,2010 M1531,1889c-9.75,4.12-17.659,12.561-27,17.689c-23.25,12.78-51.369,19.7-78,15.881
	c-39.13-5.601-67.88-37.631-78.42-74.57c-14.13-49.52-1.399-108.12,42.42-138.79c31.041-21.729,71.091-19.38,105-6.149
	c9.91,3.869,18.181,11.22,28,14.939v-33c0-3.84,1.2-10.23-1.029-13.58c-1.65-2.49-5.32-3.2-7.971-4.09c-6.52-2.17-13.3-3.9-20-5.44
	c-29.38-6.77-65.14-6.88-94,2.29c-59.939,19.04-101.63,73.26-105.909,135.82c-1.79,26.12,1.239,53.03,12.22,77
	c25.73,56.189,86.31,86.939,146.689,81.17c19.82-1.89,37.341-5.38,56-12.49c5.33-2.02,15.78-5.069,18.971-10.069
	c2.32-3.641,1.01-10.471,1.029-14.61C1529.051,1910.71,1529.12,1899.11,1531,1889 M211,1662c0.411,8.99,3.783,18.16,5.551,27
	c1.899,9.49,2.7,19.36,3.359,29c2.248,32.83,1.09,66.07,1.09,99c0,27.82,1.464,56.32-1.17,84c-1.711,17.98-6.437,35.25-8.83,53
	c53.391,0,110.27,5.34,158-23.45c20.339-12.27,37.942-30.229,48.63-51.55c10.504-20.96,14.37-43.8,14.37-67
	c0-44.28-14.882-86.18-51-114.11C331.519,1659.62,270.173,1662,211,1662 M459,1662c6.107,8.93,13.984,16.71,20.921,25
	c2.798,3.35,6.949,6.84,8.477,11c2.367,6.45,0.603,16.18,0.603,23v50v81c0,34.67-0.528,68.38-10,102h65
	c-2.593-11.311-6.155-22.45-7.711-34c-3.516-26.1-3.289-52.7-3.289-79v-90c13.536,11.83,24.021,29.09,35.425,43
	c12.797,15.61,25.454,31.34,38.187,47c7.492,9.22,15.688,18.2,22.389,28h2c16.654-23.17,34.811-45.32,52.116-68
	c14.474-18.97,28.274-38.96,43.884-57c0,50.8,2.38,102.35-1.089,153c-0.73,10.66-1.687,21.49-3.714,32
	c-1.591,8.24-4.471,16.67-5.197,25h64c-3.452-16.73-7.204-32.939-8.829-50c-3.017-31.67-1.171-64.18-1.171-96
	c0-35.46-4.536-74.64,5.771-109c4.028-13.43,11.721-24.77,18.229-37h-62c-3.754,18.14-16.14,31.74-27.118,46
	c-15.768,20.47-31.829,40.75-47.885,61c-8.288,10.45-19.038,21.04-24.997,33c-11.44-8.23-20.214-23.02-29-34
	c-17.145-21.43-34.64-42.58-51.8-64c-9.828-12.27-23.438-25.32-24.2-42H459 M1096,1693.29c9.041-1.11,19.041-0.69,28,0.79
	c64.07,10.59,95.291,79.35,88.16,138.92c-3.949,32.93-22.08,66.4-53.16,81.11c-9.569,4.529-19.489,7.35-30,8.6
	c-11.689,1.4-24.569,0.76-36-1.95c-91.72-21.71-113.312-174.72-28-218C1074.671,1697.85,1085.22,1694.61,1096,1693.29 M265,1922
	v-228c28.749,0,57.432,4.98,80,24.3c51.721,44.271,58.143,140.49-1,181.66C320.517,1916.311,293.158,1922,265,1922z"/>
<path fill="#FF0000" d="M868,1731c-10.432,19.83-19.883,40.16-30.297,60l-9.925,19c-1.562,3.01-3.954,6.54-4.175,10
	c-0.203,3.2,1.779,6.25,3.15,9c2.824,5.67,5.612,11.36,8.505,17c10.875,21.2,20.734,43.43,32.741,64
	c5.688-5.63,8.773-14.91,12.425-22c7.528-14.63,14.972-29.29,22.329-44c3.187-6.37,11.105-16.73,10.644-24
	c-0.488-7.66-7.751-17.2-11.15-24c-7.201-14.4-14.8-28.6-22-43C876.682,1745.87,873.696,1736.64,868,1731z"/>
</svg>
