<?xml version="1.0" encoding="utf-8"?>
<!-- Generator: Adobe Illustrator 16.0.0, SVG Export Plug-In . SVG Version: 6.00 Build 0)  -->
<!DOCTYPE svg PUBLIC "-//W3C//DTD SVG 1.1//EN" "http://www.w3.org/Graphics/SVG/1.1/DTD/svg11.dtd">
<svg version="1.1" id="Capa_1" xmlns="http://www.w3.org/2000/svg" xmlns:xlink="http://www.w3.org/1999/xlink" x="0px" y="0px"
	 width="127.118px" height="125.531px" viewBox="0 0 127.118 125.531" enable-background="new 0 0 127.118 125.531"
	 xml:space="preserve">
    <path fill-rule="evenodd" clip-rule="evenodd" fill="#04c2a0" d="M46.716,71.894l5.649,0.081c-0.213,1.228-2.531,6.415-3.192,7.991l-3.252,8.051
	c0.986-0.715,7.155-8.924,8.55-10.68c1.094-1.376,8.097-9.986,8.279-10.689l-6.307-0.036c0.674-3.036,5.102-10.511,5.133-12.247
	l-8.225-0.028L46.716,71.894z M55.953,7.529c-1.354,0.246-2.256,1.482-2.015,2.761c0.241,1.28,1.535,2.118,2.889,1.873
	c1.354-0.246,2.256-1.482,2.015-2.762C58.601,8.122,57.307,7.284,55.953,7.529z M42.125,67.617
	c-2.177,5.177-3.058,10.436-2.883,15.626c-1.63,10.021,9.323,32,20.488,40.176c-7.883-32.938-1.278-43.377,8.799-41.778
	c4.951,0.785,23.084,10.85,34.382,6.986l8.099-13.704c-1.333,0.297-16.486-3.465-19.064-4.041c2.503-0.14,20.432-0.86,21.276-1.343
	l11.896-18.863c-0.962,0.623-26.762,6.734-29.394,7.321l-0.131-0.56c2.74-2.274,25.415-9.949,29.463-15.328l-9.776-13.425
	c-1.614,0.181-8.022,9.965-14.302,12.035c3.034-4.792,11.353-12.455,11.695-18.48c0.189-3.31-7.75-17.816-10.643-19.577
	c2.066,19.331-11.288,43.215-34.058,47.987C70.024,38.404,80.617,0.862,56.297,2.027c-5.509,0.264-9.168,5.456-8.614,10.143
	l-6.295,1.141c-0.927,0.168-1.545,1.045-1.375,1.949l0.046,0.246c0.17,0.904,1.068,1.506,1.995,1.338l6.878-1.247
	c1.842,2.813,5.415,4.512,9.309,4.265C66.84,29.526,46.744,56.632,42.125,67.617z M25.646,41.53
	c-8.408-4.668-13.711-11.963-15.091-12.673L0,42.496c4.489,5.556,26.656,12.267,30.067,14.967l-0.126,0.542
	c-2.608-0.579-29.038-6.629-29.939-7.31c0.385,1.792,11.784,18.672,12.523,18.959l20.847,1.065l-18.858,4.293l8.529,13.471
	c4.224-0.384,8.37-1.518,12.091-2.97c-0.06-0.713-0.102-1.427-0.126-2.142c-0.194-5.758,0.783-11.591,3.198-17.336
	c2.09-4.97,4.667-9.144,7.249-13.326l-0.006-0.003c1.168-1.893,2.338-3.788,3.456-5.75c-2.718-1.825-7.091-3.506-10.55-6.155
	c-2.963-2.269-6.396-6.419-8.368-9.565c-6.738-10.751-5.693-17.117-6.382-28.847c-2.476,4.108-11.481,15.604-10.55,20.32
	C14.066,27.831,21.69,37.984,25.646,41.53z M63.769,87.017c-7.54,5.66,0.095,37.179,0.727,38.515L85.849,104.7l-15.543-9.229
	c3.337,2.134,15.311,3.701,20.338,5.262l8.377-7.214C78.695,93.05,69.737,82.536,63.769,87.017z M27.028,93.198l11.782,10.356
	l1.089-0.976c-0.193-0.392-0.373-0.771-0.538-1.141c-1.562-3.498-2.751-7.108-3.493-10.786
	C32.675,92.177,29.589,93.181,27.028,93.198z"/>
</svg>
