<?xml version="1.0" encoding="utf-8"?>
<!-- Generator: Adobe Illustrator 16.0.0, SVG Export Plug-In . SVG Version: 6.00 Build 0)  -->
<!DOCTYPE svg PUBLIC "-//W3C//DTD SVG 1.1//EN" "http://www.w3.org/Graphics/SVG/1.1/DTD/svg11.dtd">
<svg version="1.1" id="Capa_1" xmlns="http://www.w3.org/2000/svg" xmlns:xlink="http://www.w3.org/1999/xlink" x="0px" y="0px"
	 width="127.118px" height="125.531px" viewBox="0 0 127.118 125.531" enable-background="new 0 0 127.118 125.531"
	 xml:space="preserve">
    <path fill-rule="evenodd" clip-rule="evenodd" fill="#89c0d3" d="M65.654,7.536c-1.372,0-2.484,1.076-2.484,2.403c0,1.328,1.112,2.403,2.484,2.403
	s2.485-1.076,2.485-2.403C68.14,8.612,67.026,7.536,65.654,7.536 M27.418,95.39c11.145,10.028,22.07,19.875,33.047,30.129
	l0.418-39.578c-2.808-1.422-6.257-3.497-7.366-5.229C47.759,85.981,35.178,95.334,27.418,95.39z M0.836,52.865
	c3.76,7.489,15.591,26.367,22.611,37.716c13.383-1.246,25.987-10.216,26.651-12.84c-2.163-5.939-4.439-6.475-4.337-14.389
	L0.836,52.865z M0,44.531c0.05,0.063,42.771,14.462,45.958,15.55c0.533-4.553,2.063-6.718,3.856-11.426
	c-2.627-2.036-7.396-3.802-11.109-6.712C25.248,31.394,24.893,18.196,24.008,2.758L0,44.531z M83.27,62.439
	c-2.357,0.469-4.945,1.023-7.799,1.675l-0.747-2.587c1.549-0.527,3.019-1.035,4.428-1.525l0.01,0.079
	c3.186-1.088,45.907-15.486,45.957-15.55L101.111,2.758c-0.886,15.438-1.24,28.636-14.697,39.184
	c-3.337,2.615-7.527,4.307-10.249,6.101c-1.743,0.613-4.222,1.846-5.063,1.996l-0.148-0.05c-0.651-2.725,5.601-13.021,8.73-26.806
	c1.879-8.272-3.123-19.81-12.675-21.103c-5.446-0.737-9.991,3.805-10.315,8.607h-6.379c-0.939,0-1.708,0.767-1.708,1.705v0.255
	c0,0.938,0.768,1.705,1.708,1.705h6.971c1.285,3.158,4.471,5.51,8.333,5.971c4.623,7.839-10.873,27.096-11.739,28.547
	c-2.779,3.544-4.433,7.988-4.433,12.813c0,1.961,0.273,3.859,0.785,5.659c1,3.886,3.129,7.414,6.435,10.221
	c7.858,6.674,9.43,2.392,15.171-2.258c1.522,3.059,16.858,14.067,29.837,15.276c7.02-11.35,18.851-30.227,22.61-37.716L83.27,62.439
	z M65.822,85.557c-0.165,3.57-0.652,38.611-0.023,39.975c33.664-31.53,8.259-7.795,33.358-30.105
	c-1.125-1.217-13.391-2.942-26.24-14.244L65.822,85.557z"/>
</svg>
