<?xml version="1.0" encoding="utf-8"?>
<!-- Generator: Adobe Illustrator 16.0.0, SVG Export Plug-In . SVG Version: 6.00 Build 0)  -->
<!DOCTYPE svg PUBLIC "-//W3C//DTD SVG 1.1//EN" "http://www.w3.org/Graphics/SVG/1.1/DTD/svg11.dtd">
<svg version="1.1" id="Capa_1" xmlns="http://www.w3.org/2000/svg" xmlns:xlink="http://www.w3.org/1999/xlink" x="0px" y="0px"
	 width="127.117px" height="124.761px" viewBox="0 0 127.117 124.761" enable-background="new 0 0 127.117 124.761"
	 xml:space="preserve">
    <path fill-rule="evenodd" clip-rule="evenodd" fill="#ffffff" d="M84.16,52.758c4.048-2.695,36.52-4.246,40.957-9.848l-10.554-13.913
	c-1.381,0.724-6.684,8.167-15.092,12.928c3.955-3.618,11.579-13.975,12.59-19.198c0.932-4.811-8.073-16.537-10.549-20.728
	c-0.684,11.868-2.58,37.476-26.748,43.179c0.954,0.473-1.03,6.448,2.087,8.351C79.084,54.893,81.735,53.274,84.16,52.758
	 M64.925,124.761l17.494-16.285c-0.996-1.236-6.617-8.253-8.184-9.389c-1.502,0.613-4.23,1.589-6.121,1.806L64.925,124.761z
	 M76.854,95.757l9.453,9.439L98.09,94.632c-2.214-0.016-10.396-1.35-11.287-1.813C82.757,91.811,77.309,88.72,76.854,95.757z
	 M87.893,87.16c2.169,3.782,11.597,5.434,14.183,2.662l8.528-13.74c-2.041-0.094-16.63-0.812-18.615-0.462
	C77.979,78.174,88.079,84.978,87.893,87.16z M91.387,69.036l21.206,1.579c0.739-0.293,12.139-17.512,12.522-19.34
	c-1.901,1.464-34.326,2.193-36.688,6.282c0.077,1.048-7.717,7.554-0.571,10.191C88.955,68.153,90.226,68.643,91.387,69.036z
	 M40.957,52.758C36.91,50.063,4.438,48.512,0,42.91l10.554-13.913c1.38,0.724,6.684,8.167,15.091,12.928
	c-3.955-3.618-11.579-13.975-12.59-19.198C12.124,17.917,21.129,6.191,23.605,2c0.683,11.868,2.579,37.476,26.748,43.179
	c-0.954,0.473,1.031,6.448-2.087,8.351C46.034,54.893,43.382,53.274,40.957,52.758z M60.192,124.761l-17.494-16.285
	c0.996-1.236,6.618-8.253,8.184-9.389c1.502,0.613,4.231,1.589,6.121,1.806L60.192,124.761z M48.262,95.757l-9.453,9.439
	L27.028,94.632c2.213-0.016,10.396-1.35,11.286-1.813C42.361,91.811,47.809,88.72,48.262,95.757z M37.225,87.16
	c-2.169,3.782-11.597,5.434-14.183,2.662l-8.529-13.74c2.042-0.094,16.631-0.812,18.616-0.462
	C47.138,78.174,37.038,84.978,37.225,87.16z M33.73,69.036l-21.206,1.579c-0.739-0.293-12.138-17.512-12.523-19.34
	c1.902,1.464,34.327,2.193,36.689,6.282c-0.077,1.048,7.717,7.554,0.572,10.191C36.163,68.153,34.892,68.643,33.73,69.036z
	 M69.503,43.552c-1.012-2.866-1.05-17.63,0.528-22.704c2.608-8.391,2.306-4.085,2.306-9.151c0-5.618-4.74-9.874-10.346-9.692
	c-3.587,0.117-6.704,1.928-8.342,4.7c-0.365,0.567-0.645,1.184-0.821,1.823c-0.193,0.602-0.321,1.223-0.374,1.854l-6.32-0.105
	c-0.931-0.016-1.705,0.729-1.72,1.655l-0.004,0.252c-0.016,0.926,0.733,1.696,1.664,1.711l6.905,0.115
	c1.737,6.573,6.921,5.407,7.194,8.878c1.074,10.164-1.321,16.337-3.987,20.982c1.686,1.556,2.945,4.913,5.641,5.208
	c0.485,0.053,0.979,0.052,1.464,0C65.686,48.822,68.069,45.229,69.503,43.552z M61.383,7.421c-1.359-0.023-2.479,1.021-2.501,2.331
	c-0.022,1.311,1.063,2.392,2.422,2.415c1.359,0.022,2.479-1.021,2.501-2.333C63.827,8.524,62.743,7.443,61.383,7.421z M60.973,86.81
	c-1.934-0.173-3.782-0.66-5.489-1.412l-0.828,1.433l1.093,0.631c0.345,0.2,0.463,0.644,0.263,0.988l-0.545,0.943
	c-0.2,0.346-0.643,0.464-0.988,0.264l-4.375-2.527c-0.345-0.198-0.464-0.64-0.266-0.985l0.544-0.943
	c0.198-0.346,0.64-0.465,0.986-0.267l1.092,0.631l0.782-1.355c-4.808-3.012-8.07-8.292-8.247-14.39
	c-0.281-9.7,7.354-17.791,17.054-18.071c9.7-0.281,17.791,7.354,18.071,17.055c0.188,6.461-3.139,12.208-8.248,15.408l0.782,1.354
	l1.093-0.632c0.346-0.198,0.787-0.079,0.985,0.267l0.545,0.943c0.198,0.346,0.079,0.787-0.267,0.985l-4.374,2.527
	c-0.346,0.2-0.788,0.082-0.988-0.264l-0.545-0.943c-0.2-0.345-0.082-0.788,0.264-0.988l1.093-0.631l-0.828-1.433
	c-1.702,0.75-3.549,1.237-5.489,1.411v4.458h2.405c0.4,0,0.726,0.324,0.726,0.725v1.721c0,0.399-0.325,0.725-0.726,0.725h-7.981
	c-0.4,0-0.725-0.325-0.725-0.725v-1.721c0-0.4,0.325-0.725,0.725-0.725h2.405V86.81z M63.463,56.659
	c-0.181-1.142-1.837-1.145-2.019-0.005c-0.022,0-0.012,8.653-0.012,9.452c-1.476,0.461-2.546,1.839-2.546,3.466
	c0,2.006,1.625,3.631,3.63,3.631c1.608,0,2.972-1.045,3.449-2.492h7.923h0.005h0.005c0.552,0,1.018-0.444,1.018-1.022
	c0-0.574-0.466-1.021-1.015-1.021h-0.008h-0.008h-7.852c-0.323-1.26-1.306-2.255-2.558-2.597
	C63.476,65.273,63.486,56.659,63.463,56.659z"/>
</svg>
