<?xml version="1.0" encoding="utf-8"?>
<!-- Generator: Adobe Illustrator 16.0.0, SVG Export Plug-In . SVG Version: 6.00 Build 0)  -->
<!DOCTYPE svg PUBLIC "-//W3C//DTD SVG 1.1//EN" "http://www.w3.org/Graphics/SVG/1.1/DTD/svg11.dtd">
<svg version="1.1" id="Capa_1" xmlns="http://www.w3.org/2000/svg" xmlns:xlink="http://www.w3.org/1999/xlink" x="0px" y="0px"
	 width="127.118px" height="125.531px" viewBox="0 0 127.118 125.531" enable-background="new 0 0 127.118 125.531"
	 xml:space="preserve">
    <path fill-rule="evenodd" clip-rule="evenodd" fill="#3d3d3d" d="M65.399,7.536c-1.377,0-2.494,1.076-2.494,2.403c0,1.328,1.117,2.403,2.494,2.403
	s2.493-1.076,2.493-2.403C67.893,8.612,66.776,7.536,65.399,7.536 M39.318,31.047c6.793,0,12.3,5.137,12.3,11.475
	c0,6.104-6.049,11.038-6.182,20.8c-0.108,7.943,2.179,8.473,4.352,14.419c-0.666,2.624-13.314,11.594-26.745,12.84L14.513,76.84
	l18.858-4.38l-20.847-1.086C11.785,71.08,0.386,53.862,0.001,52.033c0.901,0.694,27.332,6.866,29.939,7.456l0.126-0.553
	C26.656,56.182,4.489,49.335,0,43.668l10.554-13.913c1.38,0.725,6.684,8.167,15.091,12.928c-3.955-3.618-11.579-13.975-12.59-19.197
	c-0.931-4.811,8.074-16.538,10.55-20.728c0.688,11.965-0.356,18.458,6.382,29.426c0.345,0.562,0.734,1.154,1.159,1.763
	C33.318,32.143,36.181,31.047,39.318,31.047z M27.028,95.39c7.787-0.056,20.413-9.408,26.192-14.679
	c1.113,1.732,4.574,3.808,7.392,5.229l-0.42,39.578C52.974,110.78,44.001,101.107,27.028,95.39z M65.544,125.531
	c-0.631-1.363-0.143-36.404,0.023-39.975l7.12-4.375c12.896,11.302,25.204,13.027,26.333,14.244
	C84.416,99.248,73.841,110.295,65.544,125.531z M72.739,74.426c14.839,11.16,17.372,12.093,30.173,16.301l8.099-13.979
	c-1.333,0.303-16.486-3.534-19.064-4.122c2.503-0.143,20.432-0.878,21.276-1.37l11.896-19.242
	c-0.962,0.635-26.762,6.869-29.394,7.468l-0.131-0.571c2.74-2.319,25.415-10.149,29.463-15.636L115.28,29.58
	c-1.614,0.185-8.022,10.165-14.302,12.276c3.034-4.888,11.353-12.705,11.695-18.852c0.189-3.376-7.75-18.174-10.643-19.97
	c0.551,13.932-3.842,29.025-13.853,38.396c-1.563-0.671-3.305-0.957-5.136-1.046c-9.185-0.45-12.284,9.617-12.326,9.603
	c-0.654-2.725,5.62-13.021,8.762-26.806c1.885-8.272-3.135-19.81-12.72-21.103c-5.466-0.737-10.027,3.805-10.352,8.607h-6.402
	c-0.942,0-1.714,0.767-1.714,1.705v0.255c0,0.938,0.771,1.705,1.714,1.705H57c1.29,3.158,4.487,5.51,8.363,5.971
	c4.64,7.839-10.912,27.096-11.781,28.547c-2.789,3.544-4.449,7.988-4.449,12.813c0,1.961,0.274,3.859,0.787,5.659
	c1.004,3.886,3.14,7.414,6.458,10.221C64.759,84.655,66.013,79.372,72.739,74.426z"/>
</svg>
