<?xml version="1.0" encoding="utf-8"?>
<!-- Generator: Adobe Illustrator 16.0.0, SVG Export Plug-In . SVG Version: 6.00 Build 0)  -->
<!DOCTYPE svg PUBLIC "-//W3C//DTD SVG 1.1//EN" "http://www.w3.org/Graphics/SVG/1.1/DTD/svg11.dtd">
<svg version="1.1" id="Capa_1" xmlns="http://www.w3.org/2000/svg" xmlns:xlink="http://www.w3.org/1999/xlink" x="0px" y="0px"
	 width="126.771px" height="124.928px" viewBox="0 0 126.771 124.928" enable-background="new 0 0 126.771 124.928"
	 xml:space="preserve">
    <path fill-rule="evenodd" clip-rule="evenodd" fill="#5d4776" d="M64.21,91.2l-0.013,33.6l17.825-15.673c-0.464-1.7-8.268-13.281-10.006-16.635
	c2.688,1.851,12.611,11.909,14.472,12.919l6.073-5.104c1.217-1.13,1.787-1.527,2.864-2.601c0.983-0.979,2.334-1.456,2.922-2.86
	c-3.827-1.816-7.592-2.079-14.549-5.813c-2.342-1.257-4.295-2.483-6.224-3.813L71.6,80.737c-1.472,0.396-4.179,2.609-5.507,3.437
	C63.526,85.771,64.213,85.949,64.21,91.2 M25.439,72.405l16.934,0.153l-8.259-18.763C32.509,55.283,25.682,70.371,25.439,72.405z
	 M25.652,41.956c-8.41-4.763-13.715-12.208-15.095-12.932L0,42.94l18.455,12.145L2.824,56.771l20.225,33.095
	c13.435-1.246,26.087-10.218,26.752-12.843c-4.464-7.81-7.884-15.367-5.477-24.067l-8.404-0.137
	c1.3,5.608,6.044,12.717,8.016,18.288c3.605,10.189-14.694,17.702-20.049,5.17c-1.835-4.294,2.942-11.537,5.666-17.797
	c2.082-4.785,2.829-8.384,3.193-9.214l12.925,0.008c0.313-0.689,0.665-1.387,1.056-2.093c-2.637-2.036-4.634-3.055-8.361-5.966
	c-2.964-2.315-6.398-6.55-8.37-9.76c-6.74-10.97-5.695-17.465-6.384-29.434C21.135,6.211,12.127,17.94,13.059,22.753
	C14.07,27.977,21.696,38.336,25.652,41.956z M68.956,6.421l0.179-0.092l3.552-1.821l3.169,2.081L68.956,6.421z M68.459,6.391
	c-2.404-0.925-5.004-1.214-7.461-0.891c-4.228,0.321-8.051,1.48-10.589,4.177c-1.828,1.942-2.626,4.405-2.551,6.787L68.459,6.391z
	 M47.175,53.002c-0.55,1.59-0.896,3.36-0.981,5.375c-0.464,11.039,7.498,18.932,13.571,23.089l0.279,0.191l0.059-28.444
	L47.175,53.002z M65.772,16.189c5.521,0.97,3.82,8.702,1.808,12.676c-4.958,9.787-13.993,13.322-18.577,20.41l42.954,0.027
	c0.6,1.299,0.697,3.367,1.531,5.198c0.692,1.52,1.288,2.846,1.976,4.317c3.413,7.301,7.852,13.84,4.938,18.748
	c-1.598,2.688-4.333,4.892-7.901,5.245c-7.116,0.705-14.759-5.847-11.418-12.595c1.913-3.863,7.11-13.581,7.919-17.601
	l-24.758,0.943l0.084,28.061c0.381-0.255,0.819-0.56,1.335-0.915c3.44-2.377,7.01-5.532,9.026-9.2
	c1.165-2.118,2.137-3.937,2.855-6.305c0.337,2.129,0.047,4.281-0.486,6.206c-0.556,2.01-1.784,3.484-2.142,4.979
	c1.71,1.029,3.806,2.87,5.769,4.216c5.229,3.586,16.477,8.99,21.993,9.247l17.005-32.164l-13.667-3.307l18.756-11.788
	c-0.943-2.188-8.081-10.916-9.953-13.988c-1.197,0.577-7.644,7.326-11.241,10.112c-1.292,1-3.191,1.947-4.16,2.772l6.911-8.529
	c1.636-2.224,4.92-6.962,5.539-10.272c0.622-3.324-2.752-8.939-4.134-11.368c-1.056-1.854-5.141-8.489-6.511-9.315
	c-0.979,11.902-0.189,18.506-7.281,30.116c-2.388,3.909-5.395,7.386-8.569,9.961c-2.315,1.879-8.465,6.075-12.253,6.602
	c-4.663-4.483,0.072-9.527,1.939-14.152c6.461-16.009,1.005-25.091-6.402-28.061C62.7,11.979,56.83,17.414,50.899,22.903
	l-0.355-0.142c0.071,0.069,0.143,0.137,0.217,0.204l-3.911,4.966c-0.576,0.731-0.452,1.798,0.276,2.371l0.198,0.156
	c0.727,0.573,1.793,0.444,2.369-0.288l4.273-5.426c10.944,2.351,12.543-5.066,11.811-8.53L65.772,16.189z M82.268,72.524
	l17.226-0.04c-0.508-2.615-6.987-17.054-8.697-18.696C89.236,57.332,82.751,69.726,82.268,72.524z M68.486,6.158l-0.45-2.55
	l3.319-1.481L68.486,6.158z M25.729,95.15c2.023,1.872,10.887,9.81,12.146,10.364l10.315-9.466c1.008-0.947,2.426-2.432,3.717-3.109
	c-0.944,2.828-9.016,13.827-9.743,16.188l13.318,11.868c0.952,0.875,3.759,3.578,4.554,3.933l0.006-39.576
	c-1.488-0.949-5.851-4.163-7.279-4.582c-1.016,0.659-1.942,1.54-2.936,2.328c-6.106,4.845-14.57,8.976-22.175,11.231
	c-0.232,0.068-0.723,0.202-0.937,0.284L25.729,95.15z"/>
</svg>
