<?xml version="1.0" encoding="utf-8"?>
<!-- Generator: Adobe Illustrator 16.0.0, SVG Export Plug-In . SVG Version: 6.00 Build 0)  -->
<!DOCTYPE svg PUBLIC "-//W3C//DTD SVG 1.1//EN" "http://www.w3.org/Graphics/SVG/1.1/DTD/svg11.dtd">
<svg version="1.1" id="Capa_1" xmlns="http://www.w3.org/2000/svg" xmlns:xlink="http://www.w3.org/1999/xlink" x="0px" y="0px"
	 width="128.396px" height="125.974px" viewBox="0 0 128.396 125.974" enable-background="new 0 0 128.396 125.974"
	 xml:space="preserve">
    <path fill-rule="evenodd" clip-rule="evenodd" fill="#fe8d0d" d="M69.017,14.327c-1.025-1.246-2.83-1.456-4.031-0.468
	c-1.202,0.989-1.345,2.799-0.32,4.046c1.024,1.246,2.83,1.456,4.032,0.468C69.897,17.385,70.041,15.573,69.017,14.327 M24.498,42.86
	c-3.099-1.792-5.135-3.355-7.511-5.592c-1.238-1.165-5.869-6.401-6.803-6.816c-1.243,1.063-3.945,5.198-5.173,6.976
	c-1.189,1.721-4.562,5.885-5.01,7.98c1.094,0.562,1.975,1.56,3.161,2.365c3.112,2.112,8.004,4.398,11.452,5.955
	c2.719,1.229,5.137,2.23,7.938,3.54c2.611,1.22,5.631,2.113,7.978,3.823c-1.046,0.584-5.782-0.881-7.32-1.262
	c-4.813-1.194-20.663-5.708-23.04-5.915c0.647,1.888,10.33,17.766,11.44,19.087c1.324,1.576,4.811,1.067,8.94,1.298
	c2.301,0.129,11.52,0.256,12.87,0.763c-3.733,1.47-14.184,3.631-18.548,4.444c0.622,2.47,6.241,10.463,8.163,14.58
	c12.281-1.083,22.037-9.469,25.055-10.641c-0.814-5.624-6.381-11.592-1.247-24.2c0.88-2.163,2.802-5.02,3.289-6.717
	c-9.588-9.03-22.051-15.506-25.262-32.45c-0.639-3.375-0.989-15.881-1.729-17.501c-0.816,0.604-0.315,0.169-0.946,0.965
	c-0.358,0.451-0.505,0.716-0.76,1.087c-3.063,4.454-8.994,13.756-8.818,18.723C12.839,29.697,21.646,38.792,24.498,42.86z
	 M27.127,97.397c0.038,0.066,14.023,10.174,17.347,13.659c1.493-0.623,10.56-11.58,11.513-13.175l-6.2-11.309
	C50.249,88.307,29.319,97.92,27.127,97.397z M58.242,100.325l-10.29,13.499l12.451,12.149l6.572-3.731l-2.932-19.619l-1.741,0.833
	L58.242,100.325z M69.051,99.762l9.905,13.462l-9.129,7.5l-3.347-19.255L69.051,99.762z M70.884,57.296l-0.077-0.091
	c-4.59-7.676,2.339-18.336,4.468-26.837c1.206-4.52,2.014-8.689,1.77-12.033C76.384,9.25,67.69,2.657,59.472,8.533l-4.765-5.794
	c-1.701-2.07-5.02,0.658-3.317,2.728l5.206,6.331c-1.898,3.517-1.647,8.162,0.819,12.012c1.559,1.807,3.594,2.886,5.333,4.111
	c1.319,8.3-4.791,17.183-9.295,24.202c-3.75,5.614-8.844,13.238-4.834,25.308c2.354,7.084,8.5,18.158,13.826,23.12l6.897-4.338
	c3.005,3.255,8.931,11.653,12.275,14.821c1.203-0.624,10.131-10.907,20.153-15.366C88.32,94.185,72.409,85.316,72.135,67.149
	c5.134,14.425,15.283,25.254,31.792,25.918c1.596-3.367,7.27-12.009,7.554-13.478l-18.424-4.371
	c1.605-0.925,15.415-0.992,19.313-1.245c2.692-0.175,2.585-1.256,3.737-3.204c1.61-2.723,9.8-14.814,10.188-16.921
	c-5.601,0.816-25.696,7.543-30.472,7.479c3.38-2.495,11.257-5.537,15.581-7.456c5.91-2.624,11.445-5.386,14.991-8.628
	c-0.603-2.658-8.179-11.47-9.889-14.916c-1.727,0.725-5.238,5.239-6.775,6.691c-2.349,2.217-4.532,3.899-7.686,5.751
	c15.259-19.867,14.588-19.312,3.018-38.051c-0.688-1.115-0.776-1.661-1.868-2.117c-0.66,19.373-3.313,30.675-17.601,42.104
	l-8.692,7.597C75.218,53.656,72.124,56.761,70.884,57.296z"/>
</svg>
