<?xml version="1.0" encoding="utf-8"?>
<!-- Generator: Adobe Illustrator 16.0.0, SVG Export Plug-In . SVG Version: 6.00 Build 0)  -->
<!DOCTYPE svg PUBLIC "-//W3C//DTD SVG 1.1//EN" "http://www.w3.org/Graphics/SVG/1.1/DTD/svg11.dtd">
<svg version="1.1" id="Capa_1" xmlns="http://www.w3.org/2000/svg" xmlns:xlink="http://www.w3.org/1999/xlink" x="0px" y="0px"
	 width="128.1px" height="125.531px" viewBox="0 0 128.1 125.531" enable-background="new 0 0 128.1 125.531" xml:space="preserve">
    <path fill-rule="evenodd" clip-rule="evenodd" fill="#0012d1" d="M88.378,106.101c0.727-0.425,11.093-10.115,11.379-10.663
	c-0.292-0.167-9.353-3.431-12.462-4.938c-2.146-1.039-3.913-1.834-5.879-2.884c-1.007-0.537-5.154-2.842-5.881-2.944
	c-0.409,2.546-0.669,5.411-0.888,8.079c-0.117,1.433,0.791,1.894,1.683,2.667C78.104,96.958,87.169,105.443,88.378,106.101
	 M26.425,95.438c0.288,0.757,1.875,1.97,2.668,2.694c1.289,1.18,7.896,7.558,8.728,8.001c1.365-0.897,10.05-8.996,11.788-10.559
	c2.772-2.493,1.886-1.393,1.66-7.014l-0.756-3.835c-1.411,0.439-4.24,2.125-5.717,2.902c-3.706,1.952-11.165,5.296-15.198,6.673
	C28.688,94.611,27.201,95.018,26.425,95.438z M52.777,118.531c0.608,0.59,7.981,6.734,8.804,6.989
	c-0.02-4.961,0.012-9.934,0.048-14.895c0.01-1.46,0.375-6.33-0.281-7.288c-0.203-0.297-3.574-3.241-3.969-3.461
	C56.964,100.427,52.776,117.327,52.777,118.531z M64.68,109.169l0.014,16.362c0.834-0.5,1.931-1.409,2.654-2.025
	c6.558-5.578,6.494-3.955,5.543-7.788c-1.333-5.371-2.461-10.652-3.894-15.89c-0.564,0.212-3.118,2.546-3.718,3.096
	C64.091,104.013,64.676,107.396,64.68,109.169z M69.986,98.767c0.05,0.985,5.64,16.24,6.325,17.411
	c0.73-0.251,6.952-5.676,7.697-6.385c-0.269-1.087-4.021-5.964-4.949-7.326c-0.89-1.305-4.464-6.488-5.245-7.057
	C73.34,95.638,70.451,98.247,69.986,98.767z M42.196,109.793c0.617,0.644,7.212,6.229,7.693,6.379
	c0.654-1.107,1.623-4.165,2.125-5.474c0.761-1.985,1.432-3.819,2.135-5.795c2.53-7.105,2.881-5.389,0.421-7.696
	c-0.691-0.647-1.394-1.405-2.185-1.858c-0.279,0.214-0.112,0.067-0.355,0.341l-4.868,6.805
	C46.379,103.633,42.423,108.979,42.196,109.793z M66.089,7.813c-0.821,1.013-0.672,2.458,0.333,3.226
	c1.005,0.77,2.485,0.571,3.307-0.442c0.82-1.012,0.672-2.458-0.334-3.227C68.39,6.603,66.91,6.8,66.089,7.813z M56.499,7.813
	c-0.821,1.013-0.672,2.458,0.333,3.226c1.005,0.77,2.485,0.571,3.307-0.442c0.82-1.012,0.671-2.458-0.334-3.227
	C58.8,6.603,57.32,6.8,56.499,7.813z M59.122,15.021c0.129,0.083,0.263,0.164,0.405,0.24c2.25,1.211,5.447,1.067,7.58-0.24H59.122z
	 M58.004,14.201h10.218C68.175,10.763,58.457,10.266,58.004,14.201z M63.05,2c5.261,0,9.525,4.214,9.525,9.412
	c0,3.639-2.09,6.795-5.148,8.361c-0.202,1.643-0.316,3.992-0.272,7.422c0.302,23.55,12.755,22.594,11.554,38.676
	c-0.344,4.605-2.577,8.742-4.145,12.436c-2.979,7.021-1.896,10.647-2.998,13.831c-0.737,2.127-6.972,7.565-8.362,8.283
	c-0.711-0.253-3.898-3.188-4.669-3.853c-5.818-5.02-3.705-5.705-4.859-11.813c-0.464-2.457-1.001-4.092-1.952-6.324
	c-4.03-9.464-6.704-15.816-1.053-25.897c2.127-3.796,4.327-6.535,6.056-10.794c1.597-3.936,2.431-9.329,2.458-14.128
	c0.009-1.574,0.057-5.001-0.318-7.741c-3.164-1.531-5.342-4.743-5.342-8.458C53.525,6.214,57.79,2,63.05,2z M25.128,41.511
	c-3.704-1.47-8.711-6.574-11.463-9.299c-0.841-0.832-2.5-3.149-3.514-3.578c-0.896,0.871-1.767,2.374-2.583,3.47L0,42.8
	c1.426,3.297,18.55,10.332,23.505,12.436c1.868,0.793,6.984,2.87,8.112,4.011c-3.97-0.262-29.829-7.832-31.54-7.604
	c1.239,1.774,11.307,18.94,11.781,19.163l21.965,1.09c-0.965,0.698-11.982,2.975-14.433,3.457l-4.985,1.151
	c0.354,1.122,1.396,2.585,1.956,3.566c0.646,1.134,1.425,2.514,2.056,3.553c0.755,1.243,1.319,2.219,2.109,3.519
	c0.722,1.187,1.668,2.571,2.047,3.563c5.619-0.224,21.243-7.947,26.438-11.124c-0.032-0.987-2.157-5.848-2.651-7.46
	c-4.6-15.013,3.769-22.577,4.16-24.537c-3.19-1.86-6.762-2.457-11.627-6.481c-3.515-2.907-5.809-5.633-8.386-9.714
	C24.926,22.551,24.191,13.96,23.645,2c-2.168,1.106-10.717,16.217-10.594,20.401C13.237,28.708,24.099,39.45,25.128,41.511z
	 M75.645,47.585c0.231,0.718,2.558,3.915,3.699,6.533c3.07,7.045,2.116,14.691-0.763,21.537c-0.407,0.969-1.255,2.763-1.41,3.763
	c2.303,2.495,21.339,10.912,26.188,11.273c0.484-0.509,8.361-13.715,8.515-14.367c-3.514-0.605-16.792-3.254-19.468-4.303
	l21.873-1.282c0.73-0.942,11.428-18.167,11.774-19.201l-15.646,3.926c-2.052,0.521-14.753,3.899-15.724,3.65
	c5.307-2.841,10.809-5.083,16.231-7.506c3.579-1.599,14.139-6.133,15.186-8.808l-8.849-12.437c-0.27-0.378-0.389-0.552-0.604-0.854
	c-0.422-0.588-0.349-0.572-0.805-0.856c-1.098,0.819-4.86,5.27-6.896,7.042c-1.205,1.05-6.141,5.378-7.977,5.772l6.728-8.479
	c7.429-9.673,6.195-11.69,1.073-21.59c-1.091-2.108-4.788-8.704-6.265-9.375c-0.698,5.262-0.011,9.382-1.646,16.469
	c-2.59,11.22-9.079,20.827-19.004,26.109C79.977,45.602,76.738,46.745,75.645,47.585z"/>
</svg>
