<?xml version="1.0" encoding="utf-8"?>
<!-- Generator: Adobe Illustrator 16.0.0, SVG Export Plug-In . SVG Version: 6.00 Build 0)  -->
<!DOCTYPE svg PUBLIC "-//W3C//DTD SVG 1.1//EN" "http://www.w3.org/Graphics/SVG/1.1/DTD/svg11.dtd">
<svg version="1.1" id="Capa_1" xmlns="http://www.w3.org/2000/svg" xmlns:xlink="http://www.w3.org/1999/xlink" x="0px" y="0px"
	 width="127.161px" height="125.531px" viewBox="0 0 127.161 125.531" enable-background="new 0 0 127.161 125.531"
	 xml:space="preserve">
    <path fill-rule="evenodd" clip-rule="evenodd" fill="#fed899" d="M76.694,94.346c3.767,4.801,8.812,10.952,10.132,11.669
	c1.261-1.06,14.99-11.835,15.063-12.012l-8.838-8.054L76.694,94.346z M59.479,102.949l5.056,22.454L82.36,109.73
	c-0.347-1.271-5.214-9.419-8.165-14.169L59.479,102.949z M49.935,99.363l-7.433,10.367l13.318,11.867
	c0.952,0.876,3.759,3.579,4.553,3.934l-4.001-22.314L49.935,99.363z M25.912,94.668c2.023,1.872,11.042,10.896,12.3,11.45
	l8.841-8.252c-3.201-1.718-6.938-4.073-10.412-6.169L25.912,94.668z M54.149,10.694c-0.842,1.068-0.689,2.591,0.341,3.402
	c1.03,0.811,2.546,0.603,3.388-0.466c0.841-1.068,0.688-2.592-0.341-3.403C56.507,9.417,54.99,9.626,54.149,10.694z M66.11,12.818
	c5.521,0.97,3.82,8.702,1.808,12.676c-4.71,9.298-14.782,17.692-12.924,24.245l18.872-13.9c0.217-0.16,0.613-2.412,1.53-4.683
	C84.003,9.831,71.463,0.796,61.336,2.128c-4.227,0.32-8.051,1.48-10.589,4.177c-3.732,3.966-3.173,10.102,0.353,13.288l-3.911,4.966
	c-0.576,0.731-0.452,1.798,0.276,2.372l0.198,0.156c0.727,0.573,1.793,0.443,2.37-0.288l4.272-5.426
	c10.945,2.351,12.543-5.066,11.811-8.53L66.11,12.818z M14.855,76.724l8.531,13.745l9.443-2.059
	c-2.818-1.711-5.836-3.957-8.525-5.795l-0.874-7.583L14.855,76.724z M22.765,57.611c-8.725-2.062-21.795-5.216-22.425-5.7
	c0.385,1.829,11.787,19.053,12.526,19.345l10.291-0.481L22.765,57.611z M0.754,42.996l-0.416,0.548
	c-2.931,5.108,13.946,5.804,21.898,9.095c-0.472-10.338-0.25-18.721-0.695-29.062l14.694,12.834
	C27.844,26.494,22.418,14.195,23.95,2.623C15.964,16.139,8.488,29.314,0.754,42.996z M90.221,83.521l-0.208-56.993L55.286,52.818
	l3.254,46.348L90.221,83.521z M27.711,81.163l28.217,17.745l-3.102-45.93L24.921,31.484v0.003l0.001,0.01l0,0.016v0.006l0.001,0.016
	l0.001,0.028l0.001,0.034l0.001,0.025v0.015l0.002,0.046l0.002,0.052l0.003,0.057v0.001l0.003,0.064l0.003,0.069l0.003,0.075
	l0.001,0.024C25.494,45.755,25.451,68.521,27.711,81.163z M99.551,42.6c8.396-4.754,13.692-12.187,15.07-12.91l10.54,13.894
	c-4.483,5.66-21.502,10.532-24.909,13.283l0.126,0.553c2.604-0.589,23.882-4.789,24.781-5.482
	c-0.384,1.826-11.767,19.021-12.505,19.313l-18.659-0.63V33.966c0.448-0.64,0.859-1.263,1.221-1.851
	c6.729-10.953,5.686-17.437,6.373-29.385c2.473,4.185,11.466,15.895,10.535,20.699C111.114,28.645,103.501,38.987,99.551,42.6z
	 M93.995,74.283l16.673,2.425l-8.517,13.723l-8.156-6.53V74.283z"/>
</svg>
