<?xml version="1.0" encoding="utf-8"?>
<!-- Generator: Adobe Illustrator 16.0.0, SVG Export Plug-In . SVG Version: 6.00 Build 0)  -->
<!DOCTYPE svg PUBLIC "-//W3C//DTD SVG 1.1//EN" "http://www.w3.org/Graphics/SVG/1.1/DTD/svg11.dtd">
<svg version="1.1" id="Capa_1" xmlns="http://www.w3.org/2000/svg" xmlns:xlink="http://www.w3.org/1999/xlink" x="0px" y="0px"
	 width="127.118px" height="125.531px" viewBox="0 0 127.118 125.531" enable-background="new 0 0 127.118 125.531"
	 xml:space="preserve">
    <path fill-rule="evenodd" clip-rule="evenodd" fill="#ec091d" d="M103.324,38.613c3.694-4.701,9.075-10.689,9.35-15.608
	c0.189-3.376-7.75-18.174-10.643-19.97c0.402,10.163-1.826,20.942-6.946,29.669c1.339-0.571,2.715-0.998,3.853-1.42
	c2.516-0.933,3.159-2.124,4.757-2.497c1.259,3.464,0.405,5.918-3.293,9.478C101.621,38.601,102.378,38.323,103.324,38.613
	 M103.573,55.035c7.829-3.413,18.787-8.106,21.483-11.761L115.28,29.58c-1.409,0.161-6.47,7.784-11.909,11.125
	c-0.851,1.731-1.742,3.04-2.834,3.911c0.985,0.093,1.929,0.219,2.769,0.298c2.672,0.251,3.767-0.542,5.369-0.185
	c-0.369,3.667-2.204,5.507-7.081,7.109c1.21,1.056,2.177,0.896,3.055,2.283C104.281,54.446,103.923,54.75,103.573,55.035z
	 M103.17,72.072c4.914-0.263,9.63-0.571,10.053-0.817l11.896-19.242c-0.793,0.523-18.443,4.847-26.108,6.688
	c2.656,0.536,5.219,2.177,7.255,3.251c2.609,1.376,4.056,1.029,5.533,2.066c-1.914,3.571-4.55,4.672-10.18,4.253
	c0.787,1.581,1.837,1.824,2.147,3.603C103.564,71.942,103.365,72.009,103.17,72.072z M92.932,87.097
	c2.877,1.227,6.011,2.325,9.98,3.63l8.099-13.979c-1.062,0.24-10.885-2.143-16.146-3.421c2.204,1.313,4.05,3.45,5.594,4.971
	c2.102,2.07,3.587,2.155,4.703,3.574c-2.863,2.867-5.704,3.161-10.974,1.137c0.297,1.741,1.232,2.276,1.017,4.068
	C94.399,87.107,93.643,87.115,92.932,87.097z M71.346,73.438c0.591,0.444,1.166,0.874,1.724,1.29
	c-0.637-0.696-1.014-0.967-1.672-1.267c1.551,1.092,1.806,2.075,1.302,2.944c-0.84,0.119-1.509,0.165-2.915-0.289
	c-0.704-0.986-1.893-1.667-4.015-1.54c0.978,1.053,1.183,1.291,1.566,2.97l0.118,1.183c-1.865-0.63-2.444-0.319-4.311-2.156
	c-0.718,1.677-0.457,2.826,0.637,3.896l-0.866,0.226c-0.497,0.131-1.112,0.059-1.799-0.17c1.142-1.085,1.425-2.245,0.695-3.951
	c-1.78,1.752-2.39,1.551-4.059,2.075l-0.227-0.168l0.093-0.934c0.385-1.679,0.59-1.917,1.567-2.97
	c-2.123-0.128-3.312,0.554-4.016,1.54c-0.087,0.028-0.171,0.055-0.254,0.079c-7.105-7.331-7.774-19.14-1.333-27.325
	c0.869-1.451,16.421-20.708,11.781-28.547c-3.875-0.461-7.073-2.813-8.363-5.971h-6.995c-0.942,0-1.714-0.767-1.714-1.705v-0.255
	c0-0.938,0.771-1.705,1.714-1.705h6.402c0.325-4.802,4.886-9.344,10.352-8.607c9.585,1.292,14.604,12.831,12.72,21.103
	c-3.142,13.786-9.416,24.081-8.762,26.806l0.148,0.05c2.808-0.496,5.415-1.292,7.826-2.343c0.003,0.394,0.069,0.827,0.212,1.308
	c0.995-1.039,1.224-1.261,3.029-1.906l1.302-0.321c-0.331,1.596,0.032,2.095-1.258,3.703c-1.267,0.342-2.323,1.174-2.732,3.008
	c1.41-0.557,1.726-0.669,3.67-0.561l1.332,0.206c-1.176,1.419-0.985,1.991-3.487,3.1c2.475,1.557,4.223,0.96,6.751-0.996
	c-0.516-0.717-1.084-0.634-1.796-1.179c2.867-0.828,3.945-1.777,4.162-3.671c-0.941-0.185-1.585,0.225-3.155,0.095
	c-0.493-0.041-1.048-0.106-1.627-0.153c0.838-0.588,1.476-1.561,2.12-2.902c-0.819-0.448-1.29-0.157-2.2-0.377
	c2.059-1.741,2.617-2.969,2.043-4.613c0.91-0.781,1.777-1.607,2.603-2.475c0.038,0.642,0.148,1.337,0.346,2.091
	c1.693-2.013,2.082-2.442,5.154-3.69l2.214-0.622c-0.563,3.09,0.056,4.056-2.14,7.17c-2.154,0.663-3.953,2.275-4.649,5.827
	c2.4-1.078,2.937-1.296,6.246-1.087l2.265,0.4c-2,2.748-1.675,3.856-5.933,6.003c1.591,1.139,3.005,1.683,4.381,1.713
	c-0.694,0.347-1.251,0.653-1.633,0.909c-1.745,0.375-3.458,1.502-5.017,3.856c2.891-0.089,3.526-0.086,6.803,1.516l2.134,1.357
	c-3.187,1.953-3.32,3.216-8.548,3.61c1.074,1.724,2.212,2.841,3.501,3.473l-1.528,0.072c-2.22-0.79-4.764-0.563-7.681,1.859
	c2.794,0.749,3.402,0.936,6.077,3.414l1.651,1.914c-3.614,0.952-4.106,2.122-9.226,0.992c0.225,0.829,0.491,1.557,0.805,2.195
	c-1.884-1.149-3.892-2.487-6.179-4.103c0.508-0.114,1.004-0.331,1.521-0.649c-0.454-0.747-1.228-0.908-2.141-2.038
	c-0.286-0.355-0.592-0.767-0.928-1.184c0.337,0.09,0.693,0.175,1.07,0.258c0.352-0.865-0.113-1.269-0.062-2.183
	c2.745,1.775,4.4,2.04,6.396,1.021c-0.454-0.872-1.29-1.13-2.224-2.47c-0.177-0.254-0.36-0.532-0.553-0.82
	c0.18-0.003,0.362-0.008,0.551-0.014c0.127-0.926-0.422-1.202-0.597-2.101c3.097,1.045,4.767,0.894,6.449-0.587
	c-0.655-0.733-1.528-0.776-2.764-1.846c-0.409-0.354-0.854-0.773-1.339-1.188c0.851-0.074,1.808-0.298,2.906-0.629
	c-0.182-0.918-0.799-1.043-1.262-1.86c3.31,0.216,4.858-0.352,5.983-2.196c-0.868-0.535-1.719-0.356-3.252-1.067
	c-2.444-1.132-6.178-3.489-9.034,0.299c1.698-0.046,2.073-0.044,3.998,0.783l1.254,0.701c-1.873,1.009-1.951,1.661-5.023,1.865
	l0.088,0.121c-0.936,0.023-1.956,0.357-3.068,1.169c1.643,0.387,2,0.482,3.572,1.763l0.971,0.988
	c-1.043,0.241-1.644,0.51-2.34,0.651c-1.15-0.677-2.604-0.9-4.525-0.13c1.044,0.544,1.517,0.797,2.118,1.453
	c0.148,0.219,0.312,0.413,0.49,0.585c0.129,0.164,0.267,0.345,0.419,0.55l0.696,1.198c-2.18-0.048-2.608,0.467-5.381-0.841
	c0.041,0.817,0.205,1.486,0.496,2.045c-0.752-0.024-1.604,0.161-2.578,0.648C70.896,73.243,71.135,73.343,71.346,73.438z
	 M30.06,32.299l-0.073-0.115c-6.738-10.967-5.693-17.461-6.382-29.426c-2.476,4.19-11.481,15.917-10.55,20.728
	c0.759,3.92,5.245,10.734,9.107,15.418c1.3-0.736,2.099-0.229,3.59-0.639c-3.699-3.561-4.552-6.015-3.293-9.479
	c1.599,0.373,2.241,1.563,4.756,2.497C28.069,31.6,29.055,31.919,30.06,32.299z M26.829,58.769
	C19.15,56.975,0.751,52.61,0.001,52.033c0.385,1.829,11.784,19.047,12.523,19.341l9.913,0.517l-0.049-0.018
	c0.31-1.778,1.359-2.021,2.146-3.603c-5.629,0.419-8.265-0.682-10.179-4.253c1.477-1.037,2.924-0.689,5.533-2.066
	C21.844,60.92,24.286,59.364,26.829,58.769z M28.034,57.749c0.596,0.294,1.1,0.565,1.495,0.813c1.99,0.203,3.959,1.294,5.731,3.969
	c-2.891-0.089-3.527-0.086-6.803,1.516l-2.134,1.357c3.186,1.953,3.32,3.216,8.548,3.61c-1.01,1.62-2.076,2.704-3.271,3.354
	l1.621,0.085c2.143-0.656,4.583-0.341,7.359,1.966c-2.793,0.748-3.402,0.936-6.077,3.414l-1.652,1.914
	c3.614,0.952,4.107,2.122,9.226,0.992c-1.491,5.495-4.83,6.577-11.128,6.338c-0.216-1.792,0.719-2.327,1.017-4.068
	c-5.27,2.024-8.111,1.73-10.974-1.137c1.116-1.419,2.601-1.504,4.703-3.574c1.886-1.857,4.222-4.638,7.112-5.706L14.513,76.84
	l8.529,13.741c12.57-1.166,25.308-9.491,27.435-12.705c-2.503,1.303-4.004,1.378-5.748,0.306c0.455-0.747,1.228-0.908,2.141-2.038
	c0.603-0.747,0.836-1.647,1.194-2.3c-0.415-0.553-0.821-1.106-1.212-1.666c-0.804,0.077-1.706,0.105-2.658,0.074
	c-0.127-0.926,0.423-1.202,0.598-2.101c-3.097,1.045-4.768,0.894-6.45-0.587c0.656-0.733,1.528-0.777,2.764-1.846
	c0.646-0.56,1.383-1.281,2.222-1.896c-0.127-0.327-0.247-0.658-0.356-0.992c-0.508-0.108-1.051-0.254-1.634-0.43
	c0.161-0.809,0.658-1.002,1.091-1.595l-0.051-0.252c-3.157,0.176-4.661-0.407-5.761-2.209c0.868-0.535,1.718-0.356,3.252-1.067
	c0.574-0.266,1.219-0.6,1.908-0.905c-0.9-0.543-1.68-1.475-2.527-2.766c0.721-0.51,1.231-0.247,2.081-0.531
	c-2.442-1.714-3.153-2.963-2.743-4.824c0.951,0.13,1.426,0.728,2.953,1.115c0.48,0.122,1.026,0.24,1.588,0.383
	c-0.601-0.828-0.888-1.956-1.062-3.433c0.92-0.158,1.271,0.271,2.204,0.358c-1.141-1.912-1.427-3.162-0.885-4.309
	c-2.105-1.335-4.582-3.175-6.881-5.154c0.028,0.841-0.08,1.782-0.356,2.838c-1.694-2.013-2.082-2.442-5.154-3.69l-2.214-0.623
	c0.563,3.09-0.056,4.057,2.14,7.171c2.155,0.663,3.953,2.274,4.649,5.827c-2.399-1.078-2.936-1.296-6.245-1.087l-2.265,0.4
	c2,2.748,1.674,3.856,5.932,6.003C31.178,57.351,29.594,57.875,28.034,57.749z M22.922,40.984
	c-6.83-4.655-11.143-10.586-12.368-11.229L0,43.668c3.216,4.06,15.503,8.724,23.468,12.056c-0.628-0.464-1.279-1-1.963-1.603
	c0.878-1.388,1.845-1.228,3.055-2.283c-4.877-1.603-6.711-3.442-7.08-7.11c1.602-0.358,2.697,0.436,5.368,0.185
	c0.839-0.079,1.783-0.206,2.768-0.298C24.584,43.792,23.731,42.577,22.922,40.984z M81.625,101.506
	c1.97,1.912,3.99,3.534,5.868,4.13l11.527-10.21c-0.77-0.829-6.728-1.895-14.525-6.063c1.713,1.521,2.996,3.674,4.114,5.25
	c1.553,2.188,2.869,2.501,3.643,3.949c-3.02,2.112-5.61,1.923-10.008-0.728c-0.01,1.605,0.742,2.234,0.264,3.805
	C82.205,101.597,81.911,101.553,81.625,101.506z M65.275,103.975c-0.086,10.162-0.073,20.817,0.269,21.557l17.305-16.149
	l-5.331-8.985c-0.507-0.228-0.964-0.487-1.371-0.788c0.165,0.976,0.287,1.919,0.428,2.751c0.449,2.646,1.5,3.498,1.568,5.138
	c-3.638,0.593-5.89-0.702-8.7-4.999c-0.706,1.442-0.302,2.335-1.415,3.542C66.964,105.332,66.044,104.654,65.275,103.975z
	 M65.567,85.557c-0.056,1.211-0.149,6.046-0.224,11.957c1.702,1.297,2.853,1.211,5.181,2.107l-0.2-2.291
	c-0.654-3.252-1.004-3.713-2.666-5.751c2.498-0.171,4.235,0.407,5.466,1.413l-0.044-0.075c0.645,0.42,1.39,1.093,2.209,1.916
	c2.914,0.912,3.798,0.175,6.682-0.062l-1.175-1.977c-2.001-2.646-2.516-2.909-4.898-4.024c2.254-1.282,4.122-1.485,5.702-1.057
	c-2.845-1.722-5.861-3.859-8.912-6.532l-1.053,0.646c0.156,0.317,0.279,0.605,0.297,0.968c-0.682,0.098-1.28,0.097-1.834-0.023
	L65.567,85.557z M60.948,95.518l0.264-10.477c-1.723-0.87-3.91-1.647-5.604-2.516c-0.762,0.344-1.584,0.414-2.586,0.271
	c0.027-0.581,0.327-0.971,0.598-1.6c-0.158-0.157-0.293-0.318-0.4-0.485c-2.132,1.944-5.195,4.443-8.603,6.826
	c1.079,0.099,2.271,0.479,3.597,1.233c-2.382,1.115-2.898,1.379-4.898,4.024l-1.175,1.977c3.131,0.257,3.904,1.104,7.481-0.211
	c1.198-1.909,3.22-3.229,6.832-2.981c-1.663,2.038-2.012,2.499-2.667,5.751l-0.2,2.291c3.172-1.221,4.158-0.62,7.333-4.177
	L60.948,95.518z M47.698,101.332l-5,7.902l17.494,16.284l0.6-23.814c-0.887,1.509-2.484,2.857-4.708,4.336
	c-1.113-1.207-0.708-2.1-1.415-3.542c-2.81,4.297-5.062,5.592-8.7,4.999c0.068-1.64,1.119-2.492,1.567-5.138
	C47.593,102.032,47.645,101.688,47.698,101.332z M27.028,95.39l11.782,10.564l5.172-4.731c-0.729,0.162-1.521,0.297-2.377,0.416
	c-0.479-1.57,0.273-2.199,0.263-3.806c-4.396,2.651-6.987,2.841-10.007,0.729c0.773-1.448,2.09-1.761,3.642-3.949
	c0.533-0.751,1.104-1.635,1.742-2.518C33.568,94.033,29.956,95.369,27.028,95.39z M65.399,7.536c-1.377,0-2.494,1.076-2.494,2.403
	c0,1.328,1.117,2.403,2.494,2.403s2.493-1.076,2.493-2.403C67.893,8.612,66.776,7.536,65.399,7.536z"/>
</svg>
