<?xml version="1.0" encoding="utf-8"?>
<!-- Generator: Adobe Illustrator 16.0.0, SVG Export Plug-In . SVG Version: 6.00 Build 0)  -->
<!DOCTYPE svg PUBLIC "-//W3C//DTD SVG 1.1//EN" "http://www.w3.org/Graphics/SVG/1.1/DTD/svg11.dtd">
<svg version="1.1" id="Capa_1" xmlns="http://www.w3.org/2000/svg" xmlns:xlink="http://www.w3.org/1999/xlink" x="0px" y="0px"
	 width="128.1px" height="125.531px" viewBox="0 0 128.1 125.531" enable-background="new 0 0 128.1 125.531" xml:space="preserve">
    <path fill-rule="evenodd" clip-rule="evenodd" fill="#fecf05" d="M64.467,20.155c1.359-0.023,2.479,1.021,2.501,2.331
	c0.022,1.31-1.063,2.392-2.422,2.414s-2.479-1.022-2.501-2.333C62.023,21.257,63.108,20.177,64.467,20.155 M73.194,54.342
	c6.618,12.133,9.027,18.744,6.143,32.224c1.754,1.42,20.544,7.618,20.613,9.065l-12.603,14.578L74.896,88.598l8.178,24.605
	c-0.641,0.621-2.027,1.609-2.507,2.014c-0.631,0.533-2.343,2.049-3.234,2.268l-3.308-7.116c-0.242,0.558,1.663,7.257,1.56,8.996
	l-7.137,6.152c-1.313,0.665-2.751-21.554-4.038-20.694c-0.681-0.275-3.52,21.259-4.088,20.596l-7.219-6.387
	c-0.005-0.189,0.775-3.934,0.866-4.257l0.778-3.62c-0.038-1.165,0.193,0.822-0.045-0.277l-0.107-0.267
	c-0.533,1.146-2.678,6.203-3.36,6.938c-0.69-0.27-3.129-2.36-5.401-4.27l5.652-16.28L39.86,108.06L26.632,95.175
	C33.47,95.001,80.769,77.185,73.194,54.342z M72.201,19.439c0.365,0.567,0.645,1.184,0.821,1.824
	c0.192,0.601,0.32,1.222,0.374,1.854l6.32-0.105c0.931-0.015,1.704,0.73,1.72,1.655l0.004,0.252
	c0.016,0.925-0.733,1.696-1.663,1.711l-6.906,0.115c-1.737,6.573-6.922,5.407-7.193,8.878c-0.202,5.074,1.825,9.727,4.44,14.357
	c7.67,18.675-33.48,33.914-51.073,34.613c-1.539-4.03-3.39-4.14-4.638-8.088l4.985-1.151c2.45-0.482,13.468-2.759,14.433-3.457
	l-21.965-1.09C11.385,70.584,1.317,53.417,0.078,51.644c1.71-0.228,27.57,7.342,31.54,7.604c-1.128-1.142-6.244-3.218-8.112-4.011
	C18.55,53.132,1.426,46.098,0,42.8l7.568-10.696c0.815-1.096,1.686-2.6,2.583-3.47c1.015,0.429,2.673,2.746,3.514,3.578
	c2.752,2.725,7.759,7.829,11.463,9.299c-1.029-2.061-11.891-12.804-12.077-19.109C12.928,18.218,21.477,3.107,23.645,2
	c0.546,11.959,1.281,20.55,6.862,29.389c2.577,4.081,4.871,6.807,8.386,9.714c5.277,4.366,12.269,9.197,15.483,15.189l2.329-5.753
	c0.101-0.885,0.341-2.254,0.497-3.132c2.504-14.2-3.457-16.587-3.689-22.977C53.146,14.331,67.329,10.669,72.201,19.439z M69.929,2
	l-7.555,7.071l-8.678-6.908l-0.335,9.019l-10.87-4.188l4.979,10.271L36.075,18.68l15.476,6.25c0.087,0.121,0.171,0.235,0.25,0.336
	c-0.776-3.586,2.001-8.917,5.148-10.814c8.018-4.833,12.96,0.384,13.756,0.889c0.791,0.823,1.581,1.646,2.372,2.468l7.986-11.666
	l-10.64,3.85L69.929,2z M83.492,83.166c6.695,3.303,16.566,7.279,19.866,7.525c0.484-0.509,8.361-13.715,8.515-14.367l-6.23-3.628
	l8.636-1.957c0.73-0.942,11.428-18.167,11.774-19.201l-22.339,1.495c3.579-1.598,21.339-7.558,22.386-10.232l-17.33-31.402
	c-1.091-2.108-4.788-8.704-6.265-9.375c-0.698,5.262-0.011,9.382-1.646,16.469c-4.514,19.557-14.333,21.164-26.626,32.813
	C82.665,59.816,85.135,71.769,83.492,83.166z"/>
</svg>
