<?xml version="1.0" encoding="utf-8"?>
<!-- Generator: Adobe Illustrator 16.0.0, SVG Export Plug-In . SVG Version: 6.00 Build 0)  -->
<!DOCTYPE svg PUBLIC "-//W3C//DTD SVG 1.1//EN" "http://www.w3.org/Graphics/SVG/1.1/DTD/svg11.dtd">
<svg version="1.1" id="Capa_1" xmlns="http://www.w3.org/2000/svg" xmlns:xlink="http://www.w3.org/1999/xlink" x="0px" y="0px"
	 width="127.118px" height="125.531px" viewBox="0 0 127.118 125.531" enable-background="new 0 0 127.118 125.531"
	 xml:space="preserve">
    <path fill-rule="evenodd" clip-rule="evenodd" fill="#7ea622" d="M67.363,7.784c-1.388-0.341-2.778,0.476-3.104,1.826
	c-0.326,1.35,0.534,2.721,1.922,3.063c1.388,0.341,2.777-0.477,3.104-1.826C69.611,9.496,68.75,8.125,67.363,7.784 M51.275,71.128
	l0.026,0.039c1.769,2.655,5.939,6.952,9.607,8.047c4.423,1.321,8.117-3.968,10.268-5.613c-5.51-2.198-10.019-4.589-14.363-8.87
	C54.972,66.854,53.146,69.021,51.275,71.128z M48.487,53.709c-0.25,1.065-0.453,2.246-0.623,3.604
	c-0.457,3.653,0.325,7.474,1.71,10.66c0.075-2.888,0.625-5.462,1.368-8.834C49.843,57.436,48.912,55.624,48.487,53.709z
	 M25.56,39.598C23.58,39.123,9.525,28.586,6.339,25.847c-0.973-0.837-1.831-1.697-2.852-2.616c-0.509-0.459-2.503-2.612-2.877-2.809
	c-0.991,1.697-0.944,20.245,1.419,22.263c1.033,0.882,3.895,2.283,5.246,2.963c2.486,1.251,21.277,9.957,21.765,10.876
	c-1.836-0.204-4.44-1.025-6.281-1.499c-2.674-0.688-18.304-4.874-19.66-4.912c0.37,3.409,5.364,13.828,6.938,16.719
	c1.066,1.959,1.596,1.622,4.191,1.803c4.166,0.291,13.428,0.776,16.513,1.291c-1.144,0.633-14.457,3.871-16.376,4.111
	c0.236,1.737,6.847,13.152,9.031,13.584c3.752,0.742,13.629-4.087,16.615-5.737c3.197-1.768,5.842-3.75,9.171-5.734
	c-0.163-1.016-2.729-5.266-3.382-6.708c-5.508-12.17,3.016-22.667,3.006-24.325c-2.038-1.284-4.502-2.194-6.616-3.466
	C33.051,36.152,22.763,24.253,16.87,15.49c-1.365-2.029-2.706-3.941-4.061-6.158c-0.763-1.248-3.214-6.123-3.782-6.637
	c-1.272,1.569-3.896,8.65-4.094,11.184c-0.332,4.26,3.174,7.473,5.372,10.207c1.912,2.379,8.792,9.444,11.384,11.75
	C22.716,36.749,24.738,38.468,25.56,39.598z M64.872,84.339l-0.051,21.235c0.008,3.017-0.493,3.638,1.065,5.328
	c1.213,1.315,5.412,6.034,6.265,6.513c0.778-0.323,10.384-8.531,10.962-9.343c-0.284-1.589-9.672-14.319-10.351-16.103l7.028,6.142
	c1.329,1.135,5.933,5.534,7.461,6.173c0.866-0.494,9.185-8.575,9.383-9.952c-1.079-0.896-6.641-2.903-8.499-3.881
	c-5.559-2.926-7.017-4.041-11.637-7.242c-1.455-1.009-2.514-2.121-3.67-2.838c-1.221-0.757-2.846,0.826-4.03,1.581
	C67.775,82.604,65.77,83.539,64.872,84.339z M28.572,94.306c0.323,1.512,8.115,9.109,9.417,9.946
	c1.091-0.316,8.852-7.472,10.718-9.089c0.772-0.669,2.716-2.603,3.563-2.995l-7.605,11.642c-0.688,0.973-2.165,2.995-2.502,4.013
	c0.493,0.768,9.823,9.082,10.927,9.533c0.771-0.438,4.93-5.016,5.973-6.251c1.424-1.687,1.179-1.409,1.18-4.531l-0.047-22.439
	c-0.926-0.752-2.497-1.425-3.849-2.321c-4.042-2.678-2.308-2.443-7.309,1.192c-4.542,3.303-6.867,4.717-11.8,7.333
	C34.403,91.841,31.391,92.874,28.572,94.306z M56.221,120.063c0.473,0.827,5.729,5.184,6.524,5.468
	c0.684-0.476,5.765-4.636,6.191-5.468c-0.392-0.811-2.359-2.793-3.006-3.463c-0.743-0.769-2.531-2.99-3.572-3.382
	C61.072,115.248,57.267,117.99,56.221,120.063z M52.777,44.81c-1.526,2.232-2.616,4-3.409,6.034
	c1.473,0.324,2.893,0.387,4.245,0.116c1.276-2.179,2.683-4.394,4.385-6.496c1.767-2.183,3.851-4.251,6.07-6.358
	c-1.01,2.2-1.97,4.377-2.659,6.624c-0.674,2.202-1.03,4.464-1.264,6.718c4.579-0.625,7.676-0.042,10.659,0.712
	c-4.302,2.092-7.797,4.107-9.413,7.727c2.62,6.159,5.496,9.266,10.26,13.402c0.182-0.098,0.349-0.154,0.501-0.162l10.358,6.264
	c4.689,2.799,11.719,6.352,17.06,7.771c3.559,0.945,3.398,0.065,5.111-2.467c1.071-1.583,6.21-9.072,6.239-10.597
	c-2.526-1.085-15.087-3.075-16.391-4.247l16.235-1.26c2.121-0.152,3.421,0.253,4.374-1.571c1.421-2.719,6.711-13.813,7.028-16.908
	c-2.785,0.092-22.782,6.206-25.719,6.224c2.694-2.419,25.937-11.797,27.356-14.532c0.828-1.595,1.354-10.923,1.311-13.423
	l-0.262-7.888c-0.775,0.108-2.233,1.94-2.818,2.521c-2.338,2.323-6.364,5.433-9.108,7.542c-2.128,1.636-11.162,8.235-13.091,9.034
	c0.315-0.819,2.837-2.934,3.71-3.759c4.752-4.49,10.785-10.5,14.66-15.927c2.954-4.138,2.194-7.026,0.445-11.962
	c-0.542-1.529-1.586-4.579-2.437-5.29l-4.039,7.157c-1.433,2.314-2.859,4.475-4.496,6.728c-6.612,9.098-12.658,16.247-21.731,23.273
	c-2.995,2.319-11.198,6.971-15.798,6.824c-2.558-11.734,19.601-36.89-0.076-44.062c-5.381-1.961-11.04,1.383-12.548,6.186
	L51.075,7.17c-0.95-0.234-1.916,0.355-2.146,1.31l-0.063,0.26c-0.231,0.954,0.357,1.924,1.308,2.158l7.049,1.735
	c0.524,3.531,3.168,6.716,6.96,8.146C65.965,26.683,55.717,40.508,52.777,44.81z"/>
</svg>
