<?xml version="1.0" encoding="utf-8"?>
<!-- Generator: Adobe Illustrator 16.0.0, SVG Export Plug-In . SVG Version: 6.00 Build 0)  -->
<!DOCTYPE svg PUBLIC "-//W3C//DTD SVG 1.1//EN" "http://www.w3.org/Graphics/SVG/1.1/DTD/svg11.dtd">
<svg version="1.1" id="Capa_1" xmlns="http://www.w3.org/2000/svg" xmlns:xlink="http://www.w3.org/1999/xlink" x="0px" y="0px"
	 width="141.732px" height="141.732px" viewBox="0 0 141.732 141.732" enable-background="new 0 0 141.732 141.732"
	 xml:space="preserve">
<polygon fill-rule="evenodd" clip-rule="evenodd" fill="#FF0009" points="70.866,40.213 102.756,47.876 134.646,55.54 
	134.646,70.866 134.646,86.193 102.756,93.856 70.866,101.52 38.977,93.856 7.086,86.193 7.086,70.866 7.086,55.54 38.977,47.876 
	"/>
<polygon fill-rule="evenodd" clip-rule="evenodd" fill="#FFFFFF" points="70.866,13.973 95.501,28.197 120.137,42.42 
	120.137,70.867 120.137,99.313 95.501,113.537 70.866,127.76 46.23,113.537 21.595,99.313 21.595,70.867 21.595,42.42 46.23,28.197 
	"/>
<polygon fill="none" stroke="#141515" stroke-width="2.021" stroke-miterlimit="22.9256" points="70.866,13.973 95.501,28.197 
	120.137,42.42 120.137,70.867 120.137,99.313 95.501,113.537 70.866,127.76 46.23,113.537 21.595,99.313 21.595,70.867 
	21.595,42.42 46.23,28.197 "/>
<path fill-rule="evenodd" clip-rule="evenodd" d="M113.85,99.436c-0.096-4.592,0.028-11.586,0.023-16.188
	c-0.002-2.16,0.26-4.6-0.527-6.453c-0.694-1.635-1.931-3.009-3.354-3.651c-0.665-0.936-1.36-1.712-2.148-2.595
	c-0.432-0.482-0.796-0.777-1.27-1.287c-0.542-0.584-0.679-0.893-1.332-1.36l-9.469,8.99c-1.141-0.905-4.381-4.859-6.067-5.422
	c-0.059-2.107-0.113-3.687-1.467-4.618c-1.124-0.774-4.081-0.578-5.607-0.428c-0.071-0.969-0.167-2.396,0.168-3.043
	c1.949-0.26,1.656-2.999,0.905-4.231c-1.025-1.682-2.051-1.721-4.377-1.769c-0.725-1.226-1.494-2.239-3.369-2.241
	c-1.807-0.002-2.844,1.149-3.365,2.514l-1.869,0.012l0.062-39.788c1.058,0.339,9.799,5.372,11.528,6.434l34.22,20.141l0.317,53.016
	L113.85,99.436z M92.034,83.438l-0.01,27.974L70.72,123.856l0.003-40.036c1.677,0.835,1.048,0.697,3.353,0.688
	c8.799-0.04,8.187,0.747,8.563-3.489c2.463,0.265,4.196,0.45,6.057-0.628L92.034,83.438z"/>
<path fill-rule="evenodd" clip-rule="evenodd" fill="#FF0009" d="M109.1,84.488c-9.277,7.863-12.044,4.73-13.343,3.075l-3.765-4.166
	l-0.026,28.08l17.125-9.528L109.1,84.488z M95.622,76.381c0.365,1.02,2.635,3.239,3.412,3.937c0.915-0.362,5.315-4.031,6.467-4.933
	c0.851-0.667,3.2-1.964,4.524-2.185l-4.493-5.275L95.622,76.381z M54.938,68.977l-0.669,0.321l-0.054,1.704
	c0.654,1.104,2.159,0.901,2.186,3.499c0.023,2.221-1.346,2.613-1.663,3.856c1.203,0.449,2.78,0.095,4.08,0.143l-0.014,2.519
	c-2.463,0.265-4.196,0.45-6.058-0.628l-2.811,3.072c0.033,0.045,0.061,0.113,0.074,0.149c0.331,0.939,0.165,3.893,0.164,6.632
	c-0.001,6.29-0.327,15.221-0.091,20.957l20.64,12.655L70.718,83.82c1.561,0.773,0.748,0.775,6.856,0.798
	c3.544,0.012,5.905,0.971,5.544-3.523l-0.017-2.649l0.021-9.254l0.41-0.29c-0.705-0.266-0.353,0.249-0.507-0.523l0.076-1.867
	c0.088-0.988-0.155-2.35,0.235-3.17L72.23,63.4c0.02,2.163,0.46,4.789-1.741,4.834c-2.206,0.046-1.658-2.767-1.672-4.885
	l-10.175,0.03c-1.949-0.26-1.656-2.999-0.905-4.231c1.025-1.682,2.05-1.721,4.376-1.769c0.725-1.226,1.494-2.239,3.369-2.241
	c1.807-0.002,2.844,1.149,3.366,2.514l1.872,0.012l0.066-39.735L24.881,44.437l0.083,52.348l2.507,1.38
	c0.095-4.592,0.092-10.315,0.097-14.918c0.002-2.16-0.259-4.6,0.528-6.453c0.694-1.635,1.931-3.009,3.354-3.651
	c0.665-0.936,1.36-1.712,2.148-2.595c0.431-0.482,0.796-0.777,1.269-1.287c0.542-0.584,0.679-0.893,1.333-1.36l9.349,9.668
	c1.141-0.905,4.5-5.538,6.188-6.101c0.059-2.107,0.113-3.687,1.466-4.618c1.125-0.774,4.081-0.578,5.607-0.428l-0.026,2.413
	L54.938,68.977z"/>
<path fill-rule="evenodd" clip-rule="evenodd" d="M50.1,111.181l0.072-20.937c0-2.739,0.167-5.692-0.164-6.632
	c-0.013-0.036-0.041-0.104-0.074-0.149c-1.332,1.393-2.133,2.295-3.416,3.704c-1.018,1.117-1.877,3.141-4.369,2.972
	c-2.167-0.147-7.133-5.006-8.933-5.453l-0.122,16.714L50.1,111.181z"/>
<path fill-rule="evenodd" clip-rule="evenodd" d="M31.45,73.143c1.578-0.185,2.662,0.481,3.587,1.176l5.27,4.093
	c0.743,0.602,1.774,1.586,2.653,1.913c0.395-0.336,3.124-3.381,3.349-3.88c-1.592-1.38-3.305-2.84-5.029-4.307L36.2,67.901
	c-0.654,0.467-0.791,0.776-1.333,1.36c-0.473,0.51-0.838,0.804-1.269,1.287C32.81,71.431,32.115,72.207,31.45,73.143"/>
<path fill-rule="evenodd" clip-rule="evenodd" d="M83.102,78.445l4.054,0.094c-0.15-0.853-4.107-4.924,0.411-7.249
	c-0.034-2.132,0.73-2.749-4.033-2.39l-0.41,0.29L83.102,78.445z"/>
<path fill-rule="evenodd" clip-rule="evenodd" d="M58.81,66.422l-0.026,2.413l-3.847,0.142l3.91-0.045L58.817,78.5l-0.014,2.519
	c0.376,4.236-0.236,3.449,8.563,3.489c2.305,0.01,1.676,0.147,3.353-0.688l0.076-0.205V68.209c-0.095,0.014-0.196,0.023-0.304,0.025
	c-2.206,0.046-1.658-2.767-1.673-4.885l-10.175,0.03C58.977,64.026,58.881,65.453,58.81,66.422"/>
<path fill-rule="evenodd" clip-rule="evenodd" fill="#FFFFFF" d="M95.969,45c-1.259-0.358-2.545,0.383-2.874,1.656
	c-0.329,1.273,0.424,2.596,1.683,2.954c1.258,0.358,2.545-0.383,2.874-1.657C97.98,46.681,97.227,45.359,95.969,45 M105.483,68.206
	L93.545,78.844l2.809-19.345c-5.325,1.38-11.256-5.018-9.749-10.147l-6.392-1.82c-0.861-0.246-1.376-1.182-1.144-2.081l0.063-0.245
	c0.232-0.899,1.127-1.435,1.989-1.189l5.85,1.666c1.486-4.521,6.638-7.296,11.592-5.562c6.626,2.321,9.406,10.108,4.545,16.032
	C99.454,60.604,106.151,67.61,105.483,68.206z"/>
<path fill-rule="evenodd" clip-rule="evenodd" fill="#FFFFFF" d="M36.292,68.206L48.23,78.844l-2.809-19.345
	c5.325,1.381,11.255-5.018,9.749-10.147l6.392-1.82c0.861-0.246,1.376-1.182,1.144-2.081l-0.063-0.245
	c-0.232-0.899-1.127-1.435-1.988-1.189l-5.85,1.666c-1.487-4.521-6.639-7.296-11.592-5.562c-6.626,2.321-9.407,10.108-4.544,16.032
	C42.321,60.604,35.623,67.61,36.292,68.206"/>
<path fill-rule="evenodd" clip-rule="evenodd" d="M45.806,45c1.258-0.358,2.545,0.383,2.874,1.656
	c0.33,1.273-0.424,2.596-1.682,2.954c-1.258,0.358-2.545-0.383-2.875-1.657C43.794,46.681,44.548,45.359,45.806,45"/>
</svg>
