<?xml version="1.0" encoding="utf-8"?>
<!-- Generator: Adobe Illustrator 16.0.0, SVG Export Plug-In . SVG Version: 6.00 Build 0)  -->
<!DOCTYPE svg PUBLIC "-//W3C//DTD SVG 1.1//EN" "http://www.w3.org/Graphics/SVG/1.1/DTD/svg11.dtd">
<svg version="1.1" id="Capa_1" xmlns="http://www.w3.org/2000/svg" xmlns:xlink="http://www.w3.org/1999/xlink" x="0px" y="0px"
	 width="141.732px" height="141.732px" viewBox="0 0 141.732 141.732" enable-background="new 0 0 141.732 141.732"
	 xml:space="preserve">
<polygon fill-rule="evenodd" clip-rule="evenodd" fill="#FF0009" points="70.866,40.213 102.756,47.876 134.646,55.54 
	134.646,70.866 134.646,86.193 102.756,93.856 70.866,101.52 38.977,93.856 7.086,86.193 7.086,70.866 7.086,55.54 38.977,47.876 
	"/>
<polygon fill-rule="evenodd" clip-rule="evenodd" fill="#FFFFFF" points="70.866,13.973 95.502,28.196 120.138,42.419 
	120.138,70.866 120.138,99.313 95.502,113.536 70.866,127.76 46.23,113.536 21.595,99.313 21.595,70.866 21.595,42.419 
	46.23,28.196 "/>
<g>
	<defs>
		<polygon id="SVGID_1_" points="70.866,13.973 95.502,28.196 120.138,42.419 120.138,70.866 120.138,99.313 95.502,113.536 
			70.866,127.76 46.23,113.536 21.595,99.313 21.595,70.866 21.595,42.419 46.23,28.196 		"/>
	</defs>
	<clipPath id="SVGID_2_">
		<use xlink:href="#SVGID_1_"  overflow="visible"/>
	</clipPath>
	<path clip-path="url(#SVGID_2_)" fill-rule="evenodd" clip-rule="evenodd" fill="#131414" d="M43.326,73.146
		c-0.434-1.27-0.545-2.485-1.738-2.595C41.981,71.252,42.729,72.674,43.326,73.146"/>
	<path clip-path="url(#SVGID_2_)" fill-rule="evenodd" clip-rule="evenodd" fill="#131414" d="M99.922,73.445
		c0.603,0.554,0.521,0.368,0.885-0.169C100.456,73.024,100.1,72.691,99.922,73.445"/>
	<path clip-path="url(#SVGID_2_)" fill-rule="evenodd" clip-rule="evenodd" fill="#131414" d="M71.549,69.696
		c0.537-0.251,0.759,0.09,0.213-0.665c-0.185,0.094-0.242-0.083-0.311,0.244C71.372,69.661,71.42,69.451,71.549,69.696"/>
	<path clip-path="url(#SVGID_2_)" fill-rule="evenodd" clip-rule="evenodd" fill="#050505" d="M78.739,97.342l2.074-0.564
		c-0.434-0.346-0.875-0.522-1.634-0.652C79.065,96.552,78.887,96.973,78.739,97.342"/>
	<path clip-path="url(#SVGID_2_)" fill-rule="evenodd" clip-rule="evenodd" fill="#050505" d="M39.598,74.296
		c0.359,0.46,0.447,0.82,0.9,0c-0.186-0.157,0.321-0.327-0.444-0.253C39.493,74.097,39.872,74.064,39.598,74.296"/>
	<path clip-path="url(#SVGID_2_)" fill-rule="evenodd" clip-rule="evenodd" fill="#050505" d="M30.707,76.386
		c0.917-0.409,0.639-0.537-0.092-0.772c-0.223,0.347-0.285-0.42-0.133,0.365C30.586,76.513,30.438,76.079,30.707,76.386"/>
	<path clip-path="url(#SVGID_2_)" fill-rule="evenodd" clip-rule="evenodd" fill="#140303" d="M74.044,97.767l4.38-0.414
		l-2.408-0.142c-0.369-0.638-0.356-0.921-0.591-1.468c-0.288-0.673-0.444-0.649-0.71-1.301l-0.398,0.005
		c0.521,1.018,0.789,0.436,0.871,1.975l-0.563,0.334C74.38,97.05,74.557,97.271,74.044,97.767"/>
	<path clip-path="url(#SVGID_2_)" fill-rule="evenodd" clip-rule="evenodd" fill="#140303" d="M62.585,88.078l0.932-0.007
		c1.139-0.358,0.226-0.04,0.651-0.416c-0.618-0.163-1.389-0.379-2.007-0.169C62.38,88.138,61.936,87.634,62.585,88.078"/>
	<path clip-path="url(#SVGID_2_)" fill-rule="evenodd" clip-rule="evenodd" fill="#FA0504" d="M42.546,76.636
		c0.662,0.432,1.816,0.8,2.724,0.775c-0.384-0.756-1.031-1.918-2.013-2.063C42.689,75.733,42.628,75.729,42.546,76.636"/>
	<path clip-path="url(#SVGID_2_)" fill-rule="evenodd" clip-rule="evenodd" fill="#FA0504" d="M104.078,78.382
		c0.587-0.17,1.059-0.296,1.736-0.421c1.694-0.314,1.325-0.062,1.779-0.687c-0.589-0.806-1.171-0.578-2.013-0.23
		c-0.262,0.107-0.637,0.271-0.889,0.398C103.707,77.944,104.105,77.428,104.078,78.382"/>
	<path clip-path="url(#SVGID_2_)" fill-rule="evenodd" clip-rule="evenodd" fill="#FA0504" d="M55.149,84.477l1.558,0.118
		c-0.283-0.657,0.078-0.344-0.631-0.801c-0.296-0.19-0.404-0.231-0.811-0.264L55.149,84.477z"/>
	<path clip-path="url(#SVGID_2_)" fill-rule="evenodd" clip-rule="evenodd" fill="#0A0A0A" d="M83.032,98.762
		c0.971,0.75,3.063,0.555,4.47,0.586c2.13,0.048,2.629,0.228,4.116-0.66C90.948,98.574,83.234,98.668,83.032,98.762"/>
	<path clip-path="url(#SVGID_2_)" fill-rule="evenodd" clip-rule="evenodd" fill="#0A0A0A" d="M25.042,68.765
		c0.803,0.609,0.66-0.278,3.334-0.069c1.242,0.097,2.189,0.578,3.215,0.972c-0.8-1.461-3.656-1.533-5.138-1.532
		C25.594,68.135,25.157,68.09,25.042,68.765"/>
	<path clip-path="url(#SVGID_2_)" fill-rule="evenodd" clip-rule="evenodd" fill="#F4F4F4" d="M109.82,84.335
		c-0.314,1.862-1.391,3.01-1.304,5.094c0.25-0.272-0.028,0.161,0.311-0.391c1.785-2.906,2.019-4.448,1.643-8.115
		C109.902,81.539,110.565,83.009,109.82,84.335"/>
	<path clip-path="url(#SVGID_2_)" fill-rule="evenodd" clip-rule="evenodd" fill="#F4F4F4" d="M103.313,100.886
		c-0.372,0.227-0.289-0.353-0.229,0.719c0.055,0.955,0.266,1.532,0.834,1.898C103.996,102.198,103.853,101.632,103.313,100.886"/>
	<path clip-path="url(#SVGID_2_)" fill-rule="evenodd" clip-rule="evenodd" fill="#EDEDED" d="M32.2,98.36
		c-0.46-0.986-0.885-1.448-1.102-2.753c-1.084-1.009-1.653-3.166-2.69-4.437l-1.506-2.23c0.356,1.517,1.645,3.634,2.41,5.04
		C30.191,95.598,30.991,97.5,32.2,98.36"/>
	<path clip-path="url(#SVGID_2_)" fill-rule="evenodd" clip-rule="evenodd" fill="#EDEDED" d="M99.462,95.965
		c1.016,0.38,2.563,0.123,4.532,0.348c0.876,0.101,0.817,0.085,1.228-0.165C103.934,95.691,100.913,95.21,99.462,95.965"/>
	<path clip-path="url(#SVGID_2_)" fill-rule="evenodd" clip-rule="evenodd" fill="#EDEDED" d="M30.069,76.644l1.106,0.24
		l0.632-0.846l-0.616-0.865C30.138,75.152,29.501,75.563,30.069,76.644 M30.482,75.979c-0.152-0.785-0.09-0.019,0.133-0.365
		c0.73,0.235,1.008,0.363,0.092,0.772C30.438,76.079,30.586,76.513,30.482,75.979z"/>
	<path clip-path="url(#SVGID_2_)" fill-rule="evenodd" clip-rule="evenodd" fill="#040404" d="M54.115,100.194
		c0.489,1.104,2.052,1.269,3.612,1.179c1.134-0.064,2.789-0.269,3.304-1.034L54.115,100.194z"/>
	<path clip-path="url(#SVGID_2_)" fill-rule="evenodd" clip-rule="evenodd" fill="#040404" d="M111.376,72.75
		c0.753-0.114,0.909-0.087,1.259-0.794C111.841,71.467,111.176,71.644,111.376,72.75"/>
	<path clip-path="url(#SVGID_2_)" fill-rule="evenodd" clip-rule="evenodd" fill="#020202" d="M31.287,112.64
		c-0.188,1.595,0.1,3.24,0.147,4.813c0.069,2.239-0.235,2.669,1.652,3.359C32.936,119.105,31.971,113.849,31.287,112.64"/>
	<path clip-path="url(#SVGID_2_)" fill-rule="evenodd" clip-rule="evenodd" fill="#020202" d="M108.82,120.851
		c1.706-0.743,1.463-1.15,1.513-3.221c0.035-1.485,0.279-2.94,0.238-4.438c-0.523,0.817-0.869,2.896-1.069,3.849
		C109.248,118.25,108.901,119.621,108.82,120.851"/>
	<path clip-path="url(#SVGID_2_)" fill-rule="evenodd" clip-rule="evenodd" fill="#020202" d="M87.333,94.893
		c-0.51-0.658-0.775-1.314-1.989-0.971c-0.542,0.154-0.536,0.315-0.988,0.575c-0.341,0.196-0.701,0.292-0.992,0.456
		c1.346,0.609,4.263,1.042,5.392-0.023L87.333,94.893z"/>
	<path clip-path="url(#SVGID_2_)" fill-rule="evenodd" clip-rule="evenodd" fill="#FAFAFA" d="M57.308,103.016
		c-3.288-0.529-7.219,0.834-10.594-0.145c-0.955-0.076-1.713-0.265-2.406,0.146c1.487,1.169,7.881,0.765,10.225,0.613l2.258-0.278
		C57.534,103.096,57.178,103.133,57.308,103.016"/>
	<path clip-path="url(#SVGID_2_)" fill-rule="evenodd" clip-rule="evenodd" fill="#FAFAFA" d="M83.682,96.124
		c2.013,0.19,4.152,0.343,6.094-0.198C87.719,95.526,85.619,94.691,83.682,96.124"/>
	<path clip-path="url(#SVGID_2_)" fill-rule="evenodd" clip-rule="evenodd" fill="#F50808" d="M48.322,101.932
		c-0.604,0.382-1.063,0.349-1.608,0.939c3.375,0.979,7.306-0.385,10.594,0.145c-0.317-0.714-0.949-0.756-1.845-0.945
		c-0.744-0.157-1.585-0.289-2.396-0.386C51.27,101.471,50.053,101.54,48.322,101.932"/>
	<path clip-path="url(#SVGID_2_)" fill-rule="evenodd" clip-rule="evenodd" fill="#F50808" d="M82.846,104.081
		c0.35-1.003,1.056-1.153,0.714-2.222l-4.139-0.105c0.009,1.229,0.489,1.207,0.702,2.417l-1.428,0.251
		c1.07,0.743,3.864,0.625,5.16-0.031L82.846,104.081z"/>
	<path clip-path="url(#SVGID_2_)" fill-rule="evenodd" clip-rule="evenodd" fill="#FF0100" d="M65.811,93.106l1.391,0.245
		l-0.798,0.369c1.246,0.333,1.65,0.553,3.082,0.731c-0.764,0.099-1.249,0.623-1.518,1.405c0.589,0.499,1.203,1.018,2.016,1.181
		c0.015,2.191,0.987,1.4,3.55,1.703l0.585,0.017c0.525-0.506,0.346-0.733,0.596-1.034l0.576-0.342
		c-0.084-1.575-0.358-0.979-0.893-2.021l-1.484-0.059l-0.695,1.072l-1.191-0.013c0.03-0.062,0.074-0.135,0.1-0.181
		c0.023-0.044,0.067-0.122,0.095-0.176c0.026-0.05,0.066-0.105,0.093-0.161c0.03-0.064,0.128-0.241,0.149-0.308
		c0.159-0.501,0.068-0.277,0.051-0.776c1.261,0.055,2.178,0.171,2.743-0.803c-0.19-1.167-0.102-0.512,0.139-0.816l12.329-0.089
		c-3.497,0.223-8.198,0.259-11.692,0.052c-1.941-0.115-2.455-1.795-4.543-1.451C69.088,91.885,69.157,92.863,65.811,93.106"/>
	<path clip-path="url(#SVGID_2_)" fill-rule="evenodd" clip-rule="evenodd" fill="#FF0100" d="M60.355,104.05
		c0.196,1.365,1.448,2.891,2.914,2.733c1.072-0.116,2.547-1.526,2.365-2.836L60.355,104.05z"/>
	<path clip-path="url(#SVGID_2_)" fill-rule="evenodd" clip-rule="evenodd" fill="#FF0100" d="M27.403,92.007
		c1.063,1.301,1.645,3.509,2.755,4.541c0.34-2.54-0.105-6.261-2.166-6.796L27.403,92.007z"/>
	<path clip-path="url(#SVGID_2_)" fill-rule="evenodd" clip-rule="evenodd" fill="#FF0100" d="M86.336,88.084l0.271,0.356
		c2.212,1.367,3.445,0.199,3.603-2.25l-4.04-0.063L86.336,88.084z"/>
	<path clip-path="url(#SVGID_2_)" fill-rule="evenodd" clip-rule="evenodd" fill="#FF0100" d="M74.806,95.355
		c0.271,0.667,0.433,0.644,0.728,1.332c0.239,0.56,0.227,0.85,0.604,1.502l2.465,0.146l0.323-0.011
		c0.151-0.379,0.334-0.81,0.45-1.246C78.072,96.122,77.483,94.715,74.806,95.355"/>
	<path clip-path="url(#SVGID_2_)" fill-rule="evenodd" clip-rule="evenodd" fill="#FF0100" d="M69.627,98.54
		c0.029-1.228-0.012-1.268-0.736-1.752c-1.99-1.332-3.766-0.616-4.247,1.045C66.205,98.667,67.805,98.639,69.627,98.54"/>
	<path clip-path="url(#SVGID_2_)" fill-rule="evenodd" clip-rule="evenodd" fill="#FF0100" d="M36.722,78.692l-0.561-0.701
		c-0.614-0.235-0.021,0.06-0.461-0.254c-0.073-0.052-0.302-0.24-0.37-0.307c-0.503-0.493-0.288-0.212-0.586-0.767
		c-0.901-0.627-1.017-0.82-1.758-1.404l-0.775,3.089l4.296,0.985L36.722,78.692z"/>
	<path clip-path="url(#SVGID_2_)" fill-rule="evenodd" clip-rule="evenodd" fill="#FF0100" d="M110.742,85.009
		c0.763-1.357,0.084-2.862,0.664-3.493c-0.326-0.856-1.062-1.312-2.059-1.232c-0.102,0.939-0.2,1.897,0.051,2.816
		c0.202,0.743,0.646,1.344,1.214,1.816C110.639,84.938,110.696,84.981,110.742,85.009"/>
	<path clip-path="url(#SVGID_2_)" fill-rule="evenodd" clip-rule="evenodd" fill="#FF0100" d="M47.089,96.293l3.349,0.154
		l0.072-1.675c-1.237-0.268-0.809-0.441-2.443-0.475l-0.749,0.035L47.089,96.293z"/>
	<path clip-path="url(#SVGID_2_)" fill-rule="evenodd" clip-rule="evenodd" fill="#FF0100" d="M42.999,126.588
		c0.029-0.438,0.065-0.912,0.034-1.352c-0.135-1.892-0.981-1.07-4.333-1.219C39.929,124.947,41.449,125.748,42.999,126.588"/>
	<path clip-path="url(#SVGID_2_)" fill-rule="evenodd" clip-rule="evenodd" fill="#FF0100" d="M98.932,126.435
		c1.266-0.388,3.414-1.702,4.196-2.445l-4.004-0.013L98.932,126.435z"/>
	<path clip-path="url(#SVGID_2_)" fill-rule="evenodd" clip-rule="evenodd" fill="#FF0000" d="M68.113,69.842
		c-0.54,0.966-0.678,0.459-0.938,1.494l2.256,0.001C69.269,70.092,69.309,69.956,68.113,69.842 M110.73,76.688
		c0.743-1.463-1.202-1.636-1.367-0.674C109.19,77.021,110.078,77.027,110.73,76.688z M70.319,19.25l0.554,37.275v4.346l0.04,0.004
		l0.036,3.867c10.999-0.252,4.445,9.567,8.838,13.229c2.187,1.823,2.092,1.813,3.832,3.679c1.335-1.356,0.738-1.587,3.454-1.644
		c3.407-0.07,5.1-0.435,5.04,5.134c-0.023,2.136-0.598,3.244,1.771,3.512c0.938-0.806,5.806-8.489,3.829-10.113
		c-1.934-0.824-5.918,0.854-4.951-3.024c0.521-2.093,1.705-1.513,3.377-5.127c0.479-1.037,1.197-1.729,1.873-2.388
		c0.938-0.915,1.391-1.087,3.096-1.107c5.219-0.06,4.484,1.049,6.391,2.17c2.719-1.757,3.641-3.339,9.04-4.763l0.094-19.033
		l-0.003-0.042l0.003-0.526l-0.102-0.06c-0.179-0.461-0.663-0.524-2.133-1.39c-6.65-3.842-33.756-20.199-41.7-24.229l-1.824-1.066
		v0.232C70.688,18.123,70.367,19.225,70.319,19.25z"/>
	<path clip-path="url(#SVGID_2_)" fill-rule="evenodd" clip-rule="evenodd" fill="#FF0000" d="M60.065,88.135
		c0.349,0.848,1.042,1.488,1.982,1.726c0.614-0.434,1.716,1.303,2.217-1.058c-1.059-0.193-1.247-0.045-2.192-0.385
		c-0.047-0.018-0.121-0.046-0.175-0.081c0.261-0.19-0.056-0.176,0.689-0.259c-0.65-0.444-0.206,0.06-0.424-0.592
		c0.618-0.21,1.389,0.006,2.007,0.169c-0.425,0.376,0.487,0.058-0.651,0.416c1.835-0.013,0.857-0.136,1.671-1.211
		c0.274-0.229,0.164-0.147,0.566-0.301c0.097,1.854-0.317,3.121,1.363,3.614c-0.189,1.245-0.462,0.746-0.72,1.766
		c2.572-0.489,8.971-7.004,9.386-10.411c-1.386,0.598-1.996,1.085-4.026,0.891c-1.515-0.146-2.44-0.89-3.188-1.507l-0.772-0.878
		c-1.717,0.624-5.636,3.496-5.304,5.432c0.118,0.689,0.028,0.826-0.173,1.501c-0.457-0.093-0.105,0.061-0.407-0.268l-0.35-0.516
		C60.991,87.216,60.699,86.614,60.065,88.135"/>
	<path clip-path="url(#SVGID_2_)" fill-rule="evenodd" clip-rule="evenodd" d="M98.341,71.537c-0.653,1.102-0.586,1.644-1.547,2.688
		c-0.619,0.674-1.776,1.237-2.08,1.985c1.384,0.504,4.396-1.036,5.281,0.923c0.403,0.895,0.28,5.018-0.051,5.991
		c-0.2,0.589-0.854,1.436-1.213,2.191c-1.025,2.157-2.414,3.859-3.47,5.938c0.995,0.565,1.946,0.162,2.799,0.933
		c-0.942,0.537-3.969-0.788-4.921-1.189c-2.771-1.165-1.904-1.027-5.183-1.166c-0.037-2.235,1.426-0.839,1.957-3.334
		c0.258-1.211,0.015-3.196-0.5-4.36l-3.291,0.145c-0.677,1.304-0.931,3.901-0.145,5.057l-0.163-1.912l0.374-2.929
		c3.117-0.022,3.365-0.853,3.572,2.991c-0.153,2.393-1.358,3.533-3.519,2.198c0.488,0.629,1.087,0.645,1.32,1.454
		c0.259,0.896-0.365,1.049-0.748,1.749c0.513,1.129,0.793,0.247,0.891,1.798c0.529-0.778-0.01-0.38,0.647-0.672
		c1.374,1.028,2.192-0.239,3.676,0.938c0.791,0.628,1.099,1.688,2.379,2.1c2.348,0.755,5.414,0.564,5.394,3.63
		c-1.552-1.695-0.315-1.98-3.491-3.005c-1.893-0.61-3.771-0.479-4.043,1.516l1.467-0.188c-0.554,1.01-0.619,0.336-0.927,1.284
		c1.771,0.086,2.879-0.229,4.798,0.146c1.641,0.321,0.784,1.064,3.95,1.331c1.768,0.148,9.406-0.54,9.781-0.371
		c-2.29,1.005-7.931,1.255-10.645,0.633c-3.681-0.845-3.044,0.019-4.896,0.252c-1.496,0.188-4.065-0.714-5.239-0.032
		c1.058,0.897,3.64,0.195,4.606,0.275c0.416,0.034,0.253,0.008,0.476,0.105l-2.077,0.471c0.768,0.533,1.374,0.243,2.343,0.118
		c-0.497,0.609-0.555,0.475-1.584,0.736c0.626,0.483,0.538,0.257,1.484,0.172c-0.563,0.418-0.733,0.193-0.876,0.828
		c1.749,0.289,2.434-0.252,4.588,0.147c1.777,0.33,2.435,0.049,4.051,0.858l5.504,3.216c0.358,0.277,0.151,0.122,0.38,0.352
		l-75.078,0.114c1.285-0.611,3.334-0.781,4.943-1.547c1.891-0.899,2.456-1.832,3.94-2.716c1.181,0.331,1.424,0.939,2.368,1.521
		c0.87,0.536,1.833,0.52,2.57,1.12l-3.591-0.171c2.067,0.979,8.19,0.867,10.562,0.244l-1.042-0.272
		c0.898-0.278,1.791-0.547,2.422-1.005c0.378-0.274,0.661-0.498,0.962-0.742c0.669-0.54,0.546-0.558,0.647-0.9l-0.848-0.16
		c-0.129,0.117,0.227,0.08-0.517,0.337l-2.258,0.278c-2.344,0.151-8.738,0.556-10.225-0.613c0.693-0.411,1.452-0.223,2.406-0.146
		c0.545-0.591,1.004-0.558,1.608-0.939c-1.261,0.256-3.141,0.693-4.365,0.608c0.515-1.307,1.19-2.728,2.722-2.838
		c3.047-0.219,2.141,0.081,4.21-1.355c0.326-0.778,0.003,0.635-0.044-0.286c-0.04-0.775,0.197-0.316,0.99-1.639l-1.092-0.442
		c1.295-1.28,0.438-1.645,0.861-3.587c1.421-0.081,3.369,0.446,4.594-0.166c-1.62-0.285-3.265,0.141-4.857-0.087
		c-0.795-1.826-0.542-4.749,0.701-5.655c1.839-1.341,3.469-1.134,5.854-1.271c-0.346-0.66-0.997-1.032-1.644-1.573
		c-1.744-1.455-3.02-3.949-6.309-2.661c-3.918,1.535-2.335,6.331-3.92,8.619c-1.609-0.264-2.3-2.943-4.203-5.139
		c-0.667-0.77-1.938-1.404-2.215-2.451c-0.325-1.228-0.063-2.803,0.675-3.38c0.816,1.255-0.099,2.606,1.454,3.382l0.194-3.9
		c1.257-0.732,2.869,0.005,4.394,0.037c-0.625-1.74-2.366-2.31-2.941-4.668c-1.43,0.17-2.616-2.236-4.788-1.298
		c-2.207,0.953-1.943,3.612-3.014,4.002c0.292,0.542,0.081,0.268,0.572,0.749c0.066,0.064,0.29,0.249,0.361,0.3
		c0.43,0.307-0.149,0.019,0.451,0.248c-1.209-3.104,1.692-5.804,3.879-3.959c0.802,0.676,0.997,2.482,0.411,3.656
		c-0.592,1.187-1.997,0.624-3.323,1.353l-0.419-0.365l-0.21,0.627l-4.197-0.962l0.758-3.018l-0.431-2.248
		c-0.295,0.349-0.214,0.382-0.75,0.389c-0.381-0.585-0.391-0.924-1.124-1.156c-0.583,0.668-0.193,0.719-0.638,1.408
		c-4.642-0.024-5.683,0.939-5.671,5.56l-0.002,22.339c-0.046,5.78-0.56,4.993,4.004,6.958l-0.329,0.163
		c-0.287,0.087,0.261,0.275-0.889,0.041c-0.692-0.142-1.894-0.992-2.789-1.311l0.105,5.738l2.521-0.646
		c-0.405,0.165-0.927,0.535-1.395,0.778c-2.334,1.213-1.03,1.655,0.433,2.503c0.701,0.405,1.089,0.659,1.81,1.009
		c0.735-1.063,1.802-4.631,2.302-6.198c0.086-0.271,0.256-0.898,0.358-1.127c0.424-0.953-0.016-0.397,0.605-0.729l78.326,0.052
		l2.932,7.914c0.754-0.264,3.085-1.492,3.399-2.168l-0.002-2.803c-3.796-0.82-4.601-0.5-5.262-5.542l5.272-1.229l-0.067-12.592
		c-1.48,1.011-2.805,6.581-3.64,8.676c-1.105-1.746-0.873-1.824-0.084-3.912c0.468-1.24,1.727-4.822,2.408-5.673
		c0.335-0.418,1.054-1.019,1.234-1.521c0.248-0.695,0.217-4.3,0.105-5.174c-0.204-1.595-1.168-2.48-1.492-4
		c-0.367-1.723-0.181-2.837-1.129-4.204c-0.684-0.986-1.664-1.716-2.856-2.47c-1.999-1.263-1.955,0.019-3.419,0.563
		c-1.548-1.104-0.968-3.798-3.782-4.851C101.232,68.34,98.971,69.236,98.341,71.537 M98.341,71.537
		c2.179-2.226,5.864-2.042,7.308,2.485c0.46,1.442,0.475,2.085-0.703,2.642c-0.98-1.785-0.074-3.489-1.971-4.654
		c-2.28-1.4-2.728-0.023-4.727,0.371L98.341,71.537z M103.008,78.368c0.808,0.294,2.376,0.128,3.276,0.35
		c0.277,1.084,0.17,2.735,0.604,3.635c1.234,2.563,4.586,0.244,0.115,7.831c-2.261,3.837-5.171,7.658-7.837,1.592
		c-2.302-5.237,2.202-8.542,2.785-11.977c0.786-4.628-2.986-1.882-3.062-5.07c-0.105-4.433,5.825-3.305,5.424,1.26
		C104.159,77.743,102.853,77.673,103.008,78.368z M30.069,76.644c-0.567-1.08,0.069-1.491,1.122-1.471l0.616,0.865l-0.632,0.846
		L30.069,76.644z M110.73,76.688c-0.652,0.339-1.54,0.332-1.367-0.674C109.528,75.053,111.474,75.226,110.73,76.688z M42.546,76.636
		c0.082-0.907,0.143-0.902,0.711-1.288c0.981,0.146,1.629,1.308,2.013,2.063C44.362,77.436,43.208,77.067,42.546,76.636z
		 M104.078,78.382c0.027-0.954-0.371-0.438,0.614-0.939c0.252-0.128,0.627-0.291,0.889-0.398c0.842-0.348,1.424-0.575,2.013,0.23
		c-0.454,0.625-0.085,0.372-1.779,0.687C105.137,78.086,104.665,78.212,104.078,78.382z M110.47,80.923
		c0.376,3.667,0.143,5.209-1.643,8.115c-0.339,0.552-0.061,0.118-0.311,0.391c-0.087-2.084,0.989-3.231,1.304-5.094
		c-0.044-0.027-0.102-0.07-0.126-0.091c-0.556-0.462-0.988-1.048-1.187-1.774c-0.245-0.898-0.148-1.834-0.05-2.751
		C109.432,79.642,110.15,80.085,110.47,80.923z M37.708,87.061l-0.329,0.035c-1.095-0.004,0.078-0.334-0.405-0.035l2.051,6.368
		l-3.774-4.574c0.459,1.8,1.823,3.608,2.19,5.71l6.08-1.138c-0.378,0.716-0.812,1.265-1.229,2.03
		c-0.417,0.768-0.796,1.643-1.354,2.051c-0.987,0.722-4.563,1.157-5.838,0.686c-2.242-0.829-3.72-6.264-4.102-9.493
		c-0.544-4.608-2.571-7.74,2.184-9.587c3.533-1.373,2.658,0.256,2.92,2.795C36.291,83.727,37.435,85.043,37.708,87.061z
		 M56.077,83.794c0.708,0.457,0.348,0.144,0.631,0.801l-1.558-0.118l0.116-0.946C55.672,83.563,55.78,83.604,56.077,83.794z
		 M50.98,93.872l-0.071,1.637l-3.271-0.15c-1.287,0.266-6,2.909-7.567,3.62c-3.457,1.57-5.301,0.735-7.42,3.799l1.065-2.579
		c-0.549-0.426-1.117-1.272-1.517-1.838c2.385,2.279,2.702,1.704,8.437,0.127c2.226-0.612,0.392-1.199,2.358-3.179
		c0.866-0.871,1.993-1.8,2.714-3.027c1.53-2.604,1.091-6.018,2.628-8.646c1.732-2.964,5.644-3.386,5.516,1.563
		c-1.634,0.663-3.54,0.842-3.879,2.819C49.706,89.582,50.771,92.163,50.98,93.872z M28.408,91.171l0.575-2.202
		c2.013,0.522,2.448,4.157,2.116,6.639c0.217,1.305,0.642,1.767,1.102,2.753c-1.209-0.86-2.009-2.763-2.888-4.38
		c-0.765-1.406-2.054-3.523-2.41-5.04L28.408,91.171z M105.222,96.147c-0.41,0.25-0.352,0.266-1.228,0.165
		c-1.969-0.225-3.517,0.032-4.532-0.348C100.913,95.21,103.934,95.691,105.222,96.147z M103.313,100.886
		c0.54,0.746,0.684,1.313,0.605,2.617c-0.568-0.366-0.779-0.943-0.834-1.898C103.023,100.533,102.94,101.112,103.313,100.886z"/>
	<path clip-path="url(#SVGID_2_)" fill-rule="evenodd" clip-rule="evenodd" d="M44.696,84.212l1.825-3.929l-2.411-0.074
		C43.313,81.676,43.639,83.514,44.696,84.212 M26.949,71.956c0.682,0.546,1.379,0.503,2.128,0.269
		c-0.111-1.167-0.463-1.311-1.757-1.068C27.067,71.52,27.066,71.401,26.949,71.956z M52.069,83.019c0.59,0.668,0.366,0.526,0.753,0
		c-0.372-0.313,0.695-0.272-0.271-0.188C52.081,82.872,52.412,82.804,52.069,83.019z M70.948,64.742l-0.075-8.177V17.953
		L38.635,36.795l-7.822,4.528c-0.653,0.374-3.514,1.88-4.815,2.858l-0.884,0.517l0.028,5.504c-0.068,2.92-0.09,6.525,0.047,9.498
		l0.029,5.873l1.114-0.115c0.316,0.041,0.838,0.021,1.175,0.027c5.008,0.089,3.814,1.901,5.751,2.6
		c1.291-0.664,1.831-2.14,5.523-1.654c1.035,0.136,1.871,0.447,2.695,0.921c3.671,2.115,3.716,4.971,4.573,6.493
		c0.46,0.816,1.099,1.516,1.571,2.048c1.121,1.263,0.311,1.438,0.803,3.011c2.471-0.211,5.119-0.971,6.949,0.723
		c1.262,1.169,2.86,3.203,4.476,4.032c1.415-0.675,2.256-2.913,4.613-4.536c0.979-0.675,2.042-0.911,2.702-1.766
		c0.483-0.627,1.391-2.21,0.981-3.227c-1.436-0.667-2.883,0.268-3.794-1.145c-0.873-1.353-0.25-3.019,0.698-3.703
		C67.271,67.678,67.471,65.273,70.948,64.742z"/>
	<path clip-path="url(#SVGID_2_)" fill-rule="evenodd" clip-rule="evenodd" d="M38.7,124.018c3.351,0.148,4.197-0.673,4.333,1.219
		c0.031,0.439-0.005,0.913-0.034,1.352c2.028,1.327,4.454,2.616,6.591,3.877c1.122,0.662,2.164,1.266,3.321,1.906
		c0.267,0.148,2.939,1.887,3.13,1.456c0.025-0.056,0.11-0.015,0.227-0.033l0.12-2.832c2.09-0.548,20.93-0.246,25.85-0.188
		l3.141,0.287c0.358-0.591,0.342,2.777,0.363,2.926c1.276-0.267,12.18-6.743,13.189-7.553l0.192-2.458l4.004,0.013
		c0.979-0.252,2.035-0.796,2.512-1.445l-2.284-0.085c0.625-1.761,4.946-6.26,5.498-7.815c-0.939,0.484-7.081,6.139-8.093,7.151
		c-1.072,1.074-1.269,0.753-3.064,0.75c-1.232-0.001-2.471,0.04-3.703,0.052c-2.31,0.022-5.152,0.15-7.392-0.112
		c-0.006-1.214,0.144-3.112-0.223-4.025l-0.154,4.104l-15.001-0.031c-0.606-2.216,0.189-6.032-0.517-8.205l-0.131,8.234
		l-14.349-0.041c-0.094-0.261-0.406-7.543-0.402-7.572l-0.357,7.587c-2.243,0.236-4.898,0.02-7.195-0.009
		c-4.059-0.05-3.371,0.383-6.025-1.699c-1.961-1.538-6.601-5.067-8.722-6.169c0.65,0.631,6.981,7.055,7.08,7.883l-4.332,0.085
		C36.788,123.229,37.764,123.768,38.7,124.018"/>
	<path clip-path="url(#SVGID_2_)" fill-rule="evenodd" clip-rule="evenodd" d="M68.113,69.842c-0.549,0.492-1.801,1.1-2.06,1.967
		c2.465,0.13,2.733-0.35,4.449,0.921c0.446,4.456-1.205,5.42-2.707,7.304l0.772,0.878l-0.27-0.928
		c0.996-0.807,2.124-1.841,2.686-3.485c0.279-0.815,0.304-1.756,0.767-2.423c0.629-0.906,1.042-0.502,1.59-1.788
		c-1.578,0.086-2.102,0.238-3.185-0.642c-0.633-3.762,4.354-5.207,4.786,0.089c0.153,1.881-0.228,4.071,0.116,5.864
		c0.338,1.756,2.365,2.521,0.726,3.929c-0.415,3.407-6.814,9.922-9.386,10.411c0.257-1.02,0.53-0.521,0.72-1.766
		c-1.681-0.493-1.266-1.761-1.363-3.614c-0.402,0.153-0.292,0.071-0.566,0.301c-0.093,1.867-0.798,2.559-1.769,3.321
		c0.036,1.006,0.245,1.117,0.475,1.998l2.034,0.066c3.269-0.238,3.202-1.194,4.57-1.42c2.04-0.337,2.541,1.305,4.438,1.417
		c3.414,0.202,8.006,0.168,11.423-0.051c0.207-1.824-2.386-5.168-3.827-7.609c-2.488-4.217-4.295-4.392-5.524-6.171
		c-2.162-3.128,0.258-12.174-5.887-11.628C69.613,66.918,68.548,68.639,68.113,69.842 M68.113,69.842
		c1.195,0.114,1.156,0.25,1.317,1.495l-2.256-0.001C67.436,70.302,67.573,70.808,68.113,69.842"/>
	<path clip-path="url(#SVGID_2_)" fill-rule="evenodd" clip-rule="evenodd" d="M73.472,97.75c-2.503-0.296-3.453,0.477-3.468-1.664
		c-0.794-0.159-1.394-0.666-1.969-1.153c0.263-0.764,0.737-1.276,1.482-1.373c-1.398-0.174-1.792-0.389-3.01-0.714
		c-0.301,0.24-0.759-0.075,0.653,0.486c0.663,0.264,0.425,0.063,0.953,0.537c-0.294,0.457-0.407,0.549-1.303,0.791
		c-2.798,0.759-1.196,0.866-2.601,1.448c-0.658,0.272-0.66,0.063-1.382,0.526c0.25,0.639,0.281,0.552,1.104,0.696
		c-0.051,0.018-0.451,0.13-0.453,0.131c-0.578,0.242,0.035-0.138-0.417,0.265c0.806,0.648,0.847,0.923,1.828,1.528
		c0.448,0.276,1.742,0.773,1.845,1.28c-0.973,0.18-2.071,0.07-2.787,0.519c3.308,0.998,13.519,1.048,16.314-0.347
		c-0.361-0.507-0.255-0.459-1.103-0.602c-0.444-0.074-0.888-0.075-1.36-0.151c0.842-0.767,2.082-1.618,2.635-2.418
		c-1.33,0.005-2.693,0.415-4.02,0.547c-3.08,0.307-10.017,0.592-12.349-0.593C66.47,97.594,71.189,98.282,73.472,97.75
		 M69.656,97.554c-1.78,0.096-3.343,0.124-4.869-0.69c0.47-1.623,2.205-2.323,4.149-1.021
		C69.644,96.315,69.685,96.354,69.656,97.554z"/>
	<path clip-path="url(#SVGID_2_)" fill-rule="evenodd" clip-rule="evenodd" d="M96.407,105.783c0.602-0.372,2.285-0.626,3.308-1.18
		c-7.502,0.396-5.217,0.563-12.318,0.018l1.042,0.679c0.375,0.164,0.563,0.236,0.892,0.399c-0.22,0.039-0.808,0.09-0.939,0.129
		l-0.73,0.451c2.165,0.604,11.329,1.175,13.007-0.079C99.46,105.716,97.88,105.954,96.407,105.783"/>
	<path clip-path="url(#SVGID_2_)" fill-rule="evenodd" clip-rule="evenodd" d="M57.72,98.092c-4.356,0.068-3.058,0.728-3.401,1.422
		c-1.34-0.02-0.738-0.268-1.732-0.536c0.86,1.725,8.57,1.529,9.525-0.216C61.214,97.978,59.034,98.071,57.72,98.092"/>
	<path clip-path="url(#SVGID_2_)" fill-rule="evenodd" clip-rule="evenodd" d="M62.047,89.86c-0.94-0.237-1.633-0.878-1.982-1.726
		c-0.838,0.608-1.804,2.658-1.653,4.163l4.682-0.077C63.298,90.319,62.898,90.745,62.047,89.86"/>
	<path clip-path="url(#SVGID_2_)" fill-rule="evenodd" clip-rule="evenodd" d="M110.508,69.399c3.006-1.512,3.874,0.362,6.05,0.777
		l0.063-4.025C114.48,66.229,111.251,67.929,110.508,69.399"/>
	<path clip-path="url(#SVGID_2_)" fill-rule="evenodd" clip-rule="evenodd" d="M89.552,96.614c-0.06,0.038-0.125,0.086-0.179,0.112
		c-0.054,0.025-0.115,0.074-0.183,0.104c-0.837,0.354-1.552,0.229-2.539,0.229c-1.536,0.001-1.846,0.177-2.763-0.414l-1.696-0.197
		c0.612,1.303,3.088,1.977,4.687,2.088c1.515,0.105,2.446-0.439,3.873-1.192l0.897-0.787L89.552,96.614z"/>
	<path clip-path="url(#SVGID_2_)" fill-rule="evenodd" clip-rule="evenodd" d="M53.21,89.906c0.843,0.177,2.429,0.469,3.14-0.182
		c0.359-0.329,1.025-1.885,0.994-2.286c-0.893-0.219-2.113,0.122-2.854,0.438C53.541,88.278,53.029,88.849,53.21,89.906"/>
	<path clip-path="url(#SVGID_2_)" fill-rule="evenodd" clip-rule="evenodd" fill="#080808" d="M87.049,103.237
		c0.744-0.557,2.15-0.651,3.231-0.834c0.943-0.158,2.268-0.178,2.703-1.044c-2.17,1.03-4.866,0.607-6.968,1.605
		c0.401,0.484,0.535,0.591,1.331,0.85c2.937,0.955,10.614,1.259,12.839-0.078C95.722,103.371,91.554,104.604,87.049,103.237"/>
	<path clip-path="url(#SVGID_2_)" fill-rule="evenodd" clip-rule="evenodd" fill="#4D4D4D" d="M83.889,96.646
		c0.917,0.591,1.227,0.415,2.763,0.414c0.987,0,1.702,0.124,2.539-0.229c0.067-0.029,0.129-0.078,0.183-0.104
		c0.054-0.026,0.119-0.074,0.179-0.112c-1.563-0.272,1.622,0.035,2.527-0.788c-3.488-1.035-6.371-1.331-9.789,0.027
		c0.229,0.249-0.207,0.403,0.992,0.611c0.269,0.046,1.01,0.019,1.319,0.1L83.889,96.646z M83.682,96.124
		c1.938-1.433,4.037-0.598,6.094-0.198C87.834,96.467,85.694,96.314,83.682,96.124z"/>
	<path clip-path="url(#SVGID_2_)" fill-rule="evenodd" clip-rule="evenodd" fill="#E70609" d="M61.324,96.218
		c-0.238-0.367,0.298,0.033-0.431-0.421c-2.313-1.439-5.928-0.73-8.292,0.188c0.301,0.189-0.027,0.044,0.471,0.189
		c0.002,0,0.48,0.102,0.527,0.11C56.083,96.743,58.824,96.392,61.324,96.218"/>
	<path clip-path="url(#SVGID_2_)" fill-rule="evenodd" clip-rule="evenodd" fill="#0C0C0C" d="M61.324,96.218
		c-1.961,1.642-6.056,0.376-8.578,0.344c1.348,1.418,7.72,1.48,8.943-0.229L61.324,96.218z"/>
	<path clip-path="url(#SVGID_2_)" fill-rule="evenodd" clip-rule="evenodd" fill="#0C0202" d="M72.865,94.391
		c0.807-0.415,2.019-0.776,2.519-1.355l-1.206,0.041c-0.552,0.952-1.447,0.838-2.679,0.786c0.017,0.486,0.106,0.269-0.051,0.758
		c-0.021,0.064-0.115,0.237-0.146,0.301c-0.025,0.054-0.064,0.108-0.09,0.157c-0.027,0.053-0.07,0.128-0.094,0.172
		c-0.024,0.044-0.066,0.116-0.097,0.176l1.164,0.013L72.865,94.391z"/>
	<path clip-path="url(#SVGID_2_)" fill-rule="evenodd" clip-rule="evenodd" fill="#FFFFFF" d="M16.178,121.947
		c0.107-1.711,0-30.157,0-30.157l33.22,19.116h40.598v1.423l35.692-20.539c0,0-0.107,28.446,0,30.157l-39.891,10.374l-8.364-2.166
		h-13l-8.365,2.166L16.178,121.947z"/>
	<path clip-path="url(#SVGID_2_)" fill-rule="evenodd" clip-rule="evenodd" fill="#FFFFFF" d="M16.178,19.71
		c0.107,1.711,0,30.158,0,30.158l54.888-31.949l54.622,31.949c0,0-0.107-28.447,0-30.158L85.798-1.892l-8.364,2.165h-13
		l-8.365-2.165L16.178,19.71z"/>
</g>
<polygon fill="none" stroke="#141515" stroke-width="2.021" stroke-miterlimit="22.9256" points="70.866,13.973 95.501,28.197 
	120.137,42.42 120.137,70.867 120.137,99.313 95.501,113.537 70.866,127.76 46.23,113.537 21.595,99.313 21.595,70.867 
	21.595,42.42 46.23,28.197 "/>
<text transform="matrix(1 0 0 1.1751 40.6841 63.5483)" fill="#FFFFFF" font-family="'TraditionalArabic-Bold'" font-size="33.429">2</text>
<text transform="matrix(1 0 0 1.1751 55.7661 63.5483)" fill="#FFFFFF" font-family="'TraditionalArabic-Bold'" font-size="33.429">0</text>
<text transform="matrix(1 0 0 1.1751 70.8486 63.5483)" fill="#FFFFFF" font-family="'TraditionalArabic-Bold'" font-size="33.429">2</text>
<text transform="matrix(1 0 0 1.1751 85.9307 63.5483)" fill="#FFFFFF" font-family="'TraditionalArabic-Bold'" font-size="33.429">4</text>
</svg>
