<?xml version="1.0" encoding="utf-8"?>
<!-- Generator: Adobe Illustrator 16.0.0, SVG Export Plug-In . SVG Version: 6.00 Build 0)  -->
<!DOCTYPE svg PUBLIC "-//W3C//DTD SVG 1.1//EN" "http://www.w3.org/Graphics/SVG/1.1/DTD/svg11.dtd">
<svg version="1.1" id="Capa_1" xmlns="http://www.w3.org/2000/svg" xmlns:xlink="http://www.w3.org/1999/xlink" x="0px" y="0px"
	 width="141.732px" height="141.732px" viewBox="0 0 141.732 141.732" enable-background="new 0 0 141.732 141.732"
	 xml:space="preserve">
<polygon fill-rule="evenodd" clip-rule="evenodd" fill="#FF0000" points="70.866,40.213 102.756,47.876 134.646,55.54 
	134.646,70.866 134.646,86.193 102.756,93.856 70.866,101.52 38.977,93.856 7.086,86.193 7.086,70.866 7.086,55.54 38.977,47.876 
	"/>
<polygon fill-rule="evenodd" clip-rule="evenodd" fill="#FFFFFF" points="70.866,13.973 95.502,28.196 120.138,42.419 
	120.138,70.866 120.138,99.313 95.502,113.536 70.866,127.76 46.23,113.536 21.595,99.313 21.595,70.866 21.595,42.419 
	46.23,28.196 "/>
<g>
	<defs>
		<polygon id="SVGID_1_" points="70.866,13.973 95.502,28.196 120.138,42.419 120.138,70.866 120.138,99.313 95.502,113.536 
			70.866,127.76 46.23,113.536 21.595,99.313 21.595,70.866 21.595,42.419 46.23,28.196 		"/>
	</defs>
	<clipPath id="SVGID_2_">
		<use xlink:href="#SVGID_1_"  overflow="visible"/>
	</clipPath>
	<path clip-path="url(#SVGID_2_)" fill-rule="evenodd" clip-rule="evenodd" d="M1.067,85.936c23.726-5.984,47.142-8.736,69.727,0
		v23.741H1.067C1.067,101.764,1.067,93.85,1.067,85.936z"/>
	<path clip-path="url(#SVGID_2_)" fill="none" stroke="#000000" stroke-width="0.5669" stroke-miterlimit="22.9256" d="
		M1.067,85.936c23.726-5.984,47.142-8.736,69.727,0v23.741H1.067C1.067,101.764,1.067,93.85,1.067,85.936z"/>
	<path clip-path="url(#SVGID_2_)" fill-rule="evenodd" clip-rule="evenodd" d="M111.662,68.235c-0.043-0.243-0.035-0.386-0.15-0.605
		c-0.182-0.344-0.219-0.138-0.332-0.455c-0.159-0.441,0.002-1.078-0.245-1.461c-0.304-0.472-0.641-0.067-0.989-0.706
		c-0.951-1.744-2.242-2.033-2.583-2.549l-0.767-0.934c-0.464-0.443-0.277-0.609-1.221-0.509c-0.273,0.403-0.059,0.685-1.094,0.386
		c-0.411-0.119-0.837-0.29-1.3-0.426c-0.565-0.167-0.815-0.146-1.121-0.562c-0.316-0.432-0.304-0.598-0.798-0.914
		c0.257-0.735,1.068-1.604,1-2.327c-0.074-0.784-0.985-0.809-1.471-0.293c-0.355,0.378-0.762,1.417-0.877,1.847l-0.656-0.202
		c0.061-1.14-0.001-0.262-0.187-0.8c0.281-0.54,1.222-2.197-0.093-2.111c-0.632,0.289-0.175,1.934-0.902,1.989l-0.128-0.483
		c-0.007-0.029-0.012-0.076-0.025-0.112l-0.717-0.194c0.229-1.481,2.846-5.23,1.095-5.956c-1.413-0.585-1.896,0.668-2.154,1.812
		c-0.253,1.116-0.617,2.523-0.769,3.614l-1.089-0.276c-0.036,0.224-0.064,0.367-0.124,0.604l-0.194,0.542
		c-0.009,0.02-0.029,0.056-0.046,0.083c-0.786-0.269-0.582-0.193-0.569-0.938l-0.614-0.076c0.145-1.378-0.403,0.239-0.273-1.186
		l-0.56-0.113c0.226-1.984,0.692-3.878,0.946-5.844l1.251,0.287l0.16-1.081l-1.204-0.073c0.014-0.316,0.235-0.805,0.143-1.231
		l-1.402-0.196l-0.118,1.184l-1.213-0.156l-0.188,1.013l1.24,0.039l-0.965,5.788c-0.53,0.199-0.388,0.048-0.76,0.414l-0.184,0.149
		c-0.02,0.016-0.049,0.034-0.068,0.051c-0.021,0.018-0.046,0.041-0.067,0.059c-0.347,0.302-0.294,0.324-0.817,0.287
		c-0.653-1.042-0.42-4.581-0.232-6.033l-3.255,0.828l-0.423-1.931l1.555-0.087l-0.038-0.745l-1.598,0.348l-0.149-1.404l-0.682,0.186
		l0.24,1.342l-1.638,0.213l0.065,0.594l1.671-0.359l0.146,1.878c-0.711,0.218-2.053,0.216-2.781,0.192
		c0.376,2.2,1.049,3.111,1.029,5.952c-0.914,0.22-1.436,0.027-2.034,0.574c-0.417-1.219-0.474-2.89-0.523-4.282l-0.637,0.083
		c0.671,0.557-3.622-4.549-4.375,1.114l-0.432,0.183c-0.018,0.009-0.055,0.029-0.078,0.048c0.365,1.506,0.836,3.022,0.776,4.743
		c-0.271,0.009-0.385,0.03-0.554,0.19c-0.226,0.214-0.147,0.372-0.435,0.428c-0.286-0.208-0.274-0.904-0.356-1.351
		c-0.098-0.533-0.234-1.001-0.237-1.582c0.471-0.124,0.553,0.079,0.568-0.33c0.02-0.488-0.256-0.235-0.658-0.174l-0.084-0.303
		c-0.01-0.024-0.026-0.061-0.037-0.084c-0.011-0.024-0.033-0.066-0.043-0.086c-0.01-0.021-0.027-0.061-0.047-0.087l-0.547,0.284
		l-0.026,0.471l-0.607,0.195l0.069,0.532l0.675-0.278c0.089,0.602,0.588,2.609,0.306,3.006c-0.011,0.016-0.034,0.045-0.047,0.063
		c-0.013,0.019-0.034,0.049-0.048,0.07l-0.286,0.451c-0.279,0.38-0.012-0.193-0.248,0.323c-1.224,1.118-2.311,4.379-3.404,6.236
		c-0.292,0.495-0.603,0.046-0.895,0.438c-0.834,1.119-1.813,0.762-2.46,1.678c-3.015,4.265-3.785,5.137-4.885,9.831
		c-0.865,0.399-4.316,0.075-4.951,0.769c-0.539,0.59-0.683,0.253-1.551,0.416c-0.534,0.1,0.59,3.125,0.216,3.394
		c-0.544,0.39-0.622,0.325-1.048,0.921l-23.358,22.574l39.088,26.405l72.885-56.696l0.064-1.768c-0.698-0.338-0.87-0.03-1.508-0.033
		c-0.485-0.001-0.763-0.351-1.364-0.433c-1.114-0.151-2.131-0.125-3.261-0.42c-1.658-0.433-2.46,0.265-3.025,0.54
		c-0.922,0.449-0.384-0.247-1.116-0.441c-0.909-0.241-1.078,0.146-1.511,0.34c-0.469-0.21-0.947-0.341-1.396-0.55
		c-1.22-0.568-0.578-1.412-3.193-0.843C120.174,74.359,112.452,68.384,111.662,68.235"/>
	<path clip-path="url(#SVGID_2_)" fill-rule="evenodd" clip-rule="evenodd" fill="#FFFFFF" d="M81.839,62.965l0.193-2.544
		c0,0,6.819-1.807,9.419-0.769s2.758,1.18,2.758,1.18l0.035,2.552l0.058,0.002l-0.033,1.76l0.017,1.163l-0.038-0.001l-0.001,0.042
		l4.981,0.237c0.796,1.399,0.735,1.174-0.406,2.189c-0.834,0.741-1.265,0.47-3.356,0.435l-0.078,1.638
		c-1.392,0.922-0.406,1.838-1.616,3.652c-0.547,0.818-0.41,0.739-0.747,1.878c-0.268,0.904-0.739,0.878-0.835,1.907
		c0.405,0.384,0.697,0.386,1.055,0.708c0.416,0.375,0.486,1.066,0.606,1.296c0.708,0.267,3.627,0.249,4.702,0.371
		c1.669,0.191,2.414,0.864,3.318,1.757l1.188,1.277c0.416,0.517,0.776,0.836,1.136,1.297c3.856,4.955,2.054,2.201,3.114,6.729
		c0.134,0.568,0.125,0.333,0.19,0.959c0.054,0.506,0.009,0.551,0.24,0.976c0.207,0.381,0.314,0.442,0.443,0.861l1.426,4.84
		c0.172,0.883-0.061,1.511,0.01,2.347l0.767,6.532c0.486,2.461-0.242,1.596,0.521,4.318l1.984,7.971
		c0.087,0.479,0.213,1.318,0.367,1.997c0.154,0.683,0.409,1.031,0.52,1.876c0.185,1.413,0.596,2.813,0.788,4.116
		c0.103,0.695,0.032,1.538,0.123,2.307c0.294,2.481-0.15,3.538,0.302,7.099l-45.206-1.524c-0.007-0.229-0.006-0.497-0.061-0.685
		c-0.141-0.483-0.16-0.328-0.352-0.489c-0.45,0.53-0.354,0.485-0.147,1.155l-4.409-0.148c0.027-0.963,0.116-1.991,0.134-2.944
		c0.018-0.953-0.14-0.584-0.23-1.177l0.083-4.311l0.776-2.138c-0.958-1.552-0.674-0.589-0.433-2.44
		c0.068-0.524-0.037-1.081,0.078-1.575c0.11-0.476,0.216-0.334,0.294-1.181l0.107-0.7c0.178-0.563,0.056,0.139,0.227-0.637
		c0.681-3.093,0.339-0.753,0.536-4.04c0.071-1.206,0.727-2.899,0.706-3.939c-0.034-1.698,0.234,0.239,0.458-1.72l0.497-2.214
		c0.012-0.038,0.027-0.082,0.04-0.12l0.219-0.613c0.412-0.883,0.206,0.123,0.273-1.249c0.075-1.526,0.238-0.146,0.355-1.273
		c0.04-0.386-0.084-0.693-0.021-1.259c0.233-2.08,0.525-2.018,0.545-2.464c0.013-0.295-0.157-0.954-0.039-1.502
		c0.212-0.991,0.249-0.053,0.477-1.004c0.044-0.184,0.091-1.331,0.071-1.528c-0.078-0.777-0.21-0.214-0.294-1.187
		c-0.102-1.181,0.049-5.73,0.629-6.651l1.362-2.56c0.445-0.943-0.067-1.037,0.646-1.375l0.877-0.408
		c0.625-0.394,0.434-0.35,1.158-0.619c0.588-0.219,0.252-0.083,0.663-0.323c1.931-1.125,4.104,0.517,6.879-2.749
		c1.016-1.196,0.827-2.676,0.204-4.003l-1.083-4.191c-0.09-0.495-0.198-2.886-0.344-3.085c-0.324-0.39,0.227-0.011-0.314-0.188
		c-0.173-0.057-3.047-0.3-4.16-1.317c-0.028-0.803-0.172-1.167,0.454-1.443c1.209-0.533,3.879,0.121,4.937-0.151l0.229-2.985
		L81.839,62.965z"/>
	<path clip-path="url(#SVGID_2_)" fill-rule="evenodd" clip-rule="evenodd" d="M74.433,19.932l0.082,0.66l-0.164,0.04
		c0.127,0.261-0.101,0.574-0.333,0.639c-0.288,0.081-0.424-0.119-0.928,0.073c-0.492,0.186-0.403,0.103-0.606,0.541
		c-0.138,0.297-0.226,0.479-0.338,0.804l-0.512,1.69c-0.203,0.598-0.326,1.059-0.513,1.671c-0.243,0.794-0.414,1.727-0.646,2.538
		c-0.412,1.439-0.768,2.979-1.057,4.416l-0.589,2.577c-0.07,0.31-0.174,0.576-0.234,0.88c-0.589,2.979-1.112,5.988-1.848,8.915
		c-0.359,1.43-0.872,2.738-1.296,4.104l-1.044,2.347c-0.255,0.551-0.438,0.937-0.722,1.512c-0.479,0.971-0.911,2.106-1.374,3.038
		l-1.045,2.278c-0.312,0.748-0.877,1.399-1.157,2.197c-0.102,0.29-0.275,0.492-0.266,0.794c0.034,1.161-0.256,1.271-0.132,1.974
		c0.169,0.962,0.391,2.335,0.009,3.175c-0.258,0.569-0.487,0.929-0.584,1.558c-0.043,0.281,0.153,1.223,0.228,1.573
		c0.056,0.261,0.099,0.217,0.149,0.485c0.119,0.643,0.232,1.649,0.286,2.309c0.036,0.439,0.092,1.464,0.529,1.703
		c-0.096,0.284,0.032,0.376,0.12,0.602c0.254,0.647,0.028,0.794,0.657,1.876c0.16,0.276,0.252,0.992,0.359,1.367
		c0.136,0.478,0.941,1.284,0.109,1.43c-0.548,0.096-0.536,0.178-1.018,0.158c-0.263-0.011-0.686,0.201-0.889-0.014
		c-0.167-0.178-0.116-1.348-0.25-1.697c-0.485-1.263-0.027-0.639-1.084-2.29c-0.425-0.664-0.772-0.839-0.917-1.766l-0.57-1.447
		c-0.067-0.187-0.08-0.396-0.204-0.546l-0.316,0.998c-0.295,0.668-0.111,1.588-0.221,2.358c-0.058,0.403-0.131,0.733-0.151,1.173
		c-0.1,2.209,0.46,3.071,0.479,3.283c0.02,0.229-0.105,0.386-0.291,0.427c-0.681,0.15,0.085-0.139-0.518-0.136
		c-0.255,0.001-0.387,0.093-0.534,0.258c-0.34-0.087-0.35,0.072-0.541-0.191l-0.045-0.359c0.061-0.477-0.001-0.698-0.138-1.146
		c-0.142-0.469-0.058-1.226-0.356-2.188c-0.203-0.654-0.313-1.731-0.421-2.451c-0.117-0.776-0.06-0.344,0.072-0.953
		c0.032-0.147,0.066-0.321,0.096-0.49c0.057-0.329,0.125-0.353,0.022-0.433c-0.109-0.119-0.138,0.011-0.336,0.114
		c-0.67,0.352-3.14,1.103-3.894,1.202c-0.936,0.124-2.297,0.63-4.194,0.865c-0.418,0.051-0.256,0.037-0.56,0.201
		c0.002,0.655,0.044,1.28,0.029,1.896c-0.018,0.7-0.12,1.052-0.02,1.855c0.061,0.487,0.17,1.577,0.439,1.865
		c0.363,0.388,1.423,0.365,1.399,0.719l-0.049,0.286c-0.061,0.169-0.207,0.186-0.206,0.356c0.001,0.189,0.069,0.118,0.213,0.219
		l-0.303,0.037c-0.052-0.141-0.01-0.082-0.096-0.155c-0.215,0.094-0.609,0.167-0.793,0.117c-0.167-0.044,0.024-0.037-0.151-0.041
		c-0.126-0.002-0.003,0.005-0.186,0.033c-0.223,0.036-0.168,0.015-0.38,0.011c-0.623-0.012-1.219,0.187-1.806,0.195
		c-0.01-0.223-0.047-0.314-0.044-0.528c0.002-0.179,0.001-0.25-0.015-0.464c-0.018-0.239,0.027-0.373-0.002-0.498
		c-0.098-0.404-0.206-0.117-0.291-1.427c-0.094-1.445-0.578-2.237-0.663-2.823c-0.046-0.321-0.049-0.76-0.131-1.061
		c-0.039-0.142-0.105-0.267-0.197-0.423c-0.067-0.115-0.028-0.062-0.1-0.154l-0.124-0.133c-0.106,0.717-0.411,0.985-0.729,1.455
		c-0.588,0.868-1.209,1.753-1.712,2.664c-0.247,0.447-0.328,1.074-0.5,1.562c0.333,0.433,0.45,0.979,0.952,1.216
		c0.414,0.195,1.036,0.271,1.16,0.893c-0.398,0.111-0.577,0.025-0.971,0.128c-0.341,0.089-0.602,0.177-0.976,0.224
		c-0.793,0.1-1.211-0.029-1.615-0.398c-0.186-0.171-0.352-0.402-0.523-0.557c-0.835-0.745-1.39-0.568-0.428-2.236
		c0.424-0.735,0.775-1.676,1.071-2.485c0.196-0.539,0.192-1.039,0.397-1.6c0.165-0.449,0.472-1.154,0.387-1.631
		c-0.304-0.1-0.516-0.019-0.878-0.196c-0.726-0.357-1.453-0.715-2.351-0.692c-0.44,0.011-1.693,0.275-2.06,0.394
		c-1.112,0.361-3.874,0.626-5.199,0.768c-0.38,0.041-0.538-0.024-0.939,0.029c-1.045,0.138-1.938,0.035-2.968,0.012
		c-0.388-0.009-0.504-0.022-0.95,0.035c-1.531,0.196-2.205-0.112-3.694,0.876c-0.738,0.49-1.478,1.168-2.091,1.799
		c-1.006,1.033-1.021,1.066-1.69,2.062c-0.131,0.194-0.32,0.41-0.462,0.596c-0.184,0.24-0.265,0.384-0.392,0.649
		c-0.217,0.451-0.427,0.967-0.794,1.298c-0.272,0.245-0.351,0.371-0.791,0.317c0.011-0.271,0.313-0.581,0.445-0.813
		c0.165-0.29,0.191-0.631,0.311-0.939c0.168-0.434,0.426-0.826,0.648-1.244c0.086-0.162,0.124-0.248,0.193-0.406l0.821-1.668
		c0.212-0.277,0.31-0.483,0.535-0.765c0.388-0.484,0.41-0.325,0.322-0.755c0.616-0.188,0.568-0.487,0.892-0.777
		c0.236-0.212,0.836-0.35,0.86-0.789c0.387-0.021,0.387-0.053,0.638-0.289c0.471-0.443,1.087-0.676,1.626-1.044
		c0.235-0.161,0.691-0.279,0.954-0.439c0.314-0.192,0.636-0.196,0.98-0.361c0.542-0.261,1.457-0.417,2.137-0.64
		c0.363-0.119,1.079-0.313,1.334-0.485c0.337-0.227,0.187-0.154,0.628-0.291c0.292-0.09,0.404-0.061,0.656-0.225
		c0.319-0.208,0.148-0.238,0.603-0.328c0.454-0.09,0.285-0.149,0.563-0.279c0.187-0.088,0.5-0.124,0.72-0.225
		c12.163-5.033,5.235-5.045,12.562-9.249c6.551-3.526,6.425-0.039,11.482-4.427c0.151-0.131,0.105-0.036,0.251-0.142
		c0.318-0.229,0.044-0.095,0.193-0.262c0.131-0.146,0.093-0.032,0.277-0.169c0.306-0.228,0.498-0.671,0.773-0.914
		c0.333-0.294,0.46-0.611,0.674-0.988c0.164-0.287,0-0.062,0.24-0.212c0.375-0.237,0.711-0.729,0.983-1.146
		c0.139-0.213,0.205-0.279,0.385-0.488l2.482-4.2c0.089-0.172,0.169-0.333,0.272-0.514c0.407-0.716,0.739-1.537,1.04-2.287
		c0.153-0.381,0.296-0.77,0.46-1.158l1.418-3.512c0.386-0.89,1.149-2.765,1.243-3.582l0.512-1.182
		c0.076-0.217,0.154-0.399,0.206-0.632c0.083-0.368,0.106-0.216,0.229-0.542c0.151-0.398,0.26-0.801,0.38-1.228
		c0.11-0.394,0.207-0.837,0.358-1.244l2.533-7.25c0.22-0.292,0.16-0.24,0.3-0.556c0.099-0.225,0.113-0.438,0.199-0.575
		c0.208-0.33,0.442-0.66,0.601-1.052c0.271-0.673,1.592-2.59,2.18-2.861l0.603-0.292c0.234-0.076,0.555-0.028,0.75-0.199l0.71-0.088
		c0.141,0.093,0.016,0.018,0.167,0.087c0.622,0.286,0.292,0.145,0.792,0.783c0.49,0.628,0.304,0.521,0.525,0.836
		c0.002,0.003,0.113,0.139,0.116,0.143C74.416,19.92,74.367,19.871,74.433,19.932"/>
	<path clip-path="url(#SVGID_2_)" fill-rule="evenodd" clip-rule="evenodd" d="M117.395,9.333c0.006,0.025,0.019,0.061,0.021,0.074
		l0.052,0.271c0.093,0.444-0.173,0.13,0.265,0.437c0.374,0.262,0.555,0.161,0.947,0.376c0.039,1.115-0.467-0.138-0.817,1.425
		c-0.229,1.023-0.508,0.641-1.103,0.866c-0.278,1.104,0.354,0.809-0.5,1.496c0.162,0.46,0.188,0.151,0.248,0.755
		c-0.479-0.204-0.661-0.482-0.954-0.914l-0.396-0.733c-0.688-1.264,0.279-2.007,0.281-2.013c0.012-0.044,0.047-0.047,0.069-0.072
		l-0.179-0.075c-0.021-0.007-0.06-0.02-0.081-0.027l-0.417-0.245c0.619-0.704,0.238-0.587,0.556-1.417
		c0.156-0.41,0.154-0.183,0.337-0.643c0.208-0.525,0.244-1.144,0.865-1.015c0.535,0.111,0.262,0.192,0.196,0.369
		C116.512,8.984,116.637,9.329,117.395,9.333 M91.945,17.242c-1.077-1.413-0.33-2.754-0.356-3.386
		c-0.094-2.305-0.909-2.207-1.234-4.405l0.497-0.317c0.163,0.427,0.038,0.542,0.024,1.056c-0.004,0.122-0.003,0.263-0.007,0.396
		c-0.014,0.449-0.01,0.658,0.407,1.157c0.833,0.999,0.271,0.289,0.667,1.021c0.295,0.544,0.541,0.364,1.016,0.716
		c1.171,0.868,0.43,1.122,0.037,2.264c-0.156,0.456-0.27,1.019-0.018,1.394c1.213,1.817,1.249,0.733,1.673,1.843
		c0.181,0.471,0.219,0.787,0.429,1.256c0.337,0.751,0.829,1.647,1.287,2.111c0.21,0.213,0.267,0.182,0.473,0.442
		c0.778,0.986,0.827,0.664,1.253,1.243c0.232,0.316,0.357,0.78,0.507,1.179c0.178,0.474,0.416,0.748,0.625,1.148
		c-1.185,0.245-0.393,0.284-1.113-0.059c0.163,0.42,0.1,0.232,0.429,0.492c0.495-0.081,0.438-0.225,1.053-0.362l-0.594,1.4
		c-0.867-0.315-0.948-0.527-1.711-0.574c0.258-1.128,0.273-0.392-0.018-1.493c0.465-0.901-0.477,0.545,0.155-0.147
		c0.13-0.142,0.061,0.345,0.063-0.086c0,0-0.101-0.229-0.125-0.348c-0.146-0.727-0.021-0.518,0.217-0.868
		c-0.835-0.003-0.423,0.602-0.589,1.219c-0.488,0.276-0.807,0.274-1.246,0.229l-0.276,0.51c-0.189-1.051-0.292-0.251-0.365-1.085
		c-0.042-0.486-0.1-0.895-0.085-1.39c0.025-0.865-0.102-0.798-0.006-1.774c0.066-0.672-0.3-1.09-0.468-1.597
		c-0.29-0.878-0.503-1.266-1.29-1.901c-0.02-0.015-0.046-0.036-0.064-0.05c-0.033-0.025-0.136-0.083-0.202-0.13L91.945,17.242z
		 M106.288,12.103c-0.378-0.019-0.681-0.182-0.992-0.158c-0.649,0.05-0.397,0.171-1.149-0.003c-0.37-1.038,0.518-2.146,0.712-2.537
		l1.038,0.156c-0.332,0.818-0.396,0.684-0.37,2.087C105.893,11.898,106.038,11.709,106.288,12.103z M109.364,10.146
		c-0.188-0.19-0.309-0.336-0.396-0.581l0.314-0.231l0.477,0.442c0.141,0.082,0.385,0.163,0.548,0.248l-0.24,0.555L109.364,10.146z
		 M108.53,10.288c-0.211-0.07-0.13-0.068-0.233-0.145l0.119-0.408c0.177,0.096,0.327,0.015,0.454,0.599
		C108.731,10.322,108.648,10.327,108.53,10.288z M113.083,10.915c0.257-0.686,0.371-0.353,0.613-0.815l0.336,0.569
		C113.775,10.862,113.529,10.897,113.083,10.915z M109.87,15.309c-0.341-0.238-0.938-0.714-1.18-0.834
		c-1.13-0.561-1.146-0.782-0.114-2.396c0.359-0.562,0.562-0.664,0.991-1.069c0.126,0.175,0.27,0.149-0.022,0.506l-0.124,0.132
		c0.154,0.361,0.033,0.331,0.253,0.581l0.212-0.449c1.189,0.055,1.041,0.438,1.676,1.604L109.87,15.309z M111.756,12.111
		c1.629-1.208,1.737-0.371,2.784-0.991l0.254,0.296c-0.288,0.685-0.396,1.346-0.064,2.133l0.208,0.55
		c0.106,0.286,0.48,0.64,0.699,0.821c0.475,0.395,0.415,0.23,0.753,0.777c-0.266,0.499,0.025,0.211-0.92,0.841
		c-0.064-0.34-0.405-0.887-0.571-1.228c-0.267-0.546,0.018-0.138-0.45-0.482c-0.735-0.54,0.095-0.287-1.088-0.949
		c-0.218-0.123-0.39-0.233-0.566-0.346l-0.395-0.381c0.605-0.463,0.569-0.079,0.878-0.858l-0.195,0.1
		c-0.027,0.015-0.061,0.033-0.09,0.049l-0.965,0.512L111.756,12.111z M117.936,12.692c-0.058-0.292,0.014-0.037,0.104-0.375
		c0.167-0.627-0.06-0.575,0.692-1.115l0.383,0.446c-0.084,0.117-0.186,0.236-0.284,0.393c-0.115,0.181-0.104,0.222-0.222,0.374
		c-0.052,0.068-0.23,0.246-0.314,0.288C117.807,12.951,118.011,12.736,117.936,12.692z M106.288,12.103
		c0.561,0.124,0.29,0.196,0.573,0.568c0.171,0.225,0.437,0.317,0.537,0.577c0.235,0.612,0.078,1.14,0.701,1.477
		c1.559,0.844,0.245,0.342,1.311,0.856c0.45,0.218,0.792,0.675,0.96,1.205c-0.194,0.048-0.109-0.069-0.237,0.173
		c-0.541-0.23-0.298-0.345-0.875-0.325l0.612,0.783l-0.665,0.376c-0.021,0.011-0.073,0.076-0.087,0.051
		c-0.015-0.026-0.061,0.032-0.089,0.053c0.17,0.671,0.078,0.776,0.172,1.455c0.069,0.495,0.236,0.695,0.35,1.134
		c-0.297-0.083-0.082-0.045-0.285-0.186c-0.45-0.313-0.295-0.129-0.763-0.293c-0.297-0.104-0.608-0.341-0.96-0.485
		c0.368,0.651,0.699,0.661,1.625,0.841c0.057,0.15,0.148,0.288,0.06,0.494c-0.082,0.192-0.219,0.145-0.349,0.237
		c-0.012,0.008-0.043,0.027-0.054,0.037c-0.259,0.231-0.166,0.405-0.201,0.528c-0.037-0.011-0.145-0.061-0.164-0.059l-0.689,0.347
		c-0.131-0.391-0.265-0.38-0.312-0.819c-0.042-0.389,0.084-0.409-0.196-0.915c-0.212,0.305-0.117-0.04-0.01,0.442l0.415,1.414
		c-0.803-0.1-1.225-0.332-1.848-0.474c0.008-0.559,0.05-0.587-0.267-0.852c-0.027-0.023-0.315-0.232-0.332-0.242
		c-0.283-0.18-0.05-0.087-0.4-0.174c0.232,0.563,0.779,0.378,0.747,1.112c-1.526-0.456-1.328-3.185-1.03-3.702
		c0.037-0.065,1.046-0.719,1.7-0.803c-0.237-0.249,0.361-0.27-0.384-0.133l-1.03,0.496c-0.016-0.021-0.309-0.042-0.118-0.487
		l1.112-1.381c1.333-0.021,0.728,0.086,1.279,0.258c-0.079-1.365-2.135,0.252-1.616-1.298c0.075-0.224,0.16-0.369,0.236-0.504
		c-0.606,0.128-0.396,0.258-0.647,0.707l-0.442-0.224c-0.025-0.122-0.092-0.457-0.093-0.569c-0.006-0.644,0.062-0.066,0.093-0.538
		c0.024-0.351-0.193-0.664-0.284-1.037c0.529-0.016,0.91-0.201,1.337-0.109l0.51,0.23L106.288,12.103z M101.288,15.59
		c-0.453-0.32-0.483-0.318-0.776-0.822c-0.489,0.025-0.894,0.077-1.194-0.503c-0.163-0.317-0.347-1.026-0.307-1.441l0.576,0.014
		l0.223,0.613c0.665,0.209,0.916,0.189,1.55,1.178c0.222,0.345,0.761,1.46,0.729,1.916c-0.023-0.019-0.052-0.048-0.064-0.063
		c-0.014-0.016-0.046-0.047-0.062-0.066C101.677,16.05,101.811,15.959,101.288,15.59z M117.686,14.575
		c-0.133-0.422-0.102-0.785,0.239-1.156c0.502-0.017,0.236,0.081,0.77,0.093c-0.284,0.821,0.564,0.749,1.022,1.259
		c0.127,0.348-0.623,1.031-1.191,2.36c-0.374,0.872-0.273,0.358-0.896,0.866c-0.495,0.404-0.179,0.485-0.944,0.851
		c-0.581-0.355-0.927-0.768-1.229-1.198c0.435-0.188,0.571-0.604,1.291-0.771c0.041-0.486,0.067-1.105,0.22-1.505
		C117.155,14.88,117.318,14.742,117.686,14.575z M111.167,14.555c0.198-0.378,0.356-0.54,0.762-0.703
		C111.829,14.377,111.693,14.503,111.167,14.555z M110.72,15.98c-0.014-0.02-0.035-0.046-0.047-0.067
		c-0.24-0.435,0.015-0.574,0.135-0.788c0.01-0.018,0.028-0.049,0.037-0.066c0.441-0.86,0.432,0.23,1.278-1.075
		c0.241,0.366,0.384,0.396,0.624,0.672c-0.054,0.242-0.033,0.146-0.104,0.367c-0.009,0.029-0.021,0.059-0.03,0.088
		c-0.01,0.029-0.021,0.06-0.029,0.088c-0.246,0.747-0.121,0.574-1.591,1.096L110.72,15.98z M104.044,16.731
		c-0.187-0.561-0.667-0.869-0.961-1.265c0.264-0.325,0.108-0.41,0.463-0.675c0.809-0.605,1.444-0.024,1.938,0.675l-1.271,1.242
		C104.193,16.715,104.272,16.743,104.044,16.731z M97.855,15.576c0.807-0.238,0.66-0.322,1.028-1.018
		c0.32,0.542,0.966,0.547,1.58,1.062c0.379,0.318,0.825,1.014,1.094,1.351l-1.76,1.056c-0.191-0.399-0.683-1.057-0.947-1.409
		C98.247,15.814,98.122,16.089,97.855,15.576z M94.979,17.692c0.809-0.32,1.02-1.814,2.475-1.96
		c0.019,0.033,0.029,0.106,0.035,0.128c0.177,0.592,0.219,0.167,0.384,0.639c-0.239-0.111-0.24-0.143-0.486,0.035l-0.119,0.118
		c-0.018,0.019-0.038,0.048-0.055,0.068c-1.065,1.306-0.59,0.139-0.943,0.829c0.313,0.203,0.266,0.134,0.693,0.086
		c-0.056,0.816-0.211,0.036-0.061,0.632c0.169,0.666,0.922,0.623,1.472,0.896c-0.152,0.086-0.13,0.124-0.445,0.018l-1.134-0.562
		c-0.087,0.728-0.223,0.37,0.438,0.571c1.554,0.474,1.229,0.412,1.752,0.971c0.565,0.603,0.938,1.023-0.029,2.59
		c-0.12-0.111-0.035-0.032-0.142-0.203c-0.413-0.664,0.38,0.542-0.076-0.146c-0.155-0.233,0.05-0.1-0.224-0.236
		c0.168,0.371,0.361,0.613,0.204,1.042c-1.505-0.732-1.858-1.792-2.292-2.368C94.999,18.94,95.52,18.439,94.979,17.692z
		 M111.296,16.583c0.661-0.705,1.096,0.083,1.69-1.206c0.462,0.065,0.928,0.493,1.226,0.784c-0.203,0.359-0.432,0.531-0.693,0.688
		c-0.19-0.315,0.053-0.162-0.397-0.604l-0.3-0.324C112.676,16.224,111.616,16.52,111.296,16.583z M114.283,16.797
		c0.078-0.375,0.062-0.225,0.355-0.618l0.102,0.521L114.283,16.797z M104.044,16.731c0.124,2.563-1.095,0.873-0.982,1.995
		c0.068,0.671-0.001,0.258,0.225,0.5c0.019-0.068,0.074-0.417,0.076-0.423c0.164-0.458,0.44-0.411,0.576-0.075
		c0.032,0.083,0.107,1.195,0.126,1.39c-1.219-0.414-1.211-0.89-1.443-1.121c0.125-0.183,0.163-0.218,0.283-0.382l-0.501,0.159
		c-0.012-0.032-0.018-0.074-0.021-0.101l-0.15-1.356c0.25-0.164,0.091-0.014,0.214-0.053c0.809-0.251-0.487,0.354,0.245-0.093
		l-0.502-0.201c0.27-0.567,0.227-0.958,0.616-1.352C103.614,16.119,103.372,16.483,104.044,16.731z M97.101,17.317
		c0.154-0.118,0.269-0.199,0.441-0.373c0.612-0.616,0.595-0.399,1.132,0.146c-0.233,0.201,0.069-0.004-0.22,0.13l0.398,0.241
		c0.013,0.004,0.034,0.003,0.053,0.056c0.107,0.305-0.127,0.079,0.119,0.371c0.269,0.32,0.082,0.067,0.406,0.239
		c-0.414,0.277-0.138,0.283-0.676,0.892c-0.455-0.181-0.915-0.361-1.397-0.53C97.277,18.202,97.126,17.623,97.101,17.317z
		 M110.822,18.952c1.259,0.079,1.234-0.593,1.768-0.756c0.838-0.256,1.251,0.036,0.879-1.169l0.357-0.016
		c0.041,0.83-0.205,1.329-0.217,1.498c-0.036,0.548-0.029,0.069,0.104,0.379l0.083,0.263c0.001,0.023-0.008,0.057-0.008,0.082
		c-0.033,1.098,0.224,0.377,0.215,1.245c-0.006,0.555,0.104,2.952-1.015,3.133c0.131-0.257,0.101-0.539-0.017-0.89
		c-0.008-0.025-0.021-0.054-0.03-0.078c-0.324-0.803-0.418-0.301-0.717-0.648c-0.096-0.11,0.068-0.186-0.262,0.06
		c0.123,0.074,0.276,0.208,0.37,0.251c0.321,0.144-0.075-0.15,0.358,0.103c0.07,0.833-0.065,0.714-0.114,0.889
		c-0.14,0.496,0.072,0.28,0.044,0.672c-0.23,0.252-0.27,0.18-0.507,0.559c-0.227,0.363-0.074,0.277-0.402,0.548
		c-0.664,0.12-1.309-0.21-1.459-0.718c-0.333-1.122-0.221-1.128-0.009-1.419c0.379-0.519,0.385,0,0.499-0.931
		c0.215-1.751,0.009-1.186-0.344-2.145C110.695,19.541,110.814,19.576,110.822,18.952z M114.342,19.634
		c-0.262-0.535,0.066-0.209-0.037-0.747c-0.055-0.283-0.156-0.219-0.115-0.744c0.1-1.27,0.19-1.237,0.602-1.304l-0.08,2.349
		C114.647,19.602,114.612,19.517,114.342,19.634z M110.369,19.331c-0.299-0.079-0.355-0.411-0.354-0.753
		c0-0.441,0.072-0.526,0.329-0.808c1.066-1.168,0.546-0.743,1.361-0.984c0.933-0.276,1.281-0.846,1.465,0.17
		c0.179,0.99,0.259,0.832-0.96,0.936c-0.269,0.471-0.416,0.739-1.035,0.757c-0.269,0.008-0.514-0.09-0.668,0.208
		C110.389,19.085,110.602,19.107,110.369,19.331z M99.356,19.452c0.062-0.416,0.632-1.013,1.038-1.199
		c0.984-0.45,0.388-0.55,1.381-0.809c0.047,0.264,0.116,0.497,0.1,0.796c-0.026,0.475-0.145,0.381-0.129,0.813
		c0.363,0.414,0.417,0.267,0.686,0.694c0.085,1.06-0.302,1.349,0.084,2.701c0.277,0.973,0.941,1.054,0.753,2.241
		c-0.731-0.239-0.311-1.082-1.384-1.294c-0.224-0.044-1.025-0.065-1.268-0.069c-0.304-0.005-0.114,0.059-0.425,0.113
		c-0.294,0.052-0.215,0.034-0.48-0.026c0.004-0.366,0.026-0.158,0.267-0.552c0.433-0.709,0.305-1.16,0.596-2.303l-0.173-0.081
		c-0.023-0.011-0.059-0.026-0.084-0.039l-0.527-0.343c0.185-0.58,0.312-0.267,0.504-0.799c-0.634,0.163-0.081,0.104-0.507,0.249
		C99.307,19.707,99.733,19.705,99.356,19.452z M115.405,19.642c0.091-0.195,0.035-0.212,0.168-0.463l-0.2-0.588
		c0.86,0.315,0.844,0.589,0.421,1.105c-0.434,0.53-0.766,1.373-0.891,1.504c-0.472-0.755,0.277-1.231,0.364-1.336
		C115.406,19.697,115.313,19.839,115.405,19.642z M122.521,20.094c0.407-0.583,1.192-0.41,1.906-0.266
		c-0.11,0.185-0.082,0.281-0.37,0.393c-0.167,0.065-0.228-0.009-0.428-0.063C122.825,19.938,123.1,20.375,122.521,20.094z
		 M118.465,20.673c0.764-0.521,2.203-0.502,3.076-0.366c-0.442,0.654-1.741,0.748-2.427,0.625
		C118.674,20.854,118.661,20.874,118.465,20.673z M121.454,21.136c0.273-0.52,0.42-0.48,1.066-0.524
		c0.287-0.019,0.515-0.107,0.697-0.097c0.369,0.021,0.181,0.148,0.581,0.177c0.433,0.032,0.308-0.063,0.617-0.214
		c0.844-0.414-0.337,0.403,1.599-0.448l0.524,0.628c-0.327,0.146-0.774,0.39-1.247,0.356c-0.543-0.039-0.088-0.157-0.643-0.062
		c-0.979,0.169-0.181,0.315-1.913,0.221C122.251,21.148,122.019,21.354,121.454,21.136z M104.275,25.863
		c-0.834-0.53-0.563-1.131-0.08-1.951c-0.022-0.01-0.058-0.019-0.07-0.023l-0.414-0.155c0.19,0.374,0.22,0.338-0.072,0.638
		c-0.206-0.325-0.147-0.772-0.357-1.103c-0.227-0.359-0.284-0.207-0.511-0.844c-0.3-0.844-0.241-1.478-0.113-2.352
		c2.569,1.299,0.307,0.778,2.868,2.185c0.123,0.715,0.058,0.625,0.395,1.262c0.216,0.408,0.45,1.094-0.059,1.225
		c-0.239,0.062-0.314-0.028-0.718,0.209c0.022,0.405,0.195,0.595,0.356,0.98c0.243,0.585,0.07,0.397-0.042,1.054
		c-0.105,0.618,0.08,0.58,0.138,1.091c0.049,0.44-0.068,0.813-0.09,1.273l-0.274-0.201c-0.52-0.309-0.24-0.7-0.318-1.039
		l-0.042-0.081c-0.152-0.226-0.069,0.395-0.238-0.342c-0.109-0.483,0.272-0.396-0.544-1.126L104.275,25.863z M115.084,22.964
		c0.102-0.697,0.315-1.042,0.847-1.326c0.404-0.216,1.057-0.398,1.414-0.324C117.697,22.213,117.262,22.141,115.084,22.964z
		 M108.987,22.362l-0.122,0.954c-0.31-0.152-0.522-0.312-0.642-0.699L108.987,22.362z M108.237,23.797
		c-0.292,0.411-1.355,1.463-1.733,1.598c-0.115-0.328-0.195-0.394-0.185-0.787c0.052-1.874-0.481-0.91-0.505-2.192
		C107.49,22.787,107.384,22.787,108.237,23.797z M115.052,23.536c0.121-0.124,0.806-0.524,1.056-0.635l1.212-0.216l-0.172,0.344
		c-0.053,0.003-0.02,0.167-0.248-0.205c-0.087,0.32,0.031,0.234-0.335,0.45c-0.067,0.04-0.301,0.146-0.386,0.185
		C115.727,23.669,115.542,23.605,115.052,23.536z M106.577,29.582c0.075-0.491,0.218-0.493,0.157-1.021
		c-0.157-1.367-0.62-1.563,0.494-2.625l1.881-1.647c0.338-0.438,0.106-0.338,0.557-0.588c-0.105,0.763-0.248,0.473,0.22,1.253
		c-0.071,0.308-0.229,0.5-0.297,0.779c-0.127,0.521,0.128,0.284-0.102,0.683l0.358-0.096c-0.293-0.314-0.586-0.293,0.238-1.019
		c1.798,1.122-0.366,1.117-0.772,2.204c-0.506,1.352-0.13,1.489,0.262,1.962c-0.162,0.723-0.163,0.616-0.566,0.488
		c0.081,0.706-0.046,1.633-0.602,2.142c-0.255,0.233,0.138-0.008-0.233,0.158c-0.144-0.608-0.142-0.682-0.486-1.071
		c-0.25-0.282-0.405-0.669-0.594-1.023c0.254-0.508,0.449-0.44,0.211-0.875c-0.015,0.479,0.027,0.275-0.184,0.643
		C106.896,29.784,106.789,29.766,106.577,29.582z M99.654,23.551c0.429,0.009,0.408,0.075,0.781,0.091
		c0.73,0.031,1.432-0.246,1.953,0.375c0.212,0.252,0.154,0.311,0.343,0.564l1.091,1.367c-0.476,1.184,0.23,0.389,0.216,2.118
		c-0.645-0.278,0.037-0.457-3.176-1.795C98.991,25.492,98.895,23.839,99.654,23.551z M116.508,23.888
		c0.004,0.139,0.032,0.49,0.021,0.61c-0.021,0.218,0.15-0.096-0.129,0.4c-0.394,0.053-0.287-0.096-0.621-0.341l-0.924,0.164
		l0.127-0.708L116.508,23.888z M111.56,27.491c0.41-1.311,0.969-2.449,2.402-2.721c-0.256,1.029-0.888,1.259-1.519,1.784
		C111.751,27.129,112.513,27.158,111.56,27.491z M105.899,25.822c-0.401-0.302-0.324-0.159-0.38-0.787l0.599,0.185
		C106.118,25.531,106.127,25.605,105.899,25.822z M118.365,26.328l-0.337,0.034l-0.098-0.5c-0.292,0.316-0.168,0.451-0.553,0.647
		c-0.279,0.142-0.448,0.096-0.726,0.251c-0.182-0.621-0.115-0.412,0.034-1.143l0.871,0.232c-0.15-0.27-0.166-0.218-0.11-0.59
		c0.632-0.17,1.588-0.028,2.173,0.313C119.232,25.854,118.689,26.148,118.365,26.328z M84.227,27.505
		c0.071-0.503,0.467-1.412,0.777-1.814c0.215-0.022,0.566-0.071,0.771-0.051c0.584,0.058,0.408,0.1,0.516,0.355
		c-0.229,0.319-0.007,0.16-0.376,0.207l-0.395-0.008c2.076,0.454,0.938,1.117,2.032,1.54c0.828,0.321,1.333-0.983,2.62-0.119
		c-0.188,1.445-1.591,0.57-1.713,0.556c-0.539-0.062-1.651,0.263-2.941-0.824c-0.215-0.181-0.285-0.282-0.411-0.512
		C85.106,26.837,85.192,27.476,84.227,27.505z M96.598,27.028c-0.15-0.404-0.307-0.479-0.445-0.911l0.854-0.219
		c0.846,0.021,0.093,1.292,0.062,1.366c-0.238-0.041-0.131-0.013-0.277-0.081c-0.111-0.051-0.084,0.082-0.136-0.097
		C96.646,27.052,96.618,27.046,96.598,27.028z M114.839,24.986c0.71-0.176,1.131-0.483,1.357,0.334
		c0.188,0.681,0.003,1.062-0.197,1.543c-0.054,0.011-0.576,0.066-0.59,0.065c-0.514-0.044-0.119,0.009-0.452-0.186
		c-0.589-0.345-0.348-0.138-1.115-0.035C114.556,25.593,114.153,26.699,114.839,24.986z M87.5,27.281l-0.32-0.888
		c1.094-0.326,0.406,0.138,1.546,0.527l-0.115,0.101c-0.016,0.011-0.047,0.033-0.065,0.045C87.964,27.428,87.871,27.332,87.5,27.281
		z M91.876,26.801c0.789-0.194,0.376-0.298,0.93-0.655c0.29,0.326,0.19,0.695,0.712,0.827l-1.709,0.006L91.876,26.801z
		 M96.598,27.028c-0.063,0.336,0.153,0.059-0.123,0.234c-0.436-0.054-0.543-0.166-0.854-0.416c0.308-0.472,0.048-0.305,0.486-0.55
		L96.598,27.028z M110.072,28.754c-0.926-0.423-0.008-1.343,0.584-1.661C110.576,27.647,110.475,28.369,110.072,28.754z
		 M113.378,26.929c0.482,0.015,0.952-0.16,1.329-0.059l0.914,0.481c-0.125,0.129-0.298,0.28-0.466,0.453l-1.04,0.841
		c-0.352,0.207-0.259,0.002-0.585,0.127c-0.477,0.924-0.053,0.736-0.937,1.297c-0.547,0.348-0.835,0.635-1.587,0.647l-0.759,1.604
		c-0.343,0.412-0.115,0.067-0.408,0.289c-0.268,0.203-0.166,0.161-0.329,0.507L108.974,34c-0.267,0.392-0.136,0.231-0.38,0.363
		l0.176-0.659c0.094-0.348,0.753-1.308,1.576-1.535l-0.234-0.101l0.333-1.708c0.258-0.714,0.541-0.803,0.88-1.249
		C112.225,27.926,111.429,29.54,113.378,26.929z M96.074,29.107c-0.647-0.025-0.778-0.055-1.3-0.151
		c-0.895-0.166-1.162-0.224-1.398-0.706c-0.582-1.184-0.717-0.467-1.275-0.887l1.379,0.046c0.324,0.429,0.065,0.249,0.582,0.517
		c0.295,0.153,0.422,0.197,0.737,0.296C95.37,28.4,95.719,28.597,96.074,29.107z M84.074,27.846
		c0.642-0.598,0.844-0.707,1.522-0.241c-0.184,0.479-0.134,0.36-0.507,0.697C84.365,28.957,84.24,28.673,84.074,27.846z
		 M101.305,27.408c0.672,0.318,0.926,0.506,1.477,0.813l-0.241,0.488c0.345,0.212,0.24,0.104,0.306,0.526
		c-0.565,0.578-1.165,0.024-1.864-0.281c-0.933-0.407-1.231-0.373-1.888-0.965l0.546-1.32
		C99.992,26.75,100.88,27.206,101.305,27.408z M91.909,28.716c-0.335-0.302-0.384-0.229-0.483-0.782l1.319,0.164
		c0.106,0.238,0.207,0.307,0.155,0.614L91.909,28.716z M89.546,30.252c-1.243-0.2-1.232,0.636-1.916-0.147
		c-0.681-0.781,0.02-0.516-0.799-0.882l-1.503-0.784c0.134-0.33,0.161-0.301,0.361-0.58c0.422,0.15,0.933,0.39,1.422,0.495
		c0.705,0.151,1.087,0.051,1.751,0.23c-0.259,0.495-0.462,0.268-0.614,0.47c1.734-0.212,1.069-0.322,2.29-0.803
		c0.124,0.108,0.397,0.338,0.513,0.454c0.956,0.956,0.736,0.411,2.206,0.696c0.438,0.084,1.128,0.285,1.548,0.394l1.606,0.342
		l0.087,1.242c-0.524-0.014-0.566-0.174-1.003,0.171c0.477,0.262,0.653,0.003,1.162,0.324l-0.699,0.02
		c-0.155,0.345,0.24,0.045-0.172,0.308l-0.417,0.181c-0.029,0.011-0.058,0.028-0.087,0.037l-3.155-0.191
		c-0.079-0.054-0.313-0.313-0.314-0.314c-0.268-0.144,0.156,0.063-0.335-0.042c-0.263-0.056-0.384-0.173-0.873-0.287
		C89.439,31.313,89.804,31.165,89.546,30.252z M99.534,30.385c0.116-0.679-0.16-1.284-0.583-1.601
		c-0.021-0.016-0.049-0.034-0.07-0.048c-0.434-0.285-0.277-0.001-0.541-0.373c0.432,0.014,0.959,0.537,1.396,0.782
		c0.249,0.14,0.488,0.247,0.761,0.378c0.087,0.042,0.316,0.151,0.383,0.196c0.667,0.454-0.496-0.409,0.145,0.115L99.534,30.385z
		 M98.827,30.354c-0.313-1.043-0.538-0.585-1.603-1.004l-0.023-1.392c0.828,0.188,0.386,0.434,1.893,1.13
		c-0.206,0.531,0.017,0.159-0.473,0.377c0.121,0.042,0.489,0.054,0.712,0.214C99.365,30.093,99.14,30.111,98.827,30.354z
		 M115.375,30.276c0.183-0.735,1.192-0.929,1.589-1.419c0.395,0.059,1.268,0.082,1.505,0.313l0.12,0.216
		c0.198-0.409,0.587-0.483,1.265-0.47c-0.034,0.657-0.114,1.137-0.463,1.572c-0.674,0.141-0.29,0.266-0.565-0.195
		c0.07,0.873-0.814,0.864-1.271,0.52c-0.363-0.272-0.239-0.537-0.339-1.113c-0.074-0.432,0.058-0.036-0.104-0.395
		c-0.402,0.327-0.067,0.172-0.39,0.831l-0.233,0.365L115.375,30.276z M82.402,29.332c0.562,0.118,0.32-0.054,0.5,0.439l-0.078-0.293
		l0.616-0.136c0.249,0.179,0.162-0.013,0.243,0.371c0.003-0.022-0.012-0.055-0.011-0.066l0.063-0.257
		c0.218-0.175,0.188-0.104,0.571-0.085c-0.132,0.841-0.364,0.735-0.364,0.734c-0.003-0.013-0.031-0.003-0.042,0.006
		c0.412,0.442,0.076,0.482-0.388,0.591c-0.443,0.104-0.219,0.044-0.521,0.19c-0.47,0.228,0.178,0.275-0.487,0.102L82.402,29.332z
		 M87.088,30.49c-0.483-0.016-0.747-0.129-1.14-0.327c-0.657-0.332-0.639-0.109-1.059-0.298C85.451,28.76,86.63,29.97,87.088,30.49z
		 M102.703,33.053c-0.011-1.28,0.956-0.708,1.514-3.017c0.431,0.125,0.261,0.031,0.475,0.356c-0.123,0.049-0.28-0.007-0.478,0.116
		c-0.207,1.179,0.813,1.101-0.521,1.859c-0.051,0.3,0.02-0.322,0.039,0.153l-0.106,1.022L102.703,33.053z M97.265,30.324
		l0.519,0.085c-0.083,0.412-0.344,0.633-0.344,0.633c-0.009-0.02-0.043,0.047-0.116,0.077L97.265,30.324z M99.444,30.97
		c0.065-0.091-0.018-0.184,0.574-0.386c1.041-0.356,1.447-0.527,2.131-0.289c0.087,0.733-0.203,1.324-0.757,1.695
		c-0.285-0.139-0.675-0.328-0.959-0.503C100.077,31.267,99.805,31.272,99.444,30.97z M126.532,31.201l1.036-0.365
		c-0.355,1.307-0.466,1.628-1.543,1.797c-0.469,0.074-0.585,0.081-0.834-0.043c-0.085-1.484,1.098,0.266,1.305-1.298
		C126.502,31.244,126.517,31.23,126.532,31.201z M98.181,31.238c-0.803,0.344-0.716-0.251-0.193-0.578
		C98.182,30.879,98.146,30.849,98.181,31.238z M84.068,31.13c0.153,0.324,0.225,0.765,0.075,1.11
		c-0.335-0.098-0.853-0.39-1.056-0.691C83.426,31.228,83.472,31.181,84.068,31.13z M88.382,31.78
		c-0.062,0.497-0.466,1.376-0.775,1.691c0.05-1.547-0.204-0.42-0.58-2.089C87.584,31.442,87.978,31.45,88.382,31.78z M106.06,30.906
		c0.327,0.376,0.722,0.73,0.766,1.239l-1.186-0.38L106.06,30.906z M117.034,32.118c-0.411-0.701-0.162-0.222-0.266-1.076
		c0.239,0.101,0.541,0.122,0.55,0.522C117.323,31.775,117.153,31.975,117.034,32.118z M84.494,31.201
		c1.073-0.672,1.638-0.023,2.474,0.207c-0.108,0.863,0.067,1.405-0.12,2.367C85.239,33.827,84.396,32.864,84.494,31.201z
		 M98.534,31.592c0.531,0.139,1.775,0.714,2.027,1.248c-0.58-0.062-0.93-0.136-1.295-0.452
		C98.438,31.671,98.506,32.336,98.534,31.592z M113.464,31.817c0.788-1.225,2.196-1.711,2.778-0.515
		c0.554,1.139-0.026,0.56-0.164,1.518c-0.069,0.481-0.036,0.604-0.276,0.944c-0.185,0.262-0.435,0.377-0.507,0.509
		c-0.074,0.134,0.121,0.632-0.983,0.949c-0.803,0.23-2.789-0.334-3.368-0.666c0.466-0.384,0.906-0.52,1.328-0.721
		c1.344-0.64,0.746-0.176,1.636-0.251c0.113-0.01,0.806-0.237,0.957-0.301c-0.318-0.195-0.15-0.106-0.551-0.002
		c-1.049,0.273-0.316-0.122-1.868,0.218c0.23-0.435,0.369-0.354,0.729-0.679l-0.478-0.03L113.464,31.817z M117.897,32.595
		c0.325-0.139,0.343-0.107,0.579-0.343l0.397,0.597c-0.021,0.029-0.089,0.126-0.112,0.155c-0.285,0.339-0.634,0.344-1.052,0.473
		C117.799,33.199,117.844,32.967,117.897,32.595z M118.756,35.174c0.052-0.935,0.298-0.973,0.8-1.481
		c0.497-0.503,0.7-0.521,1.472-0.732c3.326-0.907,1.442,0.283,3.628-0.601c-0.066,0.723-0.346,1.462-0.782,1.81
		c-0.274-0.401,0.085-0.173-0.329-0.485c-1.377,0.3-0.051,1.697-2.713,1.35c-0.849-0.111-0.78,0.036-1.662,0.11l-0.081-0.331
		C118.858,35.234,119.12,34.992,118.756,35.174z M87.813,33.859c0.05-0.374,0.271-0.936,0.374-1.151
		c0.49-1.027,0.236-0.684,0.582-0.913l2.121,0.89l-0.593,0.789c0.731-0.801,1.158-0.415,1.861-0.27
		c0.645,0.133,1.508,0.163,1.953,0.482l-0.589,0.153c0.405,0.055,0.732,0.041,1.14,0.19c0.438,0.162,0.438,0.183,0.547,0.642
		l-0.359,0.148c-0.484,0.187-0.693,0.241-1.141,0.03c-0.694-0.326-0.553-0.083-1.402-0.329l0.253,0.19
		c0.022,0.013,0.057,0.025,0.079,0.037l0.231,0.125c0.013-0.023,0.051,0.029,0.073,0.048c-0.455,0.28-0.983,0.641-1.627,0.929
		c-1.935,0.867-1.871,0.007-2.103-0.247l-0.271-0.174c-0.22-0.137-0.344-0.239-0.464-0.449c-0.193-0.333-0.08-0.383-0.229-0.672
		C88.097,34.016,88.07,34.175,87.813,33.859z M100.091,33.946c0.214,1.278,0.334,0.903-0.341,1.726
		c-0.79-0.497-0.573-0.404-0.823-1.129l-1.561-0.023c-0.959-1.613-1.019-1.137-1.314-1.613l1.041-0.418
		c0.3,0.327,0.877,0.57,1.414,0.857C99.981,34.133,99.338,33.631,100.091,33.946z M105.803,34.746
		c-0.345-0.037-0.404-0.045-0.737-0.698c-0.451-0.882,0.207-1.67,0.389-1.748c0.778-0.035,1.454,0.059,1.157,0.915
		C106.505,33.521,106.032,34.576,105.803,34.746z M115.855,34.941c0.205-0.424,0.483-0.794,0.777-1.161
		c0.035-0.045,0.191-0.223,0.219-0.258c0.143-0.181,0.088-0.13,0.199-0.28c0.264-0.354-0.017-0.168,0.457-0.371
		c0.053,0.714,0.055,0.806-0.119,1.454c0.011,0.007,0.035,0.004,0.038,0.005l0.1,0.03c0.004,0.002,0.025,0.018,0.029,0.02
		c0.013,0.007,0.022,0.062,0.094,0.068c0.004,0,0.03,0.006,0.033,0.005c0.175-0.066,0.084-0.531,0.127-0.783
		c0.347-0.227,0.967-0.55,1.449-0.5c-0.226,0.458-0.246,0.309-0.592,0.681c-0.24,0.258-0.234,0.404-0.444,0.738
		c-0.558,0.103-0.311-0.064-0.852,0.185c-0.028,0.013-0.053,0.034-0.082,0.047C116.81,35.036,116.589,34.933,115.855,34.941z
		 M87.278,34.121c-0.307-0.671-0.103-0.505-0.135-1.828c0.097,0.096,0.103,0.064,0.196,0.216c0.155,0.25,0.14,0.547,0.168,0.76
		C87.604,33.975,87.645,33.853,87.278,34.121z M96.581,33.81c0.206,0.195,0.307,0.298,0.422,0.623
		C96.649,34.349,96.418,34.164,96.581,33.81z M100.755,34.833c0.351-0.538,0.202,0.301,0.355-0.158
		c0.006-0.019,0.037,0.005,0.036,0.007l-0.19-0.279c-0.604,0.519-0.11,0.383-0.422,0.274l-0.037-0.649
		c0.035,0.016,0.232,0.087,0.266,0.094l0.589,0.052c1.708,0.335,0.832,0.946,2.035,1.385c-0.178,1.067-0.571,1.404-0.41,2.563
		c-0.345-0.249-0.536-0.548-0.825-0.819l-0.912-0.678C100.535,36.037,100.496,35.229,100.755,34.833z M123.257,34.15
		c0.001,0,0.043-0.298,0.406,0.453l-0.684,0.308C123.027,34.414,122.995,34.428,123.257,34.15z M117.244,35.537l-0.525,0.372
		c-0.194,0.107-0.269,0.161-0.459,0.246c-0.462,0.207-0.72,0.252-1.207,0.238l0.171-0.755L117.244,35.537z M108.288,38.715
		c-0.407-1.004-0.048-1.193,0.565-1.722c0.472-0.406,0.731-1.133,1.372-1.359c0.742-0.262,1.345,0.134,2.03,0.292
		c0.808,0.186,1.593,0.119,2.437,0.105c-0.252,0.721-0.732,0.682-1.354,1.057c-0.468,0.282-0.759,0.612-1.421,0.803
		c-0.572,0.165-1.268,0.179-1.834,0.379C109.279,38.554,109.393,38.896,108.288,38.715z M118.399,36.583
		c0.028-0.576,0.02-0.498,0.59-0.562C118.896,36.458,118.905,36.51,118.399,36.583z M109.436,42.656
		c-0.194,0.468-0.194,0.498-0.47,0.806c-0.379-0.864,0.842-3.517,2.182-3.948c1.141-0.368,1.39-0.17,2.215-0.962
		c0.415-0.398,0.504-0.344,0.948-0.695c0.371-0.293,0.56-0.375,1.192-0.391c-0.177,0.576-0.831,1.234-1.147,1.635
		c-0.712,0.901-0.304,1.012-1.303,1.654c-1.542,0.99-0.172,0.674-1.693,1.113c-0.846,0.244-1.107,0.597-1.679,0.74
		C109.287,42.706,109.778,42.517,109.436,42.656z M104.508,38.521c-0.262,0.229-0.166,0.206-0.626,0.216
		c-0.4-0.468-0.479-0.438-0.482-1.251c0.595-0.078,1.465-0.258,1.329,1.252L104.508,38.521z M102.672,41.131
		c0.814,0.329,1.776,1.582,2.119,2.561c0.309,0.877-0.345,2.254-0.563,3.985c-0.402-0.825-2.148-1.729-2.103-3.402
		c0,0-0.747-0.168-0.242-1.563C102.075,42.181,102.467,41.616,102.672,41.131z M95.893,44.738c0.155-0.286,0.403-0.368,0.761-0.479
		c0.176,0.748,0.179,0.38,0.502,1.308c0.13,0.374,0.782,1.026,1.214,1.138l-0.161,0.678l-0.173-0.405
		c-0.22-0.428-0.009,0.032-0.313-0.373C96.91,45.528,97.27,45.406,95.893,44.738z M118.211,81.104l-7.489-14.283l-8.261-3.837
		c0.612-0.984-8.297-3.036-8.757-3.969c-0.363,0.833,10.974-3.391,10.648-9.139c-0.229-1.967-0.403-1.078-1.309-2.272
		c-1.372-1.811-0.976-2.483-2.678-0.802c-0.299,0.294-0.808,0.393-1.181,0.619c-0.132-0.302-0.136-0.232-0.361-0.43l-0.128,0.7
		c-0.338,0.116-0.663,0.424-1.109,0.068c-0.287-0.229-0.396-0.954-0.696-1.245l-0.852-1.074c-0.262,0.162-0.614,0.363-0.856,0.585
		l0.253,1.053c-0.53-0.168-0.602-0.333-0.604-0.951c0.291-0.112-0.113-0.187,0.14,0.02l0.059-0.283l-0.968-0.154
		c-0.154,0.17-0.235,0.229-0.405,0.478c-0.271,0.401-0.03,0.257-0.438,0.456l-0.099-0.467c-0.823-0.357-0.413,0.074-0.622-0.573
		c-0.107-0.331-0.241-0.573-0.408-0.819c-0.229-0.336-0.427-0.426-0.6-0.652c-0.172-0.224-0.387-0.625-0.454-0.794l1.418,1.32
		c0.383,0.482,0.424,1.548,1.365,0.771c-0.4-0.33-0.516-0.049-0.717-0.512c1.306,0.384,1.326-0.114,2.267-0.312
		c0.411-0.087,0.796-0.369,1.175-0.557c-0.083-0.824-0.118-0.699-0.897-0.779c0.021-0.027,0.054-0.061,0.064-0.079
		c0.128-0.207,0.254-0.159,0.035-0.362c-0.359-0.333-1.049-0.578-1.255-1.017c-0.509-1.082-0.75-1.124-2.074-1.103
		c-0.012,0.387-0.151,0.679-0.021,0.953l0.524,0.52c0.017-0.023,0.052,0.058,0.075,0.088c-0.58-0.389-0.675-0.66-0.655-1.522
		c-0.34,0.116-0.428,0.212-0.687,0.602c-0.625-0.287-0.868-0.03-1.151,0.498c-0.419,0.783-0.188,0.48-0.839,0.891
		c-0.099,0.558,0.014,0.702-0.242,1.058l-0.014-1.022c-0.294-0.154-0.149-0.038-0.438-0.117c-0.035-0.01-0.069-0.017-0.102-0.026
		l-0.292-0.116c2.043-0.188,0.847-0.34,1.882-1.187c0.438-0.358,0.608-0.242,0.486-0.683c0.226,0.353,0.054,0.221,0.514,0.356
		c0.029-0.018,0.065-0.045,0.084-0.06l0.828-0.714l-0.22-0.862c0.229,0.445,0.13,0.787,0.622,0.954
		c0.401,0.136,0.953,0.197,1.392,0.188c0.121-0.616,0.325-1.062,0.258-1.769c-0.027-0.29-0.127-0.449-0.144-0.728
		c-0.013-0.209,0.033-0.619,0.044-0.858c0.196,0.569,0.264,1.294,0.233,2.034c-0.015,0.366-0.112,0.962-0.097,1.277
		c0.028,0.592,0.57,1.306,1.068,1.554c0.022,0.011,0.051,0.027,0.074,0.038c0.105,0.05,0.059-0.076,0.574,0.236
		c0.149,0.09,0.224,0.22,0.345,0.332c0.636,0.591,0.325,0.222,0.66,1.019c0.263-0.211,0.11-0.095,0.24-0.342l0.271-0.398
		c-0.036,0.818,0.089,0.534-0.434,0.898c0.068,0.398,0.375,1.321,0.517,1.544c0.338,0.53,1.702,1.628,2.462,0.605
		c0.546-0.736,0.248-0.572,1.18-0.862c0.015-0.305,0.015-0.482-0.098-0.744l-0.203-0.584c0.091-0.799,0.694-2.446,0.569-2.97
		c-0.071-0.298-0.078-0.482-0.143-0.771c-0.18-0.809-0.707-1.608-1.285-2.221c-0.017-0.017-0.041-0.041-0.057-0.058
		c-0.017-0.017-0.04-0.041-0.057-0.058l-0.864-0.602c-0.281-0.072-0.077-0.011-0.307-0.031c-0.492-0.042-0.857-0.528-1.2-0.774
		c-0.39-0.279-0.879-0.294-1.325-0.491c-0.461-0.203-0.144-0.249-0.604-0.286l-2.551,0.148c-0.673,0.118-1.324,0.864-2.499,1.068
		c-1.374,0.24-0.458,0.12-1.256,0.006c-0.528-0.076-1.01,0.256-1.441,0.323c-0.214,0.033-1.46,0.042-1.69,0.016
		c-0.482-1.36-1.305-1.31-2.685-1.393c-1.604-0.097-1.637,0.845-3.29-0.019c-0.417,0.155-0.618,0.472-0.982,0.125
		c-0.369-0.352,0.263-0.072-0.356-0.34c-0.488-0.212-1.232-0.147-1.615-0.446c-0.411-0.321-0.194-0.179-0.296-0.709
		c0.307,0.656,0.321,0.735,1.176,0.89c0.593,0.107,1.048,0.4,1.603,0.2c0.99-0.356,0.916,0.136,1.564,0.306
		c0.827,0.217,1.017-0.343,1.124-0.527c1.061,0.104,1.417-0.228,2.317,0.102c0.685,0.251,0.566,0.128,0.976,0.501
		c0.221,0.201,0.32,0.205,0.466,0.339c0.183,0.171,0.105,0.144,0.274,0.396c1.088,0.025,1.059,0.001,2.123-0.17
		c-0.294-0.498-0.712-0.791-1.111-1.135c-0.563-0.485-0.676-0.363-1.457-0.612c-0.634-0.201-1.01-0.641-1.555-0.606
		c-0.763,0.048-0.911,0.283-1.888,0.193l1.938-0.312c-0.169-0.252-0.167-0.155-0.245-0.25c-0.869-1.046,0.434-0.081-1.947-1.769
		c-0.811,0.281-1.56,0.79-2.374,0.978c-0.683,0.157-1.946,0.099-2.758,0.163c-0.826-0.843-1.691-0.546-2.339-1.062
		c0.243-0.649,0.055-0.011,0.614-0.121c0.441-0.086,0.483-0.179,0.774-0.333c-0.079,0.261-0.061,0.136-0.182,0.296
		c-0.185,0.244-0.009-0.173-0.184,0.216c2.236,0.573,0.3,0.54,3.074,0.428c1.44-0.058,1.163-0.488,2.088-0.742
		c0.272-0.075,0.518-0.141,0.798-0.21c-0.255-0.907-0.055-0.197,0.026-1.042c0.026-0.27-0.064-0.78-0.146-1.033
		c-0.153-0.483-0.704-0.971-1.003-1.381c-0.432-0.595-0.761-0.568-1.465-0.933c-0.508-0.263-0.553-0.814-0.786-1.461
		c-0.997-0.276-0.775-0.121-0.636-0.989c0.466,0.624,0.062,0.195,0.774,0.623c0.275,0.165,0.386,0.385,0.484,0.753
		c0.12,0.449,0.131,0.609,0.432,0.821c0.344,0.241,0.582,0.206,0.928,0.083c0.205,0.646,0.529,0.682,0.988,1.066
		c0.401,0.337,0.458,0.858,0.753,1.309c0.235-0.052,0.641-0.289,0.754-0.442c0.085-0.116,0.15-0.298,0.163-0.436
		c0.075-0.779-0.393-0.477-1.296-0.576l0.781-0.045c0.132-0.229,0.109-0.142,0.398-0.22c0.266-0.071,0.359-0.111,0.541-0.384
		c0.201-0.304,0.467-1.113,0.51-1.458c-1.071,0.333-1.404,0.183-2.334-0.104c0.548,0.143,0.851-0.035,1.293-0.01
		c0.61,0.035,0.741,0.119,1.289-0.136c0.06-0.461-0.013-0.471-0.23-0.804c0.752,0.162,0.961-0.366,0.763-1.003
		c0.377,0.309,0.171,0.549,0.32,0.862c0.332-0.334,0.208-0.218,0.305-0.796c0.051-0.302,0.163-0.429,0.289-0.637
		c0.279-0.463,0.265-0.915,0.46-1.453c0.407-1.121-0.617-1.625-0.744-2.686c0.413,0.149,0.268,0.183,0.481,0.543l0.344-0.403
		c0.26-0.332,0.098-0.173,0.259-0.563c0.213-0.516,0.418-0.476,1.091-0.484c-0.228,0.315-0.146,0.04-0.552,0.219
		c-0.49,0.215-0.427,1.089-0.618,1.521l-0.155,0.29c0.892,0.852,0.191,1.55,0.084,2.032c-0.151,0.684,0.094,0.618-0.317,1.217
		c-0.371,0.543-0.231,0.543-0.153,1.081c-0.282,0.221-0.81,0.824-0.896,1.123c0.695,0.063,0.709,0.023,1.339,0.201
		c0.239-1.279,0.122-0.999,0.477-1.511c-0.236,0.524-0.098,0.359-0.12,0.781c-0.019,0.348-0.166,0.541-0.254,0.911
		c0.512,0.254,0.415,0.15,0.955,0.135c0.74-0.021,0.745,0.566,1.631,0.468c0.797-0.088,0.293-0.009,0.872,0.188
		c0.158-0.929,0.302-1.102-0.161-1.686c0.608,0.261,0.388,0.9,0.397,1.589c0.237,0.267,0.28,0.203,0.499,0.411
		c0.364,0.348,0.009,0.267,0.536,0.426c0.11-0.442,0.136-1.506-0.046-1.807c0.22,0.257,0.243,0.623,0.22,1.085
		c0.177,0.175-0.27,0.223,0.301,0.112c0.424-0.337,0.304-0.5,0.854-0.65l-0.103-0.554c-0.005-0.257-1.222-1.189-1.435-1.503
		c-0.258-0.38,0.026-0.291-0.406-0.602c-0.345-0.249-0.276-0.014-0.466-0.438c-0.088-0.198-0.144-0.434-0.431-0.593
		c-0.238-0.131-0.268-0.05-0.506,0.019l0.122-0.334l-0.46-0.225c0.924,0.033,0.729,0.316,1.253,0.58
		c-0.011-0.568-0.032-0.423-0.604-0.558l0.567-0.183c-0.63-0.619-0.584-0.85-0.503-1.601c0.005-0.037,0.02-0.051,0.037-0.072
		c0.655,0.483-0.354,0.709,0.504,1.131c0.143-1.238-0.159-1.129-0.511-2.05c0.406,0.072,0.375,0.075,0.594,0.476
		c0.153,0.281,0.158,0.37,0.22,0.689c0.272-0.071,0.246-0.036,0.376-0.058c0.3-0.052,0.83-0.297,1.136-0.182l-0.677,0.273
		c-0.246,0.07-0.298,0.041-0.477,0.332c-0.48,0.781-0.143,1.591,0.207,2.322c0.011,0.024,0.022,0.056,0.035,0.078
		c0.332,0.612,0.341,0.104,0.498,0.576c0.139,0.417,0.547,0.538,0.947,0.921c0.826,0.791,1.162,1.522,1.389,1.788
		c0.137,0.16,0.746,0.484,0.909,0.616c-0.181-1.277-0.457-1.302-1.317-1.683c0.282-0.183-0.127-0.06,0.242-0.067
		c0.01,0,0.242,0.05,0.246,0.05c0.536,0.076,0.282-0.721,0.262-1.158c-0.039-0.813,0.25-1.397,0.174-2.197
		c-0.307-0.175-0.74-0.278-0.992-0.499c0.375-0.177,0.392,0,0.847,0.158c-0.177-0.684-0.462-0.726-0.632-1.337
		c-0.34-1.222-1.05-1.208-1.718-2.138c-1.365-1.901-1.074-0.051-2.239,0.095c-0.408,0.051-0.074,0.163-0.412-0.148
		c-0.109,0.174-0.121,0.297-0.255,0.494c-1.001-0.082-1.051-1.108-2.054-1.716l0.123-0.366c0.187-0.319,0.561-0.182,0.549-0.559
		c-0.268-0.609-0.13-0.103-0.466-0.398c-0.177-0.156-0.011-0.162-0.412-0.425c-1.049-0.688-0.752-1.328-1.837-1.13
		c-0.408,0.074-0.432,0.294-1.2,0.428c-0.177,0.498-0.171,0.411-0.492,0.803l-0.359,0.829c-0.126-0.28-0.017-0.287-0.117-0.525
		c-0.152-0.363-0.209-0.004-0.29-0.333c-0.012-0.045-0.059-0.035-0.083-0.058c0.799-0.061,0.556-0.022,0.856-0.499
		c0.352-0.557,0.777-0.5,1.202-0.798c0.464-0.326,0.864-0.146,1.49-0.102c0.254-0.725,0.016-1.441,0.096-2.211
		c0.694,0.898-0.271,2.266,0.688,3.066l0.782,0.461c0.762,0.55,0.502,0.814,0.869,1.63c0.24,0.531,0.759,0.964,1.512,0.971
		l1.071-1.013c-0.098-0.701-0.253-0.282-0.184-0.983c0.103-1.038,0.49-2.057,0.104-3.09c-0.07-0.188-0.291-0.482-0.407-0.832
		c-0.462-1.391-0.51-0.715-0.506-1.682c0.002-0.365-0.096-0.482-0.057-1.004c-0.545-0.053-0.654-0.192-0.912-0.669
		c0.461,0.144,0.633,0.356,1.057,0.462l0.206-0.461c-0.578-0.362-0.675-0.152-1.298-0.399c-0.013,0.037-0.021,0.129-0.029,0.15
		c-0.006,0.014-0.029,0.058-0.035,0.07L88.912,8.35C88.757,7.834,88.789,7.8,88.04,7.777c-0.47-0.014-0.646,0.12-1.268,0.093
		c-0.484-0.021-0.765-0.069-1.198-0.043c-0.411,0.025-0.699-0.057-1.007-0.364l2.219,0.09c0.251-0.396-0.067-0.166,0.273-0.356
		L86.58,6.558h0.386c0.483,0.693,0.542,0.864,1.048,0.943c0.333,0.052,0.655-0.008,0.886,0.015c0.427,0.042,0.241,0.197,0.688,0.236
		c0.018-0.091,0.038-0.389,0.039-0.391c0.031-0.141,0.001-0.075,0.055-0.21c0.13-0.333-0.061-0.044,0.179-0.289l0.115,0.9
		l0.024-0.201c1.768,0.164,0.587,1.075,1.511,1.831c-0.157,0.71-0.638,1.506,0.263,2.193c-0.195-0.277-0.096-0.098-0.213-0.424
		c0.716-0.34,0.096-0.299,0.901-0.69c0.32-0.155,0.235-0.058,0.5-0.296l0.521-0.449c-0.063,1.186-1.06,0.668-1.441,1.808
		c0.21,0.324,0.607,0.825,0.952,0.994c0.116,0.057,0.513,0.154,0.527,0.304c0.006,0.055,0.056,0.135,0.068,0.163
		c0.342,0.788,0.997,1.328,0.469,2.28c-0.239,0.431-0.521,0.469-0.447,1.15c0.065,0.595,0.149,0.938,0.561,1.11
		c0.394-0.246,0.068-0.065,0.3-0.276c0.253-0.229,0.023-0.047,0.347-0.241l0.405-0.321c0.487-0.603,0-0.518,1.208-1.135
		c0.027-0.014,0.212-0.109,0.223-0.116c0.067-0.038,0.062-0.018,0.211-0.129c-0.121-0.132-0.082-0.116-0.232-0.24l-0.351-0.267
		c-0.019-0.014-0.052-0.039-0.075-0.063c0.497-0.232,0.214,0.004,0.513-0.427c0.083,0.154,0.013-0.021,0.037,0.2
		c0.034,0.313-0.096-0.05,0.034,0.3c0.211,0.567,0.663,0.294,0.861,0.211l0.482-0.223c0.282-0.139,0.325-0.888,0.327-1.308
		c-0.436-0.173-0.71,0.039-0.758-0.462c-0.048-0.5,0.3-0.225-0.146-0.87c-0.341-0.492-1.001-0.965-0.498-1.956
		c0.375,0.487-0.228,0.289,0.434,1.35l0.669,1.301c0.725-0.305,0.08-0.019,0.638-0.95c0.142-0.235,0.251-0.302,0.338-0.482
		l0.271-0.706c0.054-0.066,0.219-0.11,0.405-0.4c0.118-0.184,0.19-0.416,0.313-0.638c0.237-0.425,0.403-0.718,0.144-1.162
		c0.33-0.234,0.424-0.127,0.952-0.712c0.262-0.29,0.44-0.618,0.693-0.908c-0.088-0.128-0.12-0.19-0.212-0.347h0.906
		c-0.221,0.415-0.04,0.553-0.071,1.095c-1.922,1.054-1.354,0.325-1.894,2.312c-0.279,1.028-1.402,1.989-1.6,2.68
		c0.358,0.014,1.068-0.208,1.352-0.408c0.335-0.238,0.205-0.244,0.368-0.561c0.174-0.338,0.26-0.378,0.536-0.531
		c-0.504,1.553-1.003,1.27-1.367,1.66c0.258,0.916,0.118-0.048,1.114,1.014c1.591,1.696,1.074,0.737,1.684,0.247
		c0.145-0.115,0.628-0.386,0.744-0.451c-0.032,0.799-0.113,0.357-0.523,0.683c-0.325,0.258-0.021,0.276-0.548,0.707l0.333,0.285
		c0.787-0.919,0.934-0.838,1.489-1.095c0.029-0.477-0.071-0.417,0.013-0.751c0.076-0.3,0.233-0.034,0.003-0.698
		c-0.179-0.516-0.412-0.947-0.627-1.327c0.187-0.375,0.279-0.294,0.383-0.831c0.156-0.807-0.093-0.263,0.394-0.812
		c0.237-0.268,0.31-0.394,0.161-0.788c-0.164-0.435-0.264-0.2-0.393-0.869c0.322,0.21,0.281,0.222,0.533,0.632l0.177,0.276
		c0.433,0.597,1.944,0.68,1.142-1.561c-0.11-0.307-0.15-0.195-0.303-0.63c0.951,0.521,0.327,0.884,0.96,1.805
		c-0.195,0.465-0.51,0.913-0.733,1.428c-0.293,0.674-0.091,0.327-0.037,0.713c0.063,0.447-0.404,0.501,0.136,0.781
		c0.416,0.215,0.427,0.114,0.81,0.571c0.168,0.2,0.193,0.29,0.417,0.497c0.51,0.474,0.832,0.107,0.429-0.293
		c-0.167-0.166-0.047,0.006-0.203-0.156c-0.142-0.147-0.085-0.106-0.184-0.284c-0.44-0.797-0.656-0.059-0.665-0.952
		c1.266,0.565,0.829,0.947,1.099,1.11c0.638,0.096,0.667-0.115,0.936-0.467c0.267-0.35,0.563-0.499,0.751-0.827
		c-1.185-0.564-1.354,0.311-1.902-0.26c0.209-0.139-0.098-0.048,0.234-0.1c0.021-0.003,0.334-0.011,0.361-0.012
		c0.082-0.802,0.679-1.17,0.854-1.598c0.068-0.167,0.038-0.192,0.039-0.195c0.122-0.34-0.036-0.012,0.289-0.22
		c1.315-0.838,0.162-1.771,0.136-1.818h0.463l0.528,0.754c-0.208,0.287-0.201,0.595-0.379,0.885
		c-0.173,0.283-0.369,0.336-0.575,0.674c0.155,0.641,0.308,0.869,1.341,1.089c0.328,0.07,0.358-0.018,0.782-0.053
		c-0.849,0.55-0.82-0.269-1.312,0.811c0.331,0.037,0.553-0.076,0.705,0.003c-0.167,0.26,0.034,0.064-0.567,0.272l-0.184,0.075
		c0.203,0.114,0.435,0.185,0.632,0.305c0.361,0.219,0.123,0.212,0.522,0.369c1.107-0.814,1.163-0.466,1.607-1.191
		c0.108-0.176,0.071-0.153,0.195-0.283c0.586-0.614,0.092,0.286,0.446-0.979c0.078-0.279,0.153-0.333,0.188-0.688
		c-0.795-0.266-0.57-0.143-0.724-0.444c1.068,0.398,0.851,0.183,0.864,0.675c0.393-0.068,0.062,0.003,0.408-0.185
		c-0.238,0.439-0.028,0.109-0.071,0.482c-0.072,0.636-0.825,0.792,0.024,1.357c0.563-0.183,0.51-0.598,0.857-1.618
		c1.004-2.943,0.275-1.924-0.798-2.003l0.418-0.311h2.271c-0.144,0.164-0.004,0.06-0.225,0.188
		c-0.132,0.077-0.121,0.055-0.253,0.113c-0.36,0.159-0.135-0.002-0.442,0.242l-0.063,0.569l0.994,0.153
		c-0.013,0.957-0.511,0.56,0.009,1.103c0.394,0.411,0.192,0.065,0.296,0.408c0.524-0.151,0.224-0.006,0.465,0.339
		c0.175,0.251,0.291,0.268,0.353,0.393c0.059-0.099,0.058-0.145,0.097-0.224c0.142-0.292,0.06-0.142,0.123-0.237l0.701-0.946
		c0.226-0.354,0.23-0.284,0.535-0.422c-0.163,1.071-1.173,1.339-0.865,1.96l0.109-0.574c0.05,0.033,0.079,0.042,0.086,0.102
		c0.053,0.438,0.351,0.797,0.543,1.233c0.199,0.45-0.146,0.947-0.372,1.354c0.384-0.363,0.927-0.68,1.132-1.125l0.361-0.814
		c0.327-0.792,1.019-1.174,0.226-1.952c-0.331-0.325-0.052-0.001-0.251-0.345c-0.318-0.549-0.963-0.565-1.598-0.564l0.733-0.604
		c0.022-0.023,0.053-0.062,0.082-0.09c0.174,0.891,0.31,0.202,0.888,0.725c0.477,0.432,0.145,0.407,0.879,0.91l-0.022,1.028
		c1.07-0.016,0.958-0.489,1.959-0.523c-0.02,0.025-0.048,0.033-0.06,0.075c-0.068,0.244-0.479,0.373-0.669,0.45
		c-0.58,0.234-1.181,0.208-1.599,0.722c-0.345,0.424-0.294,1.21-0.755,1.616l-0.692,0.495c-0.307,0.247-0.843,0.93-0.584,1.476
		c0.178,0.336,0.646,0.483,0.996,0.814c0.856-0.359,0.355-0.453,1.758-0.566c0.417-0.034,1.384-0.385,1.632-0.651
		c0.4-0.431,1.101-1.128,1.647-1.337c0.2-0.077,0.174-0.054,0.412-0.153l0.553-0.381c0.021-0.029,0.04-0.062,0.061-0.091
		l0.134-0.202c-0.075,0.913-0.034,0.502,0.358,0.793c0.201,0.15-0.047,0.087,0.249,0.198l0.263-0.904
		c0.152,0.178,0.09,0.685-0.023,0.905c-0.226,0.439-0.49,0.284-1.057,0.233c-0.228-0.292-0.091,0.008-0.225-0.369
		c-0.806,0.51-0.804,0.305-1.527,1.087c-0.511,0.552-1.04,0.692-1.637,1.061l0.876,0.29c0.356-0.217,0.382-0.394,0.828-0.485
		c0.879-0.179,0.907,0.088,1.856-0.317c0.256-0.109,0.838-0.188,1.066,0.13l-0.486,0.166c-0.632,0.133-0.94,0.316-1.619,0.327
		c-0.431,0.007-0.767-0.019-1.065,0.215c-0.308,0.241-0.21,0.594-0.427,0.824c-0.459-0.716-2.128-1.038-2.722-0.85
		c-0.293,0.092-0.463,0.297-0.707,0.473c-0.021,0.014-0.051,0.031-0.07,0.046c-0.498,0.372-0.971,1.166-1.165,1.771
		c-0.153,0.48-0.521,1.029-0.854,1.403c-0.764,0.854-1.969,1.078-2.473,2.745c0.735-0.071,1.037-0.291,1.793-0.342
		c0.568-0.039,0.653-0.298,1.372-0.493c0.487-0.132,1.269-0.288,1.679-0.295l0.484,0.017c0.369-0.016,0.064,0.212,0.569,0.229
		c0.528-0.104,0.834-0.673,1.405-0.688c0.099-0.003,0.613,0.07,0.932,0.096c0.36,0.029,0.516,0.133,0.898,0.114
		c-0.157-0.466-0.252-0.284-0.216-0.55c0.036-0.269,0.224-0.085-0.251-0.502c-0.017-0.015-0.044-0.035-0.061-0.05
		c-0.604-0.56-0.244-0.328-0.994-0.729c0.607-0.217,0.366,0.261,1.121,0.438c0.115-0.089,0.178-0.123,0.303-0.28
		c0.218-0.271,0.245-0.058,0.125-0.327c-0.132-0.297-0.686-0.163-1.012-0.146c0.238-0.334,0.314-0.194,0.339-0.206l0.308-0.303
		c0.214,0.692,0.205,0.129,0.651,0.603c-0.068,0.217,0.013,0.056-0.099,0.246l-0.211,0.274c0.775,0.556-0.105,0.492,0.26,1.258
		l0.077-0.288c0.127-0.38,1.078-0.251,1.271-0.301c0.537-0.14,0.213-0.412,1.118-0.444c0.874-0.031,1.116-0.329,1.573-0.928
		c0.206-0.271-0.007-0.078,0.272-0.301c-0.062,0.713,0.033,0.451-0.443,0.828c-0.364,0.289-0.254,0.309-0.561,0.584
		c-0.374,0.052-0.806,0.055-1.094,0.128c-0.533,0.135-0.402,0.282-0.746,0.393c-0.715,0.229-1.516-0.174-1.079,0.921l0.763-0.424
		c0.088,0.205-0.021,0.144-0.091,0.437l0.634,0.352c0.527-0.429,0.708-1.422,1.384-1.739c-0.175,0.696-0.716,1.443-1.198,1.961
		c-0.011,0.011-0.036,0.036-0.045,0.047l-0.064,0.093c-0.007,0.009-0.021,0.038-0.029,0.046l-0.083,0.086
		c-0.01,0.007-0.302,0.151-0.303,0.151c-0.21,0.096-0.44,0.217-0.646,0.301c-0.776,0.318-0.654-0.052-1.391,0.115
		c-0.936,0.211-2.004,0.283-3.198,0.146c-0.902-0.103-1.647,0.066-2.504-0.064c-0.084-0.013-0.292-0.046-0.404-0.043
		c-0.451,0.009-0.656,0.301-0.807,1.255c0.518,0.431,0.587-0.052,1.161,0.292l-0.521-0.075l0.158,0.418
		c-0.248-0.28-0.166-0.279-0.627-0.301l-0.107,0.439c-0.004,0.014-0.014,0.05-0.027,0.072l-1.128,0.189
		c0.164,1.189-0.023,0.902,0.518,1.02c-0.403,0.127-0.63,0.121-0.563,0.673c0.62,0.003,0.773-0.434,1.145-0.548
		c0.369-0.114,1.066,0.114,1.494,0.193c1.522,0.28,1.337-0.097,2.608-0.589c0.961-0.372,1.504-0.878,2.652-0.994
		c1.155-0.117,0.35,0.514,2.208-0.076l0.716-0.218c-0.024-0.149-0.119-0.238-0.019-0.397c1.282,0.814,2.118,0.438,3.591,0.495
		l-1.1,0.337c0.907,0.759,1.578,0.166,2.285,0.43c-0.8,0.394-1.892,0.079-2.67-0.266c-0.361-0.16-0.523-0.094-0.92-0.216
		c-0.942-0.289-0.93-0.235-1.875,0.086c-0.732,0.249-0.945,0.633-1.698,0.341c-0.625-0.243-0.929-0.255-1.733,0.063
		c-0.505,0.201-0.263,0.257-0.711,0.449l-1.183,0.584c-0.694,0.417-0.696,0.203-1.29,0.462c-0.44,0.192-0.536,0.428-1.633,0.821
		c-1.409,1.072-1.694,0.415-1.615,1.314c-0.572-0.235-0.433-0.012-0.951,0.347c-0.34,0.236-0.563,0.345-0.804,0.626
		c0.438,0.033,0.396-0.115,0.888-0.183l-0.151,0.085c-0.725,0.338-0.871,0.118-1.388,0.729c-0.625,0.739,0.078,0.776-1.714,1.821
		c-1.154,0.673-0.5,0.127-1.676,1.981c0.645-0.239,0.407-0.188,0.732-0.68c0.153-0.233,0.529-0.543,0.746-0.786
		c0.753-0.842,1.053-0.779,1.54-1.412c0.287-0.371,0.242,0.238,0.855-0.293c0.295-0.256,0.393-0.37,0.666-0.649
		c0.299-0.303,0.412-0.297,0.78-0.501c0.337-0.188,0.427-0.313,0.76-0.508c0.386,0.111,0.39,0.449,1.486,0.405
		c0.613-0.024,0.994-0.365,1.397-0.544c0.054-1.022,0.096-0.572,0.646-1.15c0.338-0.356,0.018-0.158,0.504-0.446l0.438-0.28
		c0.02-0.015,0.056-0.045,0.072-0.058c0.017-0.013,0.048-0.041,0.072-0.061c-0.48,0.846-1.259,0.613-1.443,1.759
		c1.251-0.029,0.623-1.629,2.918-1.641l0.45-0.693c0.775,0.036,0.311,0.46,1.377-0.024c0.229-0.105,0.442-0.238,0.668-0.274
		c0.095-0.016,0.322-0.022,0.412,0.001c0.755,0.195,0.147-0.046,0.416,0.292c-1.356-0.286-1.49,0.479-2.605,0.372
		c-0.565,1.671-1.965,0.056-2.507,1.922c-0.047,0.16-0.658,0.309-0.896,0.572c-0.28,0.31-0.203,0.694,0.045,0.998
		c0.043-0.011,0.186-0.153,0.329-0.236c0.232-0.134,0.48-0.186,0.76-0.288l-0.345,0.342c-0.448,0.416-0.648,0.403-0.828,0.975
		l0.634-0.135c-0.02,0.014-0.056,0.045-0.079,0.061c-0.519,0.34-0.223-0.09-0.761,0.678l-0.189,0.258l2.279-0.228
		c-0.418,0.413-1.317,0.32-1.912,0.362c-0.719,0.051-0.592,0.098-1.353,0.78c-0.214,0.192-0.044,0.021-0.194,0.189
		c0.156,0.368,0.084,0.297,0.359,0.582c0.404-0.11-0.017,0.071,0.245-0.109c0.14-0.096,0.128-0.116,0.225-0.218
		c-0.107,0.479-0.17,0.145-0.369,0.682c0.523-0.14,0.842-0.615,1.453-0.774c0.461-0.121,0.535-0.028,0.946-0.094
		c0.36-0.057,0.608-0.202,0.886-0.31c0.018,0.021,0.037,0.033,0.044,0.07l0.517,0.322c0.716,0.111,1.027-0.296,1.621-0.759
		c0.207-0.161,0.086-0.021,0.266-0.211c0.863-0.914,0.161-1.728,0.146-2.043c-0.062-1.283,0.54-2.624,1.474-3.231
		c0.181-0.118,0.364-0.218,0.602-0.34l1.192-0.687c0.217-0.213,0.182-0.256,0.426-0.506c0.004,0.006,0.166-0.072,0.104,0.304
		c-0.052,0.317-0.47,0.244,0.172,1.181c0.935,0.055,1.694,0.222,2.558,0.101l0.229-0.424l0.364,0.042l-0.013,0.351l-0.584,0.494
		c-0.569-0.236-0.813,0.005-1.256-0.027c-0.677-0.049-0.437-0.27-1.446-0.112c-0.129-0.289-0.38-0.594-0.634-0.735l-1.395,0.8
		c-0.567,0.416-0.826,0.387-1.032,1.216c-0.4,1.614,0.341,2.039,0.039,2.794c-0.166,0.415-0.228,0.429-0.235,0.896
		c0.956,0.222-0.084,0.006,0.805-0.181c0.27-0.378,0.775-0.424,1.265-0.722c0.734-0.447,0.411-0.453,0.767-1.168
		c0.129,0.334,0.109,0.553-0.055,0.86c0.361-0.22,0.136-0.137,0.405-0.34c0.491-0.37,0.717-0.11,0.889-1.267
		c0.115-0.782,0.499-0.931,1.222-0.967c0.281-0.015,0.041-0.122,0.253,0.064l-1.223,0.458c-0.302,1.839-0.174,1.362-1.34,2.235
		c-1.12,0.839-0.993,0.491-1.445,2.108c1.612,0.335,0.822,1.019,2.171,0.8c0.891-0.145,1.489-0.542,2.293-0.5l0.306-0.416
		l-0.073,1.991c-0.86-0.198-0.154-0.518-1.608-0.355c-0.598,0.067-1.365,0.007-1.932-0.142c-0.757-0.199-0.904-1.217-2.888-0.438
		c-0.3,0.118-0.285,0.41-0.426,0.638c-0.18,0.29-0.157,0.098-0.401,0.463c-0.445,0.664,0.118,0.617,0.475,0.748
		c-0.319,0.127-0.521-0.024-0.768-0.157c-0.65,0.437-1.167,0.909-2.227,0.883c-0.99-0.024-1.947,0.055-2.848,0.026
		c-0.089,0.164-0.18,0.487-0.292,0.634c-0.445,0.585-1.111,0.13-1.916,0.339c-0.347,0.86-0.133,1.141-0.363,1.534
		c-0.212-0.624,0.29-1.358,0.387-1.704l-0.889,0.563c-0.177,0.115-0.469,0.387-0.614,0.563c-0.116,0.142-1.46,2.592-1.846,2.883
		c-0.187,0.141-0.546,0.282-0.723,0.451c-0.37,0.356-0.044,0.091-0.322,0.504c-0.014,0.02-0.044,0.056-0.055,0.071
		c-0.016,0.02-0.096,0.103-0.125,0.128c0.379-0.053,0.674-0.199,0.969-0.243c0.603-0.088,0.345,0.113,1.035,0.133
		c1.243-2.483,3.278-1.07,4.146-3.02l0.221,0.095c0.156,0.047-0.015,0.06,0.187,0.033c0.391-0.053,0.646-0.701,1.188-0.133
		c-0.222,0.354,0.027,0.063-0.403,0.282c-1.828,0.928-0.562,0.302-1.603,0.962c-0.158,0.101-0.235,0.131-0.403,0.205
		c-0.725,0.32-2.952,0.598-2.873,1.957c0.029,0.497,0.228,0.182,0.272,0.727c-0.458-0.132-0.999-0.408-1.485-0.525
		c-0.918-0.222-0.924,0.044-1.653,0.164c-0.721,0.118-1.15-0.073-1.821,0.279c-1.14,0.599-0.655,0.786-0.808,0.976
		c-0.711,0.418-0.787,0.709-0.751,1.678c-1.205,2.549-0.485,11.043,2.905,16.525c2.632,4.254,8.988,6.646,11.132,7.663
		c0.472,1.133-3.793,1.671-2.836,2.589C121.131,73.403,117.349,80.754,118.211,81.104z M94.567,45.475l0.308-0.29
		c0.077,0.138,0.126-0.096,0.081,0.421L94.567,45.475z"/>
</g>
<polygon fill="none" stroke="#000000" stroke-width="2.0211" stroke-miterlimit="22.9256" points="70.866,13.973 95.501,28.197 
	120.137,42.42 120.137,70.867 120.137,99.313 95.501,113.537 70.866,127.76 46.23,113.537 21.595,99.313 21.595,70.867 
	21.595,42.42 46.23,28.197 "/>
<path fill-rule="evenodd" clip-rule="evenodd" fill="#FDFDFD" d="M28.453,71.844c0.018-0.021,0.041-0.082,0.049-0.065
	c0.056,0.112-0.004,0.11,0.25-0.364c0.153-0.286,0.625-1.613,1.194-2.399c0.24-0.332,0.547-0.362,0.865-0.636h-2.359V71.844z"/>
<path fill-rule="evenodd" clip-rule="evenodd" fill="#FF0000" d="M96.126,110.238c-0.22,0.167-0.443,0.33-0.665,0.484
	c-0.203,0.142-0.411,0.278-0.619,0.405c-0.261,0.156-0.521,0.346-0.774,0.528c-0.337,0.243-0.666,0.48-1.034,0.679
	c-0.705,0.381-1.211,0.715-1.654,1.008c-0.339,0.224-0.646,0.427-0.972,0.609c-0.295,0.165-0.869,0.496-1.498,0.88l1.529-0.697
	c1.125-0.489,4.04-2.344,5.644-3.363l0.577-0.366c1.505-0.948,3.094-2.23,4.632-3.691c1.606-1.527,3.158-3.249,4.503-4.992
	c0.267-0.343,0.971-0.915,1.324-1.248c0.657-0.627,1.311-1.315,1.932-2.022c0.663-0.756,1.282-1.523,1.822-2.25l0.066-0.09
	c0.279-0.377,0.489-0.661,0.736-1.021c0.946-1.38,1.778-2.802,2.511-4.277c0.731-1.474,1.369-3.013,1.926-4.628
	c0.108-0.304,0.267-0.818,0.437-1.428l-0.388,0.568l0.285-2.739c0.044-0.43,0.159-0.986,0.293-1.641
	c0.187-0.906,0.414-2.013,0.53-3.154c0.138-1.372,0.192-2.776,0.164-4.19c-0.135,2.432-0.538,4.791-1.246,6.884l-2.271,6.716
	l0.473-3.602c-0.283,0.898-0.613,1.831-0.978,2.714c-0.662,1.603-1.447,3.065-2.29,3.931l-1.871,1.92l0.698-2.585
	c0.086-0.319,0.431-0.994,0.771-1.66c0.246-0.483,0.493-0.964,0.603-1.234c0.192-0.471,0.366-0.933,0.536-1.416
	c0.158-0.452,0.325-0.964,0.511-1.549c0.983-3.113,1.46-6.628,1.506-10.21c0.05-3.839-0.394-7.765-1.235-11.368l-0.761-3.255
	l1.152,1.544c-0.206-0.67-0.429-1.325-0.661-1.97c-0.31-0.858-0.683-1.809-1.065-2.777c-1.447-3.658-2.877-6.558-4.65-9.133
	c-1.772-2.574-3.906-4.848-6.767-7.26c-0.897-0.757-1.784-1.455-2.685-2.114c-0.903-0.661-1.824-1.283-2.789-1.889l-0.64-0.369
	c-0.541-0.307-1.158-0.656-1.432-0.904l-1.324-1.2l1.788-0.011c0.858-0.005,1.852,0.283,2.874,0.721l-0.446-0.239
	c-0.245-0.128-0.489-0.257-0.803-0.447c-0.476-0.285-1.045-0.537-1.617-0.792c-0.419-0.186-0.84-0.373-1.202-0.556l-3.142-1.585
	l1.094,0.083c-0.73-0.263-1.412-0.49-1.929-0.653c-3.599-1.136-7.378-2.195-11.234-2.878c-3.84-0.68-7.757-0.988-11.645-0.625
	c-6.048,0.564-11.486,2.31-16.162,4.836c-5.132,2.772-9.342,6.485-12.435,10.606c-2.564,3.418-5.499,8.468-7.393,14.188
	c-1.44,4.347-2.276,9.075-1.881,13.748c0.135,1.599,0.365,3.081,0.817,4.402c0.438,1.284,1.092,2.427,2.082,3.391
	c0.752,0.732,1.903,1.445,3.239,1.774c1.05,0.259,2.216,0.277,3.388-0.124c0.617-0.212,1.278-0.531,1.849-0.901
	c0.507-0.328,0.94-0.691,1.197-1.041c0.274-0.374,0.52-0.972,0.59-1.626c0.055-0.511,0-1.047-0.234-1.516
	c-0.25-0.501-0.524-0.913-0.796-1.322c-0.441-0.666-0.883-1.331-1.308-2.454c-0.226-0.599-0.422-1.23-0.597-1.872
	c-0.185-0.673-0.333-1.284-0.473-1.874c-0.013-0.058-0.017-0.112-0.012-0.164l-0.775,0.928l-0.364-1.256
	c-1.654-5.708,0.332-10.866,0.91-12.369c0.064-0.169,0.097-0.194,0.101-0.234l1.385,0.145l-0.002,0.023
	c-0.029,0.269-0.077,0.535-0.131,0.812c0.269-0.399,0.543-0.755,0.798-1.012l1.721-1.733l-0.549,2.379
	c-0.081,0.353-0.314,1-0.588,1.762c-0.35,0.974-0.771,2.147-0.996,3.047l-0.14,0.614l1.091-1.373l-0.033,0.907l0.312-0.919
	c0.22-0.627,0.451-1.247,0.721-1.919c0.257-0.64,0.514-1.271,0.778-1.891c0.26-0.61,0.531-1.22,0.825-1.833l0.227-0.473
	c0.485-1.023,0.966-2.029,1.609-3.124c0.889-1.514,2.15-3.025,3.57-4.434c1.379-1.369,2.915-2.649,4.403-3.748
	c-0.525,0.271-1.044,0.568-1.552,0.885c-2.445,1.527-4.645,3.527-6.289,5.536c-0.081,0.097-0.234,0.302-0.398,0.522
	c-0.339,0.452-0.722,0.965-0.975,1.176l-1.212,1.014l0.07-1.578c0.03-0.677,0.451-1.566,1.009-2.456
	c0.785-1.25,1.864-2.557,2.442-3.19c2.251-2.466,5.148-4.691,8.313-6.527c3.297-1.911,6.896-3.406,10.371-4.314
	c3.764-0.984,8.021-1.26,12.195-0.878c4.178,0.383,8.28,1.423,11.738,3.07l0.734,0.371c0.704,0.382,1.357,0.759,2.001,1.242
	c0.062,0.057,0.088,0.09,0.149,0.164l1.313,1.595l-1.827-0.364l0.238,0.129c0.482,0.264,0.885,0.471,1.28,0.674l0.682,0.35
	c1.519,0.793,3.495,2.037,5.294,3.391c1.524,1.148,2.938,2.388,3.862,3.518c1.073,1.313,2.042,2.633,2.949,4.052
	c0.902,1.411,1.734,2.907,2.539,4.577c3.366,6.982,4.997,13.923,4.792,20.66c-0.201,6.63-2.178,13.05-6.021,19.102
	c-3.902,6.146-8.851,10.71-14.632,13.752c-5.947,3.129-12.771,4.641-20.24,4.604c-3.727-0.018-6.94-0.528-9.869-1.36
	c-2.922-0.829-5.565-1.979-8.162-3.281c-1.295-0.649-2.579-1.389-3.816-2.183c-1.069-0.687-2.113-1.418-3.109-2.174l0.628,0.542
	c1.022,0.858,2.104,1.693,3.212,2.453c1.007,0.689,2.038,1.322,3.068,1.855l0.569,0.28c0.646,0.31,1.454,0.697,1.856,1.033
	l1.615,1.353l-2.101-0.123c-1.052-0.062-2.46-0.704-3.894-1.559c-1.178-0.7-2.391-1.553-3.429-2.333l0.516,0.583l-2.659-1.195
	c0.467,0.409,0.93,0.79,1.395,1.152c0.725,0.567,1.477,1.111,2.257,1.665c0.721,0.514,1.533,1.083,2.351,1.601
	c0.813,0.515,1.64,0.985,2.398,1.306c0.413,0.175,0.779,0.367,1.139,0.556c0.459,0.241,0.913,0.479,1.399,0.637
	c0.266,0.088,0.521,0.207,0.79,0.333c0.187,0.088,0.385,0.18,0.601,0.264l0.674,0.253l0.69,0.239
	c4.232,1.422,8.07,2.146,12.152,2.168c4.096,0.021,8.465-0.664,13.749-2.061c2.087-0.551,4.038-1.179,5.876-1.879
	c1.838-0.701,3.551-1.475,5.162-2.316l7.26-3.795L96.126,110.238z"/>
<text transform="matrix(1 0 0 1.3963 27.6323 101.3271)" fill="#FFFFFF" font-family="'TraditionalArabic'" font-size="18.9277">IX</text>
<path fill-rule="evenodd" clip-rule="evenodd" d="M84.202,27.478c0.069-0.503,0.462-1.412,0.771-1.813
	c0.215-0.023,0.566-0.071,0.771-0.051c0.584,0.058,0.409,0.1,0.518,0.355c-0.228,0.319-0.007,0.16-0.376,0.207l-0.395-0.008
	c2.078,0.454,0.942,1.117,2.039,1.54c0.829,0.32,1.328-0.984,2.619-0.12c-0.183,1.445-1.588,0.57-1.71,0.556
	c-0.54-0.062-1.65,0.263-2.945-0.824c-0.216-0.182-0.286-0.283-0.413-0.512C85.08,26.81,85.169,27.449,84.202,27.478 M87.476,27.255
	l-0.323-0.888c1.092-0.326,0.406,0.139,1.547,0.527l-0.114,0.101c-0.016,0.011-0.047,0.033-0.065,0.044
	C87.94,27.402,87.847,27.305,87.476,27.255z M91.85,26.775c0.788-0.194,0.375-0.298,0.927-0.655
	c0.291,0.326,0.193,0.695,0.716,0.826l-1.71,0.006L91.85,26.775z M96.058,29.08c-0.647-0.025-0.779-0.055-1.301-0.151
	c-0.896-0.166-1.163-0.224-1.401-0.706c-0.586-1.184-0.719-0.467-1.279-0.887l1.379,0.047c0.327,0.428,0.066,0.249,0.585,0.517
	c0.295,0.153,0.423,0.198,0.738,0.296C95.35,28.374,95.7,28.57,96.058,29.08z M84.053,27.819c0.639-0.598,0.84-0.707,1.521-0.241
	c-0.181,0.478-0.132,0.36-0.504,0.696C84.348,28.93,84.222,28.646,84.053,27.819z M91.891,28.69
	c-0.336-0.303-0.385-0.229-0.487-0.782l1.32,0.163c0.107,0.238,0.209,0.307,0.158,0.614L91.891,28.69z M89.533,30.226
	c-1.243-0.201-1.229,0.636-1.916-0.148c-0.685-0.781,0.018-0.516-0.802-0.882l-1.507-0.784c0.133-0.329,0.16-0.301,0.358-0.579
	c0.422,0.15,0.935,0.389,1.424,0.494c0.706,0.151,1.088,0.051,1.753,0.23c-0.257,0.495-0.461,0.268-0.613,0.47
	c1.733-0.213,1.068-0.322,2.287-0.803c0.125,0.108,0.398,0.339,0.515,0.454c0.96,0.956,0.737,0.411,2.209,0.696
	c0.439,0.085,1.129,0.285,1.55,0.394l1.607,0.342l0.093,1.242c-0.525-0.013-0.567-0.173-1.003,0.171
	c0.478,0.263,0.653,0.004,1.164,0.325l-0.7,0.02c-0.153,0.345,0.24,0.045-0.17,0.308l-0.417,0.18
	c-0.028,0.011-0.057,0.028-0.087,0.038l-3.155-0.191c-0.079-0.055-0.313-0.313-0.315-0.314c-0.269-0.144,0.156,0.063-0.336-0.042
	c-0.263-0.056-0.384-0.173-0.873-0.287C89.432,31.287,89.796,31.138,89.533,30.226z M82.387,29.305
	c0.562,0.119,0.319-0.053,0.502,0.439l-0.08-0.293l0.616-0.137c0.25,0.18,0.161-0.013,0.244,0.371
	c0.003-0.022-0.012-0.055-0.011-0.066l0.062-0.256c0.218-0.175,0.188-0.104,0.572-0.085c-0.13,0.842-0.361,0.735-0.362,0.734
	c-0.003-0.013-0.03-0.002-0.042,0.006c0.414,0.441,0.079,0.482-0.385,0.591c-0.442,0.104-0.219,0.044-0.52,0.191
	c-0.469,0.228,0.179,0.274-0.487,0.102L82.387,29.305z M87.077,30.464c-0.483-0.016-0.748-0.129-1.142-0.327
	c-0.658-0.332-0.639-0.109-1.06-0.297C85.433,28.733,86.616,29.943,87.077,30.464z M97.253,30.298l0.519,0.085
	c-0.081,0.412-0.342,0.633-0.342,0.632c-0.008-0.02-0.042,0.047-0.115,0.077L97.253,30.298z M98.173,31.211
	c-0.802,0.344-0.717-0.251-0.195-0.578C98.173,30.852,98.137,30.822,98.173,31.211z M84.061,31.104
	c0.154,0.324,0.228,0.764,0.079,1.11c-0.335-0.098-0.854-0.391-1.059-0.692C83.417,31.201,83.463,31.154,84.061,31.104z
	 M88.376,31.753c-0.06,0.497-0.46,1.376-0.769,1.691c0.044-1.547-0.206-0.42-0.589-2.088C87.576,31.416,87.971,31.423,88.376,31.753
	z M84.485,31.175c1.071-0.672,1.638-0.023,2.475,0.207c-0.104,0.863,0.073,1.405-0.11,2.367
	C85.242,33.8,84.395,32.837,84.485,31.175z M87.815,33.833c0.049-0.374,0.268-0.936,0.369-1.151
	c0.485-1.027,0.233-0.684,0.578-0.913l2.125,0.89l-0.59,0.79c0.729-0.801,1.156-0.416,1.86-0.27
	c0.646,0.133,1.509,0.163,1.955,0.482l-0.589,0.153c0.406,0.055,0.733,0.041,1.141,0.19c0.439,0.162,0.439,0.183,0.551,0.642
	l-0.359,0.148c-0.483,0.187-0.693,0.241-1.141,0.031c-0.696-0.327-0.554-0.083-1.403-0.329l0.254,0.19
	c0.021,0.013,0.056,0.025,0.078,0.037l0.232,0.125c0.013-0.023,0.051,0.029,0.073,0.048c-0.454,0.281-0.98,0.641-1.623,0.93
	c-1.931,0.867-1.871,0.007-2.104-0.248l-0.271-0.174c-0.221-0.137-0.345-0.239-0.467-0.449c-0.194-0.334-0.081-0.384-0.231-0.672
	C88.101,33.989,88.074,34.149,87.815,33.833z M87.282,34.095c-0.31-0.671-0.104-0.506-0.143-1.829
	c0.098,0.096,0.103,0.064,0.197,0.216c0.156,0.25,0.142,0.547,0.171,0.761C87.607,33.948,87.646,33.827,87.282,34.095z
	 M96.584,33.783c0.206,0.195,0.308,0.298,0.424,0.623C96.654,34.322,96.422,34.138,96.584,33.783z M99.337,29.226
	c0.175,0.314,0.257,0.709,0.187,1.132l0.361-0.134c-0.025,0.139-0.056,0.276-0.089,0.412c-0.358,0.149-0.305,0.229-0.36,0.307
	c0.081,0.067,0.157,0.12,0.23,0.163c-0.083,0.269-0.181,0.533-0.293,0.792c-0.323-0.158-0.639-0.279-0.846-0.333
	c-0.024,0.721-0.092,0.119,0.66,0.732c-0.179,0.362-0.385,0.713-0.617,1.054l-0.063-0.034c-0.537-0.286-1.115-0.53-1.417-0.857
	l-1.039,0.418c0.298,0.477,0.354,0,1.32,1.613l0.286,0.004c-0.396,0.427-0.835,0.83-1.313,1.204
	c-0.295-0.157-0.075-0.198-0.491-0.231l-2.551,0.148c-0.672,0.117-1.32,0.863-2.494,1.068c-1.373,0.239-0.457,0.12-1.257,0.005
	c-0.528-0.076-1.008,0.256-1.439,0.323c-0.214,0.033-1.46,0.043-1.689,0.016c-0.489-1.359-1.311-1.31-2.69-1.393
	c-1.605-0.096-1.635,0.845-3.29-0.019c-0.417,0.155-0.617,0.472-0.982,0.125c-0.371-0.352,0.262-0.072-0.357-0.341
	c-0.489-0.212-1.233-0.146-1.618-0.446c-0.412-0.32-0.194-0.179-0.299-0.709c0.31,0.656,0.325,0.735,1.18,0.889
	c0.594,0.107,1.05,0.4,1.604,0.201c0.989-0.357,0.917,0.136,1.565,0.305c0.828,0.217,1.017-0.343,1.123-0.526
	c1.06,0.103,1.416-0.228,2.317,0.102c0.686,0.25,0.567,0.128,0.978,0.501c0.222,0.201,0.321,0.205,0.467,0.34
	c0.184,0.17,0.105,0.144,0.276,0.396c1.088,0.025,1.059,0.002,2.122-0.17c-0.296-0.497-0.716-0.791-1.116-1.135
	c-0.565-0.485-0.677-0.363-1.459-0.611c-0.635-0.202-1.012-0.642-1.558-0.607c-0.763,0.049-0.909,0.283-1.887,0.193l1.936-0.312
	c-0.169-0.252-0.167-0.155-0.245-0.25c-0.874-1.046,0.433-0.081-1.955-1.769c-0.81,0.28-1.557,0.79-2.369,0.978
	c-0.682,0.157-1.947,0.099-2.759,0.163c-0.647-0.659-1.317-0.622-1.889-0.82c-0.053-0.13-0.102-0.261-0.146-0.394
	c0.065,0.037,0.161,0.06,0.307,0.031c0.44-0.087,0.482-0.179,0.773-0.333c-0.078,0.261-0.061,0.136-0.181,0.296
	c-0.184,0.245-0.01-0.173-0.184,0.216c2.239,0.573,0.304,0.539,3.076,0.428c1.44-0.058,1.162-0.488,2.085-0.743
	c0.272-0.075,0.518-0.141,0.798-0.209c-0.259-0.907-0.057-0.197,0.021-1.042c0.025-0.269-0.067-0.78-0.149-1.033
	c-0.156-0.483-0.708-0.971-1.009-1.381c-0.435-0.594-0.764-0.568-1.469-0.933c-0.509-0.264-0.556-0.815-0.792-1.462
	c-0.999-0.275-0.776-0.121-0.641-0.988c0.469,0.624,0.063,0.195,0.777,0.623c0.275,0.165,0.388,0.385,0.487,0.753
	c0.122,0.449,0.134,0.609,0.436,0.821c0.345,0.242,0.583,0.206,0.928,0.083c0.208,0.646,0.533,0.682,0.992,1.067
	c0.403,0.337,0.463,0.858,0.759,1.308c0.235-0.052,0.64-0.289,0.752-0.442c0.085-0.116,0.149-0.298,0.162-0.436
	c0.072-0.779-0.396-0.477-1.299-0.577l0.781-0.044c0.131-0.229,0.108-0.143,0.397-0.22c0.266-0.071,0.359-0.11,0.539-0.384
	c0.2-0.304,0.463-1.113,0.504-1.459c-1.069,0.333-1.403,0.183-2.335-0.104c0.549,0.143,0.852-0.035,1.294-0.01
	c0.61,0.035,0.741,0.118,1.288-0.135c0.059-0.462-0.015-0.472-0.233-0.804c0.753,0.162,0.959-0.366,0.758-1.002
	c0.378,0.309,0.174,0.549,0.324,0.862c0.33-0.334,0.207-0.219,0.302-0.796c0.05-0.302,0.161-0.43,0.286-0.638
	c0.072-0.121,0.125-0.241,0.166-0.362l0.389,0.192c-0.032,0.099-0.097,0.22-0.221,0.403c-0.37,0.542-0.23,0.542-0.149,1.081
	c-0.282,0.221-0.807,0.824-0.893,1.122c0.696,0.063,0.71,0.023,1.34,0.201c0.234-1.279,0.118-0.999,0.471-1.511
	c-0.234,0.524-0.096,0.358-0.117,0.78c-0.017,0.349-0.163,0.542-0.25,0.912c0.513,0.254,0.416,0.151,0.956,0.135
	c0.74-0.022,0.747,0.565,1.632,0.467c0.797-0.088,0.294-0.009,0.873,0.188c0.154-0.929,0.298-1.102-0.167-1.686
	c0.608,0.261,0.391,0.9,0.403,1.588c0.238,0.268,0.281,0.204,0.5,0.412c0.366,0.348,0.01,0.267,0.539,0.426
	c0.108-0.442,0.129-1.506-0.054-1.807c0.221,0.257,0.245,0.623,0.224,1.085c0.178,0.175-0.269,0.223,0.302,0.112
	c0.423-0.337,0.302-0.5,0.851-0.65l-0.037-0.197l4.521,2.234l0.025,1.161c1.066,0.419,1.29-0.039,1.606,1.004
	c0.312-0.243,0.537-0.261,0.503-0.674c-0.224-0.16-0.592-0.172-0.713-0.214c0.479-0.214,0.275,0.139,0.46-0.348L99.337,29.226z"/>
<path fill-rule="evenodd" clip-rule="evenodd" d="M71.858,23.717c-0.129,0.277-0.247,1.013-0.355,1.324l-0.511,1.69
	c-0.203,0.598-0.326,1.059-0.513,1.671c-0.243,0.794-0.212,1.032-0.444,1.843l-0.176,0.737l-5.026-0.073l1.82-5.2
	c0.22-0.292,0.16-0.239,0.3-0.555c0.099-0.225,0.113-0.438,0.199-0.575c0.113-0.179,0.234-0.359,0.347-0.548L71.858,23.717z"/>
</svg>
