<?xml version="1.0" encoding="utf-8"?>
<!-- Generator: Adobe Illustrator 16.0.0, SVG Export Plug-In . SVG Version: 6.00 Build 0)  -->
<!DOCTYPE svg PUBLIC "-//W3C//DTD SVG 1.1//EN" "http://www.w3.org/Graphics/SVG/1.1/DTD/svg11.dtd">
<svg version="1.1" id="Capa_1" xmlns="http://www.w3.org/2000/svg" xmlns:xlink="http://www.w3.org/1999/xlink" x="0px" y="0px"
	 width="141.732px" height="141.732px" viewBox="0 0 141.732 141.732" enable-background="new 0 0 141.732 141.732"
	 xml:space="preserve">
<polygon fill-rule="evenodd" clip-rule="evenodd" fill="#FF0009" points="70.866,40.213 102.756,47.876 134.646,55.54 
	134.646,70.866 134.646,86.193 102.756,93.856 70.866,101.52 38.977,93.856 7.086,86.193 7.086,70.866 7.086,55.54 38.977,47.876 
	"/>
<polygon fill-rule="evenodd" clip-rule="evenodd" fill="#FFFFFF" points="70.866,13.973 95.501,28.197 120.137,42.42 
	120.137,70.867 120.137,99.313 95.501,113.537 70.866,127.76 46.23,113.537 21.595,99.313 21.595,70.867 21.595,42.42 46.23,28.197 
	"/>
<polygon fill="none" stroke="#000000" stroke-width="2.0211" stroke-miterlimit="22.9256" points="70.866,13.973 95.501,28.197 
	120.137,42.42 120.137,70.867 120.137,99.313 95.501,113.537 70.866,127.76 46.23,113.537 21.595,99.313 21.595,70.867 
	21.595,42.42 46.23,28.197 "/>
<path fill-rule="evenodd" clip-rule="evenodd" d="M48.482,63.566c3.622-1.796,5.706,3.865,2.46,5.282
	C47.451,70.373,44.818,65.383,48.482,63.566 M91.981,71.8c3.803-1.717,5.606,4.028,2.316,5.365
	C90.787,78.591,88.314,73.454,91.981,71.8z M62.663,91.488c2.621-0.355,4.106-0.844,6.712-0.259
	c4.258,0.955,9.401,2.302,11.614-1.95c0.941-1.812,1.438-4.589,0.393-6.611c-1.26-2.437-2.512-2.171-4.754-0.728
	c-3.482,2.242-3.866,2.145-8.096,3.584C66.506,86.214,63.138,85.356,62.663,91.488z M76.245,85.56
	c3.681-1.208,5.266,4.463,1.766,5.551C74.307,92.262,72.313,86.851,76.245,85.56z M49.528,41.229l1.463-4.402l-0.053,0.025
	l0.899-2.642c-12.29,9.508-22.341,16.125-17.025,33.293l0.66-0.128c0.024-0.009,0.115-0.01,0.132-0.066
	c0.018-0.058,0.085-0.056,0.133-0.072c0.291,1.419,0.658,3.046,1.284,4.064c1.611-2.285,1.621-5.866,3.687-7.42
	c0.44-0.331,5.862-3.224,6.219-3.309c0.664,0.945,1.07,1.134,1.678,1.839c-2.222,1.475-2.181-0.037-4.193,1.287
	c-0.825,0.543-2.436,1.865-2.422,3.349c1.417,1.375,4.071,0.448,3.872,4.321c-0.134,2.605-1.468,4.31-2.046,6.423
	c5.044,0.79,3.285,0.4,6.938-1.361c0.011-2.576,1.211-2.599,1.917-4.803c-1.139-1.043-1.723-0.504-2.469-1.706
	c5.626,0.402,3.021,3.528,2.784,7.66l2.653,2.55l0.922-9.057c-0.806-0.248-0.481,0.051-0.954-0.604
	c0.583-0.681,0.978-0.778,2.021-0.461c0.661,2.688-0.942,10.135,5.086,12.319c1.893,0.686,6.04,0.827,8.157,0.472
	c0.628-0.105,5.485-2.545,5.937-2.929c-0.63-0.826-6.787-4.622-8.016-5.166c0.579-1.394,1.041-0.95-0.073-2.474l1.465-1.067
	c0.791,1.333,1.032,2.723,2.599,3.381c1.348,0.567,2.982,0.811,4.507,1.447c3.313,1.383,17.548,4.362,20.274,3.531
	c1.42-0.433,2.275-1.699,2.807-3.167c0.794-2.195-0.518-2.8-2.297-3.375c0.388-0.22,1.218-0.293,1.826-0.727l-0.038-2.558
	c1.966-0.159,1.586,0.625,3.47,0.66c-0.056,0.863-0.806,3.806-1.009,5.222c-0.259,1.801-0.52,3.701-1.301,5.109
	c-2.47,4.449-5.195,1.066-6.952,6.097c-2.341,6.7-2.458,5.126-4.051,9.001c-0.616,1.499-1.043,3.318-1.673,4.741
	c-0.638,1.438-2.756,3.021-0.474,3.845c0.508-1.267,1.247-2.525,1.817-3.873c0.593-1.399,0.925-3.102,1.499-4.458
	c0.99-2.339,4.748-2.984,5.532-3.394c0.792-0.414,1.291-0.704,2.347-0.681c0.255,0.562,0.507,0.789,0.518,1.694
	c-1.61,0.355-3.503-0.305-5.825,2.675c-0.77,0.987,0.025,2.146,0.599,2.664c1.175,1.064,1.547,0.314,1.979,2.515
	c0.06,0.148,0.121,0.41,0.185,0.551c0.197,0.438,0.22,0.397,0.464,0.688c0.296-0.307,0.537-0.477,0.846-1
	c-3.123-2.648,0.256-7.551,4.113-4.314c0.425-0.318,0.78,0.166,1.183-0.288c2.327-2.63,5.253-8.413,6.413-11.575
	c1.089-2.965,3.377-14.23,1.872-17.196c-0.736,2.624-2.385,5.067-3.076,7.176c-1.388-0.188-2.66-0.677-3.711-1.21l0.919-2.322
	c0.183-0.74-0.063,0.164,0.066-0.438l1.862-5.411c0.013-0.034,0.035-0.1,0.049-0.134c0.014-0.035,0.044-0.098,0.059-0.133
	c0.773-1.825,2.63-6.704,3.949-9.617c0.069,0.08,0.151,0.168,0.253,0.269c0.014-0.075,0.041-0.576,0.074-0.689l1.938-5.164
	c-0.665-0.328-0.621-0.233-1.048-0.834l0.555-1.351c0.604-1.797,0.867-1.83,0.347-2.668c-0.259-0.417-0.59-0.633-0.905-1.019
	c0.274-0.739,0.584-1.167,0.916-1.897c1.061-2.333,0.323-1.925,0.219-2.067c-0.484,1.229-1.181,2.639-1.995,3.61l-3.245-0.997
	c0.1-0.789,0.359-1.151,0.262-1.801c-0.098-0.657,0.105-0.125-0.299-0.508l-0.669,1.741c-0.97-0.921-0.483-0.676-1.996-1.339
	l-1.137,2.493l0.037,0.073l-3.448,7.476c-0.139,0.361-0.048,0.16-0.113,0.386c-0.01,0.036,2.368-3.647,2.357-3.61l-3.083,5.714
	c-0.019,0.055-0.037,0.116-0.055,0.17c-0.704,2.222-0.698,1.7-1.642,2.007c-0.022,0.899-0.568,2.121-0.873,3.032l-0.112,0.348
	c-0.013,0.036-0.181,0.481-0.185,0.494c-0.015,0.046-0.039,0.109-0.052,0.154l-1.401,4.082c-0.204,0.314-0.111,0.842-0.281,0.421
	c-0.014-0.036-0.055,0.101-0.094,0.157l-3.353-1.216l10.506-30.456c-0.843-1.265-5.636-4.708-7.529-5.41l-0.486,1.359l-0.108-0.04
	l-0.936,2.955l-0.28,0.784l-0.084-0.011l-0.39,1.333L81.71,66.344c-0.442-3.096,0.378-10.707,0.603-14.18
	c0.137-2.127,1.102-12.39,0.789-13.517c-0.267-0.442-7.978-2.984-8.648-2.916l-1.97,31.212L52.652,60.12
	c1.053-1.957,3-4.527,4.337-6.516c0.814-1.21,1.393-2.073,2.21-3.285c0.756-1.122,1.297-2.104,2.096-3.179
	c1.391-1.873,8.519-12.349,8.725-13.128l-7.193-2.436l-2.276,0.602c-0.407,1.129-2.86,4.398-3.734,5.676
	c-1.25,1.828-2.419,3.644-3.69,5.473c-1.337,1.923-2.492,3.746-3.771,5.622c-0.582,0.854-3.062,5-3.88,5.307
	c-0.312-0.57-0.166-0.897,0.066-1.552l3.875-11.38L49.528,41.229z M111.153,89.92c0.112-1.479,0.766-2.585,0.781-3.621
	c0.004,1.19-0.667,2.705-0.781,4.207c0.239,0.242,1.821-2.801,2.634-4.854l0.064,1.979c0.802-1.892,3.454-7.745,2.976-9.654
	c-0.52,4.483-1.057,4.525-1.269,7.916c-0.168,2.663-2.661,6.285-3.17,8.221c0.672,0.014,3.773-4.854,6.592-4.861l-0.061-1.621
	c-0.92-0.669-2.861-2.7-0.618-3.659c0.629-0.496-0.307-0.348,1.202-0.529c0-6.488,0-12.977,0-19.465
	c0-2.064,0.992-19.618,0.461-19.894c-1.186,1.572-6.1,15.494-7.176,18.587c0.051,1.645,0.597,3.832,0.776,5.645
	c0.207,2.089,0.28,4.193,0.199,6.292c-0.077,2.018-0.285,3.858-0.652,5.825c-0.285,1.523-1.793,3.525-1.869,4.781
	c-0.657,0.75-2.702,5.122-2.667,6.617c-3.625,6.58,1.205,0.643,2.036-0.452C111.001,90.961,110.892,90.435,111.153,89.92z
	 M93.006,112.492c1.44-0.508,7.688-4.608,8.602-6.397c-1.341,0.655-3.057,2.209-4.301,3.161L93.006,112.492z M102.464,105.693
	l0.165,0.576l0.61-0.702c0.196-0.362,0.292-0.678,0.428-1.052C102.923,104.773,102.747,104.957,102.464,105.693z M63.42,76.39
	c3.845-0.908,4.698,4.772,1.402,5.657C61.089,83.047,59.346,77.354,63.42,76.39z"/>
<path fill-rule="evenodd" clip-rule="evenodd" fill="#FF0009" d="M96.126,110.238c-0.22,0.167-0.443,0.33-0.665,0.484
	c-0.203,0.142-0.411,0.278-0.619,0.405c-0.261,0.156-0.521,0.346-0.774,0.528c-0.337,0.243-0.666,0.48-1.034,0.679
	c-0.705,0.381-1.211,0.715-1.654,1.008c-0.339,0.224-0.646,0.427-0.972,0.609c-0.295,0.165-0.869,0.496-1.498,0.88l1.529-0.697
	c1.125-0.489,4.04-2.344,5.644-3.363l0.577-0.366c1.505-0.948,3.094-2.23,4.632-3.691c1.606-1.527,3.158-3.249,4.503-4.993
	c0.267-0.342,0.971-0.914,1.324-1.247c0.657-0.627,1.311-1.315,1.932-2.022c0.663-0.756,1.282-1.523,1.822-2.25l0.066-0.09
	c0.279-0.377,0.489-0.661,0.736-1.021c0.946-1.38,1.778-2.802,2.511-4.277c0.731-1.474,1.369-3.013,1.926-4.628
	c0.108-0.304,0.267-0.818,0.437-1.428l-0.388,0.568l0.285-2.739c0.044-0.43,0.159-0.986,0.293-1.641
	c0.187-0.906,0.414-2.013,0.53-3.154c0.138-1.372,0.192-2.776,0.164-4.19c-0.135,2.432-0.538,4.791-1.246,6.884l-2.271,6.716
	l0.473-3.602c-0.283,0.898-0.613,1.831-0.978,2.714c-0.662,1.603-1.447,3.065-2.29,3.931l-1.871,1.92l0.698-2.585
	c0.086-0.32,0.431-0.994,0.771-1.66c0.246-0.483,0.493-0.964,0.603-1.234c0.192-0.471,0.366-0.933,0.536-1.416
	c0.158-0.452,0.325-0.964,0.511-1.549c0.983-3.113,1.46-6.628,1.506-10.21c0.05-3.839-0.394-7.765-1.235-11.368l-0.761-3.255
	l1.152,1.544c-0.206-0.67-0.429-1.325-0.661-1.97c-0.31-0.858-0.683-1.809-1.065-2.777c-1.447-3.658-2.877-6.558-4.65-9.133
	c-1.773-2.574-3.906-4.848-6.767-7.26c-0.897-0.757-1.784-1.455-2.685-2.114c-0.903-0.661-1.824-1.283-2.789-1.889l-0.64-0.369
	c-0.541-0.307-1.158-0.656-1.432-0.904l-1.324-1.2l1.788-0.011c0.858-0.005,1.852,0.283,2.874,0.721l-0.446-0.239
	c-0.245-0.128-0.489-0.257-0.803-0.447c-0.476-0.285-1.045-0.537-1.617-0.792c-0.419-0.186-0.84-0.373-1.202-0.556l-3.142-1.585
	l1.094,0.083c-0.73-0.263-1.412-0.49-1.929-0.653c-3.599-1.136-7.378-2.195-11.234-2.878c-3.84-0.68-7.757-0.988-11.645-0.625
	c-6.048,0.564-11.486,2.31-16.162,4.836c-5.132,2.772-9.342,6.485-12.435,10.606c-2.564,3.418-5.499,8.468-7.393,14.188
	c-1.44,4.347-2.276,9.075-1.881,13.748c0.135,1.599,0.365,3.081,0.817,4.402c0.438,1.284,1.092,2.427,2.082,3.391
	c0.752,0.732,1.903,1.445,3.239,1.774c1.05,0.259,2.216,0.277,3.388-0.124c0.617-0.212,1.278-0.531,1.849-0.901
	c0.507-0.328,0.94-0.691,1.197-1.041c0.274-0.374,0.52-0.972,0.59-1.626c0.055-0.511,0-1.047-0.234-1.516
	c-0.25-0.501-0.524-0.913-0.796-1.322c-0.441-0.666-0.883-1.331-1.308-2.455c-0.226-0.598-0.422-1.23-0.597-1.871
	c-0.185-0.673-0.333-1.284-0.473-1.874c-0.013-0.058-0.017-0.112-0.012-0.164l-0.775,0.928l-0.364-1.256
	c-1.654-5.708,0.332-10.866,0.91-12.369c0.064-0.169,0.097-0.193,0.101-0.233l1.385,0.145l-0.002,0.023
	c-0.029,0.269-0.077,0.535-0.131,0.812c0.269-0.399,0.543-0.755,0.798-1.012l1.721-1.733l-0.549,2.379
	c-0.081,0.353-0.314,1-0.588,1.762c-0.35,0.974-0.771,2.147-0.996,3.047l-0.14,0.614l1.091-1.373l-0.033,0.907l0.312-0.919
	c0.22-0.627,0.451-1.247,0.721-1.919c0.257-0.64,0.514-1.271,0.778-1.891c0.26-0.61,0.531-1.22,0.825-1.833l0.227-0.473
	c0.485-1.023,0.966-2.029,1.609-3.124c0.889-1.514,2.15-3.025,3.57-4.434c1.379-1.369,2.915-2.649,4.403-3.748
	c-0.525,0.271-1.044,0.568-1.552,0.885c-2.445,1.527-4.645,3.527-6.289,5.536c-0.081,0.097-0.234,0.302-0.398,0.522
	c-0.339,0.452-0.722,0.965-0.975,1.176l-1.212,1.014l0.07-1.578c0.03-0.677,0.451-1.566,1.009-2.456
	c0.785-1.25,1.864-2.557,2.442-3.19c2.251-2.466,5.148-4.691,8.313-6.527c3.297-1.911,6.896-3.406,10.371-4.314
	c3.764-0.984,8.021-1.26,12.195-0.878c4.178,0.383,8.28,1.423,11.738,3.07l0.734,0.371c0.704,0.382,1.357,0.759,2.001,1.242
	c0.062,0.057,0.088,0.09,0.149,0.164l1.313,1.595l-1.827-0.364l0.238,0.129c0.482,0.264,0.885,0.471,1.28,0.674l0.682,0.35
	c1.519,0.793,3.495,2.037,5.294,3.391c1.524,1.148,2.938,2.388,3.862,3.518c1.073,1.313,2.042,2.633,2.949,4.052
	c0.902,1.411,1.734,2.907,2.539,4.577c3.366,6.982,4.997,13.923,4.792,20.66c-0.201,6.63-2.178,13.05-6.021,19.102
	c-3.902,6.146-8.851,10.71-14.632,13.752c-5.947,3.129-12.771,4.641-20.24,4.604c-3.727-0.018-6.94-0.528-9.869-1.36
	c-2.922-0.829-5.565-1.979-8.162-3.281c-1.295-0.649-2.579-1.389-3.816-2.183c-1.069-0.687-2.113-1.418-3.109-2.174l0.628,0.542
	c1.022,0.858,2.104,1.693,3.212,2.453c1.007,0.689,2.038,1.322,3.068,1.855l0.569,0.28c0.646,0.31,1.454,0.697,1.856,1.033
	l1.615,1.353l-2.101-0.123c-1.052-0.062-2.46-0.704-3.894-1.559c-1.178-0.7-2.391-1.553-3.429-2.333l0.516,0.583l-2.659-1.195
	c0.467,0.409,0.93,0.79,1.395,1.152c0.725,0.567,1.477,1.111,2.257,1.665c0.721,0.514,1.533,1.083,2.351,1.601
	c0.813,0.515,1.64,0.985,2.398,1.306c0.413,0.175,0.779,0.367,1.139,0.556c0.459,0.241,0.913,0.479,1.399,0.637
	c0.266,0.088,0.521,0.207,0.79,0.333c0.187,0.088,0.385,0.18,0.601,0.264l0.674,0.253l0.69,0.239
	c4.232,1.422,8.07,2.146,12.152,2.168c4.096,0.021,8.465-0.664,13.749-2.061c2.087-0.551,4.038-1.179,5.876-1.879
	c1.838-0.701,3.551-1.475,5.162-2.316l7.26-3.795L96.126,110.238z"/>
<text transform="matrix(1 0 0 1.3963 28.1943 100.9521)" font-family="'TraditionalArabic'" font-size="18.9277">VII</text>
</svg>
