<?xml version="1.0" encoding="utf-8"?>
<!-- Generator: Adobe Illustrator 16.0.0, SVG Export Plug-In . SVG Version: 6.00 Build 0)  -->
<!DOCTYPE svg PUBLIC "-//W3C//DTD SVG 1.1//EN" "http://www.w3.org/Graphics/SVG/1.1/DTD/svg11.dtd">
<svg version="1.1" id="Capa_1" xmlns="http://www.w3.org/2000/svg" xmlns:xlink="http://www.w3.org/1999/xlink" x="0px" y="0px"
	 width="129.56px" height="118.121px" viewBox="0 0 129.56 118.121" enable-background="new 0 0 129.56 118.121"
	 xml:space="preserve">
<polygon fill-rule="evenodd" clip-rule="evenodd" fill="#FF0000" points="63.779,29.407 95.669,37.07 127.56,44.733 127.56,60.061 
	127.56,75.387 95.669,83.05 63.779,90.713 31.89,83.05 0,75.387 0,60.061 0,44.733 31.89,37.07 "/>
<polygon fill-rule="evenodd" clip-rule="evenodd" fill="#FFFFFF" points="63.779,3.167 88.415,17.391 113.051,31.614 
	113.051,60.061 113.051,88.507 88.415,102.731 63.779,116.954 39.144,102.731 14.508,88.507 14.508,60.061 14.508,31.614 
	39.144,17.391 "/>
<polygon fill="none" stroke="#000000" stroke-width="2.0211" stroke-miterlimit="22.9256" points="63.779,3.167 88.415,17.391 
	113.051,31.614 113.051,60.061 113.051,88.507 88.415,102.731 63.779,116.954 39.144,102.731 14.508,88.507 14.508,60.061 
	14.508,31.614 39.144,17.391 "/>
<path fill-rule="evenodd" clip-rule="evenodd" fill="#FF0000" d="M89.039,99.432c-0.22,0.167-0.442,0.33-0.664,0.484
	c-0.203,0.142-0.412,0.278-0.62,0.405c-0.261,0.157-0.521,0.346-0.774,0.528c-0.337,0.243-0.666,0.48-1.033,0.679
	c-0.705,0.381-1.212,0.715-1.655,1.008c-0.338,0.224-0.646,0.427-0.972,0.609c-0.295,0.165-0.868,0.496-1.498,0.88l1.53-0.696
	c1.124-0.49,4.04-2.345,5.643-3.364l0.578-0.366c1.505-0.947,3.093-2.23,4.631-3.691c1.606-1.527,3.158-3.248,4.503-4.992
	c0.268-0.343,0.971-0.915,1.324-1.248c0.657-0.626,1.311-1.315,1.932-2.022c0.664-0.756,1.282-1.523,1.822-2.25l0.066-0.09
	c0.279-0.377,0.49-0.661,0.736-1.021c0.946-1.379,1.779-2.801,2.512-4.277c0.73-1.474,1.368-3.013,1.926-4.628
	c0.107-0.304,0.266-0.817,0.436-1.428l-0.388,0.568l0.285-2.738c0.045-0.431,0.159-0.987,0.294-1.641
	c0.186-0.907,0.413-2.014,0.529-3.155c0.139-1.372,0.193-2.776,0.165-4.19c-0.135,2.432-0.539,4.791-1.246,6.884l-2.271,6.716
	l0.473-3.602c-0.283,0.898-0.613,1.831-0.979,2.714c-0.661,1.603-1.447,3.065-2.29,3.931l-1.871,1.921l0.698-2.586
	c0.086-0.32,0.432-0.994,0.771-1.66c0.247-0.483,0.493-0.964,0.604-1.234c0.191-0.471,0.365-0.933,0.535-1.416
	c0.158-0.452,0.326-0.964,0.511-1.549c0.983-3.113,1.461-6.628,1.507-10.21c0.05-3.839-0.395-7.765-1.235-11.368l-0.761-3.255
	l1.151,1.544c-0.206-0.67-0.428-1.324-0.66-1.97c-0.31-0.858-0.684-1.809-1.066-2.777c-1.447-3.658-2.876-6.558-4.65-9.133
	c-1.772-2.574-3.906-4.848-6.767-7.261c-0.897-0.757-1.783-1.455-2.685-2.114c-0.903-0.661-1.824-1.283-2.789-1.889l-0.64-0.368
	c-0.54-0.308-1.157-0.656-1.432-0.904l-1.323-1.199l1.787-0.011c0.858-0.005,1.852,0.283,2.874,0.721l-0.446-0.239
	c-0.244-0.128-0.488-0.257-0.803-0.447c-0.476-0.284-1.044-0.537-1.616-0.791c-0.419-0.186-0.841-0.373-1.202-0.556l-3.143-1.585
	l1.095,0.083c-0.73-0.263-1.413-0.49-1.929-0.652c-3.6-1.136-7.379-2.196-11.235-2.879c-3.84-0.68-7.756-0.988-11.645-0.625
	c-6.048,0.564-11.487,2.311-16.162,4.836c-5.132,2.772-9.343,6.485-12.435,10.606c-2.565,3.418-5.499,8.468-7.394,14.188
	c-1.44,4.347-2.275,9.075-1.881,13.748c0.135,1.599,0.365,3.081,0.817,4.402c0.438,1.284,1.092,2.428,2.082,3.392
	c0.752,0.731,1.902,1.444,3.239,1.773c1.05,0.259,2.216,0.277,3.388-0.124c0.617-0.211,1.278-0.531,1.849-0.901
	c0.506-0.328,0.939-0.691,1.196-1.041c0.274-0.374,0.52-0.972,0.59-1.626c0.055-0.511,0-1.047-0.234-1.516
	c-0.25-0.5-0.524-0.912-0.796-1.322c-0.441-0.665-0.883-1.33-1.308-2.455c-0.226-0.598-0.422-1.23-0.598-1.871
	c-0.184-0.673-0.333-1.284-0.473-1.874c-0.013-0.058-0.017-0.111-0.011-0.164l-0.776,0.928l-0.364-1.256
	c-1.654-5.708,0.332-10.865,0.91-12.369c0.064-0.169,0.097-0.193,0.101-0.233l1.385,0.145l-0.002,0.023
	c-0.03,0.268-0.078,0.534-0.131,0.812c0.269-0.399,0.543-0.755,0.797-1.011l1.721-1.733l-0.548,2.379
	c-0.081,0.352-0.314,1-0.588,1.762c-0.35,0.974-0.772,2.147-0.996,3.047l-0.14,0.614l1.091-1.373l-0.033,0.907l0.312-0.919
	c0.22-0.627,0.451-1.247,0.721-1.919c0.257-0.639,0.514-1.271,0.778-1.891c0.259-0.61,0.531-1.22,0.825-1.833l0.227-0.473
	c0.485-1.023,0.966-2.029,1.609-3.123c0.888-1.515,2.15-3.025,3.57-4.435c1.378-1.369,2.914-2.649,4.403-3.748
	c-0.525,0.271-1.043,0.568-1.552,0.885c-2.445,1.527-4.645,3.527-6.289,5.536c-0.081,0.097-0.234,0.302-0.398,0.522
	c-0.339,0.452-0.721,0.965-0.975,1.176l-1.212,1.015l0.07-1.579c0.029-0.677,0.451-1.566,1.009-2.456
	c0.785-1.25,1.864-2.556,2.441-3.19c2.251-2.466,5.148-4.691,8.313-6.527c3.297-1.912,6.897-3.407,10.371-4.314
	c3.764-0.984,8.021-1.26,12.195-0.877c4.178,0.382,8.28,1.422,11.739,3.07l0.734,0.371c0.704,0.382,1.356,0.759,2,1.242
	c0.062,0.057,0.089,0.09,0.149,0.164l1.313,1.595l-1.827-0.364l0.238,0.129c0.482,0.264,0.885,0.471,1.281,0.674l0.681,0.35
	c1.52,0.793,3.495,2.036,5.294,3.391c1.524,1.148,2.938,2.388,3.862,3.518c1.073,1.313,2.042,2.632,2.95,4.052
	c0.901,1.411,1.733,2.907,2.539,4.577c3.365,6.982,4.997,13.923,4.791,20.661c-0.201,6.63-2.178,13.049-6.021,19.101
	c-3.902,6.146-8.851,10.71-14.632,13.752c-5.946,3.129-12.771,4.641-20.239,4.604c-3.727-0.018-6.94-0.528-9.87-1.36
	c-2.922-0.829-5.565-1.979-8.161-3.281c-1.295-0.648-2.579-1.389-3.817-2.183c-1.069-0.687-2.113-1.418-3.109-2.174l0.628,0.542
	c1.022,0.858,2.105,1.693,3.212,2.453c1.006,0.69,2.038,1.322,3.067,1.855l0.569,0.28c0.646,0.31,1.454,0.697,1.855,1.033
	l1.616,1.353l-2.101-0.123c-1.052-0.062-2.46-0.704-3.894-1.558c-1.177-0.701-2.39-1.554-3.428-2.333l0.516,0.582l-2.659-1.195
	c0.467,0.41,0.93,0.79,1.395,1.153c0.725,0.566,1.477,1.11,2.257,1.665c0.721,0.513,1.533,1.082,2.352,1.601
	c0.813,0.514,1.639,0.984,2.398,1.305c0.413,0.175,0.779,0.367,1.139,0.556c0.459,0.241,0.912,0.479,1.399,0.638
	c0.266,0.088,0.521,0.206,0.79,0.332c0.187,0.088,0.384,0.18,0.6,0.264l0.674,0.253l0.69,0.239
	c4.231,1.423,8.069,2.146,12.152,2.168c4.096,0.021,8.466-0.664,13.749-2.061c2.088-0.551,4.039-1.178,5.876-1.879
	c1.838-0.701,3.552-1.475,5.163-2.316l7.26-3.795L89.039,99.432z"/>
<text transform="matrix(1 0 0 1.3963 29.9204 90.146)" font-family="'TraditionalArabic'" font-size="18.9277">I</text>
<path fill-rule="evenodd" clip-rule="evenodd" d="M44.779,97.993l0.012,0.176l0.19-0.034l0.833-1.474
	c-0.093-0.103,0.145-0.095-0.288-0.134L44.779,97.993z"/>
<path fill-rule="evenodd" clip-rule="evenodd" d="M43.166,100.965c0.381-0.146,0.657-0.621,0.648-1.06
	C43.367,100.106,43.25,100.434,43.166,100.965"/>
<path fill-rule="evenodd" clip-rule="evenodd" d="M58.25,71.515l-0.012-0.362l-0.56-0.108C57.776,71.44,57.842,71.457,58.25,71.515"
	/>
<path fill-rule="evenodd" clip-rule="evenodd" d="M55.371,94.172c0.078-0.191,0.128,0.21,0.029-0.233l-0.231-0.836
	c-0.109-0.503-0.035-0.834-0.53-0.909c0.042,0.375,0.175,0.721,0.278,1.069C55.035,93.657,55.025,93.997,55.371,94.172"/>
<path fill-rule="evenodd" clip-rule="evenodd" d="M63.43,61.83c0.132,0.354,0.28,0.355,0.465,0.02
	C63.682,61.721,63.63,61.633,63.43,61.83"/>
<path fill-rule="evenodd" clip-rule="evenodd" d="M38.792,45.378l-0.438,5.284c-0.058,0.86,0.386,4.327,0.594,5.153l1.465,4.264
	c1.08,2.589,0.881,1.81,1.918,3.808c0.719,1.387,1.591,2.241,2.42,3.305c0.44,0.564,0.846,1.019,1.292,1.57
	c1.807,2.233,4.875,3.694,5.606,4.413c0.469,0.46,2.282,1.388,2.981,1.366c-0.343-0.556-0.731-0.278-1.709-1.207
	c-0.665-0.632-0.705-0.769-1.077-1.857c-0.533-1.402-1.398-2.297-1.456-2.738c0.382-0.434,1.069-0.404,1.694-0.691
	c0.677-0.311,0.948-0.561,1.48-0.935c2.825-1.986,4.336-0.933,4.076-2.988c-0.251-1.982,0.45-2.224,1.304-3.261
	c2.053-2.49,5.351-1.885,6.924-2.647c0.642-0.311,0.689-0.8,1.206-1.12c0.485-0.301,1.266-0.385,1.801-0.616
	c0.926-0.399,1.5-1.763,2.555-2.188c0.446-0.18,1.529-0.069,1.906,0.136c0.372,0.375,0.673,2.036,0.711,2.684
	c0.083,1.399,1.276,0.411,1.743,1.67c0.356,0.962,0.591,1.811-0.035,2.524c-0.81,0.925-0.439,0.078-1.534,1.863
	c-1.287,2.099-1.374,2.512-1.451,5.391c-0.06,2.181-0.028,4.577,0.088,6.754c1.55,0.032,8.992-3.867,10.361-5.472
	c0.874-1.023,0.931-0.47,2.307-2.256c2.212-2.872,2.791-3.2,4.474-6.888c0.806-1.764,0.675-1.959,1.183-3.289
	c0.63-1.651,0.613-1.883,0.754-3.792c0.11-1.503,0.287-2.721,0.273-4.296c-0.042-4.923-1.66-9.85-4.356-13.7
	c-1.502-2.144-2.352-2.964-4.264-4.77c-0.677-0.638-1.728-1.389-2.593-1.972c-2.792-1.882-6.142-3.298-9.589-4.01
	c-6.806-1.405-13.046-0.428-18.943,2.489c-1.131,0.56-4.43,2.953-5.364,3.764c-1.403,1.218-3.186,3.16-4.251,4.783
	c-0.869,1.324-1.078,1.946-1.623,2.849c-0.854,1.414-1.519,3.195-1.955,4.84C39.137,44.105,39.073,45.003,38.792,45.378"/>
<path fill-rule="evenodd" clip-rule="evenodd" d="M41.267,102.784l-0.051-0.022c0.825-1.327,1.563-0.887,1.901-1.545
	c-0.432-0.31-1.052-0.028-1.479,0.221c-0.55,0.321-0.604,0.566-1.027,0.91l-0.061-0.034l0.064,0.05l-0.117,0.504l0.727-0.091
	L41.267,102.784z M55.445,110.935c-0.05-0.065-0.061-0.158-0.101-0.386c-0.479-2.729,0.437-2.248,0.392-3.516
	c-0.025-0.706-0.043-1.167-0.323-1.742c-0.293-0.604,0-1.091,0.053-1.763l-0.812-0.19c-0.092,0.456-0.529,1.133-0.413,1.603
	c0.033,0.135,1.154,1.338,0.521,3.096c-0.154,0.429-0.324,1.1-0.488,1.461c-1.289-0.418-2.87-1.323-3.716-2.017
	c-0.13-1.277,0.116-1.313-0.479-2.494c-0.582-1.157-0.511-0.81-1.333-1.532c-0.75-0.659-1.393-0.395-2.196-0.753
	c-0.884-0.395-1.063-1.066-1.698-1.277c0.207,1.634,2.105,1.606,3.295,2.452c1.001,0.713,1.104,1.75,1.512,2.785
	c0.202,0.514,0.042,0.709,0.126,0.971l-0.037-0.012l0.196,0.417l2.766,1.664l2.085,1.489L55.445,110.935z M61.642,114.516
	c-0.116-0.095-0.174-0.218-0.246-0.539c-0.082-0.367-0.203-0.653-0.23-1.035c0.603-0.059,2.513,0.408,3.165,0.523
	c-0.016-0.775-0.88-0.722-1.604-0.905c-0.822-0.209-1.183-0.297-2.07-0.367c-0.374-0.479-0.558-1.156-0.56-1.94
	c-0.006-2.109,1.959-3.588,1.795-5.762l-1.254-0.116c0.531,2.021-0.622,3.019-1.116,4.662c-0.764,2.537,0.823,3.066,0.978,4.782
	l-0.018-0.01l0.022,0.036l0.375,0.82L61.642,114.516z M67.84,113.374l-0.035,0.02c-0.594-0.986,0.83-2.514,0.18-4.392
	c-0.253-0.731,0.294-3.474,0.225-4.729l-0.441,0.021c0.128,1.84-0.799,3.322-0.519,4.821c0.403,2.161-0.688,2.929-0.148,4.75
	l-0.063,0.028l0.192-0.025l0.586,0.258L67.84,113.374z M73.444,110.144l-0.024,0.009c-0.22-0.415-0.43-0.834-0.495-1.434
	c-0.064-0.598-0.171-1.18-0.223-1.688c-0.053-0.522,0.158-1.193,0.181-1.785c0.024-0.642,0.087-1.143,0.151-1.767l-1.013,0.204
	l-0.386,3.799c0.04,1.346,0.525,2.218,0.91,3.214l0.685,0.103L73.444,110.144z M54.574,110.415
	c-0.245-0.098-0.931-0.536-1.026-0.553c0.458-0.063,0.678-0.068,0.983,0.121L54.574,110.415z"/>
<path fill-rule="evenodd" clip-rule="evenodd" d="M52.362,71.064c0.112,0.168,0.276,0.725,0.47,1.02
	c1.521,2.313,2.578,1.275,2.744,2.243c0.379-0.035,0.481-0.142,0.783-0.142c0.411,0.001,0.33,0.137,0.827,0.116
	c0.298-1.24,0.351-1.224,0.088-2.551c-0.336,0.081-0.487,0.179-0.887,0.106c0.202-0.576,0.395-0.086,0.661-0.708
	c-1.32-0.082-3.121,1.728-4.221-0.579c-0.348-0.729-0.605-0.919-0.73-1.279c0.343-0.374,3.575-1.577,4.408-1.746
	c3.187-0.647,2.819-1.093,2.604-3.457c-0.167-1.84,1.352-3.094,2.762-3.525c0.939-0.287,2.92-0.449,3.989-0.661
	c0.672-0.133,0.554-0.441,0.505-1.111c0.424-0.251,0.637-0.807,1.326-0.99c0.734-0.195,1.294,0.167,2.03-0.295
	c0.921-0.578,1.352-1.873,2.566-2.078c0.091,0.176,0.153,0.422,0.253,0.612c0.22,0.419,0.691,0.449,0.728,1.963
	c-0.446,0.31-0.678,0.158-0.655,0.922c0.078-0.013,1.74-0.886,2.316,0.185c0.765,1.422-1.574,0.922-3.213,6.383
	c-0.537,1.789-0.288,4.257-0.315,6.201c-0.007,0.557-0.175,0.903-0.203,1.426c-0.079,1.468,0.108,3.362-0.057,4.884
	c-0.084,0.769-0.014,2.258,0.102,3.043c0.262,1.785,1.46,1.358,2.031,4.507c0.31,1.708-0.023,1.363-0.271,2.695
	c-0.158,0.852-0.462,1.678-0.665,2.556c-0.214,0.923-0.378,1.819-0.557,2.754c-0.275,1.442,0.434,4.393,0.426,6.116l1.021-0.207
	c-0.043-0.986-0.252-1.982-0.351-2.992c-0.233-2.384-0.163-0.579,0.049-2.826c0.295-3.116,1.916-6.414,1.452-7.953
	c-0.214-0.707-0.534-1.728-0.82-2.401c-0.935-2.206-1.51-0.837-1.187-3.464c0.074-0.605-0.019-0.955-0.072-1.521
	c-0.2-2.121,0.443-4.269,0.109-6.223c-0.355-2.079-0.106-3.959,0.2-5.975c0.165-1.079,0.199-1.658,0.613-2.603
	c0.674-1.539,2.613-2.88,2.442-3.968c-0.05-0.317-0.355-0.898-0.521-1.097c-0.314-0.373-0.714-0.33-1.256-0.358
	c-0.048-0.386-0.035-0.82-0.158-1.182c-0.097-0.285-0.27-0.519-0.4-0.85c-0.253-0.644-0.448-1.406-1.139-1.391
	c-1.043,0.024-2.244,1.898-2.81,2.319c-0.617,0.46-1.268,0.134-2.042,0.552c-0.604,0.327-0.935,0.963-1.342,1.164
	c-1.233,0.608-4.289-0.14-7.132,2.977c-1.696,1.858-0.106,2.865-0.842,3.808c-0.621,0.796-2.348,1.117-3.443,1.658
	c-0.682,0.337-0.942,0.664-1.471,1.034c-0.5,0.35-1.447,0.496-1.739,0.741C51.607,69.775,52.177,69.899,52.362,71.064
	 M55.417,72.854c0.117-0.258-0.036-0.165,0.371-0.301c0.574-0.191,1.012-0.413,1.307-0.423c0.174,0.481,0.153,1.155-0.017,1.616
	c-0.539,0.004-0.66-0.299-1.278-0.604c-0.099-0.049-0.142-0.059-0.241-0.133C55.344,72.848,55.542,73.086,55.417,72.854z"/>
<path fill-rule="evenodd" clip-rule="evenodd" d="M45.796,96.088l0.332,0.088c0.667-1.244,2.058-3.081,2.363-3.809
	c0.269-0.642,0.51-0.828,0.859-1.29l1.628-2.577c2.832-3.986,1.163-4.406,1.749-6.483c0.64-2.266,3.54-2.081,4.028-5.374
	c0.102-0.687-0.08-0.178-0.135-0.836c-0.072-0.851-0.123-1.134-1.091-1.029c1.416,4.521-2.96,4.488-3.721,7.485
	c-0.162,0.638-0.523,3.062-0.66,3.367c-0.258,0.576-0.259,0.315-0.639,1.327c-0.607,1.616-1.321,2.481-1.931,3.976L45.796,96.088z"
	/>
<path fill-rule="evenodd" clip-rule="evenodd" d="M65.138,84.235c0.516-1.798-0.599-3.924,0.301-6.858
	c0.171-0.558,0.137-0.707,0.217-1.296c0.096-0.709,1.525-4.723,1.727-5.822c-0.25,0.163-0.285,0.235-0.476,0.624
	c-0.646,1.322-1.554,4.396-1.781,5.735c-0.508,2.995-0.764,2.659-0.417,5.796C64.75,82.782,64.898,83.967,65.138,84.235"/>
<path fill-rule="evenodd" clip-rule="evenodd" d="M60.081,100.302l0.932,0.049c-0.037-0.688-0.027-1.837,0.029-2.522
	c0.049-0.594,0.637-1.408,0.23-1.974c-0.368-0.335-0.6,0.348-0.689,0.646C60.164,97.907,60.258,98.908,60.081,100.302"/>
<path fill-rule="evenodd" clip-rule="evenodd" d="M55.189,99.52l0.489,0.146l-0.005-1.759l-0.04-2.594
	c-0.096-0.438-0.005-0.169-0.172-0.308c-0.239,0.161-0.219,0.133-0.257,0.931L55.189,99.52z"/>
</svg>
