<?xml version="1.0" encoding="utf-8"?>
<!-- Generator: Adobe Illustrator 16.0.0, SVG Export Plug-In . SVG Version: 6.00 Build 0)  -->
<!DOCTYPE svg PUBLIC "-//W3C//DTD SVG 1.1//EN" "http://www.w3.org/Graphics/SVG/1.1/DTD/svg11.dtd">
<svg version="1.1" id="Capa_1" xmlns="http://www.w3.org/2000/svg" xmlns:xlink="http://www.w3.org/1999/xlink" x="0px" y="0px"
	 width="141.732px" height="141.732px" viewBox="0 0 141.732 141.732" enable-background="new 0 0 141.732 141.732"
	 xml:space="preserve">
<polygon fill-rule="evenodd" clip-rule="evenodd" fill="#FF0009" points="70.866,40.213 102.756,47.876 134.646,55.54 
	134.646,70.866 134.646,86.193 102.756,93.856 70.866,101.52 38.977,93.856 7.086,86.193 7.086,70.866 7.086,55.54 38.977,47.876 
	"/>
<polygon fill-rule="evenodd" clip-rule="evenodd" fill="#FFFFFF" points="70.866,13.973 95.501,28.197 120.137,42.42 
	120.137,70.867 120.137,99.313 95.501,113.537 70.866,127.76 46.23,113.537 21.595,99.313 21.595,70.867 21.595,42.42 46.23,28.197 
	"/>
<polygon fill="none" stroke="#000000" stroke-width="2.0211" stroke-miterlimit="22.9256" points="70.866,13.973 95.501,28.197 
	120.137,42.42 120.137,70.867 120.137,99.313 95.501,113.537 70.866,127.76 46.23,113.537 21.595,99.313 21.595,70.867 
	21.595,42.42 46.23,28.197 "/>
<path fill-rule="evenodd" clip-rule="evenodd" d="M98.625,43.975c-0.541-0.888-1.61-3.895-2.041-5.042
	c-1.266-3.37-0.62-1.921-3.068-3.809c2.665-0.29,3.05,1.488,3.854,3.43c0.683,1.649,1.378,3.544,2.172,5.172L98.625,43.975z
	 M92.542,44.474c-0.49-0.612-1.246-3.976-1.525-4.965c-1.413-4.998-0.832-2.42-2.626-4.026c0.478-0.529,0.573-0.447,1.185-0.092
	c2.115,1.228,1.645,0.865,2.536,3.3c0.421,1.148,1.901,4.785,1.996,5.737L92.542,44.474z M87.528,44.417
	c-0.488-1.463-1.544-6.476-1.981-7.028c-0.424-0.536-1.223-0.846-1.515-1.432l0.568-0.533c0.906,0.079,1.807,0.95,2.588,1.469
	c0.973,0.646,0.992,1.46,1.328,2.567c0.43,1.416,1.582,4.512,1.702,5.841L87.528,44.417z M103.398,44.625
	c-0.996-1.828-2.627-5.79-2.813-7.79c1.225,0.247,1.689,2.532,2.145,3.622c0.416,0.993,1.492,3.035,1.641,4.001L103.398,44.625z
	 M109.267,44.778c-1.741-0.362-1.369-1.005-1.972-2.531c-0.355-0.9-1.016-2.316-1.196-3.191c0.779,0.21,0.504,0.537,1.086,1.168
	c0.551,0.599,0.713,0.355,1.041,1.187C108.524,42.169,109.154,44.019,109.267,44.778z M79.85,37.201
	c2.563,1.298,3.024,1.225,3.985,3.837c0.476,1.295,2.274,4.409,1.441,5.553l-3.704-0.605c-0.709-1.375-0.836-2.856-1.118-4.375
	c-0.539-2.896,0.177-2.038-1.932-3.358L79.85,37.201z M65.702,55.241c-0.672-3.417,3.792-9.466,6.094-11.867
	c1.9-1.981,2.139-4.717,4.699-2.301c1.541,1.454,2.161,3.811,2.811,5.815c1.361,4.204,3.542,8.155,5.276,12.244
	c2.349,5.534-5.872,7.401-7.29,9.404l7.197,0.76c0.143,0.88,1.034,18.172,0.97,18.526c-0.581,3.162-0.867,5.383-2.475,8.197
	c-1.442,2.524-0.975,6.134-1.939,8.523c-1.246-0.199-1.336-1.478-3.918-0.295c-1.319,0.604-1.771,1.154-3.318,1.311
	c3.113-0.883,1.484-2.536,1.34-4.013c-0.367-3.739,1.599-4.075,1.539-5.324c-0.082-1.685-1.209-3.247-0.936-5.608
	c0.196-1.697,1.645-4.044,0.501-5.427c-2.267-2.741-3.492-5.306-5.392-8.231c-2.505-3.856-3.581-5.646-7.71-2.307
	c1.765,0.016,6.635-2.244,6.623,4.415c-1.958-0.095-1.882-1.89-4.29-1.703c-1.496,0.116-3.602,1.238-4.964,0.844l3.915-14.018
	c0.761,0.171,3.09,1.892,3.917,2.449c3.413,2.297,7.993-2.05,8.324-2.676c0.969-1.834,0.038-2.552,1.904-4.315L70.591,58.7
	c1.139-2.329,7.003,0.637,9.818-0.879c-1.154-0.672-3.315-1.732-4.571-2.127c-3.471-1.091-2.439-0.376-5.41-0.434
	c1.871-1.115,2.185-0.84,4.339-0.779c2.905,0.082,2.589,1.034,4.25,1.308c-2.083-2.769-3.478-2.587-6.756-2.722
	c-1.706-0.07-2.485-0.485-3.887,0.524C67.917,53.921,66.106,55.261,65.702,55.241z M100.352,71.488
	c-2.399,0.882-1.867-3.804-1.941-6.593c-0.059-2.184,0.078-6.11-0.255-8.107l1.835,1.114L100.352,71.488z M111.877,68.493
	c-0.328-0.6-0.746-10.813-0.532-11.994l1.121,0.566l0.078,11.44L111.877,68.493z M95.967,57.486l-0.293,14.041l-0.229,0.22
	l-2.017-0.532l-0.138-0.17l0.302-13.549L95.967,57.486z M90.894,68.336c0.049,1.043,0.4,2.072,0.45,3.107
	c-0.848,1.256-2.868,0.994-3.401,0.02c-0.421-0.769,0.296-7.721-0.037-10.073c-0.158-1.116-0.792-3.394-0.399-4.405l2.862,0.589
	C91.729,58.492,90.774,65.818,90.894,68.336z M114.791,68.178c-0.567-0.874-0.234-4.287-0.242-5.562
	c-0.005-0.902-0.004-1.805-0.011-2.707c-0.016-1.97-0.281-2.128,0.407-2.589C115.52,58.642,115.114,66.417,114.791,68.178z
	 M103.846,56.728c0.158,2.257-0.785,5.891-0.362,8.021c0.266,1.339,1.372,5.782,1.305,6.777c-1.402-0.292-1.345-1.415-1.568-2.634
	c-0.926-5.062-0.967-5.953-0.329-11.961L103.846,56.728z M107.638,70.802c-0.576-1.455-0.729-12.278-0.289-13.711l0.999,0.045
	c0.224,1.72,0.21,8.41,0.259,10.996C108.632,69.482,109.136,70.721,107.638,70.802z M66.765,80.963
	c3.474-0.216,5.234,0.407,7.109,3.415c3.167,5.083,0.372,3.182,0.024,7.505c-0.125,1.548,1.138,2.682,0.637,4.15
	c-0.43,1.262-1.678,2.377-1.558,3.794c0.109,1.279,0.95,2.932,0.914,4.331c-0.042,1.63-3.053,1.376-3.65,1.082l-0.072-2.904
	c-0.486,0.226,0.109,5.115-2.479,3.323l-0.001-3.159l-0.927,3.612c-0.331-0.553,1.371-9.646,1.759-10.155l0.827,1.112
	c0.137-1.308-1.313-3.175,0.486-3.984c1.611,0.021,0.873,2.025,1.695,2.507l0.644-7.919l2.647,0.404
	c0.02-1.182-2.994-0.229-3.152-3.271l-0.697,1.284c-0.455-0.076-1.577-0.876-2.477-1.143c-0.867-0.257-2.487-0.294-3.087-0.763
	L66.765,80.963z M70.757,88.569c-0.095,1.106-0.382,1.113-1.319,1.601c-0.582,0.304-1.241,0.645-1.848,0.783
	c0.541-0.979,1.028-0.723,1.367-2.246L70.757,88.569z M103.705,108.934c-0.885-3.636-1.835-7.664-2.119-8.716
	c-1.029-3.803-1.311-4.345-1.056-8.415c0.1-1.582-0.323-8.638,1.408-8.938c1.336-0.231,0.638,3.041,0.598,3.881
	c-0.308,6.396-0.916,7.449,0.819,13.196c0.271,0.897,1.365,4.434,2.362,7.808l3.249-1.909c-0.933-2.884-1.692-5.701-1.833-6.178
	c-0.734-2.479-1.719-4.938-1.81-7.535c-0.027-0.777-0.362-8.682-0.355-8.691c0.579-0.92,1.13,0.211,1.126,1.034
	c-0.003,0.764,0.001,1.517,0.015,2.288c0.122,7.082-0.157,5.005,1.819,12.033c0.537,1.91,1.174,4.596,1.885,6.551l2.939-1.728
	l-2.009-5.228c-0.968-2.653-1.938-4.066-2.025-6.98c-0.043-1.433-0.094-2.868-0.143-4.301c-0.032-0.949-0.489-3.521,0.133-4.054
	c0.736,0.234,0.443,3.276,0.468,4.052c0.204,6.384-0.208,4.619,2.401,11.033c0.676,1.663,1.328,3.333,1.989,4.999l1.992-1.171
	c-0.104-0.307-0.184-0.583-0.234-0.82c-1.164-5.418-1.432-7.388-1.742-12.975c-0.094-1.69-0.453-5.474-0.287-6.923
	c0.218-1.897,1.231-3.704,1.519-6.36c0.458-4.24,1.845-8.386,2.369-12.876c1.026-8.786-0.833-16.258-7.854-21.92
	c-1.744-1.406-1.984-2.414-4.345-3.286c-1.846-0.683-4.053-1.582-5.9-2.122c-2.052-0.601-9.246-1.493-11.076-0.796
	c-1.1,0.419-3.348,0.269-5.195,0.719c-0.93,0.226-1.829-0.115-2.591,0.151c-0.937,0.327-1.185,1.338-2.197,1.768
	c-2.458,1.042-2.977-0.851-4.803,2.601c-0.873,1.651-2.167,3.023-3.428,4.38c-7.809,8.402-4.85,16.763-7.582,24.19
	c-0.71,1.93-3.864,10.915-2.751,12.298c1.194,1.484,5.355-0.85,5.661,1.172c0.232,1.534-2.343,2.947-1.375,5.29
	c0.733,1.774,4.229,1.495,3.129,3.124c-2.56,3.79,0.129,2.187,0.49,4.638c0.071,0.484-2.159,10.925-2.282,13.436
	c3.993-0.002,5.143,0.119,9.064-0.719c2.432-0.52,5.678-3.568,6.38-0.124c0.331,1.621,0.913,7.311,0.76,8.845
	c-0.258,2.566-0.598,4.554-0.729,6.881l11.446-6.728c-0.06-3.725-0.187-7.567-1.001-10.861c-0.589-2.378-1.895-6.305-1.823-8.598
	c0.053-1.696,0.01-9.647,0.406-10.583c0.855-0.643,1.306-0.163,2.221-0.496c0.981-0.356,0.651-1.118,1.336-1.456
	c0.957,1.11-0.47,7.537-0.522,9.439c-0.125,4.432-0.275,5.212,0.783,9.549c1.568,6.424,1.548,6.656,1.57,11.261l3.016-1.772
	c-0.172-10.184-3.273-8.134-2.859-17.688c0.151-3.47,0.457-7.213,0.439-10.656c1.025-0.469,1.976-1.637,2.785-1.294
	c0.642,0.965-0.273,7.731-0.401,9.292c-0.366,4.446-0.593,4.251,0.662,8.48c0.836,2.818,1.669,4.741,1.767,7.734
	c0.02,0.599,0.076,1.56,0.138,2.645L103.705,108.934z"/>
<path fill-rule="evenodd" clip-rule="evenodd" d="M69.326,68.091c-0.011,0.277,4.541,8.08,5.105,9.093
	c0.871,1.563,1.732,3.126,2.612,4.683c0.76,1.343,1.579,4.08,3.467,3.708c0.061-0.473-1.167-2.933-1.452-3.556
	c-1.032-2.251-0.697-2.242-0.528-4.706c0.14-2.044,0.72-2.966-0.741-4.433c-0.586-0.588-2.344-2.193-2.589-2.837l1.596-3.64
	c-0.702,0.434-2.037,2.657-2.759,2.832C73.254,69.425,70.309,68,69.326,68.091"/>
<path fill-rule="evenodd" clip-rule="evenodd" fill="#FF0009" d="M96.126,110.238c-0.22,0.167-0.443,0.33-0.665,0.484
	c-0.203,0.142-0.411,0.278-0.619,0.405c-0.261,0.156-0.521,0.346-0.774,0.528c-0.337,0.243-0.666,0.48-1.034,0.679
	c-0.705,0.381-1.211,0.715-1.654,1.008c-0.339,0.224-0.646,0.427-0.972,0.609c-0.295,0.165-0.869,0.496-1.498,0.88l1.529-0.697
	c1.125-0.489,4.04-2.344,5.644-3.363l0.577-0.366c1.505-0.948,3.094-2.23,4.632-3.691c1.606-1.527,3.158-3.249,4.503-4.992
	c0.267-0.343,0.971-0.915,1.324-1.248c0.657-0.627,1.311-1.315,1.932-2.022c0.663-0.756,1.282-1.523,1.822-2.25l0.066-0.09
	c0.279-0.377,0.489-0.661,0.736-1.021c0.946-1.38,1.778-2.802,2.511-4.277c0.731-1.474,1.369-3.013,1.926-4.628
	c0.108-0.304,0.267-0.818,0.437-1.428l-0.388,0.568l0.285-2.739c0.044-0.43,0.159-0.986,0.293-1.641
	c0.187-0.906,0.414-2.013,0.53-3.154c0.138-1.372,0.192-2.776,0.164-4.19c-0.135,2.432-0.538,4.791-1.246,6.884l-2.271,6.716
	l0.473-3.602c-0.283,0.898-0.613,1.831-0.978,2.714c-0.662,1.603-1.447,3.065-2.29,3.931l-1.871,1.92l0.698-2.585
	c0.086-0.319,0.431-0.994,0.771-1.66c0.246-0.483,0.493-0.964,0.603-1.234c0.192-0.471,0.366-0.933,0.536-1.416
	c0.158-0.452,0.325-0.964,0.511-1.549c0.983-3.113,1.46-6.628,1.506-10.21c0.05-3.839-0.394-7.765-1.235-11.368l-0.761-3.255
	l1.152,1.544c-0.206-0.67-0.429-1.325-0.661-1.97c-0.31-0.858-0.683-1.809-1.065-2.777c-1.447-3.658-2.877-6.558-4.65-9.133
	c-1.772-2.574-3.906-4.848-6.767-7.26c-0.897-0.757-1.784-1.455-2.685-2.114c-0.903-0.661-1.824-1.283-2.789-1.889l-0.64-0.369
	c-0.541-0.307-1.158-0.656-1.432-0.904l-1.324-1.2l1.788-0.011c0.858-0.005,1.852,0.283,2.874,0.721l-0.446-0.239
	c-0.245-0.128-0.489-0.257-0.803-0.447c-0.476-0.285-1.045-0.537-1.617-0.792c-0.419-0.186-0.84-0.373-1.202-0.556l-3.142-1.585
	l1.094,0.083c-0.73-0.263-1.412-0.49-1.929-0.653c-3.599-1.136-7.378-2.195-11.234-2.878c-3.84-0.68-7.757-0.988-11.645-0.625
	c-6.048,0.564-11.486,2.31-16.162,4.836c-5.132,2.772-9.342,6.485-12.435,10.606c-2.564,3.418-5.499,8.468-7.393,14.188
	c-1.44,4.347-2.276,9.075-1.881,13.748c0.135,1.599,0.365,3.081,0.817,4.402c0.438,1.284,1.092,2.427,2.082,3.391
	c0.752,0.732,1.903,1.445,3.239,1.774c1.05,0.259,2.216,0.277,3.388-0.124c0.617-0.212,1.278-0.531,1.849-0.901
	c0.507-0.328,0.94-0.691,1.197-1.041c0.274-0.374,0.52-0.972,0.59-1.626c0.055-0.511,0-1.047-0.234-1.516
	c-0.25-0.501-0.524-0.913-0.796-1.322c-0.441-0.666-0.883-1.331-1.308-2.454c-0.226-0.599-0.422-1.23-0.597-1.872
	c-0.185-0.673-0.333-1.284-0.473-1.874c-0.013-0.058-0.017-0.112-0.012-0.164l-0.775,0.928l-0.364-1.256
	c-1.654-5.708,0.332-10.866,0.91-12.369c0.064-0.169,0.097-0.194,0.101-0.234l1.385,0.145l-0.002,0.023
	c-0.029,0.269-0.077,0.535-0.131,0.812c0.269-0.399,0.543-0.755,0.798-1.012l1.721-1.733l-0.549,2.379
	c-0.081,0.353-0.314,1-0.588,1.762c-0.35,0.974-0.771,2.147-0.996,3.047l-0.14,0.614l1.091-1.373l-0.033,0.907l0.312-0.919
	c0.22-0.627,0.451-1.247,0.721-1.919c0.257-0.64,0.514-1.271,0.778-1.891c0.26-0.61,0.531-1.22,0.825-1.833l0.227-0.473
	c0.485-1.023,0.966-2.029,1.609-3.124c0.889-1.514,2.15-3.025,3.57-4.434c1.379-1.369,2.915-2.649,4.403-3.748
	c-0.525,0.271-1.044,0.568-1.552,0.885c-2.445,1.527-4.645,3.527-6.289,5.536c-0.081,0.097-0.234,0.302-0.398,0.522
	c-0.339,0.452-0.722,0.965-0.975,1.176l-1.212,1.014l0.07-1.578c0.03-0.677,0.451-1.566,1.009-2.456
	c0.785-1.25,1.864-2.557,2.442-3.19c2.251-2.466,5.148-4.691,8.313-6.527c3.297-1.911,6.896-3.406,10.371-4.314
	c3.764-0.984,8.021-1.26,12.195-0.878c4.178,0.383,8.28,1.423,11.738,3.07l0.734,0.371c0.704,0.382,1.357,0.759,2.001,1.242
	c0.062,0.057,0.088,0.09,0.149,0.164l1.313,1.595l-1.827-0.364l0.238,0.129c0.482,0.264,0.885,0.471,1.28,0.674l0.682,0.35
	c1.519,0.793,3.495,2.037,5.294,3.391c1.524,1.148,2.938,2.388,3.862,3.518c1.073,1.313,2.042,2.633,2.949,4.052
	c0.902,1.411,1.734,2.907,2.539,4.577c3.366,6.982,4.997,13.923,4.792,20.66c-0.201,6.63-2.178,13.05-6.021,19.102
	c-3.902,6.146-8.851,10.71-14.632,13.752c-5.947,3.129-12.771,4.641-20.24,4.604c-3.727-0.018-6.94-0.528-9.869-1.36
	c-2.922-0.829-5.565-1.979-8.162-3.281c-1.295-0.649-2.579-1.389-3.816-2.183c-1.069-0.687-2.113-1.418-3.109-2.174l0.628,0.542
	c1.022,0.858,2.104,1.693,3.212,2.453c1.007,0.689,2.038,1.322,3.068,1.855l0.569,0.28c0.646,0.31,1.454,0.697,1.856,1.033
	l1.615,1.353l-2.101-0.123c-1.052-0.062-2.46-0.704-3.894-1.559c-1.178-0.7-2.391-1.553-3.429-2.333l0.516,0.583l-2.659-1.195
	c0.467,0.409,0.93,0.79,1.395,1.152c0.725,0.567,1.477,1.111,2.257,1.665c0.721,0.514,1.533,1.083,2.351,1.601
	c0.813,0.515,1.64,0.985,2.398,1.306c0.413,0.175,0.779,0.367,1.139,0.556c0.459,0.241,0.913,0.479,1.399,0.637
	c0.266,0.088,0.521,0.207,0.79,0.333c0.187,0.088,0.385,0.18,0.601,0.264l0.674,0.253l0.69,0.239
	c4.232,1.422,8.07,2.146,12.152,2.168c4.096,0.021,8.465-0.664,13.749-2.061c2.087-0.551,4.038-1.179,5.876-1.879
	c1.838-0.701,3.551-1.475,5.162-2.316l7.26-3.795L96.126,110.238z"/>
<text transform="matrix(1 0 0 1 27.6021 101.3271)" font-family="'TraditionalArabic'" font-size="26.428">VI</text>
</svg>
