<?xml version="1.0" encoding="utf-8"?>
<!-- Generator: Adobe Illustrator 16.0.0, SVG Export Plug-In . SVG Version: 6.00 Build 0)  -->
<!DOCTYPE svg PUBLIC "-//W3C//DTD SVG 1.1//EN" "http://www.w3.org/Graphics/SVG/1.1/DTD/svg11.dtd">
<svg version="1.1" id="Capa_1" xmlns="http://www.w3.org/2000/svg" xmlns:xlink="http://www.w3.org/1999/xlink" x="0px" y="0px"
	 width="141.732px" height="141.732px" viewBox="0 0 141.732 141.732" enable-background="new 0 0 141.732 141.732"
	 xml:space="preserve">
<polygon fill-rule="evenodd" clip-rule="evenodd" fill="#FF0009" points="70.866,40.213 102.756,47.876 134.646,55.54 
	134.646,70.866 134.646,86.193 102.756,93.856 70.866,101.52 38.977,93.856 7.086,86.193 7.086,70.866 7.086,55.54 38.977,47.876 
	"/>
<polygon fill-rule="evenodd" clip-rule="evenodd" fill="#FEFEFE" points="70.866,13.974 95.501,28.197 120.137,42.42 
	120.137,70.867 120.137,99.313 95.501,113.537 70.866,127.761 46.23,113.537 21.595,99.313 21.595,70.867 21.595,42.42 
	46.23,28.197 "/>
<polygon fill="none" stroke="#000000" stroke-width="2.0211" stroke-miterlimit="22.9256" points="70.866,13.974 95.501,28.197 
	120.137,42.42 120.137,70.867 120.137,99.313 95.501,113.537 70.866,127.761 46.23,113.537 21.595,99.313 21.595,70.867 
	21.595,42.42 46.23,28.197 "/>
<path fill-rule="evenodd" clip-rule="evenodd" d="M93.751,80.958c0.005,0.599,0.01,1.245,0.099,1.958l0,0
	c0.001,0.008,0.002,0.017,0.002,0.024c0,0.103-0.078,0.186-0.174,0.186l-9.116-0.034c-0.006,0.015-0.015,0.029-0.026,0.043
	c-0.063,0.076-0.174,0.083-0.245,0.016c-0.385-0.368-0.336-1.483-0.09-2.698C85.976,71.708,93.706,75.017,93.751,80.958
	 M85.256,81.04c0.035,0.272,0.037,0.48,0.037,0.644c0.003,0.58,6.411,0.438,7.434,0.271c0.078-0.013,0.129-0.02,0.129-0.02
	C92.639,80.396,86.44,80.938,85.256,81.04z M85.746,79.475c0.139,0.084,5.757,0.153,6.555,0.04c0.088-0.013,0.108-0.102,0.094-0.225
	C91.172,74.893,85.351,76.882,85.746,79.475z M93.766,91.783c-0.012,0.598-0.017,1.221-0.017,1.901c0,0.43-0.005,0.863-0.01,1.225
	c-0.01,0.826-0.015,1.232,0.063,1.395c0.041,0.088,0.191,0.08,0.485,0.064c0.173-0.01,0.386-0.021,0.652-0.014
	c1.037,0.026,2.041-0.012,3.056-0.05c0.396-0.016,0.793-0.03,1.2-0.042c0.257-1.828,0.256-4.422,0.255-6.718
	c-0.001-0.895-0.001-1.744,0.014-2.485c0.029-1.468,0.053-2.959,0.065-4.446c0.012-1.49,0.014-2.979-0.002-4.444
	c-0.016-1.459-0.005-2.928,0.006-4.395c0.014-1.9,0.027-3.799-0.016-5.677c-0.003-0.137,0.006-0.473,0.019-0.938
	c0.044-1.636,0.265-5.434,0.066-6.906c-0.051-0.373-0.601-0.142-0.693-0.226c-0.244,3.037,1.069,2.479-2.448,2.086
	c-0.093-0.01-0.161-0.097-0.155-0.196l0.109-1.945l-1.528,0.044l0.081,2.182c0.004,0.103-0.071,0.189-0.167,0.193
	c-0.005,0-0.01,0-0.015,0l-2.862-0.155c-0.096-0.005-0.17-0.092-0.166-0.194c0.003-0.064,0.036-0.12,0.084-0.151l0.138-0.095
	l0.12-1.811c-0.22-0.009-0.52,0.001-0.816,0.011c-0.275,0.009-0.549,0.018-0.763,0.012l-0.021,1.666l0.241,0.283
	c0.065,0.075,0.06,0.193-0.011,0.262c-0.033,0.033-0.075,0.049-0.117,0.048l-2.889-0.017c-0.096,0-0.173-0.083-0.172-0.186
	c0-0.038,0.011-0.073,0.028-0.102l0,0l0.112-0.182l0.125-1.798l-1.57,0.01c-0.049,0.308-0.04,0.701-0.031,1.061
	c0.006,0.255,0.012,0.495-0.003,0.683c-0.027,0.362-0.127,0.593-0.396,0.57c-0.104-0.009-0.248-0.015-0.421-0.023
	c-0.688-0.031-1.796-0.081-2.089-0.325c-0.064-0.053-0.084-0.146-0.053-0.222c0.034-0.1,0.081-0.198,0.13-0.302
	c0.165-0.349,0.368-0.776-0.012-1.323c-0.046-0.066-0.274-0.113-0.538-0.139c-0.313-0.031-0.655-0.021-0.829,0.022
	c-0.217,0.508-0.122,0.94-0.05,1.271c0.037,0.166,0.068,0.311,0.063,0.449c-0.019,0.459-0.362,0.666-1.878,0.598
	c-0.116-0.005-0.216-0.006-0.306-0.007c-0.153-0.002-0.28-0.003-0.384-0.02c-0.417-0.067-0.528-0.278-0.413-1.1
	c0.02-0.141,0.057-0.65-0.002-1.022c-0.018-0.112-0.042-0.207-0.077-0.263c-0.01-0.017-0.02-0.026-0.027-0.025
	c-0.029,0.005-1.692-0.353-1.745-0.305c-0.046,1.409-0.097,4.199-0.061,5.81c0.005,0.247,0.01,0.45,0.011,0.597
	c0.065,7.379-0.052,14.677-0.077,22.119c-0.004,1.225-0.008,2.446-0.012,3.664c-0.002,0.755-0.048,1.37-0.085,1.881
	c0.233,0.678-0.032,1.978,0.22,2.281c0.504,0.606,2.339,0.267,3.416,0.31c0.746,0.029,1.348,0.078,1.843,0.119
	c0.988,0.081,1.538,0.127,1.795-0.082c0.316-0.257,0.293-1.011,0.239-2.708l-0.014-0.417c-0.005-0.174-0.013-0.367-0.021-0.568
	C84.031,81.877,93.947,82.954,93.766,91.783z M103.4,46.857c-0.406-0.383-0.428-1.419-0.347-2.778
	c-0.366-0.102-2.704-0.389-2.825,0.007c0.002-0.051,0.003-0.098,0.003-0.142c0-0.183,0.096,5.784-0.014,5.679
	c-0.135-0.131-3.973,0.598-3.337-3.544l0,0V46.07c-0.066-0.008-0.144-0.017-0.229-0.026c-0.583-0.066-1.576-0.18-1.994-0.207
	c0.692,5.074-3.318,4.405-3.271,0.108l-2.241-0.15v0.009c0.696,4.622-3.263,4.507-3.093,0.086c-0.33,0.001-0.861-0.052-1.362-0.102
	c-0.49-0.049-0.948-0.095-1.088-0.091c1.056,4.096-2.761,6.044-3.174,0.136c-0.13-0.017-0.404-0.042-0.727-0.064
	c-0.359-0.025-0.762-0.041-1.081-0.033c-0.227,0.006-0.399,0.014-0.453,0.022c-0.173,3.319-1.016,4.438-1.801,4.033l0.115-2.385
	c-0.936,0.312-1.482-0.167-1.472-0.729l-0.025-2.688l-1.519-0.07l0.088,2.309c0.005,0.114-0.087,0.204-0.192,0.192
	c-0.013,0.174-3.159,0.009-3.27-0.111c-0.036-0.039-0.052-0.091-0.049-0.142l0.08-3.344c-0.002,0.001-0.005,0.002-0.007,0.003
	c-0.075,0.022-1.908-0.292-2.509-0.125c-0.118,0.033-0.194,0.029-0.251,0.023c0.004,0.011,0.008,0.023,0.01,0.037
	c0.088,0.341-0.039,2.567-0.049,2.834c0,0.021-0.003,0.042-0.009,0.062c-0.245,0.755-4.089,0.273-4.067-0.133
	c0.002-0.031,0.142-3.152,0.16-3.179c0-0.012,0.002-0.024,0.005-0.036c-0.043-0.004-0.099-0.006-0.158-0.006
	c-0.164,0-0.347,0.026-0.447,0.041c-0.306,0.045-1.262,0.089-2.019,0.012c-0.243-0.024-0.469-0.063-0.654-0.122
	c0,0.983,0.17,2.192,0.259,3.194c0,0.005,0.001,0.01,0.001,0.015c0.004,0.103-0.071,0.189-0.166,0.193l-0.188,0.008
	c-0.18,0.009-3.403,0.402-3.4,0.001l-0.216-2.86c0-0.053,0.021-0.101,0.055-0.135c-0.004-0.026-0.003-0.05,0.003-0.073
	c-0.007-0.025-0.008-0.048-0.004-0.071c-0.292-0.009-0.979,0.075-1.5,0.251l-0.008,0.002c-0.305,0.104-0.54,0.226-0.55,0.35
	c-0.03,0.361-0.027,0.692-0.025,0.997c0.009,1.313,0.255,2.073-1.781,2.214c-0.481-0.275-0.463-2.026-0.754-2.461
	c-0.005-0.007,0-0.01-0.002-0.01c-0.01-0.001-0.027,0.008-0.05,0.025c-0.106,0.08-0.221,0.267-0.3,0.508
	c-0.113,0.343-0.063,2.437-0.031,3.79c0.01,0.425,0.019,0.777,0.019,0.987c0.015,3.531,0.002,7.053-0.028,10.573
	c-0.031,3.522-0.079,7.041-0.135,10.562c-0.062,3.952-0.048,7.934-0.033,11.91c0.019,5.278,0.039,10.549-0.122,15.733
	c-0.064,2.064,0.871,2.121,2.319,2.209c0.187,0.012,0.381,0.022,0.567,0.038c0.787,0.062,1.544,0.115,2.294,0.157
	c0.729,0.042,1.454,0.074,2.195,0.097c0.024-0.024,0.056-0.042,0.092-0.048c0.056-0.009,0.109,0.011,0.147,0.05
	c5.15-0.013,11.266-0.714,16.505-1.048c0.026-0.03,0.061-0.051,0.101-0.058c0.038-0.006,0.074,0.001,0.105,0.019l0.714-0.266
	L76.5,55.836c1.852-2.817,7.415-5.113,12.242-4.789c5.711,0.384,11.326,3.328,11.688,7.64c-0.153,6.165-0.102,11.743-0.058,17.91
	c0.046,6.443,0.092,12.885-0.104,19.438c-0.483,16.173,2.093,5.876,9.942-12.48C114.107,74.438,110.518,53.571,103.4,46.857z"/>
<text transform="matrix(1 0 0 1 29.646 101.6709)" font-family="'TraditionalArabic'" font-size="26.428">V</text>
<path fill-rule="evenodd" clip-rule="evenodd" fill="#FF0009" d="M96.126,110.238c-0.22,0.167-0.443,0.33-0.665,0.484
	c-0.203,0.142-0.411,0.278-0.619,0.405c-0.261,0.156-0.521,0.345-0.775,0.528c-0.337,0.243-0.665,0.48-1.033,0.679
	c-0.705,0.381-1.211,0.715-1.654,1.008c-0.339,0.224-0.646,0.427-0.972,0.609c-0.295,0.165-0.869,0.496-1.498,0.88l1.529-0.697
	c1.125-0.49,4.04-2.344,5.644-3.363l0.577-0.366c1.505-0.948,3.094-2.23,4.632-3.691c1.606-1.527,3.158-3.249,4.503-4.993
	c0.267-0.342,0.971-0.914,1.324-1.247c0.657-0.627,1.311-1.316,1.932-2.022c0.663-0.756,1.282-1.523,1.822-2.25l0.066-0.091
	c0.279-0.376,0.489-0.66,0.736-1.021c0.946-1.38,1.778-2.802,2.511-4.277c0.731-1.474,1.369-3.013,1.926-4.628
	c0.108-0.304,0.267-0.818,0.437-1.428l-0.388,0.568l0.285-2.739c0.044-0.43,0.159-0.986,0.293-1.641
	c0.187-0.906,0.414-2.013,0.529-3.154c0.139-1.372,0.193-2.776,0.165-4.19c-0.135,2.431-0.538,4.79-1.246,6.884l-2.271,6.716
	l0.473-3.602c-0.283,0.898-0.613,1.83-0.978,2.714c-0.662,1.603-1.447,3.065-2.29,3.931l-1.871,1.92l0.698-2.585
	c0.086-0.32,0.431-0.994,0.771-1.66c0.246-0.483,0.492-0.965,0.603-1.234c0.192-0.471,0.366-0.933,0.536-1.416
	c0.158-0.452,0.325-0.964,0.511-1.549c0.983-3.113,1.46-6.628,1.506-10.21c0.05-3.839-0.394-7.765-1.235-11.368l-0.761-3.255
	l1.151,1.544c-0.205-0.67-0.428-1.325-0.66-1.97c-0.31-0.857-0.683-1.809-1.065-2.777c-1.447-3.658-2.877-6.558-4.65-9.133
	c-1.773-2.574-3.906-4.848-6.767-7.261c-0.897-0.756-1.784-1.455-2.685-2.114c-0.903-0.661-1.824-1.283-2.789-1.889l-0.64-0.369
	c-0.541-0.308-1.158-0.656-1.432-0.904l-1.324-1.2l1.788-0.011c0.858-0.005,1.852,0.283,2.874,0.721l-0.446-0.239
	c-0.245-0.128-0.489-0.257-0.803-0.447c-0.476-0.285-1.045-0.537-1.617-0.792c-0.419-0.186-0.84-0.373-1.202-0.556l-3.142-1.585
	l1.094,0.083c-0.73-0.263-1.412-0.49-1.929-0.653c-3.599-1.136-7.378-2.195-11.234-2.878c-3.84-0.68-7.757-0.988-11.645-0.625
	c-6.048,0.564-11.486,2.31-16.162,4.836c-5.132,2.772-9.343,6.484-12.435,10.606c-2.564,3.418-5.499,8.468-7.393,14.188
	c-1.44,4.347-2.276,9.075-1.881,13.748c0.135,1.599,0.365,3.081,0.817,4.402c0.438,1.284,1.092,2.427,2.082,3.391
	c0.752,0.732,1.902,1.445,3.239,1.774c1.05,0.259,2.216,0.277,3.388-0.124c0.617-0.212,1.278-0.531,1.849-0.901
	c0.506-0.328,0.94-0.691,1.197-1.041c0.274-0.374,0.52-0.972,0.59-1.626c0.055-0.511,0-1.047-0.234-1.516
	c-0.25-0.501-0.524-0.913-0.796-1.322c-0.441-0.666-0.883-1.331-1.308-2.455c-0.226-0.598-0.422-1.23-0.597-1.871
	c-0.185-0.673-0.333-1.284-0.473-1.874c-0.013-0.058-0.017-0.112-0.012-0.164l-0.776,0.928l-0.364-1.256
	c-1.654-5.707,0.332-10.865,0.91-12.369c0.064-0.169,0.097-0.193,0.101-0.233l1.385,0.145l-0.002,0.023
	c-0.029,0.268-0.078,0.535-0.131,0.812c0.269-0.399,0.543-0.755,0.798-1.012l1.721-1.733l-0.549,2.379
	c-0.081,0.353-0.314,1-0.588,1.762c-0.35,0.974-0.772,2.147-0.996,3.047l-0.14,0.614l1.091-1.373l-0.033,0.907l0.312-0.92
	c0.219-0.627,0.451-1.247,0.721-1.919c0.257-0.64,0.514-1.271,0.778-1.891c0.26-0.611,0.531-1.22,0.825-1.833l0.227-0.473
	c0.485-1.023,0.966-2.029,1.609-3.124c0.888-1.514,2.15-3.025,3.57-4.434c1.379-1.369,2.915-2.649,4.403-3.748
	c-0.526,0.271-1.044,0.568-1.552,0.885c-2.445,1.527-4.645,3.527-6.289,5.536c-0.081,0.096-0.234,0.302-0.398,0.522
	c-0.339,0.452-0.722,0.965-0.975,1.176l-1.212,1.014l0.07-1.579c0.03-0.677,0.451-1.565,1.009-2.456
	c0.785-1.25,1.864-2.557,2.442-3.19c2.251-2.466,5.148-4.691,8.313-6.527c3.297-1.911,6.896-3.407,10.371-4.314
	c3.764-0.984,8.021-1.26,12.195-0.878c4.178,0.383,8.28,1.423,11.738,3.07l0.734,0.371c0.704,0.382,1.357,0.759,2,1.242
	c0.063,0.058,0.089,0.091,0.15,0.164l1.313,1.595l-1.827-0.365l0.238,0.129c0.482,0.265,0.885,0.472,1.28,0.674l0.682,0.35
	c1.519,0.793,3.495,2.037,5.294,3.391c1.524,1.148,2.937,2.388,3.862,3.518c1.073,1.313,2.042,2.633,2.949,4.052
	c0.902,1.411,1.734,2.907,2.539,4.577c3.366,6.982,4.997,13.923,4.792,20.66c-0.201,6.63-2.178,13.05-6.021,19.102
	c-3.902,6.146-8.851,10.71-14.632,13.752c-5.947,3.128-12.771,4.641-20.24,4.604c-3.727-0.018-6.939-0.528-9.869-1.36
	c-2.922-0.829-5.565-1.979-8.162-3.281c-1.295-0.649-2.579-1.389-3.816-2.183c-1.069-0.687-2.113-1.418-3.109-2.175l0.628,0.543
	c1.022,0.858,2.104,1.693,3.211,2.453c1.007,0.689,2.039,1.322,3.068,1.855l0.569,0.28c0.646,0.309,1.454,0.697,1.856,1.033
	l1.615,1.353l-2.101-0.123c-1.052-0.062-2.46-0.704-3.894-1.559c-1.177-0.7-2.39-1.553-3.428-2.333l0.516,0.583l-2.659-1.195
	c0.467,0.409,0.93,0.79,1.395,1.152c0.724,0.567,1.477,1.111,2.257,1.665c0.721,0.513,1.533,1.083,2.351,1.601
	c0.813,0.515,1.64,0.985,2.398,1.306c0.413,0.175,0.779,0.367,1.139,0.556c0.459,0.241,0.913,0.479,1.398,0.637
	c0.267,0.088,0.522,0.207,0.791,0.333c0.187,0.088,0.385,0.18,0.601,0.264l0.673,0.253l0.69,0.239
	c4.231,1.422,8.07,2.146,12.152,2.168c4.096,0.021,8.465-0.664,13.749-2.061c2.087-0.551,4.038-1.179,5.876-1.879
	c1.838-0.701,3.551-1.475,5.162-2.316l7.26-3.795L96.126,110.238z"/>
</svg>
