<?xml version="1.0" encoding="utf-8"?>
<!-- Generator: Adobe Illustrator 16.0.0, SVG Export Plug-In . SVG Version: 6.00 Build 0)  -->
<!DOCTYPE svg PUBLIC "-//W3C//DTD SVG 1.1//EN" "http://www.w3.org/Graphics/SVG/1.1/DTD/svg11.dtd">
<svg version="1.1" id="Capa_1" xmlns="http://www.w3.org/2000/svg" xmlns:xlink="http://www.w3.org/1999/xlink" x="0px" y="0px"
	 width="141.732px" height="141.732px" viewBox="0 0 141.732 141.732" enable-background="new 0 0 141.732 141.732"
	 xml:space="preserve">
<polygon fill-rule="evenodd" clip-rule="evenodd" fill="#FF0009" points="70.866,40.213 102.756,47.876 134.646,55.54 
	134.646,70.866 134.646,86.193 102.756,93.856 70.866,101.52 38.977,93.856 7.086,86.193 7.086,70.866 7.086,55.54 38.977,47.876 
	"/>
<polygon fill-rule="evenodd" clip-rule="evenodd" fill="#FFFFFF" points="70.866,13.973 95.502,28.196 120.138,42.419 
	120.138,70.866 120.138,99.313 95.502,113.536 70.866,127.76 46.23,113.536 21.595,99.313 21.595,70.866 21.595,42.419 
	46.23,28.196 "/>
<g>
	<defs>
		<polygon id="SVGID_1_" points="70.866,13.973 95.502,28.196 120.138,42.419 120.138,70.866 120.138,99.313 95.502,113.536 
			70.866,127.76 46.23,113.536 21.595,99.313 21.595,70.866 21.595,42.419 46.23,28.196 		"/>
	</defs>
	<clipPath id="SVGID_2_">
		<use xlink:href="#SVGID_1_"  overflow="visible"/>
	</clipPath>
	<path clip-path="url(#SVGID_2_)" fill-rule="evenodd" clip-rule="evenodd" d="M85.754,55.366l-0.055-0.006
		c-0.015,0.421,0.013,0.833,0.055,1.242V55.366z M51.496,62.671h34.258v-2.488l-1.585-0.018c-0.289-3.038,0.243-16.935-0.043-18.236
		c-0.046-0.206-1.034-1.771-1.227-2.358c-0.394-1.201-0.16-2.387-0.425-3.237c-0.276-0.889-0.341-2.098-0.684-3.045l-0.455,0.004
		c-0.358,0.835-0.392,2.353-0.699,3.163c-0.372,0.979,0.046,1.584-0.454,2.763c-0.28,0.663-0.415,1.891-1.158,2.244
		c-0.502,0.219-19.7,0.234-21.621,0.075c-0.626-0.75-1.558-2.409-1.603-3.624c-0.057-1.517-0.226-1.918-0.576-3.313
		c-0.06-0.241-0.039-0.321-0.07-0.557c-0.023-0.177-0.014-0.196-0.064-0.373c-0.115-0.403-0.018-0.139-0.142-0.325
		c-0.223,0.146-0.254,0.348-0.35,0.626c-0.717,2.087-0.624,4.316-0.999,5.423c-0.071,0.21-0.416,1.034-0.552,1.275
		c-1.108,1.967-0.725,0.656-0.725,4.867l-0.002,11.109c0.002,2.842,0.45,3.553-0.826,3.65V62.671z"/>
	<path clip-path="url(#SVGID_2_)" fill-rule="evenodd" clip-rule="evenodd" fill="#FFFFFF" d="M20.375,70.434
		c0.469-0.025,0.865-0.113,1.045-0.298c0.5-0.514,0.218-6.416,0.218-7.488c0-1.804-0.357-6.671,0.286-7.843
		c0.518-0.229,0.989-0.341,1.373,0.182c0.475,0.647,0.09,0.643,0.352,1.411c1.217-0.07,0.456-0.651,1.117-1.72
		c1.387-0.215,1.344,0.272,1.629,1.386c0.79-0.122,0.11,0.165,0.487-0.396c0.006-0.01,0.121-0.348,0.246-0.566
		c0.823-1.437,1.873-0.241,2.286,0.731l0.15,0.344c0.316-0.43,0.273-1.04,0.626-1.377c0.424-0.405,0.75-0.431,1.183-0.095
		c1.026,0.931-0.309,1.533,1.149,1.706c0.494-0.939-0.238-1.949,1.673-1.762c0.851,1.161,0.043,1.709,1.284,1.749l0.232-1.51
		c2.236-0.022,1.411,0.403,1.881,1.52c0.991-0.266,0.431-1.73,1.658-1.63c1.33,0.108,0.527,1.307,1.512,1.636
		c0.361-0.671-0.012-0.765,0.419-1.371c0.439-0.616,0.723-0.335,1.379-0.634c0.183-2.319-0.231-4.895,0.028-7.21
		c0.133-1.19,0.551-1.101,1.765-0.83l0.331,1.269c1.223-0.366,0.278-0.371,0.936-1.267c0.569-0.775,1.009-0.313,1.691-0.067
		l0.422,1.199c0.037-0.052,0.065-0.207,0.078-0.175c0,0.001,0.43-1.648,1.401-1.517c0.918,0.374,0.949,1.282,1.478,1.837
		l0.398-1.457c1.624-0.514,1.25,0.083,2.349,0.692l1.057-1.046c1.022,0.241,1.086,0.838,1.426,1.672
		c0.016,0.04,0.041,0.114,0.076,0.163c0.337-0.814,0.155-1.59,1.459-1.554c1.433,0.04,0.648,1.354,1.476,1.682
		c0.559-1.131-0.055-2.002,1.837-1.774c0.696,0.968,0.492,2.656,0.487,3.947c-0.006,1.447-0.05,2.975,0.027,4.412
		c2.562,0.806,0.694,1.377,1.875,1.896c0.99-0.388,0.018-0.296,0.65-1.246c0.447-0.671,1.008-0.382,1.256-0.216
		c1.216,0.827-0.333,1.56,1.262,1.578c0.357-0.849-0.033-0.76,0.594-1.796c1.951-0.055,1.106,1.037,1.88,1.851
		c0.565-1.031-0.122-1.49,1.329-1.874c1.567,0.469,0.678,1.126,1.479,1.861c0.643-0.662-0.01-1.644,1.098-1.812
		c1.175-0.177,0.865,1.127,1.151,1.768c0.903-0.052,0.859-1.136,1.488-1.804c1.366,0.157,1.033,0.631,1.544,1.557
		c0.973-0.54,0.056-1.619,2.144-1.355c0.283,0.437,0.185,0.328,0.358,0.722c0.331,0.755-0.222,0.237,0.456,0.792
		c0.674-0.946-0.058-1.716,1.689-1.685c1.056,1.117-0.136,1.244,1.268,1.677c0.592-1.041-0.215-1.611,1.529-1.698
		c0.668,0.75,0.299,1.192,1.006,1.499c0.889-0.447,0.031-0.05,0.562-0.906c0.354-0.573,0.187-0.43,0.918-0.626
		c1.782,0.911,0.297,1.18,1.268,1.71c0.896-0.458-0.251-1.049,1.268-1.686c1.625,0.241,0.637,1.183,1.479,1.694
		c0.758-0.481,0.248-1.955,1.646-1.652c1.439,0.312-0.035,1.682,1.523,1.782c0.28-0.691-0.122-1.919,1.233-1.655
		c1.665,0.325-0.186,1.587,1.514,1.631c0.337-0.795-0.107-1.745,1.066-1.77c1.12-0.024,0.868,0.95,1.257,1.652
		c0.509-0.351,0.73-1.634,1.479-1.678c1.963,0.482,0.309,1.539,1.689,1.827c0.41-1.051-0.079-1.653,1.268-1.82
		c0.925,0.12,0.546,1.128,1.268,1.507c0.569-0.301,0.336-0.685,0.696-1.423c2.437-0.412,1.662,2.394,1.678,6.906
		c0.006,1.58-0.305,7.638,0.161,8.601c0.362,0.154,1.016,0.255,1.702,0.289v4.053c-26.979-0.016-53.976-0.171-80.926-0.132h-7.711
		V70.434z"/>
	<path clip-path="url(#SVGID_2_)" fill-rule="evenodd" clip-rule="evenodd" d="M19.572,72.372c0.469-0.025,0.864-0.113,1.045-0.299
		c0.5-0.514,0.218-6.415,0.218-7.487c0-1.804-0.357-6.671,0.286-7.842c0.517-0.229,0.989-0.342,1.373,0.181
		c0.475,0.647,0.09,0.643,0.352,1.411c1.217-0.07,0.456-0.651,1.117-1.72c1.387-0.214,1.344,0.272,1.629,1.386
		c0.79-0.123,0.11,0.165,0.487-0.396c0.006-0.01,0.121-0.348,0.246-0.565c0.824-1.438,1.874-0.241,2.287,0.73l0.15,0.344
		c0.316-0.43,0.273-1.04,0.626-1.377c0.424-0.405,0.75-0.431,1.183-0.095c1.025,0.931-0.309,1.533,1.149,1.706
		c0.494-0.939-0.238-1.949,1.673-1.762c0.851,1.161,0.043,1.709,1.284,1.749l0.232-1.51c2.236-0.022,1.411,0.403,1.881,1.52
		c0.991-0.266,0.431-1.73,1.657-1.63c1.331,0.109,0.528,1.307,1.512,1.636c0.362-0.671-0.012-0.765,0.42-1.371
		c0.439-0.616,0.723-0.335,1.378-0.634c0.183-2.319-0.23-4.895,0.028-7.21c0.133-1.19,0.551-1.101,1.765-0.83l0.331,1.269
		c1.223-0.366,0.278-0.371,0.936-1.267c0.569-0.775,1.009-0.313,1.691-0.067l0.422,1.199c0.037-0.052,0.065-0.207,0.078-0.175
		c0,0.001,0.43-1.648,1.401-1.517c0.918,0.374,0.949,1.282,1.477,1.837l0.399-1.457c1.624-0.514,1.25,0.083,2.349,0.692l1.057-1.046
		c1.022,0.241,1.086,0.838,1.425,1.671c0.016,0.04,0.041,0.115,0.076,0.163c0.337-0.814,0.155-1.59,1.458-1.554
		c1.433,0.04,0.648,1.355,1.477,1.682c0.559-1.131-0.055-2.002,1.837-1.774c0.696,0.968,0.492,2.656,0.487,3.947
		c-0.006,1.447-0.05,2.975,0.027,4.412c2.562,0.806,0.694,1.377,1.875,1.896c0.99-0.388,0.018-0.296,0.651-1.246
		c0.447-0.671,1.008-0.382,1.256-0.215c1.215,0.826-0.333,1.559,1.262,1.578c0.357-0.849-0.033-0.76,0.594-1.796
		c1.952-0.055,1.107,1.038,1.88,1.851c0.565-1.031-0.122-1.49,1.329-1.874c1.568,0.469,0.678,1.126,1.479,1.861
		c0.643-0.662-0.01-1.644,1.098-1.811c1.175-0.178,0.866,1.127,1.151,1.768c0.904-0.053,0.859-1.136,1.488-1.804
		c1.366,0.156,1.034,0.631,1.544,1.557c0.973-0.539,0.056-1.619,2.144-1.354c0.283,0.437,0.186,0.328,0.358,0.722
		c0.332,0.755-0.221,0.237,0.456,0.792c0.675-0.946-0.058-1.716,1.69-1.685c1.056,1.117-0.137,1.244,1.268,1.677
		c0.591-1.041-0.216-1.611,1.529-1.698c0.667,0.751,0.298,1.192,1.006,1.499c0.888-0.447,0.031-0.05,0.561-0.906
		c0.354-0.573,0.188-0.43,0.918-0.626c1.782,0.911,0.297,1.181,1.268,1.71c0.896-0.458-0.25-1.049,1.268-1.686
		c1.625,0.241,0.638,1.183,1.479,1.694c0.757-0.481,0.248-1.955,1.646-1.652c1.438,0.312-0.036,1.682,1.523,1.782
		c0.28-0.691-0.123-1.919,1.232-1.655c1.666,0.325-0.186,1.587,1.514,1.631c0.337-0.795-0.106-1.745,1.066-1.77
		c1.12-0.024,0.869,0.95,1.258,1.652c0.509-0.351,0.729-1.634,1.479-1.679c1.963,0.482,0.309,1.54,1.689,1.828
		c0.41-1.051-0.079-1.654,1.269-1.82c0.924,0.12,0.546,1.128,1.268,1.507c0.569-0.301,0.335-0.685,0.696-1.423
		c2.436-0.412,1.662,2.394,1.678,6.906c0.005,1.58-0.306,7.638,0.161,8.601c0.362,0.154,1.015,0.255,1.702,0.288v4.053
		c-26.979-0.015-53.977-0.171-80.927-0.132h-7.711V72.372z"/>
	<path clip-path="url(#SVGID_2_)" fill-rule="evenodd" clip-rule="evenodd" fill="#FFFFFF" d="M18.003,76.977h48.354
		c1.312-0.002,3.312,0.391,4.362-0.379l-0.214-0.362c-0.703-0.819-1.979-1.086-3.011-1.241c-0.269-1.865-0.333-0.961-0.59-1.448
		c-0.434-0.826-0.196-5.395-0.144-6.449c0.759-0.633,0.672-0.201,0.763-1.373c0.064-0.825-0.004-1.794-0.243-2.325
		c-1.451,0.593,0.821,0.767-4.63,0.774c-0.043-0.063-0.1-0.21-0.119-0.17l-0.576-0.766l-0.666,0.873
		c-1.459,0.101-2.94,0.07-4.433,0.072c-1.894,0.002-2.611,0.33-3.708-0.745c-1.031,0.761,0.049,0.857-1.832,0.897
		c-0.882,0.019-1.92,0.003-2.803-0.051l-0.615-0.928c-0.939,1.154-1.271,0.916-2.818,0.712c-0.057-0.909,0.093-1.851-0.181-2.625
		c-0.196-0.554-0.772-1.497-1.252-1.68c-0.546-0.022-0.677,0.568-0.982,1.015c-1.332,1.95,0.644,3.884-2.838,3.389
		c-1.052-0.15-0.714,0.074-1.966,0.143c-0.613,0.034-1.725,0.035-2.34,0.007c-1.315-0.06-1.149-0.421-1.773-0.35l-6.573,0.362
		c-0.592,0-1.054-0.01-1.501-0.357l-0.248-0.248c-0.028-0.027-0.075-0.094-0.119-0.134c-0.654,0.853-1.161,0.601-2.516,0.595
		l-3.003-0.324c-0.096,2.899,0.89,5.55,0.316,8.655l-2.101-0.024V76.977z"/>
	<path clip-path="url(#SVGID_2_)" fill-rule="evenodd" clip-rule="evenodd" d="M14.79,78.108l50.771-0.001
		c1.311-0.003,3.311,0.391,4.361-0.379l-0.214-0.361c-0.703-0.82-1.979-1.087-3.011-1.242c-0.27-1.865-0.334-0.961-0.59-1.448
		c-0.434-0.826-0.195-5.396-0.144-6.449c0.759-0.633,0.672-0.201,0.763-1.373c0.063-0.825-0.004-1.794-0.243-2.325
		c-1.452,0.593,0.82,0.767-4.63,0.774c-0.043-0.063-0.101-0.21-0.119-0.17l-0.576-0.766l-0.666,0.873
		c-1.459,0.101-2.94,0.07-4.433,0.072c-1.893,0.002-2.611,0.33-3.708-0.744c-1.031,0.761,0.048,0.857-1.832,0.897
		c-0.883,0.019-1.92,0.002-2.803-0.051l-0.615-0.928c-0.939,1.154-1.271,0.916-2.817,0.713c-0.057-0.909,0.092-1.851-0.182-2.625
		c-0.196-0.554-0.772-1.497-1.252-1.679c-0.546-0.022-0.677,0.568-0.982,1.015c-1.331,1.95,0.644,3.884-2.838,3.389
		c-1.053-0.149-0.714,0.074-1.966,0.143c-0.613,0.034-1.725,0.035-2.34,0.007c-1.315-0.06-1.148-0.421-1.774-0.35l-6.572,0.363
		c-0.592-0.001-1.054-0.011-1.502-0.357l-0.248-0.249c-0.027-0.027-0.074-0.094-0.119-0.134c-0.654,0.853-1.161,0.601-2.516,0.595
		l-3.003-0.324c-0.096,2.899,0.89,5.55,0.316,8.655C19.384,76.261,15.269,75.527,14.79,78.108"/>
	<path clip-path="url(#SVGID_2_)" fill-rule="evenodd" clip-rule="evenodd" fill="#FFFFFF" d="M29.259,73.673
		c1.7,0.005,2.72,0.146,4.277-0.297c0.114-2.19-2.906-6.319-6.758-4.415c-1.017,0.503-2.607,2.261-2.656,3.643
		C24.064,74.23,25.628,73.662,29.259,73.673"/>
	<path clip-path="url(#SVGID_2_)" fill-rule="evenodd" clip-rule="evenodd" fill="#FFFFFF" d="M38.325,73.715
		c1.927,0.134,7.234,0.417,8.875,0.135c0.51-4.433-4.526-7.216-7.664-3.97C38.605,70.842,37.989,71.884,38.325,73.715"/>
	<path clip-path="url(#SVGID_2_)" fill-rule="evenodd" clip-rule="evenodd" fill="#FFFFFF" d="M52.054,74.104
		c1.243,0.209,2.39,0.112,3.641,0.164c2.823,0.117,5.722,1.883,5.579-1.22c-0.121-2.617-3.325-5.871-6.821-3.999
		C53.056,69.797,51.598,71.85,52.054,74.104"/>
	<path clip-path="url(#SVGID_2_)" fill-rule="evenodd" clip-rule="evenodd" d="M65.831,57.701l-0.016,0.053L65.831,57.701z
		 M65.684,58.53L65.684,58.53l-0.002,0.002l-0.001,0.001l-0.001,0.001l-0.001,0.001l-0.001,0.001l-0.058,0.054l-0.001,0
		l-0.001,0.001h0v0l-0.078,0.321l-0.009,0.036l0.167-0.433L65.684,58.53z M65.815,57.753L65.815,57.753l0.007-0.017L65.815,57.753
		L65.815,57.753z M65.815,57.753L65.815,57.753L65.815,57.753l0.016-0.053l-0.009,0.036l4.393-10.385
		c5.295-9.024,23.62-10.829,31-4.175c7.599,4.771,10.58,12.699,10.828,21.193v2.405c-0.238,8.268-2.852,16.836-6.152,23.386
		c-3.854,7.647-7.165,12.815-14.232,17.818c-2.784,1.972-6.858,3.517-10.936,3.943h-4.284c-3.342-0.388-6.354-1.768-8.236-4.571
		c-7.319-8.137-5.711-37.638-2.922-47.79l0.266-0.9l-0.004,0.004l-0.008,0.008l-0.004,0.004l-0.03,0.031l-0.004,0.004l-0.003,0.003
		l-0.004,0.003l-0.004,0.004l-0.03,0.032l-0.003,0.003h0l-0.005,0.005c-0.012,0.012-0.022,0.024-0.033,0.036l0,0l0,0l0,0
		c-0.011,0.012-0.021,0.023-0.029,0.033l-0.002,0.002l-0.001,0c-0.009,0.011-0.017,0.021-0.024,0.03L65.815,57.753z M65.547,58.66
		l0.231-0.78L65.547,58.66L65.547,58.66z"/>
	<path clip-path="url(#SVGID_2_)" fill="none" stroke="#000000" stroke-width="0.5669" stroke-miterlimit="22.9256" d="
		M65.831,57.701l-0.016,0.053L65.831,57.701z M65.684,58.53L65.684,58.53l-0.002,0.002l-0.001,0.001l-0.001,0.001l-0.001,0.001
		l-0.001,0.001l-0.058,0.054l-0.001,0l-0.001,0.001h0v0l-0.078,0.321l-0.009,0.036l0.167-0.433L65.684,58.53z M65.815,57.753
		L65.815,57.753l0.007-0.017L65.815,57.753L65.815,57.753z M65.815,57.753L65.815,57.753L65.815,57.753l0.016-0.053l-0.009,0.036
		l4.393-10.385c5.295-9.024,23.62-10.829,31-4.175c7.599,4.771,10.58,12.699,10.828,21.193v2.405
		c-0.238,8.268-2.852,16.836-6.152,23.386c-3.854,7.647-7.165,12.815-14.232,17.818c-2.784,1.972-6.858,3.517-10.936,3.943h-4.284
		c-3.342-0.388-6.354-1.768-8.236-4.571c-7.319-8.137-5.711-37.638-2.922-47.79l0.266-0.9l-0.004,0.004l-0.008,0.008l-0.004,0.004
		l-0.03,0.031l-0.004,0.004l-0.003,0.003l-0.004,0.003l-0.004,0.004l-0.03,0.032l-0.003,0.003h0l-0.005,0.005
		c-0.012,0.012-0.022,0.024-0.033,0.036l0,0l0,0l0,0c-0.011,0.012-0.021,0.023-0.029,0.033l-0.002,0.002l-0.001,0
		c-0.009,0.011-0.017,0.021-0.024,0.03L65.815,57.753z M65.547,58.66l0.231-0.78L65.547,58.66L65.547,58.66z"/>
	<path clip-path="url(#SVGID_2_)" fill-rule="evenodd" clip-rule="evenodd" d="M68.455,106.131c1.796,2.677,4.672,3.994,7.864,4.364
		h4.09c3.893-0.407,7.782-1.883,10.44-3.765c6.748-4.777,9.909-9.711,13.589-17.012c3.151-6.254,5.646-14.435,5.874-22.328v-2.296
		c-0.238-8.109-3.084-15.678-10.339-20.234c3.469,3.734,5.172,3.811,7.638,9.078c3.601,7.689,0.992,6.746,1.348,8.417
		c0.125,0.587,0.449,0.576,0.266,1.263c-0.382,1.431-1.137,2.991-1.585,4.38c-0.026,0.083,0.031,4.735-0.036,5.553
		c-0.484,5.906-1.76,6.635-3.909,11.784c-2.145,5.137-1.729,6.413-5.604,11.291c-3.371,4.244-0.775,3.737-6.005,7.772
		C85.03,109.845,75.764,112.667,68.455,106.131"/>
	<path clip-path="url(#SVGID_2_)" fill-rule="evenodd" clip-rule="evenodd" d="M99.18,76.23c0.071-0.026,2.377-3.44,2.588-3.789
		c0.655-1.083-2.084-2.233-2.837-2.61c-1.401-0.701-7.274-1.782-8.448-0.833c-2.155,1.743-2.33,1.164-1.396,3.355
		c0.292,0.686,2.727,2.903,3.254,2.938c1.626,0.104,0.952,0.144,1.924,1.134c0.489,0.498,0.484-0.211,1.429-0.25
		c0.963-0.04,0.931-0.467,1.801-0.845C98.859,74.736,98.623,75.963,99.18,76.23"/>
	<path clip-path="url(#SVGID_2_)" fill-rule="evenodd" clip-rule="evenodd" d="M94.078,64.517c3.702,0.565,9.288,6.429,10.401,6.04
		c0.027-0.01,1.185-2.781-0.491-1.772c-2.138,1.288-1.134-0.439-1.194-1.107c-0.19-2.091-3.958-3.668-5.584-4.227
		c-3.597-1.236-12.769-3.225-14.083,2.212c-0.654,2.703,3.462,2.384,4.297,1.608C89.022,65.786,91.823,64.172,94.078,64.517"/>
	<path clip-path="url(#SVGID_2_)" fill-rule="evenodd" clip-rule="evenodd" d="M68.349,66.974c-2.296,0.516-3.153,3.505-2.593,5.425
		c0.57,1.952-0.133,1.758,1.699,1.647c0.25-0.015,2.937-0.286,3.005-0.297c0.168-0.027,1.916-1.646,2.332-1.979
		c1.181-0.941,2.136-0.701,1.257-2.239C73.456,68.498,69.694,66.671,68.349,66.974"/>
	<path clip-path="url(#SVGID_2_)" fill-rule="evenodd" clip-rule="evenodd" d="M70.634,64.056c0.652,0.192-0.085,0.882,1.158,0.615
		c0.664-0.142,1.237,0.013,1.79,0.409c0.525,0.376,2.438,2.879,2.905,2.4c2.621-2.695-1.997-5.577-4.855-6.018
		c-4.348-0.67-5.993,0.911-6.257,5.172C65.063,71.655,66.347,64.496,70.634,64.056"/>
	<path clip-path="url(#SVGID_2_)" fill-rule="evenodd" clip-rule="evenodd" d="M96.122,58.451l-1.36-0.531l0.071-0.345l7.261,1.258
		c-3.965-4.548-9.741-3.912-14.817-1.608c-1.182,0.537-2.126,1.362-3.067,2.234c-1.313,1.217,2.271-0.166,2.628-0.237
		c2.237-0.445,1.999-0.586,4.552-0.668C91.903,58.538,96.061,58.489,96.122,58.451"/>
	<path clip-path="url(#SVGID_2_)" fill-rule="evenodd" clip-rule="evenodd" d="M73.612,83.038c-0.008,0.784,0.828-0.05,0.67,1.022
		c-0.104,0.707-0.061,0.975,0.692,1.354c0.804,0.406,2.326,1.014,3.181,1.201c0.088,0.02,3.231-0.271,3.583-0.32
		c1.26-0.178,1.856-0.854,2.455-1.906c1.984-3.491-3.687-1.064-5.158-1.52c-0.605-0.188-0.734-0.774-1.24-0.798
		c-0.639-0.03-0.471,0.316-1.574,0.14C75.631,82.117,73.621,82.071,73.612,83.038"/>
	<path clip-path="url(#SVGID_2_)" fill-rule="evenodd" clip-rule="evenodd" d="M71.926,95.737c-0.343,1.179,0.978,1.22,1.328,1.513
		c1.111,0.93-0.359,1.009,1.311,0.653c0.004-0.001,4.315,0.807,4.792,0.882c2.68,0.423,5.313-2.688,6.664-4.545l0.052,0.17
		l-7.992,2.434L71.926,95.737z"/>
	<path clip-path="url(#SVGID_2_)" fill-rule="evenodd" clip-rule="evenodd" d="M72.923,91.668c-0.408-0.184-6.836,0.157,1.104,2.272
		c2.9,0.773,6.297,0.353,9.3,0.229c6.086-0.253-1.198-2.154-2.116-1.702C79.645,93.237,74.739,92.482,72.923,91.668"/>
	<path clip-path="url(#SVGID_2_)" fill-rule="evenodd" clip-rule="evenodd" d="M70.199,49.157l-4.535,11.346l0.526-1.775
		l-0.288,1.194l11.043-0.704l0.468,0.527c-1.313-1.055-4.785-4.033-6.01-4.683c-0.918,0.76-5.205,4.188-5.668,4.776l4.568-11.015
		l0.467,0.145L70.199,49.157z"/>
	<path clip-path="url(#SVGID_2_)" fill-rule="evenodd" clip-rule="evenodd" d="M80.952,68.867c0.467-0.035,0.444-0.317,0.681-0.638
		c0.312-0.423,0.407-0.307,0.63-0.88c0.354,0.035,0.088,0.064,0.355,0.125c0.006-0.351-0.145-0.814-0.454-0.995
		c-0.325,0.552,0.016,0.634-0.654,1.194C81.003,68.098,80.898,68.141,80.952,68.867"/>
	<path clip-path="url(#SVGID_2_)" fill-rule="evenodd" clip-rule="evenodd" fill="#FCFCFC" d="M65.735,59.839
		c0.463-0.588,4.75-4.016,5.668-4.776c1.225,0.649,4.697,3.627,6.01,4.683l-6.19-1.514l-5.32,1.69l0.288-1.194l-0.526,1.775
		c-2.663,9.694-4.197,37.86,2.791,45.627c7.309,6.536,16.576,3.714,23.63-1.731c5.229-4.035,2.634-3.528,6.005-7.772
		c3.874-4.878,3.459-6.154,5.604-11.291c2.149-5.149,3.425-5.878,3.909-11.784c0.067-0.818,0.01-5.47,0.036-5.553
		c0.448-1.389,1.203-2.949,1.585-4.38c0.184-0.688-0.141-0.676-0.266-1.263c-0.355-1.671,2.253-0.728-1.348-8.417
		c-2.466-5.268-4.169-5.344-7.638-9.078C82.39,31.571,70.544,48.217,65.735,59.839 M96.122,58.451
		c-0.062,0.039-4.219,0.087-4.733,0.104c-2.553,0.082-2.314,0.223-4.552,0.668c-0.356,0.071-3.94,1.454-2.628,0.237
		c0.941-0.872,1.886-1.698,3.067-2.234c5.076-2.304,10.853-2.94,14.817,1.608l-7.261-1.258l-0.071,0.345L96.122,58.451z
		 M70.634,64.056c-4.287,0.439-5.571,7.599-5.259,2.579c0.264-4.262,1.909-5.843,6.257-5.172c2.858,0.441,7.477,3.323,4.855,6.018
		c-0.467,0.479-2.38-2.024-2.905-2.4c-0.553-0.396-1.126-0.551-1.79-0.409C70.549,64.938,71.286,64.248,70.634,64.056z
		 M94.078,64.517c-2.255-0.345-5.056,1.269-6.654,2.754c-0.835,0.775-4.951,1.094-4.297-1.608
		c1.314-5.437,10.486-3.448,14.083-2.212c1.626,0.559,5.394,2.136,5.584,4.227c0.061,0.668-0.943,2.395,1.194,1.107
		c1.676-1.009,0.519,1.762,0.491,1.772C103.366,70.946,97.78,65.083,94.078,64.517z M80.952,68.867
		c-0.054-0.726,0.051-0.769,0.558-1.193c0.67-0.561,0.33-0.643,0.654-1.194c0.31,0.181,0.46,0.645,0.454,0.995
		c-0.268-0.061-0.001-0.09-0.355-0.125c-0.223,0.573-0.318,0.457-0.63,0.88C81.396,68.549,81.419,68.832,80.952,68.867z
		 M68.349,66.974c1.346-0.302,5.108,1.524,5.699,2.557c0.879,1.538-0.076,1.298-1.257,2.239c-0.416,0.333-2.163,1.952-2.332,1.979
		c-0.068,0.011-2.755,0.282-3.005,0.297c-1.832,0.11-1.129,0.305-1.699-1.647C65.196,70.479,66.052,67.489,68.349,66.974z
		 M99.18,76.23c-0.557-0.268-0.32-1.494-1.687-0.899c-0.87,0.378-0.838,0.805-1.801,0.845c-0.944,0.039-0.939,0.748-1.429,0.25
		c-0.972-0.99-0.298-1.03-1.924-1.134c-0.527-0.034-2.962-2.252-3.254-2.938c-0.934-2.192-0.759-1.613,1.396-3.355
		c1.174-0.949,7.047,0.132,8.448,0.833c0.753,0.376,3.492,1.527,2.837,2.61C101.557,72.79,99.251,76.204,99.18,76.23z
		 M73.612,83.038c0.009-0.967,2.019-0.921,2.608-0.826c1.104,0.177,0.936-0.17,1.574-0.14c0.506,0.023,0.635,0.61,1.24,0.798
		c1.472,0.455,7.143-1.972,5.158,1.52c-0.599,1.053-1.195,1.729-2.455,1.906c-0.352,0.05-3.495,0.34-3.583,0.32
		c-0.854-0.188-2.377-0.795-3.181-1.201c-0.753-0.38-0.796-0.647-0.692-1.354C74.44,82.988,73.604,83.822,73.612,83.038z
		 M72.923,91.668c1.816,0.814,6.722,1.569,8.288,0.799c0.918-0.452,8.202,1.449,2.116,1.702c-3.003,0.124-6.399,0.545-9.3-0.229
		C66.086,91.825,72.515,91.484,72.923,91.668z M71.926,95.737l6.154,1.106l7.992-2.434l-0.052-0.17
		c-1.352,1.857-3.984,4.968-6.663,4.545c-0.478-0.075-4.789-0.883-4.793-0.882c-1.67,0.355-0.199,0.276-1.311-0.653
		C72.903,96.957,71.583,96.916,71.926,95.737z"/>
	<path clip-path="url(#SVGID_2_)" fill-rule="evenodd" clip-rule="evenodd" d="M75.643,50.681c-0.032,0.022-0.007,0.006,0.03-0.016
		C75.661,50.67,75.65,50.675,75.643,50.681 M74.903,49.333c0.747-0.223,1.627-0.247,2.074-0.071l0.334,0.13l-0.034,0.348
		c-0.063,0.636-0.644,0.737-1.194,0.833c-0.113,0.02-0.225,0.039-0.31,0.06c0.878,1.265,0.678,1.45-0.256,2.31l-0.16,0.147
		c-0.495,0.462-1.126,0.788-1.76,0.916c-0.405,0.082-0.817,0.083-1.203-0.01c-0.405-0.099-0.777-0.302-1.08-0.625
		c-0.271-0.289-0.48-0.668-0.602-1.148c-0.205-0.816-0.073-1.732,0.262-2.567c0.361-0.901,0.964-1.722,1.63-2.222
		c1.399-1.049,3.018-1.426,3.967-1.523c0.249-0.026,0.457-0.033,0.608-0.027c0.312,0.01,0.535,0.127,0.623,0.302v0.002
		c0.044,0.088,0.061,0.179,0.046,0.274v0.001c-0.084,0.555-0.704,0.69-1.561,0.876c-1.2,0.262-3.012,0.656-3.828,2.301
		c-0.506,1.02-0.404,1.804-0.052,2.29c0.177,0.243,0.414,0.412,0.664,0.495c0.241,0.08,0.491,0.082,0.704-0.008
		c0.295-0.124,0.527-0.436,0.579-0.97l-1.024-0.762l0.143-0.325C73.691,49.863,74.267,49.523,74.903,49.333z M79.552,50.772
		l-0.001-0.006L79.552,50.772z M84.015,50.489c0.104-0.271,0.193-0.504,0.344-0.656l0.21-0.211l0.283,0.131
		c0.279,0.129,0.479,0.288,0.61,0.468c0.254,0.344,0.258,0.711,0.096,1.08c-0.123,0.282-0.353,0.559-0.631,0.817
		c-0.675,0.623-1.7,1.174-2.104,1.307c-0.578,0.191-1.063,0.209-1.536,0.098c-0.455-0.107-0.873-0.33-1.342-0.631
		c-0.027-0.018-0.136-0.083-0.25-0.154c-0.595-0.366-1.435-0.881-1.663-1.54c-0.24-0.689-0.024-1.391,0.394-2.029
		c0.555-0.85,1.481-1.6,2.071-1.999c0.18-0.122,0.576-0.387,0.982-0.622c0.451-0.261,0.926-0.482,1.216-0.461
		c0.35,0.025,0.698,0.347,0.984,0.75c0.327,0.461,0.614,1.079,0.662,1.353l0.1,0.578l-0.578-0.085c-0.68-0.1-0.95-0.431-1.188-0.721
		c-0.176-0.215-0.309-0.378-1.563,0.371c-0.466,0.278-0.951,0.701-1.261,1.207c-0.231,0.376-0.362,0.796-0.302,1.228
		c0.057,0.203,0.5,0.506,1.031,0.77c0.573,0.284,1.21,0.483,1.592,0.448c0.024-0.002,0.048-0.006,0.069-0.011
		c0.075-0.018,0.396-0.171,0.716-0.334c0.306-0.156,0.589-0.31,0.629-0.348C83.778,51.109,83.907,50.771,84.015,50.489z
		 M88.481,46.277c0.105,0.104,0.146,0.314,0.14,0.599c0.334-0.021,0.729,0.083,1.133,0.288c0.385,0.194,0.789,0.481,1.147,0.828
		c0.362,0.35,0.684,0.765,0.9,1.214c0.463,0.958,0.462,2.039-0.56,2.957c-0.659,0.593-3.022,1.563-4.621,1.886
		c-0.426,0.085-0.811,0.127-1.115,0.109c-0.459-0.028-0.78-0.198-0.902-0.55c-0.065-0.189-0.053-0.402,0.054-0.637
		c0.032-0.073,0.238-0.452,0.492-0.916c0.488-0.892,1.235-2.145,1.247-2.152h0.002c0.68-0.413,0.634-1.324,0.6-2.017
		c-0.027-0.552-0.05-1.007,0.231-1.294C87.771,46.039,88.179,45.98,88.481,46.277z M88.761,48.284
		c-0.121-0.052-0.235-0.101-0.339-0.15c-0.331,1.397-0.999,3.22-1.407,4.278c0.435-0.163,0.95-0.394,1.438-0.645
		c0.717-0.37,1.345-0.766,1.491-1.016c0.658-1.118,0.229-1.698-0.334-2.049C89.333,48.529,89.021,48.395,88.761,48.284z"/>
</g>
<polygon fill="none" stroke="#000000" stroke-width="2.0211" stroke-miterlimit="22.9256" points="70.866,13.973 95.501,28.197 
	120.137,42.42 120.137,70.867 120.137,99.313 95.501,113.537 70.866,127.76 46.23,113.537 21.595,99.313 21.595,70.867 
	21.595,42.42 46.23,28.197 "/>
<path fill-rule="evenodd" clip-rule="evenodd" fill="#FF0009" d="M96.126,110.238c-0.22,0.167-0.443,0.33-0.665,0.484
	c-0.203,0.142-0.411,0.278-0.619,0.405c-0.261,0.156-0.521,0.346-0.774,0.528c-0.337,0.243-0.666,0.48-1.034,0.679
	c-0.705,0.381-1.211,0.715-1.654,1.008c-0.339,0.224-0.646,0.427-0.972,0.609c-0.295,0.165-0.869,0.496-1.498,0.88l1.529-0.697
	c1.125-0.489,4.04-2.344,5.644-3.363l0.577-0.366c1.505-0.948,3.094-2.23,4.632-3.691c1.606-1.527,3.158-3.249,4.503-4.993
	c0.267-0.342,0.971-0.914,1.324-1.247c0.657-0.627,1.311-1.315,1.932-2.022c0.663-0.756,1.282-1.523,1.822-2.25l0.066-0.09
	c0.279-0.377,0.489-0.661,0.736-1.021c0.946-1.38,1.778-2.802,2.511-4.277c0.731-1.474,1.369-3.013,1.926-4.628
	c0.108-0.304,0.267-0.818,0.437-1.428l-0.388,0.568l0.285-2.739c0.044-0.43,0.159-0.986,0.293-1.641
	c0.187-0.906,0.414-2.013,0.53-3.154c0.138-1.372,0.192-2.776,0.164-4.19c-0.135,2.432-0.538,4.791-1.246,6.884l-2.271,6.716
	l0.473-3.602c-0.283,0.898-0.613,1.831-0.978,2.714c-0.662,1.603-1.447,3.065-2.29,3.931l-1.871,1.92l0.698-2.585
	c0.086-0.32,0.431-0.994,0.771-1.66c0.246-0.483,0.493-0.964,0.603-1.234c0.192-0.471,0.366-0.933,0.536-1.416
	c0.158-0.452,0.325-0.964,0.511-1.549c0.983-3.113,1.46-6.628,1.506-10.21c0.05-3.839-0.394-7.765-1.235-11.368l-0.761-3.255
	l1.152,1.544c-0.206-0.67-0.429-1.325-0.661-1.97c-0.31-0.858-0.683-1.809-1.065-2.777c-1.447-3.658-2.877-6.558-4.65-9.133
	c-1.773-2.574-3.906-4.848-6.767-7.26c-0.897-0.757-1.784-1.455-2.685-2.114c-0.903-0.661-1.824-1.283-2.789-1.889l-0.64-0.369
	c-0.541-0.307-1.158-0.656-1.432-0.904l-1.324-1.2l1.788-0.011c0.858-0.005,1.852,0.283,2.874,0.721l-0.446-0.239
	c-0.245-0.128-0.489-0.257-0.803-0.447c-0.476-0.285-1.045-0.537-1.617-0.792c-0.419-0.186-0.84-0.373-1.202-0.556l-3.142-1.585
	l1.094,0.083c-0.73-0.263-1.412-0.49-1.929-0.653c-3.599-1.136-7.378-2.195-11.234-2.878c-3.84-0.68-7.757-0.988-11.645-0.625
	c-6.048,0.564-11.486,2.31-16.162,4.836c-5.132,2.772-9.342,6.485-12.435,10.606c-2.564,3.418-5.499,8.468-7.393,14.188
	c-1.44,4.347-2.276,9.075-1.881,13.748c0.135,1.599,0.365,3.081,0.817,4.402c0.438,1.284,1.092,2.427,2.082,3.391
	c0.752,0.732,1.903,1.445,3.239,1.774c1.05,0.259,2.216,0.277,3.388-0.124c0.617-0.212,1.278-0.531,1.849-0.901
	c0.507-0.328,0.94-0.691,1.197-1.041c0.274-0.374,0.52-0.972,0.59-1.626c0.055-0.511,0-1.047-0.234-1.516
	c-0.25-0.501-0.524-0.913-0.796-1.322c-0.441-0.666-0.883-1.331-1.308-2.455c-0.226-0.598-0.422-1.23-0.597-1.871
	c-0.185-0.673-0.333-1.284-0.473-1.874c-0.013-0.058-0.017-0.112-0.012-0.164l-0.775,0.928l-0.364-1.256
	c-1.654-5.708,0.332-10.866,0.91-12.369c0.064-0.169,0.097-0.193,0.101-0.233l1.385,0.145l-0.002,0.023
	c-0.029,0.269-0.077,0.535-0.131,0.812c0.269-0.399,0.543-0.755,0.798-1.012l1.721-1.733l-0.549,2.379
	c-0.081,0.353-0.314,1-0.588,1.762c-0.35,0.974-0.771,2.147-0.996,3.047l-0.14,0.614l1.091-1.373l-0.033,0.907l0.312-0.919
	c0.22-0.627,0.451-1.247,0.721-1.919c0.257-0.64,0.514-1.271,0.778-1.891c0.26-0.61,0.531-1.22,0.825-1.833l0.227-0.473
	c0.485-1.023,0.966-2.029,1.609-3.124c0.889-1.514,2.15-3.025,3.57-4.434c1.379-1.369,2.915-2.649,4.403-3.748
	c-0.525,0.271-1.044,0.568-1.552,0.885c-2.445,1.527-4.645,3.527-6.289,5.536c-0.081,0.097-0.234,0.302-0.398,0.522
	c-0.339,0.452-0.722,0.965-0.975,1.176l-1.212,1.014l0.07-1.578c0.03-0.677,0.451-1.566,1.009-2.456
	c0.785-1.25,1.864-2.557,2.442-3.19c2.251-2.466,5.148-4.691,8.313-6.527c3.297-1.911,6.896-3.406,10.371-4.314
	c3.764-0.984,8.021-1.26,12.195-0.878c4.178,0.383,8.28,1.423,11.738,3.07l0.734,0.371c0.704,0.382,1.357,0.759,2.001,1.242
	c0.062,0.057,0.088,0.09,0.149,0.164l1.313,1.595l-1.827-0.364l0.238,0.129c0.482,0.264,0.885,0.471,1.28,0.674l0.682,0.35
	c1.519,0.793,3.495,2.037,5.294,3.391c1.524,1.148,2.938,2.388,3.862,3.518c1.073,1.313,2.042,2.633,2.949,4.052
	c0.902,1.411,1.734,2.907,2.539,4.577c3.366,6.982,4.997,13.923,4.792,20.66c-0.201,6.63-2.178,13.05-6.021,19.102
	c-3.902,6.146-8.851,10.71-14.632,13.752c-5.947,3.129-12.771,4.641-20.24,4.604c-3.727-0.018-6.94-0.528-9.869-1.36
	c-2.922-0.829-5.565-1.979-8.162-3.281c-1.295-0.649-2.579-1.389-3.816-2.183c-1.069-0.687-2.113-1.418-3.109-2.174l0.628,0.542
	c1.022,0.858,2.104,1.693,3.212,2.453c1.007,0.689,2.038,1.322,3.068,1.855l0.569,0.28c0.646,0.31,1.454,0.697,1.856,1.033
	l1.615,1.353l-2.101-0.123c-1.052-0.062-2.46-0.704-3.894-1.559c-1.178-0.7-2.391-1.553-3.429-2.333l0.516,0.583l-2.659-1.195
	c0.467,0.409,0.93,0.79,1.395,1.152c0.725,0.567,1.477,1.111,2.257,1.665c0.721,0.514,1.533,1.083,2.351,1.601
	c0.813,0.515,1.64,0.985,2.398,1.306c0.413,0.175,0.779,0.367,1.139,0.556c0.459,0.241,0.913,0.479,1.399,0.637
	c0.266,0.088,0.521,0.207,0.79,0.333c0.187,0.088,0.385,0.18,0.601,0.264l0.674,0.253l0.69,0.239
	c4.232,1.422,8.07,2.146,12.152,2.168c4.096,0.021,8.465-0.664,13.749-2.061c2.087-0.551,4.038-1.179,5.876-1.879
	c1.838-0.701,3.551-1.475,5.162-2.316l7.26-3.795L96.126,110.238z"/>
<text transform="matrix(1 0 0 1.3963 27.6323 101.3271)" font-family="'TraditionalArabic'" font-size="18.9277">VIII</text>
</svg>
