<?xml version="1.0" encoding="utf-8"?>
<!-- Generator: Adobe Illustrator 16.0.0, SVG Export Plug-In . SVG Version: 6.00 Build 0)  -->
<!DOCTYPE svg PUBLIC "-//W3C//DTD SVG 1.1//EN" "http://www.w3.org/Graphics/SVG/1.1/DTD/svg11.dtd">
<svg version="1.1" id="Capa_1" xmlns="http://www.w3.org/2000/svg" xmlns:xlink="http://www.w3.org/1999/xlink" x="0px" y="0px"
	 width="141.732px" height="141.732px" viewBox="0 0 141.732 141.732" enable-background="new 0 0 141.732 141.732"
	 xml:space="preserve">
<polygon fill-rule="evenodd" clip-rule="evenodd" fill="#FF0009" points="70.866,40.213 102.756,47.876 134.646,55.54 
	134.646,70.866 134.646,86.193 102.756,93.856 70.866,101.52 38.977,93.856 7.086,86.193 7.086,70.866 7.086,55.54 38.977,47.876 
	"/>
<polygon fill-rule="evenodd" clip-rule="evenodd" fill="#FFFFFF" points="70.866,13.973 95.501,28.197 120.137,42.42 
	120.137,70.867 120.137,99.313 95.501,113.537 70.866,127.76 46.23,113.537 21.595,99.313 21.595,70.867 21.595,42.42 46.23,28.197 
	"/>
<polygon fill="none" stroke="#000000" stroke-width="2.0211" stroke-miterlimit="22.9256" points="70.866,13.973 95.501,28.197 
	120.137,42.42 120.137,70.867 120.137,99.313 95.501,113.537 70.866,127.76 46.23,113.537 21.595,99.313 21.595,70.867 
	21.595,42.42 46.23,28.197 "/>
<path fill-rule="evenodd" clip-rule="evenodd" fill="#141515" d="M57.146,68.838c-1.484,1.502-1.405,2.06-0.369,4.064
	c0.536,1.037,0.647,1.77,2.171,2.322l0.813,0.24c1.209,0.475,1.945,6.704,1.935,8.362c-0.008,1.356,0.501,1.68,1.083,2.393
	L56.7,99.748c-0.238,0.542-0.668,1.282-0.902,1.873c-0.054-1.545,0.305-2.567,0.432-4.021c-1.432,0.548-4.562,4.565-4.809,5.33
	c0.477,0.063,3.338,1.808,4.262,2.231c12.09,5.548,25.879,4.733,36.854-2.357c-0.678-1.045-3.519-4.911-4.841-5.214
	c0.207,1.394,0.422,2.283,0.467,3.831c-0.445-0.426-0.735-1.28-0.983-1.834c-0.272-0.607-0.535-1.219-0.83-1.869
	c-0.563-1.246-1.04-2.331-1.728-3.813l-3.425-7.687c1.859-2.395,0.644-1.102,1.361-5.104c1.093-6.101,0.853-5.369,2.409-5.854
	c1.714-0.533,1.771-1.402,2.365-2.557c1.752-3.411-0.862-2.963-0.377-4.546c1.063-3.46,2.228-7.308,0.885-11.192
	c-0.155-0.45-0.317-0.89-0.451-1.174c-3.963-8.483-16.733-12.091-25.751-5.783c-4.605,3.22-6.784,7.666-5.798,13.477
	C56.154,65.337,56.938,67.187,57.146,68.838 M82.868,59.962c-0.807-0.256-1.103-0.642-2.146-0.751
	c0.025,0.037,0.063,0.048,0.076,0.11c0.016,0.069,0.125,0.169,0.151,0.199c0.019,0.021,0.194,0.197,0.227,0.229l1.549,1.589
	c1.903,1.86,1.731,4.099,1.715,6.602c-0.014,2.143,0.638,1.564,1.263,2.846c0.142,0.864-0.805,1.941-2.652,1.237
	c0.188,0.423,0.325,0.488,0.405,1.047c-0.795,0.851-3.135,1.232-2.956-1.248c-4.12,0.742-2.623,4.709-2.686,5.768
	c-0.633-0.338-0.098-0.125-0.507-0.342c-0.354-0.187-0.263-0.125-0.726-0.119l-0.26-0.929c-0.235,0.168-0.086,0.413-0.646,0.916
	c-1.039-0.488-0.92-0.697-1.473-1.548l-0.422,1.249c-0.604-0.184-0.804-0.351-1.401-0.201c-0.111-0.535-0.117-0.611-0.394-0.98
	l-0.298,0.938c-0.735,0.038-0.883,0.09-1.362,0.292l-0.317-1.048c-0.453,0.264-0.008-0.076-0.436,0.397
	c-0.215,0.238-0.096,0.146-0.373,0.385c-0.278,0.239-0.468,0.451-0.867,0.595c-0.209-0.311-0.393-0.713-0.596-0.995
	c-0.142,0.411-0.193,0.436-0.25,0.947c-1.002-0.021-0.505,0.148-1.276,0.388c-0.107-1.54,0.702-2.187-0.028-3.846
	c-0.401-0.91-1.373-1.73-2.65-1.856c0.024,0.585,0.081,0.785-0.157,1.185c-0.57,0.963-2.263,0.938-2.83-0.134
	c0.152-0.474,0.153-0.271,0.348-0.803c-1.622,0.267-2.489,0.101-2.592-1.485c2.311-2.076,0.584-2.933,1.517-6.663
	c0.423-1.694,1.804-3.059,3.043-4.162l0.383-0.361c0.019-0.021,0.052-0.071,0.067-0.089s0.044-0.061,0.067-0.09
	c-1.076,0.085-1.639,0.675-2.339,0.721c-0.425-2.399-0.383-2.973,0.412-5.018c-0.376,0.098-0.431,0.203-0.748,0.583
	c-2.019,2.419-1.049,4.758-1.09,5.366c-0.02,0.299-0.725,1.801-0.845,1.975l-0.201-2.256l-0.707-0.141
	c-0.038-2.761,1.76-5.667,3.759-7.337c0.227-0.189,0.526-0.48,0.887-0.747c2.998-2.218,6.427-3.668,10.833-3.261
	c0.538,0.05,0.967,0.069,1.503,0.174c0.873,0.17,1.612,0.386,2.438,0.712c1.533,0.604,2.907,1.383,4.118,2.32
	c1.269,0.981,2.171,1.803,3.079,3.218c0.747,1.164,1.844,3.049,1.558,4.907l-0.606,0.234l-0.197,2.152
	c-0.143-0.207-0.822-1.891-0.822-2.074c0.001-0.884,0.405-1.307,0.132-2.593c-0.351-1.643-1.238-3.072-2.212-3.672
	C83.243,55.981,83.604,58.688,82.868,59.962z M63.126,78.06c0.197,0.173-0.041-0.133,0.156,0.198
	c0.078,0.131,0.068,0.135,0.14,0.276c0.231,0.453,0.122,0.339,0.433,0.684c-0.066-0.709-0.305-1.049,0.038-1.542
	c-0.08,0.872,1.145,5.9,2.985,7.423l0.631-0.387c0.238,0.638,0.451,0.979,0.67,1.36c0.53-0.133,0.547-0.284,0.848-0.631
	c0.58,0.213,0.352,0.195,0.821,0.497c0.675,0.433,0.406,0.125,0.687,0.058c0.03-0.008,0.072-0.028,0.104-0.034
	c0.969-0.172-0.188-0.114,0.337-0.014c0.415,0.079,0.582,0.478,1.138,0.718c1.238-1.35,1.186-0.646,1.734-0.507l0.927-0.696
	c0.584,0.285,0.456,0.422,1.096,0.628c0.204-0.347,0.398-0.768,0.535-1.284c1.15,0.227,0.678,0.727,1.584-0.618
	c0.462-0.685,0.698-1.127,0.993-1.996c0.425-1.252,0.806-3.591,1.325-4.521c-0.006,0.736-0.229,1.225,0.081,1.682
	c0.051-0.452,0.073-0.553,0.38-0.932c-0.113,1.004-0.404,2.163-0.576,3.171c-0.302,1.777,0.118,1.777-0.903,2.847
	c-2.432,2.546-1.557,2.446-3.143,4.333c-1.119,0.089-1.698-0.291-2.836-0.093c-1.73,0.301-0.424,0.535-2.401,0.048
	c-2.769-0.684-2.424,1.504-4.209-1.763c-0.47-0.859-0.689-1.219-1.288-1.868c-1.999-2.168-1.176-1.062-1.795-4.531
	C63.474,79.766,63.231,78.865,63.126,78.06z M71.294,77.729c0.495,0.587,0.528,1.559-0.516,1.257
	c-0.396-0.114-0.493-0.3-0.346-0.822C70.575,77.656,70.842,77.683,71.294,77.729z M72.709,77.719l0.778,0.041
	c0.109,0.4,0.176,0.724,0.02,1.198c-1.053,0.11-0.857,0.111-1.022-0.173C72.258,78.396,72.582,77.917,72.709,77.719z M75.486,79.285
	c-0.632,0.002-0.605-0.025-1.097-0.318C74.315,77.389,76.066,77.297,75.486,79.285z M69.082,77.852
	c0.46,0.295,0.562,0.418,0.557,1.15c-0.345,0.225-1.07,0.586-1.253-0.181C68.206,78.064,68.677,77.924,69.082,77.852z
	 M67.714,79.536c-0.461-0.064-0.676-0.063-0.971-0.262C66.433,77.972,67.791,77.857,67.714,79.536z M76.424,79.368
	c-0.058-0.133-0.109-0.058-0.091-0.301c0.025-0.324,0.418-1.044,0.853-0.653C77.62,78.804,77.411,79.741,76.424,79.368z
	 M68.155,83.65c-0.935,0.21-1.549-0.577-1.039-1.041c0.346-0.315,0.596-0.019,0.76,0.171C68.266,83.231,68.229,83.235,68.155,83.65z
	 M75.814,83.672c0.077-1.231,1.156-1.751,1.183-0.449C76.607,83.832,76.563,83.728,75.814,83.672z M69.064,84.44l-0.186-1.2
	c0.641-0.029,1.043-0.162,1.06,0.441C69.954,84.225,69.605,84.439,69.064,84.44z M75.104,83.224c0.014,0.49-0.057,0.861-0.187,1.19
	c-0.573-0.007-0.783-0.088-0.851-0.634C73.979,83.073,74.518,83.211,75.104,83.224z M70.581,83.667
	c1.403-0.131,1.407,0.963,0.449,1.312C70.326,84.703,70.385,84.408,70.581,83.667z M72.978,84.972
	c-0.378-0.141-0.307-0.118-0.569-0.395c-0.021-0.585,0.155-1.413,0.959-0.868C73.875,84.055,73.619,84.754,72.978,84.972z
	 M64.437,101.247c-0.345-0.428-0.224-1.07-0.214-1.69c0.01-0.546,0.046-1.261,0.012-1.79c-0.03-0.464-0.729-2.25-0.997-2.49
	c-0.181,0.285-0.534,1.548-0.823,2.107c-0.558,1.079-0.299,1.453-0.408,2.741l-1.125,0.055c-0.005,0.508,0.005,0.983,0.02,1.483
	c0.017,0.626,0.04,1.204-0.511,1.106c-0.335-0.186-0.116,0.144-0.279-0.375c-0.368-1.164,0.28-2.684,0.63-3.534
	c1.307-3.176,2.896-7.539,4.184-10.353c0.917,0.929,0.844,1.656,2.438,2.149c1.161,0.359,7.737,0.383,8.961,0.088
	c1.548-0.373,1.906-1.108,2.663-2.08l0.58,1.302c0.735,1.92,4.007,10.008,4.051,10.61l-1.44-0.007l-0.05-1.708
	c-0.989-0.244-0.845-0.349-1.589,0.161c-0.264,1.427,0.192,4.589-0.221,5.207c-0.52-0.049-0.355,0.37-0.694-1.29
	c-0.11-0.54-0.244-1.081-0.356-1.593l-2.125-9.561l-2.424,0.326c0.067,1.985,2.322,11.013,2.162,11.79
	c-0.09,0.442,0.121,0.029-0.158,0.352c-0.333-0.156-0.137,0.035-0.28-0.369c-0.23-0.648,0.232-0.191-0.587-1.669
	c-0.482-0.869-0.27-1.573-0.332-2.645l-1.157-0.041c-0.028-0.409,0.056-1.604-0.104-1.86c-0.299-0.481-1.215-0.216-1.469,0.055
	c-0.474,0.506-0.215,2.83-0.225,3.655l-0.791-0.002c-0.531-1.133,0.261-3.063-0.389-4.135c-0.385-0.636-0.633-0.623-0.675-1.574
	c-0.03-0.681,0.082-1.582-0.135-2.117c-0.309,0.357-0.292,1.002-0.303,1.507c-0.064,3.029-0.675,0.458-1.006,4.347
	c-0.456,0.241-0.521,0.08-0.97,0.3l-0.027,3.011l-1.085,0.066l2.178-10.651l-2.549-0.352
	C66.57,93.083,64.853,100.622,64.437,101.247z"/>
<path fill-rule="evenodd" clip-rule="evenodd" d="M77.036,34.705c0.408-1.943-2.783-3.143-4.957-3.154
	c-2.221-0.011-5.316,1.017-5.1,3.145c1.106,0.719,2.517,0.56,4.05,0.706c-0.223,0.185,0.024,0.049-0.33,0.164l-4.295,0.616
	c-1.554,0.325-2.791,0.788-4.214,1.087c-0.311-0.184-0.024-0.01-0.293-0.194c-0.195-0.133-0.049-0.041-0.271-0.19
	c-4.291-2.903-10.958,1.024-8.5,2.382c0.082,0.045,0.352,0.122,0.432,0.143c1.054,0.271,2.071,0.338,3.199,0.39
	c-0.514,0.399-1.03,0.659-1.576,1.05c-0.985,0.706-0.832,0.474-2.229,0.489l-0.023,1.067c-0.921,0.181-5.108,3.833-5.274,4.401
	c-1.946-0.084-2.715-0.547-4.758,0.19c-1.035,0.373-2.998,1.426-2.455,2.664c0.587,0.823,2.721,0.853,4,0.914l-1.433,2.342
	l-0.449-0.772l-1.882,0.004c-0.453,2.103,1.084,3.042,0.497,4.354c-0.605,1.353-1.102,2.516-1.511,3.75
	c-1.146-0.139-1.544-0.555-2.554-0.116l0.033,1.103c0.585,0.321,1.254,0.408,2.066,0.514l-0.738,3.538
	c-1.623-0.342-4.721,1.168-4.436,3.097c1.156,0.676,2.511,0.629,4.112,0.689l-0.02,2.391l-1.261,0.005
	c-0.244-0.487,0.033-0.228-0.3-0.692h-2.014c0.059,5.592,3.227,4.495,4,5.401c0.336,0.987,0.322,2.381,0.861,3.249
	c0.487-0.255-0.41,0.497,0.207-0.189c1.755-1.951,1.003-1.548,1.015-3.359c3.623-1.934,2.255-2.923,3.025-4.997
	c-0.688-0.162-1.441-0.134-2.149-0.066c-0.324,0.908-0.346,0.654-1.365,0.661l-0.008-2.347c5.138-0.292,10.308,0.189,15.445-0.141
	c0.264-0.57,0.214-1.233-0.165-1.896l-8.213,0.002c-1.968-0.002-2.794,0.374-3.911-0.644c-0.519-0.472-1.747-1.152-2.779-1.137
	l0.708-3.154l13.518,2.057l-0.279-1.613l-12.639-1.953c-0.008-1.058,0.85-2.481,1.137-3.439c1.494,0.31,1.759,0.744,3.497,0.379
	c1.607-0.337,1.666-0.979,2.553-1.39l5.491,3.041l0.315-1.773l-4.916-2.867l0.226-2.451l-2.021-0.013l-0.15,0.764
	c-1.01,0.06-1.477-0.003-2.267-0.075c0.268-0.545,1.326-2.052,1.679-2.244c1.24-0.676,4.919-0.003,2.22-2.725
	c0.394-0.772,3.292-3.234,4.063-3.611c0.407,0.345,0.658,0.841,1.045,1.217c1.579,1.534,3.184,1.128,5.053,0.793l1.562,2.79
	l1.422-1.04l-0.364-0.765c-2.199-4.139,0.043-0.96,0.037-5.847l-2.067-0.006l-0.244,0.868l-0.985-0.017
	c-0.185-0.289-0.422-0.769-0.532-1.163c2.544-1.128,5.701-2.847,8.71-2.97c0.553,1.103,0.235,1.938,1.213,3.141
	c0.476,0.586,1.117,1.029,1.833,1.302l0.741,0.361l-0.021,3.008l1.941,0.059l-0.002-3.223c2.365-0.485,3.373-2.16,3.604-4.652
	c1.599,0.005,3.285,0.673,4.796,1.201c1.574,0.55,2.75,1.28,4.081,1.79l-0.433,1.145l-1.121-0.057
	c-0.098-0.253-0.058-0.262-0.131-0.456c-0.117-0.309-0.005-0.127-0.169-0.335l-1.988-0.006c-0.015,0.772,0.037,1.526,0.257,2.214
	c0.261,0.814,0.606,1.066,0.8,1.709c-0.212,0.264-1.25,2.152-1.371,2.891c0.538,0.215,0.847,0.565,1.438,0.804l1.398-2.719
	c1.54,0.232,2.136,0.647,3.769,0.036c1.042-0.39,1.841-1.135,2.26-2.08c0.901,0.331,1.602,1.091,2.277,1.673
	c0.528,0.456,1.605,1.489,1.896,1.916c-2.651,2.599,0.628,2.226,2.167,2.672c0.628,0.182,1.732,1.688,1.519,2.421l-1.684-0.002
	l-0.299-0.769l-2.225-0.009l0.293,2.46c-1.439,0.557-3.582,2.083-4.946,2.859l0.47,1.719l5.358-2.994
	c0.589,0.354,0.649,0.612,1.209,0.952c1.352,0.822,3.271,0.576,4.611,0.052c0.276,0.471,1.256,2.732,1.295,3.357l-12.575,2.088
	l-0.254,1.593l13.446-2.073l0.575,3.125c-1.928,0.265-3.144,1.822-3.962,1.819l-7.941-0.011c-1.859-0.004-2.769-0.36-3.092,0.612
	c-0.286,0.856-0.143,0.774,0.175,1.464c0.924-0.271,13.489-0.104,15.275-0.085l-0.112,2.387l-1.158-0.014
	c-0.247-0.53,0.076-0.194-0.3-0.667l-1.917,0.023c0.01,2.067,0.668,4.603,3.011,5.023c-0.142,0.968-0.449,1.475-0.033,2.124
	c0.223,0.349,0.972,1.313,1.188,1.487c0.552-0.721,0.416-2.662,0.879-3.265c1.239-0.807,1.947-0.265,3.055-1.76
	c0.913-1.231,0.912-1.889,0.995-3.618l-2.082-0.003c-0.346,0.662,0.093,0.541-0.478,0.683c-0.301,0.075-0.629-0.048-1.095,0.078
	l0.024-2.473c1.598-0.149,2.83-0.042,4.084-0.69c0.29-2.013-2.447-3.045-4.42-3.222c-0.2-0.68-0.681-2.887-0.628-3.475
	c0.791-0.082,2.469-0.116,2.002-1.331c-0.319-0.833-1.495-0.187-2.487-0.171c-0.464-0.687-0.653-1.712-0.985-2.502
	c-1.053-2.498-0.901-1.149-0.21-3.233c0.292-0.881,0.212-1.443,0.369-2.326l-2.021,0.009l-0.15,0.764
	c-0.548-0.217-0.655-0.606-0.969-1.081c-0.3-0.455-0.551-0.702-0.73-1.3c2.313-0.067,5.82-0.403,3.046-2.663
	c-1.744-1.422-3.726-1.431-6.141-1.024c-0.871-0.731-4.3-4.259-5.442-4.442l-0.031-1.057c-1.272-0.077-1.287,0.216-2.246-0.445
	c-0.505-0.347-0.986-0.662-1.515-1.081c1.107-0.166,2.2-0.148,3.266-0.462c3.126-0.923-3.084-5.245-7.6-2.818
	c-2.014,1.083-0.339,0.743-4.564-0.205l-5.195-0.874c-0.024-0.056-0.087-0.036-0.127-0.061C74.424,35.34,76.09,35.306,77.036,34.705
	 M71.048,37.773c-0.273,0.259,0.086,0.091-0.326,0.227c-0.006,0.002-0.436,0.05-0.444,0.05c-0.914-0.001-0.526-0.069-0.695-0.286
	L71.048,37.773z M73.001,37.82c0.355-0.149,1.05-0.141,1.44,0c-0.131,0.141,0.143,0.067-0.27,0.195
	c-0.007,0.002-0.43,0.046-0.442,0.046C72.916,38.065,73.057,37.876,73.001,37.82z"/>
<path fill-rule="evenodd" clip-rule="evenodd" d="M53.446,80.395c-0.556-0.424-1.491,0.068-2.12,0.201
	c-0.77,0.163-1.739-0.003-2.406,0.308c-5.183,2.407-3.086,1.782-5.095,5.681c-0.336,0.651-0.623,1.139-0.962,1.737
	c-0.231,0.408-0.647,1.7-1.209,1.198c-0.174-0.155-0.298,0.34-0.073-0.487l0.724-1.269c1.321-2.294,1.083-1.502,0.583-3.987
	c-0.241-1.199,0.126-1.16,0.664-1.959c0.376-0.558,0.594-1.146,1.113-1.592c0.816-0.7,2.502-1.754,1.71-3.216
	c-0.436-0.803-0.982-0.395-1.653-0.014c-2.369,1.347-1.712,0.453-3.112,2.28c-1.37,1.788-2.268,2-2.291,3.051
	c-0.032,1.463,0.64,3.606,0.138,4.98c-0.659,1.805-1.14,0.932,0.458,3.669c2.331,3.994,6.497,8.848,10.438,11.146
	c1.326-1.303,2.914-4.745,4.479-5.584c1.773-0.948,0.844-0.562,1.916-1.977c0.333-0.44,0.516-0.67,0.85-1.096
	c0.531-0.677,1.413-1.854,0.081-2.44c-0.965-0.425-2.135,0.371-2.725,0.846c-2.525,2.031-1.89,2.938-4.643,3.228l-0.296-1.047
	c-0.069-0.221-0.253-0.766-0.274-0.951c-0.098-0.882,2.375-4.932,2.396-4.95c0.273-0.248,2.75-1.155,3.417-1.525
	c1.012-0.563,2.508-1.454,1.266-2.699c-0.647-0.144-3.044,0.57-3.789,0.771c-2.099,0.566-2.701,0.459-3.372,1.427
	c-0.484,0.697-3.478,5.135-4.388,5.16c-0.063-0.613,0.352-0.902,0.952-1.551c1.889-2.042,1.119-4.186,2.277-5.068
	c2.066-1.573,1.753-1.102,3.371-1.583C54.018,82.441,54.244,80.96,53.446,80.395 M48.596,99.46
	c-0.893-0.607-0.667-0.412-0.427-1.603c0.145-0.719,0.192-1.355,0.485-1.899L48.596,99.46z"/>
<path fill-rule="evenodd" clip-rule="evenodd" d="M104.386,90.359c1.588-2.771-0.043-1.762-0.1-3.982
	c-0.031-1.232,0.667-4.139,0.005-4.949c-0.439-0.538-0.921-0.859-1.428-1.418c-0.48-0.53-0.753-1.071-1.219-1.616
	c-0.372-0.436-2.986-1.793-3.655-1.881c-1.399,1.368-0.21,2.563,0.647,3.241c1.23,0.974,1.038,1.063,2.204,2.737
	c0.771,1.106-0.664,2.526-0.036,3.764c0.446,0.88,1.538,2.38,1.699,3.262c-0.945,0.174-0.926-0.354-1.39-1.166
	c-3.822-6.696-0.354-4.49-6.037-7.443c-0.612-0.318-1.572-0.145-2.381-0.313c-0.667-0.139-1.612-0.598-2.136-0.19
	c-0.613,0.509-0.487,1.24,0.021,1.85c0.955,1.141,2.416,0.648,3.574,1.521c2.822,2.127,1.337,0.711,2.67,4.673
	c0.329,0.977,2.075,2.256,1.925,2.729c-0.387,0.156-0.263,0.095-0.69-0.354c-0.243-0.256-0.341-0.377-0.562-0.651
	c-1.483-1.837-1.28-1.187-3.146-4.05c-0.682-1.046-1.943-1.024-3.375-1.421c-0.964-0.267-2.904-0.979-4.005-0.676
	c-0.752,1.596,0.604,2.103,1.778,2.762l2.938,1.256c0.511,0.316,0.778,1.227,1.132,1.869c2.117,3.845,1.404,2.475,0.822,5.174
	c-1.715-0.082-1.865-0.553-2.692-1.364c-1.01-0.99-3.1-3.529-4.722-2.644c-1.557,0.851,0.366,2.56,1.086,3.581
	c0.203,0.288,0.581,1.018,0.755,1.211c0.541,0.6,1.145,0.276,2.181,1.698c1.113,1.528,2.073,2.849,3.255,4.533
	c0.95-0.21,3.915-2.925,4.759-3.779l2.723-2.963C102.426,93.548,103.246,92.348,104.386,90.359 M94.213,96.409l0.481-1.94
	c0.499,0.851,0.325,1.048,0.974,1.876c0.573,0.732,0.464,1.37,0.379,2.462l-0.814,0.715c-0.083-0.574-0.053-1.441-0.131-1.895
	C95.023,97.173,94.483,96.827,94.213,96.409z"/>
<path fill-rule="evenodd" clip-rule="evenodd" d="M65.5,70.492c5.466-0.359,7.035-12.298-1.249-9.178
	c-1.462,0.55-2.303,1.121-2.927,2.163c-0.626,1.047-0.935,2.943-0.481,4.315c1.01,3.052,4.742,1.392,6.718,0.323
	C67.093,69.223,66.211,69.661,65.5,70.492"/>
<path fill-rule="evenodd" clip-rule="evenodd" d="M76.57,68.135c2.046,1.115,5.941,2.758,6.675-0.689
	c0.72-3.386-1.15-5.458-3.692-6.234c-3.043-0.93-5.806-0.222-5.52,3.885c0.177,2.534,2.033,5.404,4.609,5.38
	C78.036,69.87,76.798,69.085,76.57,68.135"/>
<path fill-rule="evenodd" clip-rule="evenodd" d="M73.278,72.897c0.619-0.161,1.36-0.805,1.464-1.395
	c0.082-0.462-1.397-5.313-2.799-5.201c-1.245,0.099-2.813,4.7-2.643,5.318c0.144,0.521,0.849,1.147,1.43,1.276
	c0.702-0.431,0.665-0.731,1.198-1.198C72.405,71.891,72.638,72.525,73.278,72.897"/>
<path fill-rule="evenodd" clip-rule="evenodd" d="M89.209,71.385c0.799,0.413,5.041,0.9,6.438,1.136
	c1.725,0.291,1.876,0.283,1.908-0.987c-0.736-0.492-7.784-1.364-8.333-1.248L89.209,71.385z"/>
<path fill-rule="evenodd" clip-rule="evenodd" d="M52.898,90.394c0.524,0.602,0.937,0.481,1.408,0.088
	c1.699-1.419,1.545-0.108,2.621-1.882l2.605-4.137c0.771-1.282,1.221-1.324,0.709-3.16c-0.485,0.242-1.52,1.655-1.92,2.07
	c0.225,1.142,0.699,1.386-0.024,2.701c-0.938,1.707-2.956,1.917-3.904,2.689C53.819,89.231,53.624,89.848,52.898,90.394"/>
<path fill-rule="evenodd" clip-rule="evenodd" d="M91.081,90.565c-0.221-0.31-1.258-1.638-1.56-1.86
	c-1.059-0.779-3.034-1.007-3.938-2.794c-0.499-0.985-0.205-1.759,0.119-2.577c-0.911-0.822-1.139-1.654-1.976-2.134
	c-0.196,2.389-0.402,1.389,0.749,3.264c0.649,1.055,1.12,1.742,1.762,2.732c0.789,1.219,1.113,2.171,2.011,2.488
	C89.689,90.194,89.73,91.267,91.081,90.565"/>
<path fill-rule="evenodd" clip-rule="evenodd" d="M54.891,82.783c2.376-0.379,1.687-0.118,3.392-1.817
	c0.446-0.443,0.875-0.797,1.297-1.26c0.562-0.615,0.171-0.927,0.051-1.859c-0.539,0.234-2.218,1.756-2.731,2.188
	C55.983,80.807,54.959,81.504,54.891,82.783"/>
<path fill-rule="evenodd" clip-rule="evenodd" d="M84.516,77.833c-0.979,1.526,0.176,2.16,1.349,3.292
	c1.903,1.838,0.788,1.051,3.389,1.717c-0.132-0.285-0.659-1.494-0.859-1.697L84.516,77.833z"/>
<path fill-rule="evenodd" clip-rule="evenodd" d="M93.085,79.176c-0.454-0.372-1.358-0.774-1.923-1.097
	c-3.871-2.205-3.731-2.865-5.592-1.447c1.174,0.625,2.17,1.365,3.332,2.053c1.313,0.776,0.676,0.304,1.907,0.186
	C91.703,78.784,92.216,79.13,93.085,79.176"/>
<path fill-rule="evenodd" clip-rule="evenodd" d="M50.726,79.257c0.769-0.078,1.474-0.436,2.312-0.371
	c1.313,0.103,0.641,0.603,1.936-0.181l2.617-1.58c0.194-0.127,0.291-0.209,0.461-0.287c0.347-0.158,0.08-0.083,0.461-0.137
	c-0.348-0.328-0.639-0.455-1.084-0.709c-0.5-0.286-0.356-0.305-0.941,0.015C55.147,76.738,51.902,78.729,50.726,79.257"/>
<path fill-rule="evenodd" clip-rule="evenodd" d="M56.495,53.954c0.334-0.392,0.571-0.754,0.779-1.149l-2.958-2.62
	c-0.292-0.25-0.84-0.583-1.25-0.058c-0.688,0.88,0.893,1.84,1.758,2.553C55.297,53.069,55.891,53.708,56.495,53.954"/>
<path fill-rule="evenodd" clip-rule="evenodd" d="M86.757,52.805c0.215,0.445,0.476,0.699,0.73,1.168
	c0.941-0.521,2.126-1.744,3.063-2.477c0.304-0.237,0.825-0.625,0.476-1.271C90.367,49.009,87.876,51.79,86.757,52.805"/>
<path fill-rule="evenodd" clip-rule="evenodd" d="M90.524,75.107c0.593,0.219,2.16,1.057,2.399-0.003
	c0.232-1.028-1.141-1.12-1.919-1.375c-0.602-0.196-1.759-0.651-2.463-0.689l-0.42,1.192C88.836,74.576,89.779,74.831,90.524,75.107"
	/>
<path fill-rule="evenodd" clip-rule="evenodd" d="M83.317,85.803c-1.011,0.908-0.726,1.31-0.089,2.455
	c0.363,0.655,0.974,1.983,1.438,2.411l1.137-1.003C85.316,88.795,83.947,86.461,83.317,85.803"/>
<path fill-rule="evenodd" clip-rule="evenodd" d="M51.369,75.462c0.923,0.272,3.591-0.924,4.598-1.178l-0.559-1.332
	c-0.714,0.134-3.57,1.117-4.193,1.432L51.369,75.462z"/>
<path fill-rule="evenodd" clip-rule="evenodd" d="M60.451,88.828c0.327-0.583,0.711-1.278,1.012-1.877l-0.772-1.165
	c-0.594,0.589-1.956,2.963-2.409,3.88l1.061,1.036L60.451,88.828z"/>
<path fill-rule="evenodd" clip-rule="evenodd" d="M66.201,46.537l1.377-0.326c-0.124-0.789-0.358-1.542-0.535-2.306
	c-0.146-0.632-0.195-1.887-1.195-1.656C64.578,42.542,65.957,45.554,66.201,46.537"/>
<path fill-rule="evenodd" clip-rule="evenodd" d="M76.449,46.211l1.361,0.334l0.706-2.443c0.188-0.649,0.591-1.499-0.267-1.813
	c-0.948-0.348-1.07,0.818-1.237,1.504C76.832,44.532,76.505,45.447,76.449,46.211"/>
<path fill-rule="evenodd" clip-rule="evenodd" d="M50.038,72.127c0.32-0.943-0.033-1.374-1.057-1.212
	c-0.493,0.078-2.256,0.281-2.488,0.516c-0.652,0.661-0.06,1.389,1.037,1.203C48.322,72.5,49.457,72.358,50.038,72.127"/>
<path fill-rule="evenodd" clip-rule="evenodd" d="M54.735,71.512L54.68,70.22c-0.704,0.025-1.343,0.127-1.982,0.208
	c-0.688,0.086-1.451,0.021-1.457,0.809C51.229,72.539,53.764,71.627,54.735,71.512"/>
<path fill-rule="evenodd" clip-rule="evenodd" d="M47.257,75.73c0.194,0.368,0.473,0.813,0.624,1.278
	c0.315-0.023,0.975-0.331,1.338-0.467c1.503-0.565,0.756-1.146,0.682-1.539C49.121,74.96,47.924,75.366,47.257,75.73"/>
<path fill-rule="evenodd" clip-rule="evenodd" d="M96.017,77.037c0.235-0.646,0.302-0.91,0.726-1.244
	c-0.698-0.351-2.002-1.081-2.653-0.512C93.588,76.45,95.128,76.671,96.017,77.037"/>
<path fill-rule="evenodd" clip-rule="evenodd" d="M37.77,81.538c0.307-0.872,0.63-0.797,0.589-1.617
	c-0.701,0.024-1.518,0.055-1.642,0.63C36.541,81.368,37.109,81.524,37.77,81.538"/>
<path fill-rule="evenodd" clip-rule="evenodd" d="M106.243,81.545c0.766-0.049,0.988-0.246,0.977-1.019
	c-0.292-0.375-0.554-0.617-1.137-0.6c-0.616,0.02-0.277-0.045-0.461,0.15C105.385,80.331,106.097,81.39,106.243,81.545"/>
<path fill-rule="evenodd" clip-rule="evenodd" fill="#FF0009" d="M96.126,110.238c-0.22,0.167-0.443,0.33-0.665,0.484
	c-0.203,0.142-0.411,0.278-0.619,0.405c-0.261,0.156-0.521,0.346-0.774,0.528c-0.337,0.243-0.666,0.48-1.034,0.679
	c-0.705,0.381-1.211,0.715-1.654,1.008c-0.339,0.224-0.646,0.427-0.972,0.609c-0.295,0.165-0.869,0.496-1.498,0.88l1.529-0.697
	c1.125-0.489,4.04-2.344,5.644-3.363l0.577-0.366c1.505-0.948,3.094-2.23,4.632-3.691c1.606-1.527,3.158-3.249,4.503-4.992
	c0.267-0.343,0.971-0.915,1.324-1.248c0.657-0.627,1.311-1.315,1.932-2.022c0.663-0.756,1.282-1.523,1.822-2.25l0.066-0.09
	c0.279-0.377,0.489-0.661,0.736-1.021c0.946-1.38,1.778-2.802,2.511-4.277c0.731-1.474,1.369-3.013,1.926-4.628
	c0.108-0.304,0.267-0.818,0.437-1.428l-0.388,0.568l0.285-2.739c0.044-0.43,0.159-0.986,0.293-1.641
	c0.187-0.906,0.414-2.013,0.53-3.154c0.138-1.372,0.192-2.776,0.164-4.19c-0.135,2.432-0.538,4.791-1.246,6.884l-2.271,6.716
	l0.473-3.602c-0.283,0.898-0.613,1.831-0.978,2.714c-0.662,1.603-1.447,3.065-2.29,3.931l-1.871,1.92l0.698-2.585
	c0.086-0.319,0.431-0.994,0.771-1.66c0.246-0.483,0.493-0.964,0.603-1.234c0.192-0.471,0.366-0.933,0.536-1.416
	c0.158-0.452,0.325-0.964,0.511-1.549c0.983-3.113,1.46-6.628,1.506-10.21c0.05-3.839-0.394-7.765-1.235-11.368l-0.761-3.255
	l1.152,1.544c-0.206-0.67-0.429-1.325-0.661-1.97c-0.31-0.858-0.683-1.809-1.065-2.777c-1.447-3.658-2.877-6.558-4.65-9.133
	c-1.772-2.574-3.906-4.848-6.767-7.26c-0.897-0.757-1.784-1.455-2.685-2.114c-0.903-0.661-1.824-1.283-2.789-1.889l-0.64-0.369
	c-0.541-0.307-1.158-0.656-1.432-0.904l-1.324-1.2l1.788-0.011c0.858-0.005,1.852,0.283,2.874,0.721l-0.446-0.239
	c-0.245-0.128-0.489-0.257-0.803-0.447c-0.476-0.285-1.045-0.537-1.617-0.792c-0.419-0.186-0.84-0.373-1.202-0.556l-3.142-1.585
	l1.094,0.083c-0.73-0.263-1.412-0.49-1.929-0.653c-3.599-1.136-7.378-2.195-11.234-2.878c-3.84-0.68-7.757-0.988-11.645-0.625
	c-6.048,0.564-11.486,2.31-16.162,4.836c-5.132,2.772-9.342,6.485-12.435,10.606c-2.564,3.418-5.499,8.468-7.393,14.188
	c-1.44,4.347-2.276,9.075-1.881,13.748c0.135,1.599,0.365,3.081,0.817,4.402c0.438,1.284,1.092,2.427,2.082,3.391
	c0.752,0.732,1.903,1.445,3.239,1.774c1.05,0.259,2.216,0.277,3.388-0.124c0.617-0.212,1.278-0.531,1.849-0.901
	c0.507-0.328,0.94-0.691,1.197-1.041c0.274-0.374,0.52-0.972,0.59-1.626c0.055-0.511,0-1.047-0.234-1.516
	c-0.25-0.501-0.524-0.913-0.796-1.322c-0.441-0.666-0.883-1.331-1.308-2.454c-0.226-0.599-0.422-1.23-0.597-1.872
	c-0.185-0.673-0.333-1.284-0.473-1.874c-0.013-0.058-0.017-0.112-0.012-0.164l-0.775,0.928l-0.364-1.256
	c-1.654-5.708,0.332-10.866,0.91-12.369c0.064-0.169,0.097-0.194,0.101-0.234l1.385,0.145l-0.002,0.023
	c-0.029,0.269-0.077,0.535-0.131,0.812c0.269-0.399,0.543-0.755,0.798-1.012l1.721-1.733l-0.549,2.379
	c-0.081,0.353-0.314,1-0.588,1.762c-0.35,0.974-0.771,2.147-0.996,3.047l-0.14,0.614l1.091-1.373l-0.033,0.907l0.312-0.919
	c0.22-0.627,0.451-1.247,0.721-1.919c0.257-0.64,0.514-1.271,0.778-1.891c0.26-0.61,0.531-1.22,0.825-1.833l0.227-0.473
	c0.485-1.023,0.966-2.029,1.609-3.124c0.889-1.514,2.15-3.025,3.57-4.434c1.379-1.369,2.915-2.649,4.403-3.748
	c-0.525,0.271-1.044,0.568-1.552,0.885c-2.445,1.527-4.645,3.527-6.289,5.536c-0.081,0.097-0.234,0.302-0.398,0.522
	c-0.339,0.452-0.722,0.965-0.975,1.176l-1.212,1.014l0.07-1.578c0.03-0.677,0.451-1.566,1.009-2.456
	c0.785-1.25,1.864-2.557,2.442-3.19c2.251-2.466,5.148-4.691,8.313-6.527c3.297-1.911,6.896-3.406,10.371-4.314
	c3.764-0.984,8.021-1.26,12.195-0.878c4.178,0.383,8.28,1.423,11.738,3.07l0.734,0.371c0.704,0.382,1.357,0.759,2.001,1.242
	c0.062,0.057,0.088,0.09,0.149,0.164l1.313,1.595l-1.827-0.364l0.238,0.129c0.482,0.264,0.885,0.471,1.28,0.674l0.682,0.35
	c1.519,0.793,3.495,2.037,5.294,3.391c1.524,1.148,2.938,2.388,3.862,3.518c1.073,1.313,2.042,2.633,2.949,4.052
	c0.902,1.411,1.734,2.907,2.539,4.577c3.366,6.982,4.997,13.923,4.792,20.66c-0.201,6.63-2.178,13.05-6.021,19.102
	c-3.902,6.146-8.851,10.71-14.632,13.752c-5.947,3.129-12.771,4.641-20.24,4.604c-3.727-0.018-6.94-0.528-9.869-1.36
	c-2.922-0.829-5.565-1.979-8.162-3.281c-1.295-0.649-2.579-1.389-3.816-2.183c-1.069-0.687-2.113-1.418-3.109-2.174l0.628,0.542
	c1.022,0.858,2.104,1.693,3.212,2.453c1.007,0.689,2.038,1.322,3.068,1.855l0.569,0.28c0.646,0.31,1.454,0.697,1.856,1.033
	l1.615,1.353l-2.101-0.123c-1.052-0.062-2.46-0.704-3.894-1.559c-1.178-0.7-2.391-1.553-3.429-2.333l0.516,0.583l-2.659-1.195
	c0.467,0.409,0.93,0.79,1.395,1.152c0.725,0.567,1.477,1.111,2.257,1.665c0.721,0.514,1.533,1.083,2.351,1.601
	c0.813,0.515,1.64,0.985,2.398,1.306c0.413,0.175,0.779,0.367,1.139,0.556c0.459,0.241,0.913,0.479,1.399,0.637
	c0.266,0.088,0.521,0.207,0.79,0.333c0.187,0.088,0.385,0.18,0.601,0.264l0.674,0.253l0.69,0.239
	c4.232,1.422,8.07,2.146,12.152,2.168c4.096,0.021,8.465-0.664,13.749-2.061c2.087-0.551,4.038-1.179,5.876-1.879
	c1.838-0.701,3.551-1.475,5.162-2.316l7.26-3.795L96.126,110.238z"/>
<path fill="none" stroke="#FFFFFF" stroke-width="1.088" stroke-linecap="round" stroke-linejoin="round" stroke-miterlimit="22.9256" d="
	M75.695,55.287c0.705,0.589,0.736,0.421,1.589,1.458c0.241,0.294,0.444,0.55,0.687,0.866c0.203,0.266,0.396,0.713,0.615,0.906
	c-0.148-0.765-1.807-2.938-2.522-3.58c0.351-0.447,1.36-0.501,1.998-0.373c1.546,0.311,2.221,1.942,2.872,3.29
	c0.138,0.284,0.21,0.634,0.37,0.871c-0.083-0.963-1.442-3.579-2.121-4.429c-0.476-0.595-0.999-1.091-2.058-1.24
	c-0.5-0.069-0.989,0.014-1.387,0.204c-0.457,0.218-0.646,0.416-0.944,0.73c-0.737-0.417-1.823-0.638-2.803-0.616
	c-1.072,0.024-1.861,0.33-2.6,0.8c-0.266-0.016-0.717-0.186-1.011-0.25c-1.873-0.411-3.546-0.107-4.935,1.169
	c-0.31,0.285-0.862,0.983-1.022,1.575c-0.202,0.745,0.18,1.641,1.028,0.784c0.284-0.286,0.583-0.765,1.206-1.398
	c0.88-0.896,2.233-1.317,3.913-1.223l-0.723,0.907c-0.415,0.591-0.977,1.533-1.005,2.291c-0.019,0.506,0.139,1.069,0.71,0.824
	c0.546-0.234,1.227-1.202,1.587-1.722c0.518-0.746,0.861-1.305,1.528-1.814c0.736,0.034,2.123,1.105,2.676,1.396
	c-0.144,0.592-0.632,2.038-0.049,2.472c0.567,0.005,0.902-1.108,1.207-1.565l0.087-0.191C74.714,56.936,75.4,55.511,75.695,55.287z
	 M74.188,54.768c-0.088,0.245-0.275,0.533-0.398,0.802c-0.131,0.285-0.233,0.569-0.344,0.88c-0.438-0.256-1.033-0.748-1.626-1.103
	c-0.279-0.167-0.458-0.197-0.544-0.382c0.494-0.112,0.789-0.241,1.367-0.269C73.216,54.669,73.655,54.75,74.188,54.768z
	 M74.458,51.606c-1.017,0.255-0.951,1.5,0.072,1.246C75.469,52.62,75.407,51.369,74.458,51.606z M75.863,51.816
	c-0.046,0.025-0.349,0.139-0.213,0.438c0.084,0.186,0.361,0.142,0.496,0.061C76.517,52.094,76.341,51.559,75.863,51.816z
	 M68.065,51.989c-0.197-0.965-1.447-1.808-2.367-1.106c-0.458,0.349-0.359,0.776,0.539,0.882c0.346,0.041,0.656-0.007,0.99,0.02
	C67.552,51.812,67.771,51.93,68.065,51.989z"/>
<path fill-rule="evenodd" clip-rule="evenodd" d="M75.69,55.292c0.705,0.589,0.736,0.421,1.589,1.458
	c0.242,0.294,0.444,0.55,0.687,0.866c0.203,0.266,0.396,0.713,0.615,0.906c-0.148-0.765-1.807-2.938-2.522-3.58
	c0.351-0.447,1.36-0.501,1.998-0.373c1.546,0.311,2.221,1.942,2.872,3.29c0.138,0.284,0.21,0.634,0.37,0.871
	c-0.083-0.963-1.442-3.578-2.121-4.428c-0.476-0.595-0.999-1.091-2.058-1.239c-0.5-0.07-0.988,0.014-1.387,0.203
	c-0.456,0.218-0.646,0.416-0.943,0.73c-0.737-0.417-1.824-0.638-2.803-0.616c-1.072,0.024-1.862,0.33-2.6,0.8
	c-0.266-0.016-0.717-0.186-1.011-0.25c-1.873-0.411-3.546-0.107-4.935,1.168c-0.31,0.285-0.862,0.983-1.022,1.575
	c-0.202,0.745,0.18,1.64,1.028,0.784c0.284-0.286,0.583-0.765,1.206-1.398c0.88-0.896,2.233-1.317,3.913-1.223l-0.723,0.907
	c-0.414,0.591-0.977,1.533-1.005,2.291c-0.018,0.506,0.14,1.069,0.711,0.824c0.546-0.234,1.227-1.202,1.587-1.722
	c0.518-0.746,0.861-1.305,1.528-1.814c0.737,0.034,2.123,1.105,2.675,1.396c-0.143,0.592-0.632,2.038-0.049,2.471
	c0.567,0.006,0.903-1.108,1.207-1.565l0.087-0.191C74.709,56.941,75.396,55.517,75.69,55.292 M74.184,54.773
	c-0.088,0.245-0.275,0.533-0.399,0.802c-0.131,0.285-0.233,0.569-0.344,0.88c-0.437-0.256-1.033-0.748-1.626-1.103
	c-0.278-0.167-0.458-0.197-0.544-0.382c0.495-0.112,0.789-0.241,1.368-0.269C73.212,54.674,73.65,54.755,74.184,54.773z
	 M74.453,51.612c-1.017,0.254-0.95,1.499,0.072,1.246C75.464,52.625,75.403,51.375,74.453,51.612z M75.858,51.821
	c-0.046,0.025-0.348,0.139-0.213,0.438c0.084,0.186,0.361,0.142,0.496,0.062C76.512,52.099,76.336,51.564,75.858,51.821z
	 M68.061,51.994c-0.197-0.965-1.446-1.808-2.367-1.105c-0.457,0.349-0.359,0.776,0.539,0.882c0.346,0.041,0.657-0.008,0.99,0.02
	C67.547,51.817,67.767,51.936,68.061,51.994z"/>
<rect x="27.374" y="81.087" fill-rule="evenodd" clip-rule="evenodd" fill="#FFFFFF" width="34.051" height="20.532"/>
<text transform="matrix(1 0 0 1.3963 27.6323 101.3271)" font-family="'TraditionalArabic'" font-size="18.9277">XIII</text>
</svg>
