<?xml version="1.0" encoding="utf-8"?>
<!-- Generator: Adobe Illustrator 16.0.0, SVG Export Plug-In . SVG Version: 6.00 Build 0)  -->
<!DOCTYPE svg PUBLIC "-//W3C//DTD SVG 1.1//EN" "http://www.w3.org/Graphics/SVG/1.1/DTD/svg11.dtd">
<svg version="1.1" id="Capa_1" xmlns="http://www.w3.org/2000/svg" xmlns:xlink="http://www.w3.org/1999/xlink" x="0px" y="0px"
	 width="141.732px" height="141.732px" viewBox="0 0 141.732 141.732" enable-background="new 0 0 141.732 141.732"
	 xml:space="preserve">
<polygon fill-rule="evenodd" clip-rule="evenodd" fill="#FF0009" points="70.866,40.213 102.756,47.876 134.646,55.54 
	134.646,70.866 134.646,86.193 102.756,93.856 70.866,101.52 38.977,93.856 7.086,86.193 7.086,70.866 7.086,55.54 38.977,47.876 
	"/>
<polygon fill-rule="evenodd" clip-rule="evenodd" fill="#FFFFFF" points="70.866,13.973 95.502,28.196 120.138,42.419 
	120.138,70.866 120.138,99.313 95.502,113.536 70.866,127.76 46.23,113.536 21.595,99.313 21.595,70.866 21.595,42.419 
	46.23,28.196 "/>
<g>
	<defs>
		<polygon id="SVGID_1_" points="70.866,13.973 95.502,28.196 120.138,42.419 120.138,70.866 120.138,99.313 95.502,113.536 
			70.866,127.76 46.23,113.536 21.595,99.313 21.595,70.866 21.595,42.419 46.23,28.196 		"/>
	</defs>
	<clipPath id="SVGID_2_">
		<use xlink:href="#SVGID_1_"  overflow="visible"/>
	</clipPath>
	<path clip-path="url(#SVGID_2_)" fill-rule="evenodd" clip-rule="evenodd" d="M78.67,72.347c-12.181-5.783-23.69,0.094-25.34,4.841
		c-0.206,0.593,3.997,7.913,3.404,8.026c-10.695,2.034-7.63,14.152-7.47,14.458c-5.789,2.188-9.464,15.8,3.934,30.755
		c12.018,13.415,27.25,24.259,44.192,24.259c32.009,0,58.605-28.536,58.605-63.738c0-32.782-116.469-121.595-134.349-69.785
		c-0.085,0.247,52.006,17.809,54.482,37.288C77.33,67.912,78.618,72.08,78.67,72.347z"/>
	<path clip-path="url(#SVGID_2_)" fill="none" stroke="#141515" stroke-width="0.5669" stroke-miterlimit="22.9256" d="
		M78.67,72.347c-12.181-5.783-23.69,0.094-25.34,4.841c-0.206,0.593,3.997,7.913,3.404,8.026c-10.695,2.034-7.63,14.152-7.47,14.458
		c-5.789,2.188-9.464,15.8,3.934,30.755c12.018,13.415,27.25,24.259,44.192,24.259c32.009,0,58.605-28.536,58.605-63.738
		c0-32.782-116.469-121.595-134.349-69.785c-0.085,0.247,52.006,17.809,54.482,37.288C77.33,67.912,78.618,72.08,78.67,72.347z"/>
	<path clip-path="url(#SVGID_2_)" fill-rule="evenodd" clip-rule="evenodd" fill="#FFFFFF" d="M64.915,51.444
		c0.176-0.02,0.188,0.087,0.298-0.114c0.181-0.331-0.087-0.375-0.091-0.381C64.759,51.016,64.643,51.072,64.915,51.444
		 M56.249,55.515c0.185,0.176,0.216,0.182,0.456,0.075l-0.039-0.489C56.288,55.145,56.238,55.161,56.249,55.515z M50.556,67.618
		c0.206,0.248,0.22,0.319,0.583,0.464l0.459-0.427c-0.119-0.356-0.128-0.367-0.459-0.592C50.759,67.182,50.692,67.282,50.556,67.618
		z M58.501,42.024c0.193,0.325,0.335,0.436,0.612,0.626c0.276-0.16,0.394-0.253,0.554-0.601l-0.537-0.607L58.501,42.024z
		 M54.172,45.467l0.569,0.626c0.319-0.188,0.451-0.337,0.611-0.626l-0.56-0.629C54.495,44.998,54.34,45.214,54.172,45.467z
		 M58.77,48.034c0.143,0.302,0.337,0.517,0.655,0.654c0.264-0.183,0.414-0.291,0.522-0.632c-0.192-0.263-0.292-0.417-0.626-0.545
		L58.77,48.034z M51.212,58.296c0.429,0.54,0.747,0.06,1.121,0.997l0.256,0.474c0.151-0.312,0.189-0.64,0.385-0.866
		c0.289-0.333,0.438-0.196,0.833-0.486c-0.688-0.628-0.786-0.003-1.185-1.376l-0.276,0.416
		C52.082,58.03,52.074,58.039,51.212,58.296z M56.213,77.681c0.28,1.156,1.917,0.837,1.586-0.551
		C57.473,75.763,55.895,76.371,56.213,77.681z M96.527,57.035c2.994-0.732,3.123-1.674,7.316-0.41
		C101.806,55.125,98.376,55.245,96.527,57.035z M57.937,52.423c0.217,0.214,0.656,0.191,0.979,0.491
		c0.363,0.339,0.26,0.639,0.509,1.028c0.257-0.311,0.223-0.733,0.523-1.013c0.277-0.259,0.717-0.274,1.04-0.526
		c-1.835-0.544-0.985-0.972-1.563-1.331c-0.223,0.37-0.241,0.712-0.512,0.932C58.636,52.229,58.228,52.232,57.937,52.423z
		 M61.512,46.075c0.325,0.126,0.913,0.203,1.203,0.457c0.348,0.304,0.286,0.786,0.542,1.185c0.246-0.307,0.212-0.784,0.523-1.105
		c0.252-0.261,0.829-0.397,1.186-0.485c-0.129-0.143-0.07-0.109-0.281-0.221c-0.264-0.141-0.562-0.102-0.862-0.383
		c-0.29-0.271-0.293-0.702-0.462-1.169c-0.356,0.152-0.228,0.774-0.602,1.133C62.427,45.808,61.871,45.774,61.512,46.075z
		 M71.466,47.746c1.141,0.584,1.377,0.011,1.718,1.691c0.822-0.845-0.379-0.918,1.777-1.696c-0.336-0.261-0.818-0.269-1.132-0.519
		c-0.379-0.303-0.304-0.686-0.524-1.134l-0.29,0.545C72.643,47.746,72.094,47.167,71.466,47.746z M56.768,80.271
		c0.246,1.501,2.287,2.065,1.999,0.443c-0.089-0.504-0.561-1.196-0.907-1.368C57.195,79.017,56.649,79.55,56.768,80.271z
		 M82.026,79.632c0.021,0.016,0.163,0.105,0.188,0.121l2.147,1.168c0.473,0.246,0.374,0.434,0.737,0.618
		c1.315,0.667,1.794-1.746,0.34-1.705c-0.46,0.013-0.603,0.256-0.847,0.46L81.8,79.438L82.026,79.632z M83.348,57.18
		c1.126-0.244,1.875-1.129,4.566-1.043c2.078,0.066,2.802,0.745,4.313,1.21c-0.993-0.861-2.494-1.76-4.321-1.82
		C86.387,55.476,83.895,56.307,83.348,57.18z M98.977,95.112c0.82,0.059,0.782,0.207,1.128-1.503
		c0.139-0.685,0.344-1.381,0.417-2.044c-0.416-0.014-1.278,0.138-1.651,0.308L98.977,95.112z M67.021,51.993
		c0.43,0.255,1.082,0.21,1.481,0.555c0.456,0.393,0.341,1.058,0.659,1.496c0.263-0.463,0.194-1.128,0.573-1.479
		c0.394-0.365,1.046-0.293,1.474-0.572c-0.455-0.321-1.124-0.235-1.493-0.655c-0.348-0.396-0.349-1.135-0.553-1.615
		c-0.285,0.449-0.247,1.188-0.604,1.565C68.24,51.622,67.362,51.672,67.021,51.993z M82.52,61.553
		c0.313-0.264,0.642-1.16,1.526-1.918c3.604-3.087,7.184-0.377,7.773-0.312c-0.722-1.214-3.44-2.203-5.516-1.59
		C84.558,58.25,82.862,59.822,82.52,61.553z M96.569,59.577c1.163-0.427,3.688-2.673,7.199-0.549
		c0.318,0.193,0.646,0.409,0.915,0.638c0.373,0.317,0.524,0.525,0.891,0.719c-1.401-2.479-4.346-3.563-7.162-2.554
		C96.995,58.338,96.538,58.621,96.569,59.577z M50.872,50.543c0.407,0.339,1.336,0.285,1.777,0.664
		c0.514,0.442,0.394,1.217,0.745,1.795c0.728-2.232,0.213-1.665,1.991-2.25l0.391-0.21c-1.079-0.483-1.667-0.022-2.083-1.418
		c-0.117-0.393-0.066-0.688-0.399-0.912C52.812,50.796,52.558,49.714,50.872,50.543z M106.244,69.571
		c-0.642-0.095-1.323-0.39-2.141-0.509c-0.668-0.097-1.514-0.203-2.163-0.236c0.886,0.463,2.15,0.39,2.829,1.19
		c0.19,1.352-0.677,3.667-0.668,5.153l0.214-0.339c0.065-0.13,0.103-0.22,0.165-0.36l2.294-5.378
		C106.482,69.272,106.507,69.315,106.244,69.571z M103.95,67.563c-0.259-0.244-0.624-0.265-1.068-0.405
		c-0.403-0.126-0.731-0.231-1.104-0.458l0.615-0.379c-1.027-0.043-1.956-0.089-2.944-0.251c-0.723-0.119-2.137-0.563-2.594-0.579
		c-0.052,0.809,0.402,0.918,1.009,1.197C100.337,67.825,103.087,67.382,103.95,67.563z M93.31,71.962l0.401,0.014l0.311-0.003
		l2.243-0.011c0.122-1.305-0.142-2.733-1.413-2.714C93.57,69.267,93.245,70.655,93.31,71.962z M92.054,84.413
		c0.503,0.532,1.516,1.113,2.24,1.598c0.613,0.409,0.685,0.258,1.228-0.096l3.368-2.226c0.39-0.264,0.731-0.508,1.086-0.777
		c0.351-0.266,0.818-0.537,1.02-0.905c-1.137,0.254-3.236,1.381-4.213,1.852C94.16,85.125,94.941,84.596,92.054,84.413z
		 M82.999,66.028c0.485,1.54,3.073,1.674,4.904,1.479l3.697-1.051c0.586-0.327,0.604-0.349,0.587-1.163
		c-1.099,0.158-1.956,0.645-4.249,0.924C85.991,66.454,84.806,66.148,82.999,66.028z M65.042,40.106
		c0.97,0.397,2.468,0.206,3.208,0.886c0.821,0.754,0.591,2.487,1.015,3.199c0.436-0.748,0.27-2.452,0.957-3.152
		c0.511-0.521,2.273-0.688,3.185-0.897c-1.996-0.799-3.2,0.174-3.749-2.401l-0.296-1.505c-0.136-0.329,0-0.044-0.118-0.207
		c-0.293,0.938-0.283,2.535-0.96,3.174C67.699,39.755,65.959,39.864,65.042,40.106z M92.109,95.196l6.029,0.004l-0.219-2.996
		l-5.723,0.024L92.109,95.196z M84.688,61.665c2.111,1.263,2.331,3.719,2.705,4.351c0.583-0.001,1.496-0.104,1.958-0.35
		c-0.05-1.124-0.778-2.82-0.526-4.761c0.032-0.255,0.365-1.341,0.362-1.354C89.051,58.958,84.762,59.085,84.688,61.665z
		 M87.168,71.553c0.102-1.16,0.408-1.593,1.346-1.968c0.769-0.307,2.023-0.482,2.786-0.162c0.082,0.47-0.038,0.79,0.132,1.132
		c0.511-0.016,0.43-0.04,0.47-0.67c0.021-0.335,0.025-0.613-0.016-0.945c-1.191-0.374-3.786-0.118-5.117-0.026
		c-1.842,0.126-2.949,0.496-4.589,0.789l-0.473-0.481l3.046,7.175C85.122,74.29,85.183,72.066,87.168,71.553z M56.69,117.711
		c-1.966-0.271-3.173-0.486-4.587-1.427c-2.391-1.591-4.439-4.734-4.003-7.883c0.262-1.896,1.188-2.783,1.904-4.064
		c-0.579,0.063-1.629,1.121-2.009,1.482c-0.544,0.518-1.097,1.207-1.46,2.057c-1.316,3.084,1.506,8.017,3.875,9.688
		c0.894,0.632,1.819,0.44,3.11,0.42C54.683,117.965,55.583,117.896,56.69,117.711z M80.932,103.804
		c-0.742,1.877-1.471,15.618-1.316,18.116l2.416,0.002c0.122-2.85-0.478-13.438-0.965-17.103
		C81.023,104.489,80.98,104.249,80.932,103.804z M82.849,87.91c-0.245,4.315-1.055,3.734,2.26,5.212
		c1.805,0.806,3.872,1.398,5.922,1.91l0.217-3.741l-4.461-1.501C85.689,89.354,83.04,87.931,82.849,87.91z M68.049,105.855
		c0.004,2.213,0.061,4.43,0.147,6.629c0.198,5.043,1.515,4.068,1.587,5.283c-0.609,0.225-1.5,0.22-2.178,0.209
		c-0.472-0.008-1.71-0.027-2.096-0.313c0.802-0.991,1.666-0.988,1.815-3.005c0.11-1.491,0.22-9.887-0.032-10.986l-0.632,0.046
		c0.009,3.135,0.103,9.055-0.375,11.075c-0.362,1.53-0.983,1.562-1.844,2.396c-0.638,0.618-0.286,0.514-1.377,0.693
		c-0.579,0.095-1.172,0.182-1.761,0.3c-2.62,0.526-5.458,1.771-1.2,2.949c4.072,1.128,12.172,1.111,16.141-0.11
		c1.619-0.499,2.505-1.383,0.902-2.117c-2.321-1.063-4.926-0.761-5.601-1.443c-0.148-0.151-0.088-0.125-0.306-0.317
		c-1.355-1.196-1.749-0.85-2.09-4.242c-0.144-1.435-0.278-8.211-0.511-8.804l-0.575-0.063L68.049,105.855z M72.489,119.226
		c-3.053,0.87-6.172,0.841-9.253,0.004c0.439-0.957,1.689-0.32,2.021-0.255c1.559,0.305,3.592,0.318,5.143,0.031
		C71.16,118.865,72.035,118.408,72.489,119.226z M93.282,59.315c0.813,0.043,1.998-0.173,2.558-0.59l0.019-0.814
		c-0.521,0.054-0.884,0.477-1.453,0.598c-0.746,0.159-1.012-0.243-1.54-0.425c0.007,1.2-0.184,6.315,0.009,7.049
		c0.102,0.39,0.558,0.692,0.372,1.311c-0.054,0.179-0.499,0.758-0.657,1.107c-0.361,0.793-0.411,2.085-0.438,3.091
		c-0.035,1.282-0.504,1.619-1.082,2.431l-2.837,4.208c-0.267,0.393-1.048,1.876-1.524,1.915c0.037-0.768,4.274-7.644,4.768-8.194
		c-0.923,0.176-2.902,2.508-3.491,3.336c-0.488,0.688-0.908,1.332-1.334,2.089c-0.22,0.391-0.397,0.775-0.595,1.162
		c-0.63,1.232-0.265,0.561-0.701,0.922c0.039,0.141,0.194,0.774,0.245,0.857c0.291,0.477,0.992,0.026,1.611,1.797
		c1.044-0.008,14.449-0.098,14.854,0.053c0.321,0.118,0.363,0.391,0.948,0.295c0.829-0.135,0.806-1.185,0.349-1.573
		c-0.404-0.344-0.812-0.108-0.881-0.266c-0.014-0.029-0.054-0.011-0.076-0.023c0.365-0.257,0.435-0.207,0.931-0.214l0.51-1.349
		c0.129-0.305,0.084-0.059,0.118-0.413c-0.602,0.297-0.919,0.588-1.449,1.001c-0.388-0.252-4.205-5.861-4.823-6.737
		c-0.86-1.219,0.14-3.423-1.201-4.597c-1.085-0.95-0.974,0.027-1.556-1.349c-0.214-0.505-0.316-0.476-0.302-1.157
		c0.023-1.084,0.302-0.667,0.367-0.887c0.01-0.034,0.05-0.021,0.071-0.038c-0.992-0.356-0.727-0.291-1.944-0.346
		c0.437-0.827,1.566-0.53,2.425-0.299c-0.547-0.724-0.991-0.997-2.284-1.008c0.461-0.579,1.603-0.398,2.214-0.305
		c-0.646-0.804-1.113-0.561-2.257-0.646c0.449-0.468,1.542-0.387,2.251-0.293c-0.647-0.996-1.802-0.21-2.263-0.534
		c0.473-0.381,1.662-0.463,2.313-0.649C94.9,59.369,93.817,59.911,93.282,59.315z M87.358,80.092
		c0.199-0.553,0.664-1.135,0.975-1.573c0.335-0.472,0.603-0.938,0.953-1.43l2.896-4.25c0.396-0.592,0.67-0.807,0.683-1.678
		c0.024-1.649-0.088-2.904,1.435-3.342c0.751-0.215,1.537-0.026,1.908,0.425c0.331,0.401,0.391,1.341,0.432,1.891
		c0.157,2.115-0.307,1.181,1.229,3.597c0.646,1.019,1.234,1.945,1.849,2.914c0.73,1.152,1.396,1.633,0.989,3.473l-1.674,0.004
		c-0.111-0.805-0.041-2.196-0.042-3.063c-0.002-0.952-0.097-1.983-1.235-1.503l-0.06,4.568l-1.654-0.013l-0.039-5.974
		c-0.391,0.063-0.994,0.478-1.141,0.749c-0.294,0.547,0.13,4.161-0.155,5.233l-1.698,0.002l-0.079-3.008
		c-0.419-0.076-0.918,0.385-1.193,0.67l-0.037,2.35l-1.646-0.036l-0.101-0.729c-0.523,0.112-0.734,0.415-1.109,0.744L87.358,80.092z
		 M82.912,98.369c-0.136,3.941,0.345,8.054,0.58,11.944c0.229,3.805,0.569,7.646,0.74,11.553c0.461,0.127,7.105,0.116,7.8,0.021
		c0.161-5.703-1.134-16.237-1.799-22.242l-5.545,3.098l-1.623-4.176C82.967,98.401,83.006,98.467,82.912,98.369z M76.186,56.965
		c0.71,0.695,0.983,0.851,1.069,2.16c0.931-0.848,2.99-5.219,8.269-5.469c1.851-0.087,2.462,0.302,3.924,0.693
		c1.453-3.237,0.147-3.797-0.165-4.615c0.874,0.134,2.162,0.812,2.711,0.853c0.233-2.73-0.384-13.261,0.475-14.809l0.001,20.168
		l0.703-0.243c0.113-0.938,0.02-11.985,0.023-13.966c0.003-1.007-0.212-3.79,0.286-4.371c0.365-0.426,1.112-0.59,1.639-0.145
		c0.478,0.405,0.443,1.174,0.475,1.928c0.063,1.508,0.063,3.023,0.066,4.556c0.005,1.868-0.156,7.9,0.19,9.201l0.079-1.172
		c0.244-2.631-0.184-15.311,0.162-15.971l0.659,2.412c2.434,0.188,3.566,0.114,5.746,0.894c5.896,2.112,6.978,6.933,6.672,13.361
		l-0.135-0.101c-0.085-0.074-0.078-0.062-0.174-0.16c-0.774-0.794-1.196-1.227-2.329-1.813c-1.024-0.529-2.344-0.968-3.702-1.027
		c-1.258-0.055-3.185,0.253-3.728,1.011c-0.791,1.105,0.103,2.688,0.392,3.767c1.12-0.133,1.713-0.473,3.023-0.457
		c1.054,0.013,2.063,0.262,2.927,0.585c5.175,1.939,6.833,7.299,8.874,12.052c3.617,8.425,3.544,8.928,7.996,16.452
		c0.881,1.488,0.626,0.732,1.833,1.638c0.011-0.476-3.766-9.406-4.247-10.596c-1.472-3.635-2.83-7.157-4.283-10.759
		c-0.716-1.775-1.451-3.562-2.111-5.351c-0.745-2.018-0.608-4.405-0.854-6.68c-0.48-4.455-1.767-8.214-4.108-10.933
		c-2.14-2.483-5.265-4.463-9.987-4.914c-0.596-0.057-1.143-0.061-1.745-0.113c-0.764-0.066-0.872-0.54-3.416-0.346
		C92.583,34.75,92.372,35,91.93,35.063c-2.409,0.336-3.715,0.21-6.196,1.391C78.272,40,77.211,46.72,77.144,54.066
		C77.129,55.633,76.35,55.9,76.186,56.965z M80.056,51.804c0.001-4.485,0.43-8.894,3.207-10.984
		c0.463-0.349,1.932-1.203,2.403-0.357c0.28,0.503-0.228,2.402-0.354,3.028c-0.393,1.955-0.73,3.94-1.104,5.939
		c-0.887,0.346-1.532,0.521-2.33,0.985C80.894,50.99,80.54,51.605,80.056,51.804z M54.651,75.816c1.714-1.39,5.925-2.6,8.552-3.162
		c2.92-0.625,7.848-0.96,10.977-0.609c0.284,1.64,0.049,5.267-0.324,7.015c-0.132,0.617-0.609,1.549-0.233,2.04
		c1.119,0.44,1.541-2.631,1.661-3.618c0.225-1.848,0.045-3.46-0.036-5.342l2.757,0.424c0.345,4.178,0.599,6.715-1.033,10.339
		c-0.875,1.943-2.311,3.749-3.856,5.047c-1.324,1.113-1.473,0.698-1.393,1.577c1.232-0.174,3.145-2.066,3.681-2.705
		c3.618-4.318,4.604-8.578,3.731-14.667c-0.527-3.68-1.292-7.016-2.159-10.46c-0.786-3.12,0.159-3.581-1.892-4.432
		c-4.076-1.692-12.918-1.404-16.925-0.221c-3.418,1.009-2.183,1.727-2.646,3.688c-1.068,4.513-2.791,12.097-2.332,16.499
		c0.606,5.817,3.574,8.157,3.841,8.74c-0.361,0.417-1.346,1.042-1.871,1.422c-4.777,3.46-3.509,1.917-4.143,5.681
		c-0.395,2.342-1.853,0.646-0.74,5.065c2.08,8.263-0.688,8.243-0.856,10.729c-0.198,2.916,2.886,6.716,6.285,6.713
		c1.831-0.001,3.771-1.402,4.028-2.449c-0.889,0.253-1.946,0.424-2.836-0.077c-0.536-0.302-1.329-1.032-1.506-1.726
		c1.095,0.294,1.766,0.6,3.023,0.138c0.706-0.26,1.659-0.879,2.111-1.308c2.565-2.435-0.848-2.547-1.5-3.688
		c-1.134-1.983,0.976-3.141,2.558-3.747c2.047-0.785,3.282-1.215,5.749-0.953c1.319,0.141,5.432,1.056,5.22-0.969
		c-0.148-1.415-3.419-1.71-4.978-1.945c-2.678-0.403-3.598-0.396-6.234,0.007c-1.437,0.22-4.958,0.975-5.658-0.257l2.014-0.601
		c0.708-0.199,1.279-0.379,1.967-0.622c1.43-0.508,2.384-0.93,3.645-1.544c0.501-0.244,1.27,0.336,1.829,0.489
		c0.691,0.19,1.451,0.291,2.223,0.374c4.017,0.435,1.599,0.136,3.905,1.263c1.748,0.854,6.501,0.659,0.349-3.251
		c-1.051-0.668-2.564-0.9-3.958-1.217c-0.751-0.17-1.412-0.328-2.121-0.45c-0.416-0.071-1.85-0.115-2.01-0.449
		c0.719-0.216,3.55-0.048,4.509-0.056c3.528-0.026,2.224,0.455,4.039,0.525c2.334,0.091,2.518-1.5,1.927-2.188
		c-0.605-0.705-2.325-0.735-3.443-1.106c-1.742-0.579-6.568-0.261-8.376,0.173c-2.03,0.488-5.209,1.934-7.264,1.778
		c-0.081-0.913,1.676-1.515,2.539-1.938c1.015-0.496,1.94-1.021,2.906-1.541c1.343-0.725,5.73-0.356,7.812-1.096
		c0.878-0.313,2.52-1.342,1.404-2.413c-0.754-0.724-2.628-0.434-3.82-0.398c-1.448,0.042-3.005-0.081-4.423,0.025
		c-2.079,0.155-2.309,0.703-3.347,1.065c-0.853-0.709-1.966-2.747-2.474-4.023C54.857,79.786,54.514,77.801,54.651,75.816z
		 M64.232,56.853c2.703-0.266,8.263,0.063,10.45,1.008c0.699,0.302,1.44,0.935,0.614,1.509c-2.937,2.043-14.004,1.916-17.769,0.416
		c-0.733-0.292-1.532-0.858-0.618-1.505C58.28,57.313,62.546,57.019,64.232,56.853z M93.054,98.857l4.656-0.005
		c0.248,0.723,0.407,4.033,0.486,5.033c0.315,4.01,0.117,2.101-0.287,3.479c-0.173,0.588,0.058,0.683,0.128,1.174l-0.783,0.429
		c-0.021,0.205-0.227,4.697-0.227,5.253c0,0.041-0.022,0.076-0.055,0.097c0.041,1.683,0.056,3.332,0.002,5.059
		c-0.276,0.187-1.726,0.74-2.105,0.859C94.147,116.494,92.303,102.002,93.054,98.857z M99.881,109.778v3.123
		c0,0.063-0.051,0.114-0.113,0.114h-0.023l0.022,5.477c-0.447,0.29-1.085,0.461-1.625,0.531c-0.064-2.182,0.037-4.031-0.008-6.008
		h-0.059c-0.063,0-0.113-0.052-0.113-0.114v-2.785c-0.202,0.045-0.375,0.073-0.478,0.061c-0.048-0.57,0.304-1.116,0.77-1.327
		L99.881,109.778z M69.125,61.514c0.26-0.026,0.521-0.052,0.774-0.074c1.567-0.169,3.084-0.462,4.496-0.897
		c0.239-0.1,0.355-0.145,0.621-0.206l0.002,0.003c0.029-0.01,0.059-0.02,0.088-0.03c1.564,3.765,2.796,8.016,2.802,11.87
		c-4.298-1.103-18.276-3.96-23.205,1.976c0.156-3.992,1.032-9.697,2.746-13.645C61.043,61.412,65.21,61.833,69.125,61.514z"/>
</g>
<polygon fill="none" stroke="#141515" stroke-width="2.0211" stroke-miterlimit="22.9256" points="70.866,13.973 95.501,28.197 
	120.137,42.42 120.137,70.867 120.137,99.313 95.501,113.537 70.866,127.76 46.23,113.537 21.595,99.313 21.595,70.867 
	21.595,42.42 46.23,28.197 "/>
<text transform="matrix(1 0 0 1 26.1938 100.8594)" fill="none" stroke="#FFFFFF" stroke-width="2.0208" stroke-linecap="round" stroke-linejoin="round" stroke-miterlimit="22.9256" font-family="'TraditionalArabic'" font-size="26.428">XI</text>
<text transform="matrix(1 0 0 1 26.1938 100.8594)" font-family="'TraditionalArabic'" font-size="26.428">XI</text>
<path fill-rule="evenodd" clip-rule="evenodd" d="M42.379,51.142c-0.217-0.275-0.018-0.09-0.311-0.268
	c-0.116-0.07-0.193-0.112-0.367-0.165c-0.075,0.351-0.094,0.238-0.136,0.637L42.379,51.142z"/>
<path fill-rule="evenodd" clip-rule="evenodd" d="M38.404,60.169c0.433,0.185,0.531,0.093,1.097-0.01
	c-0.272-0.337-0.412-0.354-0.686-0.676L38.404,60.169z"/>
<path fill-rule="evenodd" clip-rule="evenodd" d="M51.493,71.744c0.173-0.164,0.23,0.002,0.088-0.724
	c-0.301-1.54,0.001-1.748-0.708-1.943l-0.241,0.387c0.085,0.467,0.255,0.53,0.375,1.126c0.041,0.205,0.081,0.587,0.129,0.758
	C51.324,72.006,51.163,71.664,51.493,71.744"/>
<path fill-rule="evenodd" clip-rule="evenodd" d="M48.647,72.392c0.333-0.249,0.187,0.196,0.201-0.408
	c0-0.007-0.068-0.397-0.076-0.437c-0.044-0.244-0.105-0.536-0.119-0.781c-0.035-0.646,0.252-0.94-0.502-1.084
	c-0.512,0.56-0.147,0.605,0.014,1.34C48.415,72.157,48.191,72.228,48.647,72.392"/>
<path fill-rule="evenodd" clip-rule="evenodd" d="M50.283,71.988c0.09-0.497-0.14-1.099-0.183-1.628
	c-0.052-0.623,0.149-0.905-0.529-1.017c-0.564,0.652-0.116,0.593,0.076,1.451C49.792,71.447,49.642,72.103,50.283,71.988"/>
<path fill-rule="evenodd" clip-rule="evenodd" d="M51.756,66.653l-0.517-3.152c-0.135-0.778,0.199-1.259-1.931-1.006
	c0.153,0.659,0.478,1.329,0.719,1.958c0.12,0.312,0.252,0.649,0.361,0.932l0.39,0.723c0.005-0.019,0.044,0.049,0.072,0.069
	l-0.382-2.53C50.812,63.99,51.721,66.692,51.756,66.653"/>
<path fill-rule="evenodd" clip-rule="evenodd" d="M39.621,67.261c0.521-0.331,1.041-0.222,1.494-0.436l0.241-0.182
	c-0.207-0.268,0.19-0.142-0.351-0.188c-0.381-0.033-0.176,0.079-0.558,0.091l-0.146-0.012c-0.682-0.002-1.119,0.272-1.403,0.365
	l-0.442,0.106c-0.113,1.035,0.258,0.554-0.561,1.146c-0.453,0.328-0.278,0.69-0.12,1.26c0.319-0.033,1.183-0.557,1.708-0.732
	c0.604-0.203,1.584-0.293,1.997-0.635C40.863,67.657,39.837,67.98,39.621,67.261"/>
<path fill-rule="evenodd" clip-rule="evenodd" d="M41.948,56.097c-0.065,0.706-0.276,0.569-0.421,1.218
	c1.058-0.273,1.68-0.515,2.802-0.652c-0.334-0.751-0.48,0.279-1.784-3.644c-0.131-0.395-0.247-1.017-0.543-1.303L41.948,56.097z"/>
<path fill-rule="evenodd" clip-rule="evenodd" d="M38.035,66.873c1.422-0.74,1.667-0.788,3.285-0.89
	c-0.132-0.601-0.992-2-1.287-2.633c-0.359-0.771-0.735-2.208-1.185-2.744c-0.031,1.033-0.074,2.217-0.179,3.259
	C38.451,66.053,37.897,65.9,38.035,66.873"/>
<path fill-rule="evenodd" clip-rule="evenodd" d="M47.346,57.805c0.242,0.093,0.209,0.018,0.393,0.358
	c0.091,0.169,0.166,0.434,0.226,0.623c0.135,0.43,0.264,0.81,0.425,1.231c0.362,0.946,0.565,1.961,1.092,1.983
	c0.236-0.49-0.12-2.336-0.246-2.99c-0.115-0.595-0.066-1.115-0.301-1.657l-1.473-3.994c-0.202-0.662-0.639-2.45-0.88-2.874
	c-0.13,0.372,0.083,3.682,0.079,4.458c-0.007,1.249-0.258,3.392,0.64,4.194L47.346,57.805z"/>
<path fill-rule="evenodd" clip-rule="evenodd" d="M40.121,78.271c0.558-0.202,1.2-0.531,1.618-0.935l-1.545-8.245
	c-0.501,0.213-0.152-0.058-0.386,0.472c-0.528-0.189,0.05-0.156-0.505-0.267c-0.012,0.028-0.025,0.065-0.031,0.085l-0.104,0.425
	c-0.545-0.142-0.049-0.435-0.786-0.133C39.255,72.673,39.455,75.182,40.121,78.271"/>
<path fill-rule="evenodd" clip-rule="evenodd" d="M36.889,80.298c0.379-0.213,1.807-1.127,2.064-1.385
	c-0.367-2.446-0.842-4.711-1.368-7.118c-0.51,0.34-0.083,0.372-0.49,0.527c-0.528,0.202-0.029-0.024-0.65-0.206
	c-0.262,0.505-0.436,0.372-1.021,0.468L36.889,80.298z"/>
<path fill-rule="evenodd" clip-rule="evenodd" d="M43.732,49c0.217,0.38,0.193,0.33,0.096,0.686
	c-0.363-0.079-0.411-0.199-0.417-0.618L43.732,49z"/>
<path fill-rule="evenodd" clip-rule="evenodd" d="M44.898,49.356c-0.495,0.062-0.558,0.012-0.599-0.496l0.431-0.085L44.898,49.356z"
	/>
<path fill-rule="evenodd" clip-rule="evenodd" d="M46.59,69.548c1.042-0.481,1.887-0.851,3.091-1.128
	c0.067-1.646-2.132-7.982-2.788-9.316c-0.257,0.581-0.307,4.16-0.348,5.112C46.473,65.942,46.231,67.722,46.59,69.548"/>
<path fill-rule="evenodd" clip-rule="evenodd" d="M48.139,65.877c0.175,0.267,0.285,0.698,0.185,1.008l-0.219,0.051
	c-0.087-0.173-0.139-0.383-0.162-0.585C47.891,65.893,47.955,65.999,48.139,65.877"/>
<path fill-rule="evenodd" clip-rule="evenodd" d="M48.673,65.679c0.271,0.053,0.217,0.027,0.308,0.426
	c0.091,0.397,0.143,0.477-0.109,0.663C48.668,66.519,48.526,65.983,48.673,65.679"/>
<path fill-rule="evenodd" clip-rule="evenodd" d="M51.663,55.851c-0.293-0.188-0.223-0.218-0.324-0.6
	c0.304-0.066,0.325-0.185,0.433,0.089C51.84,55.512,51.714,55.752,51.663,55.851"/>
<path fill-rule="evenodd" clip-rule="evenodd" d="M51.021,55.4c0.071,0.389,0.104,0.245-0.019,0.579
	c-0.363,0.009-0.4-0.116-0.542-0.445L51.021,55.4z"/>
<path fill-rule="evenodd" clip-rule="evenodd" fill="#FF0009" d="M96.126,110.238c-0.22,0.167-0.443,0.33-0.665,0.484
	c-0.203,0.142-0.411,0.278-0.619,0.405c-0.261,0.156-0.521,0.346-0.774,0.528c-0.337,0.243-0.666,0.48-1.034,0.679
	c-0.705,0.381-1.211,0.715-1.654,1.008c-0.339,0.224-0.646,0.427-0.972,0.609c-0.295,0.165-0.869,0.496-1.498,0.88l1.529-0.697
	c1.125-0.489,4.04-2.344,5.644-3.363l0.577-0.366c1.505-0.948,3.094-2.23,4.632-3.691c1.606-1.527,3.158-3.249,4.503-4.992
	c0.267-0.343,0.971-0.915,1.324-1.248c0.657-0.627,1.311-1.315,1.932-2.022c0.663-0.756,1.282-1.523,1.822-2.25l0.066-0.09
	c0.279-0.377,0.489-0.661,0.736-1.021c0.946-1.38,1.778-2.802,2.511-4.277c0.731-1.474,1.369-3.013,1.926-4.628
	c0.108-0.304,0.267-0.818,0.437-1.428l-0.388,0.568l0.285-2.739c0.044-0.43,0.159-0.986,0.293-1.641
	c0.187-0.906,0.414-2.013,0.53-3.154c0.138-1.372,0.192-2.776,0.164-4.19c-0.135,2.432-0.538,4.791-1.246,6.884l-2.271,6.716
	l0.473-3.602c-0.283,0.898-0.613,1.831-0.978,2.714c-0.662,1.603-1.447,3.065-2.29,3.931l-1.871,1.92l0.698-2.585
	c0.086-0.319,0.431-0.994,0.771-1.66c0.246-0.483,0.493-0.964,0.603-1.234c0.192-0.471,0.366-0.933,0.536-1.416
	c0.158-0.452,0.325-0.964,0.511-1.549c0.983-3.113,1.46-6.628,1.506-10.21c0.05-3.839-0.394-7.765-1.235-11.368l-0.761-3.255
	l1.152,1.544c-0.206-0.67-0.429-1.325-0.661-1.97c-0.31-0.858-0.683-1.809-1.065-2.777c-1.447-3.658-2.877-6.558-4.65-9.133
	c-1.772-2.574-3.906-4.848-6.767-7.26c-0.897-0.757-1.784-1.455-2.685-2.114c-0.903-0.661-1.824-1.283-2.789-1.889l-0.64-0.369
	c-0.541-0.307-1.158-0.656-1.432-0.904l-1.324-1.2l1.788-0.011c0.858-0.005,1.852,0.283,2.874,0.721l-0.446-0.239
	c-0.245-0.128-0.489-0.257-0.803-0.447c-0.476-0.285-1.045-0.537-1.617-0.792c-0.419-0.186-0.84-0.373-1.202-0.556l-3.142-1.585
	l1.094,0.083c-0.73-0.263-1.412-0.49-1.929-0.653c-3.599-1.136-7.378-2.195-11.234-2.878c-3.84-0.68-7.757-0.988-11.645-0.625
	c-6.048,0.564-11.486,2.31-16.162,4.836c-5.132,2.772-9.342,6.485-12.435,10.606c-2.564,3.418-5.499,8.468-7.393,14.188
	c-1.44,4.347-2.276,9.075-1.881,13.748c0.135,1.599,0.365,3.081,0.817,4.402c0.438,1.284,1.092,2.427,2.082,3.391
	c0.752,0.732,1.903,1.445,3.239,1.774c1.05,0.259,2.216,0.277,3.388-0.124c0.617-0.212,1.278-0.531,1.849-0.901
	c0.507-0.328,0.94-0.691,1.197-1.041c0.274-0.374,0.52-0.972,0.59-1.626c0.055-0.511,0-1.047-0.234-1.516
	c-0.25-0.501-0.524-0.913-0.796-1.322c-0.441-0.666-0.883-1.331-1.308-2.454c-0.226-0.599-0.422-1.23-0.597-1.872
	c-0.185-0.673-0.333-1.284-0.473-1.874c-0.013-0.058-0.017-0.112-0.012-0.164l-0.775,0.928l-0.364-1.256
	c-1.654-5.708,0.332-10.866,0.91-12.369c0.064-0.169,0.097-0.194,0.101-0.234l1.385,0.145l-0.002,0.023
	c-0.029,0.269-0.077,0.535-0.131,0.812c0.269-0.399,0.543-0.755,0.798-1.012l1.721-1.733l-0.549,2.379
	c-0.081,0.353-0.314,1-0.588,1.762c-0.35,0.974-0.771,2.147-0.996,3.047l-0.14,0.614l1.091-1.373l-0.033,0.907l0.312-0.919
	c0.22-0.627,0.451-1.247,0.721-1.919c0.257-0.64,0.514-1.271,0.778-1.891c0.26-0.61,0.531-1.22,0.825-1.833l0.227-0.473
	c0.485-1.023,0.966-2.029,1.609-3.124c0.889-1.514,2.15-3.025,3.57-4.434c1.379-1.369,2.915-2.649,4.403-3.748
	c-0.525,0.271-1.044,0.568-1.552,0.885c-2.445,1.527-4.645,3.527-6.289,5.536c-0.081,0.097-0.234,0.302-0.398,0.522
	c-0.339,0.452-0.722,0.965-0.975,1.176l-1.212,1.014l0.07-1.578c0.03-0.677,0.451-1.566,1.009-2.456
	c0.785-1.25,1.864-2.557,2.442-3.19c2.251-2.466,5.148-4.691,8.313-6.527c3.297-1.911,6.896-3.406,10.371-4.314
	c3.764-0.984,8.021-1.26,12.195-0.878c4.178,0.383,8.28,1.423,11.738,3.07l0.734,0.371c0.704,0.382,1.357,0.759,2.001,1.242
	c0.062,0.057,0.088,0.09,0.149,0.164l1.313,1.595l-1.827-0.364l0.238,0.129c0.482,0.264,0.885,0.471,1.28,0.674l0.682,0.35
	c1.519,0.793,3.495,2.037,5.294,3.391c1.524,1.148,2.938,2.388,3.862,3.518c1.073,1.313,2.042,2.633,2.949,4.052
	c0.902,1.411,1.734,2.907,2.539,4.577c3.366,6.982,4.997,13.923,4.792,20.66c-0.201,6.63-2.178,13.05-6.021,19.102
	c-3.902,6.146-8.851,10.71-14.632,13.752c-5.947,3.129-12.771,4.641-20.24,4.604c-3.727-0.018-6.94-0.528-9.869-1.36
	c-2.922-0.829-5.565-1.979-8.162-3.281c-1.295-0.649-2.579-1.389-3.816-2.183c-1.069-0.687-2.113-1.418-3.109-2.174l0.628,0.542
	c1.022,0.858,2.104,1.693,3.212,2.453c1.007,0.689,2.038,1.322,3.068,1.855l0.569,0.28c0.646,0.31,1.454,0.697,1.856,1.033
	l1.615,1.353l-2.101-0.123c-1.052-0.062-2.46-0.704-3.894-1.559c-1.178-0.7-2.391-1.553-3.429-2.333l0.516,0.583l-2.659-1.195
	c0.467,0.409,0.93,0.79,1.395,1.152c0.725,0.567,1.477,1.111,2.257,1.665c0.721,0.514,1.533,1.083,2.351,1.601
	c0.813,0.515,1.64,0.985,2.398,1.306c0.413,0.175,0.779,0.367,1.139,0.556c0.459,0.241,0.913,0.479,1.399,0.637
	c0.266,0.088,0.521,0.207,0.79,0.333c0.187,0.088,0.385,0.18,0.601,0.264l0.674,0.253l0.69,0.239
	c4.232,1.422,8.07,2.146,12.152,2.168c4.096,0.021,8.465-0.664,13.749-2.061c2.087-0.551,4.038-1.179,5.876-1.879
	c1.838-0.701,3.551-1.475,5.162-2.316l7.26-3.795L96.126,110.238z"/>
<path fill-rule="evenodd" clip-rule="evenodd" d="M50.969,44.272c-0.146-0.649-0.259-1.31-0.393-1.962
	c-0.168-0.823,0.076-1.113-0.362-1.775c-0.622-0.939-0.894-2.028-1.289-3.183c-0.766-2.239-1.525-4.735-2.117-7.129l0.554,8.109
	c0.168,4.584-0.138,2.074,0.572,6.134c0.236,1.351-0.781,0.22-0.149,1.82c0.49-0.498,0.982-0.782,1.833-0.982
	c1.123-0.263,1.337-0.064,2.141-0.063C51.729,44.401,51.618,44.481,50.969,44.272"/>
<path fill-rule="evenodd" clip-rule="evenodd" d="M48.693,44.595c-0.041-0.847,0.618-1.313,0.662-2.015
	c0.076-1.213-0.691-1.08,0.138-2.354c0.031,0.993,0.017,1.023,0.244,2.059c0.125,0.57,0.285,1.405,0.358,1.97L48.693,44.595z"/>
<path fill-rule="evenodd" clip-rule="evenodd" d="M49.919,41.336c0.295,0.12,0.23,0.023,0.277,0.504
	c0.023,0.238-0.001,0.376-0.049,0.561c-0.083-0.182-0.16-0.302-0.218-0.5L49.919,41.336z"/>
<path fill-rule="evenodd" clip-rule="evenodd" d="M49.637,46.06c0.186,0.568,0.068,0.665-0.611,0.755
	c-0.125-0.375-0.131-0.189-0.036-0.568L49.637,46.06z"/>
<path fill-rule="evenodd" clip-rule="evenodd" d="M51.174,46.453c-0.582,0.134-0.693,0.093-0.753-0.525l0.718-0.017L51.174,46.453z"
	/>
<path fill-rule="evenodd" clip-rule="evenodd" d="M51.912,53.448c-0.292,0.216-1.171,0.487-1.495,0.342
	c0.125-0.184-0.278-0.04,0.239-0.285l0.991-0.238C52.002,53.295,51.751,53.213,51.912,53.448"/>
<path fill-rule="evenodd" clip-rule="evenodd" d="M42.674,57.652c0.249-0.222,0.457-0.198,0.833-0.261
	c0.118-0.02,0.447-0.076,0.546-0.117c0.34-0.141,0.144,0.005,0.307-0.227c-0.491-0.252-2.426,0.289-2.813,0.602
	c0.383,0.942,0.568,0.84,0.786,2.172c0.271,1.661,1.227,7.249,1.547,8.235l0.747,0.156l0.069,1.279
	c-0.387-0.064-0.05,0.067-0.264-0.248c-0.019-0.027-0.075-0.134-0.087-0.156l-0.093-0.158c-1.92,0.53-1.368,0.448-1.103,1.485
	c-0.355,0.509-0.465,0.133-0.31,1.027l0.752-0.168c0.01-0.028,0.058,0.002,0.085,0.01c0.042,0.79-0.438-0.037-0.286,1.044
	c0.099,0.704,0.604,3.582,0.826,3.889c0.47-0.15,0.414-0.126,0.344-0.61c-0.113-0.78-0.528-1.904-0.232-2.517
	c0.584,0.185,0.48,1.283,0.672,2.085c0.167,0.697,0.022,0.438,0.372,0.502c0.301-0.282,0.145,0.089,0.167-0.417l-0.249-1.376
	c-0.112-0.598-0.282-1.162,0.046-1.517c0.622,0.404,0.646,2.124,0.872,2.951c0.526-0.185,1.175-0.481,1.534-0.796
	c-0.057-0.429-0.163-0.861-0.217-1.271c-0.154-1.154,0.188-0.154,0.142-0.901l-0.389-2.307c-0.672,0.034-0.869,0.353-1.502,0.546
	l-0.706-4.151c0.423,0.509,0.524,1.507,0.938,2.125c0.016-0.026,0.029-0.064,0.036-0.084c0.006-0.02,0.025-0.06,0.032-0.085
	c0.254-0.922-0.81-6.019-1.153-7.844c-0.083-0.444-0.191-0.937-0.253-1.38c-0.064-0.455,0.007-0.401,0.015-0.638
	c0.004-0.134,0.031-0.063-0.02-0.223c-0.198-0.627-1.416,0.244-2.08,0.052c0.674-0.518,1.785-0.432,1.839-0.635
	c0.01-0.036,0.055-0.03,0.078-0.051c-0.261-0.283,0.092-0.138-0.397-0.142C43.603,57.529,42.938,57.966,42.674,57.652"/>
<path fill-rule="evenodd" clip-rule="evenodd" d="M44.504,70.935c-0.017,0.027-0.043,0.04-0.045,0.083
	c-0.002,0.041-0.034,0.063-0.044,0.08c-0.14,0.218,0.048,0.202-0.501,0.359l-0.089-0.427l1.622-0.633
	C45.349,71.036,45.139,71.143,44.504,70.935"/>
<path fill-rule="evenodd" clip-rule="evenodd" d="M64.866,53.857c-0.26,0.276-0.327,0.473-0.327,0.77l1.059-0.186L64.866,53.857z"/>
<path fill-rule="evenodd" clip-rule="evenodd" d="M69.064,54.375c-0.181,0.276-0.318,0.479-0.297,0.83L69.697,55
	C69.525,54.694,69.354,54.567,69.064,54.375"/>
<path fill-rule="evenodd" clip-rule="evenodd" d="M58.165,41.518c0.429-0.093,0.469-0.128,0.772-0.308
	c-0.485-0.279-1.067-0.443-1.76-0.368l0.124,0.702L58.165,41.518z"/>
<path fill-rule="evenodd" clip-rule="evenodd" d="M53.07,67.005c0.518-0.036,1.339-0.44,1.652-0.72l-0.083-0.371
	c-0.318-0.149-1.361-0.077-1.745,0.118L53.07,67.005z"/>
<path fill-rule="evenodd" clip-rule="evenodd" d="M61.91,70.348c0.159-0.335,0.088-0.689,0.049-1.059
	c-0.092-0.881-0.136-2.578-0.432-3.155l-0.728,0.092L61.91,70.348z"/>
<path fill-rule="evenodd" clip-rule="evenodd" d="M59.428,65.8c0.889-0.057,1.825-0.157,2.731-0.317l-0.169-0.628
	c-1.598,0.031-0.616-0.431-1.415-0.21c-0.738,0.205-0.033,0.176-0.534,0.417c-0.131,0.063-0.508,0.056-0.745,0.105L59.428,65.8z"/>
<path fill-rule="evenodd" clip-rule="evenodd" d="M72.285,61.052c-0.427-0.351-0.208-0.229-0.514-0.607
	c-0.779-0.088-2.294,0.132-2.834,0.658c0.226,0.132-0.154,0.137,0.45,0.046c0.346-0.051,0.964-0.373,1.392-0.248
	c-0.07,0.423-0.615,0.515-1.051,0.705c-0.54,0.236-0.702,0.345-0.819,0.844c0.986-0.195,1.899-0.585,2.979-0.551
	c0.066,0.002,0.429,0.018,0.435,0.017c0.021-0.002,0.058-0.011,0.076-0.015c0.018-0.004,0.057-0.022,0.07-0.027
	C72.79,61.779,72.678,61.374,72.285,61.052"/>
<path fill-rule="evenodd" clip-rule="evenodd" d="M64.382,61.285c0.71-0.179,1.78-0.616,2.359-0.34
	c-0.067,0.835-1.578,1.034-2.166,1.596c0.421,0.123,1.705-0.211,2.281-0.294c0.887-0.129,1.401,0.039,2.052-0.016
	c-0.081-0.797-0.025-0.992-0.706-1.146c-1.039-0.233,0.097-0.671-0.97-0.74c-0.623-0.04-1.66,0.18-2.301,0.494
	C64.516,61.042,64.499,61.083,64.382,61.285"/>
<path fill-rule="evenodd" clip-rule="evenodd" d="M65.13,54.991c-0.138,0.206-0.053,0.042-0.137,0.284l-0.074,0.688
	c-0.043,1.593-0.402,4.173,1.025,4.134c0.496-0.014,1.693-0.016,2.03-0.082c-0.352-0.587-0.466-0.622-0.864-1.085
	C66.515,58.236,65.225,55.755,65.13,54.991"/>
<path fill-rule="evenodd" clip-rule="evenodd" d="M54.292,71.054c-0.146-0.755-0.524-1.926-0.06-2.403
	c0.673,0.221,0.817,2.469,1.067,3.659c0.874-0.025,0.462-0.686,0.32-1.45l-0.63-3.914c-0.666,0.156-1.34,0.501-1.902,0.811
	l0.91,4.896l0.547-0.168L54.292,71.054z"/>
<path fill-rule="evenodd" clip-rule="evenodd" d="M68.49,60.785c0.588-0.15,1.121-0.445,1.756-0.583
	c0.768-0.167,1.058-0.067,1.727-0.083c-0.187-0.609-0.428-0.667-0.774-1.094c-0.709-0.874-1.556-3.172-1.942-3.604
	c-0.224,0.558-0.186,2.63-0.483,4.092C68.681,59.964,68.509,60.312,68.49,60.785"/>
<path fill-rule="evenodd" clip-rule="evenodd" d="M55.433,51.006c-0.294-0.639-0.441-1.978-0.575-2.29
	c-0.31-0.722,0.054,1.07-1.296,0.067c-0.292,0.331-0.088,0.229-0.387,0.499c0.296,0.281,0.377,0.733,0.445,1.131
	c0.073,0.424,0.135,0.852,0.21,1.275l0.59,0.084l0.059,0.888c0.462-0.167,0.983-0.54,1.414-0.36
	c-0.146,0.097-0.337,0.186-0.568,0.286c-1.11,0.483-0.272,0.331-0.348,1.396c-0.095,1.349-0.548,1.848,0.163,3.675l2.377-0.594
	c0.008-0.031,0.013-0.071,0.014-0.096l0.008-0.297c-0.088-1.084-0.134-1.33-0.674-2.256c-1.323-2.269-0.625-1.745-0.727-2.498
	C56.087,51.529,55.673,51.527,55.433,51.006"/>
<path fill-rule="evenodd" clip-rule="evenodd" d="M54.183,49.636c-0.238,0.009-0.098-0.002-0.239-0.063
	c0.002-0.002-0.043-0.321,0.38-0.331c0.402-0.009,0.194-0.031,0.313,0.305C54.497,49.578,54.321,49.63,54.183,49.636"/>
<path fill-rule="evenodd" clip-rule="evenodd" d="M76.65,63.583l-0.153-0.625c-0.712-0.076-1.17-0.062-1.943,0.002
	c-0.52,0.043-1.651,0.093-2.002,0.506l0.055,0.318c0.234,0.105-0.065,0.054,0.253,0.033c0.132-0.009,0.121-0.015,0.259-0.058
	c0.095-0.03,0.337-0.145,0.462-0.191c-0.131,1.314,0.161,0.403,0.35,1.226c0.048,0.205,0.069,1.197,0.168,1.729
	c0.211,1.128,0.381,2.425,0.663,3.482l2.648,0.428c-0.155-2.023-1.113-4.636-1.068-6.562c-0.946,0.302-0.039,0.176-0.755,0.6
	c-0.433-0.255,0.081,0.025-0.234-0.229c-0.22-0.177,0.022-0.124-0.295-0.176c-0.095,0.117-0.451,1.488-1.051-0.026
	c0.472-0.132,0.958-0.29,1.438-0.369C75.897,63.596,76.265,63.656,76.65,63.583"/>
<path fill-rule="evenodd" clip-rule="evenodd" d="M54.635,65.358c-0.264-3.646-0.656-6.112-1.5-9.556
	c-0.281-1.148,0.151-0.344,0.119-1.122c-0.845-0.34-2.884,0.127-3.499,0.801c0.017,0.021,0.036,0.055,0.047,0.068l0.103,0.124
	c0.271,0.294,0.298,0.101,0.414,0.883c0.632,4.251,1.444,5.28,2.427,8.916L54.635,65.358z"/>
<path fill-rule="evenodd" clip-rule="evenodd" d="M52.136,55.059l0.483,0.019c-0.003,0.448,0.065,0.497-0.348,0.669L52.136,55.059z"
	/>
<path fill-rule="evenodd" clip-rule="evenodd" d="M51.78,58.318c-0.131-0.715-0.38-1.192,0.028-1.674
	c0.528,0.085,0.496,0.352,0.637,1.19l0.762,4.219l-0.71,0.18L51.78,58.318z"/>
<path fill-rule="evenodd" clip-rule="evenodd" d="M53.287,54.418C53.08,52.447,52.772,54,52.45,52.546l-0.872-4.89
	c-0.24-2.315-0.07-1.048,0.127-2.082c-0.884-0.424-3,0.198-3.782,0.865c0.382,0.982,0.413-0.904,1.341,4.204
	c0.147,0.806,0.307,1.628,0.432,2.438c0.244,1.585-0.596,0.292-0.101,2.113c0.796-0.388,0.87-0.538,1.921-0.782
	C52.628,54.153,52.624,54.415,53.287,54.418"/>
<path fill-rule="evenodd" clip-rule="evenodd" d="M67.189,63.125c-0.014-0.016-0.026,0.056-0.043,0.082
	c-0.301-0.221-0.154-0.276-0.521-0.359c-0.101,0.376,0.047,0.732-0.093,0.503c-0.009-0.015-0.014,0.061-0.027,0.089
	c-0.397-0.276-0.122-0.32-0.489-0.298c0.453,1.161,1.008,4.744,1.351,6.519l0.653-0.025c-0.211-1.136-0.997-5.117-0.798-6.015
	c0.561,0.12,1.28,4.689,1.59,6.083l0.828-0.003l-0.342-1.87c-0.067-0.445-0.097-0.47,0.16-0.709
	c0.693,0.252,0.634,1.959,0.857,2.672l0.75-0.049c-0.243-1.538-0.869-3.462-0.521-4.81c0.819,0.342,1.089,3.422,1.364,4.875
	l1.564,0.104c-0.349-1.859-1.291-6.006-1.173-7.711c-0.555,0.161-0.307,0.288-0.648,0.707l-0.322-0.519
	c-0.392,0.313-0.104,0.162-0.34,0.637c-0.211-0.099-0.247-0.36-0.537-0.44l-0.118,0.603c-0.405-0.042-0.427-0.366-0.708-0.391
	l0.129,1.056l-1.112,0.479c-0.052-0.272-0.158-0.653-0.177-0.914c-0.031-0.425,0.102-0.357,0.032-0.759
	c-0.817,0.103-0.246,0.079-0.717,0.535l-0.271-0.483C67.117,62.978,67.34,63.308,67.189,63.125"/>
<path fill-rule="evenodd" clip-rule="evenodd" d="M60.956,51.947c-0.296-0.316-0.703-1.505-0.852-1.958
	c-0.512-1.554-0.223-1.077-0.089-1.493c0.182-0.563,0.094-0.802-0.232-1.251c-0.933-1.283-1.93-4.756-2.315-5.279
	c0.064,0.968,0.152,4.584,0.001,5.525c-0.209,1.301-0.063,0.559,0.189,1.671c0.405,0.1,0.029-0.281,0.367,0.136
	c0.158,0.871,0.231,1.595,0.224,2.396c-0.016,1.743-0.675,1.037-0.273,1.893c0.178,0.38,0.403,0.565,0.523,0.889l0.672,3.68
	c-0.593,0.143-3.985,0.833-4.461,1.07l-0.156,0.108c0.39,0.395,0.147-0.095,0.692,0.172c-0.059,0.481-0.083,0.131-0.506,0.446
	c0.108,0.861,0.387,1.339,0.573,2.082c0.23,0.917-0.018,0.512-0.211,0.902c-0.152,0.308,0.002,0.661,0.086,1.04
	c1.254-0.313,0.906-0.303,0.956-1.438c0.021-0.458-0.012-1.338,0.193-1.7c0.226,0.289,0.448,0.856,0.607,1.216
	c0.661,1.496,0.272,1.235,1.918,1.247l0.239,1.271l1.759-0.19l-1.829-10.69c-0.432-0.136-0.36,0.064-0.718-0.166
	c0.209-0.302,0.376-0.301,0.757-0.536c0-0.801-0.028-1.452-0.132-2.244c-0.225-1.72-0.537-1.917,0.179-2.044
	c-0.09,0.581-0.308,0.17-0.123,0.928c0.531,0.125-0.214-0.318,0.372-0.085c1.023,4.088,0.93,2.92,1.972,3.335l-0.703,0.331
	l2.398,12.444c0.474,0.016,1.037,0.082,1.547-0.05c-0.045-0.337-0.116-0.937-0.22-1.241c-0.213-0.623-1.112-0.63-0.852-1.492
	c0.175-0.578,0.366-0.1,0.072-0.921c-0.345-0.964,0.235-0.835,0.438-1.764c0.138-0.63,0.184-1.249,0.239-1.908
	c0.203-2.412,0.315-1.544-0.983-3.403c-1.209-1.731-0.401-0.715-0.594-1.411c-0.201-0.722-0.472-1.859-0.77-2.052
	c-0.171,0.469,0.03,1.214,0.093,2.091c0.031,0.443,0.063,0.208,0.158,0.58c0.074,0.29,0.078,0.984,0.123,1.38
	c0.065,0.577,0.234,0.857-0.219,1.16l-0.225-0.487c-0.037-0.147-0.07-0.378-0.099-0.535c-0.172-0.948-0.336-1.311-0.191-2.197
	c0.04-0.245,0.018-0.779,0.002-1.061L60.956,51.947z"/>
<path fill-rule="evenodd" clip-rule="evenodd" d="M57.664,48.589c0.031-0.48,1.936-0.927,2.238-0.6
	c-0.082,0.097,0.017,0.159-0.502,0.228C58.208,48.374,58.13,48.562,57.664,48.589"/>
<path fill-rule="evenodd" clip-rule="evenodd" d="M63.038,57.172c0-0.001,0.041-0.495,0.978-0.334
	c-0.05,0.212,0.096,0.218-0.37,0.401C63.134,57.443,63.22,57.369,63.038,57.172"/>
<path fill-rule="evenodd" clip-rule="evenodd" d="M62.573,57.169c0.03,0.47-0.196,0.488-0.554,0.347
	C62.023,57.117,62.128,57.028,62.573,57.169"/>
<path fill-rule="evenodd" clip-rule="evenodd" d="M57.267,58.937c0.898-0.335,0.667-0.137,0.809-0.079
	c-0.034,0.277,0.083,0.348-0.417,0.404C57.324,59.3,57.355,59.225,57.267,58.937"/>
<path fill-rule="evenodd" clip-rule="evenodd" d="M56.667,59.18c-0.072,0.477-0.168,0.354-0.751,0.488l-0.082-0.297
	c0.053-0.06-0.038-0.178,0.414-0.265C57.034,58.955,56.328,59.04,56.667,59.18"/>
<path fill-rule="evenodd" clip-rule="evenodd" d="M44.203,47.401c-0.188-0.728-0.539-1.532-0.233-1.817
	c0.554,0.154,0.238,1.229,0.77,1.717c0.246-0.422-0.836-4.116-0.949-4.519c-0.378-1.357-0.665-3-1.161-4.235
	c0.309,2.141,0.666,8.426,0.81,9.028c-0.127,0.109-0.333,0.015-0.507,0.345c-0.457,0.864,0.238,1.579,0.447,1.98
	c0.803,1.543,0.755,3.722,1.141,5.018c0.134,0.448,0.402,0.788,0.549,1.324c0.297,1.081,0.375,2.236,0.711,3.302
	c0.078-1.459-0.096-3.056-0.362-4.61c-0.95-5.559-1.35-4.791,0.142-5.441c-0.175-0.341-0.28-0.163-0.376-0.562
	c-0.15-0.624,0.141-0.138,0.042-0.773C45.128,47.521,44.622,47.593,44.203,47.401"/>
</svg>
