<?xml version="1.0" encoding="utf-8"?>
<!-- Generator: Adobe Illustrator 16.0.0, SVG Export Plug-In . SVG Version: 6.00 Build 0)  -->
<!DOCTYPE svg PUBLIC "-//W3C//DTD SVG 1.1//EN" "http://www.w3.org/Graphics/SVG/1.1/DTD/svg11.dtd">
<svg version="1.1" id="Capa_1" xmlns="http://www.w3.org/2000/svg" xmlns:xlink="http://www.w3.org/1999/xlink" x="0px" y="0px"
	 width="141.732px" height="141.732px" viewBox="0 0 141.732 141.732" enable-background="new 0 0 141.732 141.732"
	 xml:space="preserve">
<polygon fill-rule="evenodd" clip-rule="evenodd" fill="#FF0000" points="70.866,39.641 102.756,47.304 134.646,54.967 
	134.646,70.293 134.646,85.62 102.756,93.283 70.866,100.946 38.977,93.283 7.086,85.62 7.086,70.293 7.086,54.967 38.977,47.304 
	"/>
<polygon fill-rule="evenodd" clip-rule="evenodd" fill="#FFFFFF" points="70.866,13.4 95.501,27.624 120.137,41.847 120.137,70.294 
	120.137,98.74 95.501,112.964 70.866,127.188 46.23,112.964 21.595,98.74 21.595,70.294 21.595,41.847 46.23,27.624 "/>
<polygon fill="none" stroke="#000000" stroke-width="2.0211" stroke-miterlimit="22.9256" points="70.866,13.4 95.501,27.624 
	120.137,41.847 120.137,70.294 120.137,98.74 95.501,112.964 70.866,127.188 46.23,112.964 21.595,98.74 21.595,70.294 
	21.595,41.847 46.23,27.624 "/>
<path fill-rule="evenodd" clip-rule="evenodd" d="M52.195,62.296c0.159,0.185-0.093,0.019,0.284,0.261l1.038,0.458
	c1.809,1.061,0.668,1,2.702,0.09c1.008-0.452,0.963,0.264,1.395-0.821c-1.837-0.548-1.297,0.08-2.791,0.046
	C53.295,62.296,53.863,61.476,52.195,62.296 M61.937,66.497c0.504-0.095,1.592-0.794,2.192-1.097
	c0.492-0.248,0.478-0.167,0.515-0.571c-0.565-0.38-1.654-0.029-2.127,0.105c-0.909,0.257-3.127-0.842-3.028-0.003
	c0.026,0.223-0.212,0.106,0.822,0.529C61.25,65.843,61.23,66.065,61.937,66.497z M41.5,60.957c-0.004,0.457-0.113,0.296,0.44,0.528
	c0.202,0.084,0.504,0.177,0.727,0.273c0.695,0.298,0.682,0.525,1.297,0.862c1.04-0.206,1.103-0.81,2.617-0.885l0.165-0.873
	c-0.796,0.032-2.013,0.314-2.658,0.277C43.514,61.106,42.204,60.458,41.5,60.957z M47.985,65.832
	c0.001,0.688-0.007,0.366,1.109,0.988c2.399,1.336,1.386,0.611,2.896,0.051c0.699-0.26,1.273,0.029,1.314-0.874
	c-1.232-0.199-1.962,0.201-2.843,0.095C50.019,66.038,48.508,65.369,47.985,65.832z M80.606,109.714l0.042-0.014
	c0-2.208-0.184-27.463,0.135-29.015c0.751-3.657,3.762-2.602,4.457-1.09c0.433,0.941,0.381,2.614,0.38,3.714
	c0,2.751,0.043,5.495,0.074,8.241c0.061,5.498,0.272,11.208,0.159,16.675l0.051-0.014v3.558h-5.298V109.714z M97.51,109.422
	c0.918-0.678,1.794-1.329,2.614-2.021c0.544-0.458,2.024-1.664,2.3-2.29c-0.514,0.237-0.828,0.547-1.304,0.916l-3.595,2.661
	l0.007-1.179l-0.051,0.017v-6.056l0.153-0.16c-0.26-0.609-0.009-23.077,0.002-25.993c0.015-3.98,0.53-8.509-0.956-12.028
	c-1.069-2.532-4.164-5.578-6.403-6.537c0.002-4.026,0.164-8.071-0.049-12.092c-0.299-5.663-5.486-5.627-5.696-6.431l-0.036-6.479
	c0.008-0.674,0.081-1.595,0.389-2.156c0.393-0.715,0.78-0.328,1.121-1.334c0.139-1.053,0.13-1.631-0.455-2.167
	c-2.754-2.523-4.922,0.223-5.029,0.633c-0.135,1.876,0.223,2.344,1.482,3.027l0.003,1.221l-0.008,7.386
	c-1.791,0.578-2.339,0.681-3.669,1.662c-3.249,2.396-2.435,10.025-2.31,13.565c0.141,4.014-0.019,2.509-3.071,4.898
	c-2.478,1.938-4.429,5.095-4.641,8.959c-0.187,3.397-0.015,7.292-0.013,10.744c0.002,3.621,0.001,7.242,0.002,10.864
	c0.001,6.527,0.161,13.271,0.036,19.81l-0.008,0.002v0.415c-0.009,0.455-0.021,0.908-0.033,1.36l0.033,0.003v4.029l-0.024-0.001
	l0.024,3.739v0.204h0.001l0.039,5.814c-0.806-0.259-2.122-1.159-2.957-1.633l-2.139-1.235v2.368l4.587,2.657
	c0.447,0.263,2.997,1.746,3.193,1.746c0.371,0,17.718-10.145,28.888-16.623v-2.356l-2.388,1.357L97.51,109.422z M57.85,59.25
	c0.094,0.544,0.545,0.588,1.149,0.901c0.535,0.277,0.965,0.56,1.439,0.802c0.529-0.232,0.839-0.582,1.379-0.863
	c1.02-0.531,0.947,0.255,1.255-0.819c-1.708-0.63-1.224,0.034-2.403,0.179C59.717,59.568,58.958,58.458,57.85,59.25z"/>
<path fill-rule="evenodd" clip-rule="evenodd" fill="#FF0000" d="M96.126,109.665c-0.22,0.167-0.443,0.33-0.665,0.484
	c-0.203,0.143-0.411,0.278-0.619,0.406c-0.261,0.156-0.521,0.345-0.774,0.527c-0.337,0.243-0.666,0.48-1.034,0.679
	c-0.705,0.381-1.211,0.715-1.654,1.008c-0.339,0.224-0.646,0.427-0.972,0.609c-0.295,0.165-0.869,0.496-1.498,0.88l1.529-0.696
	c1.125-0.49,4.04-2.345,5.644-3.363l0.577-0.366c1.505-0.948,3.094-2.231,4.632-3.692c1.606-1.526,3.158-3.248,4.503-4.992
	c0.267-0.343,0.971-0.915,1.324-1.248c0.657-0.626,1.311-1.315,1.932-2.021c0.663-0.757,1.282-1.523,1.822-2.251l0.066-0.09
	c0.279-0.377,0.489-0.661,0.736-1.021c0.946-1.38,1.778-2.802,2.511-4.278c0.731-1.474,1.369-3.012,1.926-4.628
	c0.108-0.304,0.267-0.817,0.437-1.428l-0.388,0.568l0.285-2.738c0.044-0.43,0.159-0.987,0.293-1.641
	c0.187-0.907,0.414-2.014,0.53-3.154c0.138-1.373,0.192-2.776,0.164-4.19c-0.135,2.431-0.538,4.79-1.246,6.883l-2.271,6.716
	l0.473-3.602c-0.283,0.899-0.613,1.831-0.978,2.714c-0.662,1.604-1.447,3.065-2.29,3.931l-1.871,1.921l0.698-2.586
	c0.086-0.319,0.431-0.994,0.771-1.659c0.246-0.484,0.493-0.965,0.603-1.234c0.192-0.472,0.366-0.933,0.536-1.417
	c0.158-0.452,0.325-0.963,0.511-1.549c0.983-3.112,1.46-6.627,1.506-10.21c0.05-3.839-0.394-7.764-1.235-11.368l-0.761-3.255
	l1.152,1.544c-0.206-0.67-0.429-1.325-0.661-1.97c-0.31-0.857-0.683-1.809-1.065-2.777c-1.447-3.658-2.877-6.558-4.65-9.133
	c-1.773-2.574-3.906-4.848-6.767-7.26c-0.897-0.757-1.784-1.456-2.685-2.114c-0.903-0.661-1.824-1.283-2.789-1.889l-0.64-0.369
	c-0.541-0.308-1.158-0.656-1.432-0.904l-1.324-1.2l1.788-0.011c0.858-0.005,1.852,0.283,2.874,0.722l-0.446-0.239
	c-0.245-0.128-0.489-0.257-0.803-0.447c-0.476-0.284-1.045-0.537-1.617-0.791c-0.419-0.186-0.84-0.373-1.202-0.556l-3.142-1.585
	l1.094,0.084c-0.73-0.263-1.412-0.49-1.929-0.653c-3.599-1.136-7.378-2.196-11.234-2.878c-3.84-0.68-7.757-0.988-11.645-0.625
	c-6.048,0.564-11.486,2.31-16.162,4.836c-5.132,2.772-9.342,6.485-12.435,10.606c-2.564,3.418-5.499,8.468-7.393,14.187
	c-1.44,4.347-2.276,9.075-1.881,13.748c0.135,1.599,0.365,3.082,0.817,4.402c0.438,1.284,1.092,2.428,2.082,3.392
	c0.752,0.732,1.903,1.444,3.239,1.774c1.05,0.258,2.216,0.277,3.388-0.125c0.617-0.211,1.278-0.531,1.849-0.9
	c0.507-0.329,0.94-0.692,1.197-1.042c0.274-0.373,0.52-0.972,0.59-1.626c0.055-0.511,0-1.047-0.234-1.516
	c-0.25-0.5-0.524-0.912-0.796-1.322c-0.441-0.665-0.883-1.33-1.308-2.454c-0.226-0.599-0.422-1.23-0.597-1.871
	c-0.185-0.674-0.333-1.284-0.473-1.874c-0.013-0.058-0.017-0.112-0.012-0.164l-0.775,0.927l-0.364-1.255
	c-1.654-5.708,0.332-10.866,0.91-12.369c0.064-0.169,0.097-0.194,0.101-0.233l1.385,0.145l-0.002,0.023
	c-0.029,0.268-0.077,0.535-0.131,0.812c0.269-0.4,0.543-0.755,0.798-1.012l1.721-1.733l-0.549,2.379
	c-0.081,0.352-0.314,1-0.588,1.762c-0.35,0.974-0.771,2.147-0.996,3.047l-0.14,0.614l1.091-1.373l-0.033,0.907l0.312-0.919
	c0.22-0.627,0.451-1.247,0.721-1.919c0.257-0.64,0.514-1.271,0.778-1.892c0.26-0.61,0.531-1.219,0.825-1.832l0.227-0.474
	c0.485-1.023,0.966-2.029,1.609-3.123c0.889-1.514,2.15-3.025,3.57-4.434c1.379-1.369,2.915-2.649,4.403-3.748
	c-0.525,0.271-1.044,0.568-1.552,0.885c-2.445,1.527-4.645,3.527-6.289,5.536c-0.081,0.097-0.234,0.302-0.398,0.523
	c-0.339,0.452-0.722,0.965-0.975,1.176l-1.212,1.014l0.07-1.579c0.03-0.677,0.451-1.566,1.009-2.456
	c0.785-1.25,1.864-2.556,2.442-3.19c2.251-2.466,5.148-4.691,8.313-6.527c3.297-1.911,6.896-3.407,10.371-4.314
	c3.764-0.984,8.021-1.259,12.195-0.877c4.178,0.382,8.28,1.423,11.738,3.07l0.734,0.371c0.704,0.382,1.357,0.759,2.001,1.242
	c0.062,0.058,0.088,0.091,0.149,0.165l1.313,1.595l-1.827-0.365l0.238,0.129c0.482,0.265,0.885,0.471,1.28,0.674l0.682,0.35
	c1.519,0.793,3.495,2.036,5.294,3.391c1.524,1.148,2.938,2.388,3.862,3.518c1.073,1.313,2.042,2.633,2.949,4.052
	c0.902,1.411,1.734,2.907,2.539,4.578c3.366,6.981,4.997,13.923,4.792,20.66c-0.201,6.63-2.178,13.049-6.021,19.101
	c-3.902,6.146-8.851,10.71-14.632,13.752c-5.947,3.129-12.771,4.641-20.24,4.604c-3.727-0.018-6.94-0.528-9.869-1.359
	c-2.922-0.829-5.565-1.98-8.162-3.282c-1.295-0.648-2.579-1.388-3.816-2.183c-1.069-0.686-2.113-1.418-3.109-2.174l0.628,0.543
	c1.022,0.858,2.104,1.692,3.212,2.453c1.007,0.689,2.038,1.321,3.068,1.855l0.569,0.279c0.646,0.31,1.454,0.697,1.856,1.033
	l1.615,1.353l-2.101-0.123c-1.052-0.062-2.46-0.703-3.894-1.558c-1.178-0.701-2.391-1.554-3.429-2.333l0.516,0.583l-2.659-1.195
	c0.467,0.409,0.93,0.789,1.395,1.152c0.725,0.566,1.477,1.111,2.257,1.665c0.721,0.513,1.533,1.083,2.351,1.601
	c0.813,0.514,1.64,0.984,2.398,1.306c0.413,0.174,0.779,0.366,1.139,0.556c0.459,0.24,0.913,0.478,1.399,0.637
	c0.266,0.088,0.521,0.206,0.79,0.332c0.187,0.088,0.385,0.18,0.601,0.264l0.674,0.253l0.69,0.24
	c4.232,1.422,8.07,2.146,12.152,2.167c4.096,0.021,8.465-0.664,13.749-2.061c2.087-0.551,4.038-1.178,5.876-1.879
	s3.551-1.474,5.162-2.316l7.26-3.795L96.126,109.665z"/>
<text transform="matrix(1 0 0 1.3963 33.8555 100.3799)" font-family="'TraditionalArabic'" font-size="18.9277">II</text>
<path fill-rule="evenodd" clip-rule="evenodd" d="M80.521,26.728c-0.135,1.876,0.223,2.344,1.482,3.027l0.003,1.221l-0.005,4.722
	c0.606,0.119,1.237,0.182,1.885,0.182c0.213,0,0.424-0.007,0.633-0.02l-0.023-4.107c0.008-0.674,0.081-1.595,0.389-2.156
	c0.393-0.715,0.78-0.328,1.121-1.334c0.139-1.053,0.13-1.631-0.455-2.167C82.797,23.571,80.629,26.317,80.521,26.728"/>
</svg>
