<?xml version="1.0" encoding="utf-8"?>
<!-- Generator: Adobe Illustrator 16.0.0, SVG Export Plug-In . SVG Version: 6.00 Build 0)  -->
<!DOCTYPE svg PUBLIC "-//W3C//DTD SVG 1.1//EN" "http://www.w3.org/Graphics/SVG/1.1/DTD/svg11.dtd">
<svg version="1.1" id="Capa_1" xmlns="http://www.w3.org/2000/svg" xmlns:xlink="http://www.w3.org/1999/xlink" x="0px" y="0px"
	 width="141.732px" height="141.732px" viewBox="0 0 141.732 141.732" enable-background="new 0 0 141.732 141.732"
	 xml:space="preserve">
<polygon fill-rule="evenodd" clip-rule="evenodd" fill="#FF0000" points="70.866,40.213 102.756,47.876 134.646,55.54 
	134.646,70.866 134.646,86.193 102.756,93.856 70.866,101.52 38.977,93.856 7.086,86.193 7.086,70.866 7.086,55.54 38.977,47.876 
	"/>
<polygon fill-rule="evenodd" clip-rule="evenodd" fill="#FFFFFF" points="70.866,13.973 95.501,28.197 120.137,42.42 
	120.137,70.867 120.137,99.313 95.501,113.537 70.866,127.76 46.23,113.537 21.595,99.313 21.595,70.867 21.595,42.42 46.23,28.197 
	"/>
<polygon fill="none" stroke="#000000" stroke-width="2.0211" stroke-miterlimit="22.9256" points="70.866,13.973 95.501,28.197 
	120.137,42.42 120.137,70.867 120.137,99.313 95.501,113.537 70.866,127.76 46.23,113.537 21.595,99.313 21.595,70.867 
	21.595,42.42 46.23,28.197 "/>
<text transform="matrix(1 0 0 1 27.7046 100.8594)" font-family="'TraditionalArabic'" font-size="26.4296">IV</text>
<path fill-rule="evenodd" clip-rule="evenodd" d="M120.031,74.864l-0.914,0.39c-0.049,0.999,0.018,2.533,0.086,3.509
	c0.149,2.139,0.54,1.985,0.307,3.014c-0.022,0.852,0.216,1.798,0.521,2.775V74.864z M54.237,48.866l-0.101-0.071
	c0.033,0.046,0.068,0.111,0.086,0.145c0.018,0.033,0.062,0.103,0.083,0.144l0.594,1.439c0.145,0.264,0.189,0.272,0.222,0.305
	l-0.084,0.331c0.901,0.421,0.114,0.369,1.151,0.891c0.582-0.17,0.271-0.036,0.822-0.299c-0.094-0.718,0.335-1.144,0.825-1.562
	c1.188-0.05,0.784,0.267,1.654,0.278c0.819,0.011,0.705-0.346,1.435-0.553c1.008,0.281,0.529,0.487,1.837,0.715
	c0.856,0.148,1.535,0.284,2.486,0.357c0.001,0.212,0.007,0.195,0.154,0.473c1.242,0.128,3.225,0.265,4.39,0.703
	c1.217,0.457,1.383,1.709,2.025,2.902c2.192,4.071,5.004,2.903,6.497,3.38c0.232,4.203-0.097,10.121,2.355,12.713
	c1.008,1.066,0.989,0.376,1.623,2.09c0.405,1.098,1.06,1.322,1.248,2.426c0.539,3.139,2.918,2.793,1.794,4.873
	c-0.243,1.611-0.543,2.652,0.335,3.947c0.925,1.361,0.956,1.44,0.064,3.021c-1.063,0.067-1.743,0.057-2.11,0.946
	c-0.364,0.883,0.191,1.848-0.459,2.728c-1.476-0.33-0.378-1.205-2.017-2.15c-1.2-0.691-1.826-0.6-3.197-0.292
	c-0.142,0.601-0.309,0.607-0.78,0.732c-0.647,0.172-0.703-0.062-1.354,0.28c-0.591,0.31-0.422,0.466-0.898,0.7l-1.33,0.465
	c-0.837,0.985-0.489,1.613-0.704,3.078c-3.662,0.236-2.876-1.94-4.72-1.43c-0.935-0.845-2.788-0.243-4.187-0.824
	c0.047-0.928,0.382-1.057,0.018-2.009c-0.257-0.675-0.731-0.669-0.807-1.261c-0.555-0.332-0.494-0.213-0.698-0.755
	c-0.281-0.896-0.265-0.484-1.236-0.783c-0.012,0.998,0.234,0.688,0.121,1.315c-1.653,0.218-4.105-0.753-5.347,0.367l2.088,0.237
	l-0.872,1.044c0.949-0.025,1.081-0.58,1.514-1.06l3.187,0.035c0.808,0.195,1.668,0.966,1.215,1.827
	c-0.266,0.505-0.87,0.369-0.359,1.343c0.361,0.687,0.563,0.064,1.06,0.994c-1.901,1.111-3.191-0.171-4.145,0.56
	c0.339,0.732,0.2,0.262,2.641,0.444c-0.053,0.599-0.24,0.617,0.007,0.992c1.455-0.66,1.498-2.3,3.5-2.183
	c0.338,0.36,1.752,0.576,2.341,1.092c0.428,0.374,1.448,1.649,1.548,2.128c-0.838,0.498-2.142,0.42-3.272,0.574
	c-1.813,0.246-1.152,0.914-2.97,1.177c-2.468,0.355-1.84-1.148-6.097-0.895c-0.764,0.046-0.325-0.095-0.803,0.174
	c0.416,0.279,0.182,0.248,0.902,0.203l0.575,0.622c-0.758,0.585-1.879,0.654-2.332,1.237c0.531,0.295,1.304,0.207,1.934,0.29
	c0.189-0.435,0.198-0.456,0.544-0.717c0.093-0.07,0.312-0.178,0.379-0.232c0.512-0.413,0.212-0.173,0.439-0.494
	c1.01-0.217,1.311-0.264,2.261,0.355c1.064,0.693,1.366,0.243,2.669,0.392c-0.271,0.845-1.415,1.056-2.215,1.857l0.798,0.445
	c0.963-0.593,3.066-2.776,4.535-2.96c1.232-0.153,2.588,0.192,3.709,0.067c1.24-0.138,1.34-0.996,2.698-1.063
	c1.977,2.97,1.621,0.873,3.888,0.865c0.638,0.795,0.33,1.797,3.509,1.874c2.442,0.06,1.686-1.737,2.605-2.949
	c1.186-0.723,1.298-0.171,2.186,0.001c1.162,0.226,0.861-0.307,1.791-0.526l0.151,0.476c0.263,0.405-0.154,0.13,0.776,1.654
	c1.25,0.086,0.971,0.009,1.9-0.234l0.217-0.479c4.355,0.229,2.471-2.185,3.828-3.629c0.52,1.37-0.308,3.938-0.42,5.624
	c0.417,0.366-0.133,0.175,0.616,0.113c0.445-0.52,1.007-1.304,1.34-2.029c1.388,0.548-1.091-0.691,0.527,0.385
	c0.426,0.284-0.26,0.18,0.665,0.32l0.098-0.719l0.59-0.757l-0.379,4.234c2.137-0.611,0.9-2.186,2.24-2.524
	c0.368,0.79-0.028,1.239,0.412,2.016c0.897-0.24,1.56-2.466,1.738-3.478c1.046-1.163-0.015-2.268,3.409-2.704
	c2.943-1.031,11.535,0.046,14.832-0.186v-4.156c-3.392,0.737-11.467,0.378-13.264,0.043c-2.423-0.451-3.658,0.322-4.502,0.236
	c-0.222-3.617-2.324-8.162-1.802-9.065c0.364,0.564,0.216,0.771,0.862,0.91c1.358,0.293,0.516-1.974,0.451-2.43
	c0.817-0.87,1.43-0.195,0.385-2.777c-1.901-4.7-0.957-7.255-1.289-10.566c-0.62-6.164-1.862-7.386-4.238-11.807
	c-0.698-1.203-1.505-2.757-1.993-4.025c-0.44-1.143-0.688-7.073-4.15-8.078c-2.81-0.815-2.745,0.952-3.49,2.36L84,44.872
	l-2.895,2.168c-0.809-0.417-0.96-1.217-2.265-1.188c-1.04,0.023-1.578,0.635-1.87,1.525c-0.926,2.819,1.04,4.339,0.428,5.448
	c-0.601-0.324-2.171-2.676-2.2-2.753c-0.667-1.707,0.084-2.81,0.415-3.995c0.5-0.532,0.374-0.474,0.238-1.249l0.104-0.07
	c-0.919-0.709-0.646-1.234-2.024-1.141c-0.771,0.052-1.907,0.426-2.191-0.638l-0.017-0.012c-0.273-0.213-0.385-0.268-0.708-0.484
	l-0.002-0.248c-2.742-0.808-3.814,0.365-5.461,0.762c-1.245,0.3-1.239-0.281-2.796,0.285c-1.993,0.724-3.932-2.477-7.036,0.788
	C54.378,45.48,54.146,46.347,54.237,48.866z M66.221,44.952l-0.036-0.429l1.725-0.139c0.044,1.408-0.641,1.485-1.904,1.411
	L66.221,44.952z M91.257,83.671c-0.076,2.228-1.765,1.733-1.933,3.374l2.344-0.252c0.155-0.376,0.649-1.679,0.864-1.886
	c-0.078-0.889,0.122-1.38-0.306-2.032c-0.683,0.098-0.183-0.129-0.582,0.223L91.257,83.671z M93.979,89.579l1.135-0.081
	c0.291-0.716,0.578-2.152,0.409-2.894c-0.082-0.359-0.116-0.279-0.208-0.415L93.979,89.579z M60.056,45.81
	c0.364-0.046,0.435,0.066,0.753-0.143c0.688-0.452,0.227-0.056,0.356-0.796C60.23,45.006,60.254,44.923,60.056,45.81z"/>
<path fill-rule="evenodd" clip-rule="evenodd" fill="#FF1500" d="M96.126,110.238c-0.22,0.167-0.443,0.33-0.665,0.484
	c-0.203,0.142-0.411,0.278-0.619,0.405c-0.261,0.156-0.521,0.346-0.774,0.528c-0.337,0.243-0.666,0.48-1.034,0.679
	c-0.705,0.381-1.211,0.715-1.654,1.008c-0.339,0.224-0.646,0.427-0.972,0.609c-0.295,0.165-0.869,0.496-1.498,0.88l1.529-0.697
	c1.125-0.489,4.04-2.344,5.644-3.363l0.577-0.366c1.505-0.948,3.094-2.23,4.632-3.691c1.606-1.527,3.158-3.249,4.503-4.992
	c0.267-0.343,0.971-0.915,1.324-1.248c0.657-0.627,1.311-1.315,1.932-2.022c0.663-0.756,1.282-1.523,1.822-2.25l0.066-0.09
	c0.279-0.377,0.489-0.661,0.736-1.021c0.946-1.38,1.778-2.802,2.511-4.277c0.731-1.474,1.369-3.013,1.926-4.628
	c0.108-0.304,0.267-0.818,0.437-1.428l-0.388,0.568l0.285-2.739c0.044-0.43,0.159-0.986,0.293-1.641
	c0.187-0.906,0.414-2.013,0.53-3.154c0.138-1.372,0.192-2.776,0.164-4.19c-0.135,2.432-0.538,4.791-1.246,6.884l-2.271,6.716
	l0.473-3.602c-0.283,0.898-0.613,1.831-0.978,2.714c-0.662,1.603-1.447,3.065-2.29,3.931l-1.871,1.92l0.698-2.585
	c0.086-0.319,0.431-0.994,0.771-1.66c0.246-0.483,0.493-0.964,0.603-1.234c0.192-0.471,0.366-0.933,0.536-1.416
	c0.158-0.452,0.325-0.964,0.511-1.549c0.983-3.113,1.46-6.628,1.506-10.21c0.05-3.839-0.394-7.765-1.235-11.368l-0.761-3.255
	l1.152,1.544c-0.206-0.67-0.429-1.325-0.661-1.97c-0.31-0.858-0.683-1.809-1.065-2.777c-1.447-3.658-2.877-6.558-4.65-9.133
	c-1.772-2.574-3.906-4.848-6.767-7.26c-0.897-0.757-1.784-1.455-2.685-2.114c-0.903-0.661-1.824-1.283-2.789-1.889l-0.64-0.369
	c-0.541-0.307-1.158-0.656-1.432-0.904l-1.324-1.2l1.788-0.011c0.858-0.005,1.852,0.283,2.874,0.721l-0.446-0.239
	c-0.245-0.128-0.489-0.257-0.803-0.447c-0.476-0.285-1.045-0.537-1.617-0.792c-0.419-0.186-0.84-0.373-1.202-0.556l-3.142-1.585
	l1.094,0.083c-0.73-0.263-1.412-0.49-1.929-0.653c-3.599-1.136-7.378-2.195-11.234-2.878c-3.84-0.68-7.757-0.988-11.645-0.625
	c-6.048,0.564-11.486,2.31-16.162,4.836c-5.132,2.772-9.342,6.485-12.435,10.606c-2.564,3.418-5.499,8.468-7.393,14.188
	c-1.44,4.347-2.276,9.075-1.881,13.748c0.135,1.599,0.365,3.081,0.817,4.402c0.438,1.284,1.092,2.427,2.082,3.391
	c0.752,0.732,1.903,1.445,3.239,1.774c1.05,0.259,2.216,0.277,3.388-0.124c0.617-0.212,1.278-0.531,1.849-0.901
	c0.507-0.328,0.94-0.691,1.197-1.041c0.274-0.374,0.52-0.972,0.59-1.626c0.055-0.511,0-1.047-0.234-1.516
	c-0.25-0.501-0.524-0.913-0.796-1.322c-0.441-0.666-0.883-1.331-1.308-2.454c-0.226-0.599-0.422-1.23-0.597-1.872
	c-0.185-0.673-0.333-1.284-0.473-1.874c-0.013-0.058-0.017-0.112-0.012-0.164l-0.775,0.928l-0.364-1.256
	c-1.654-5.708,0.332-10.866,0.91-12.369c0.064-0.169,0.097-0.194,0.101-0.234l1.385,0.145l-0.002,0.023
	c-0.029,0.269-0.077,0.535-0.131,0.812c0.269-0.399,0.543-0.755,0.798-1.012l1.721-1.733l-0.549,2.379
	c-0.081,0.353-0.314,1-0.588,1.762c-0.35,0.974-0.771,2.147-0.996,3.047l-0.14,0.614l1.091-1.373l-0.033,0.907l0.312-0.919
	c0.22-0.627,0.451-1.247,0.721-1.919c0.257-0.64,0.514-1.271,0.778-1.891c0.26-0.61,0.531-1.22,0.825-1.833l0.227-0.473
	c0.485-1.023,0.966-2.029,1.609-3.124c0.889-1.514,2.15-3.025,3.57-4.434c1.379-1.369,2.915-2.649,4.403-3.748
	c-0.525,0.271-1.044,0.568-1.552,0.885c-2.445,1.527-4.645,3.527-6.289,5.536c-0.081,0.097-0.234,0.302-0.398,0.522
	c-0.339,0.452-0.722,0.965-0.975,1.176l-1.212,1.014l0.07-1.578c0.03-0.677,0.451-1.566,1.009-2.456
	c0.785-1.25,1.864-2.557,2.442-3.19c2.251-2.466,5.148-4.691,8.313-6.527c3.297-1.911,6.896-3.406,10.371-4.314
	c3.764-0.984,8.021-1.26,12.195-0.878c4.178,0.383,8.28,1.423,11.738,3.07l0.734,0.371c0.704,0.382,1.357,0.759,2.001,1.242
	c0.062,0.057,0.088,0.09,0.149,0.164l1.313,1.595l-1.827-0.364l0.238,0.129c0.482,0.264,0.885,0.471,1.28,0.674l0.682,0.35
	c1.519,0.793,3.495,2.037,5.294,3.391c1.524,1.148,2.938,2.388,3.862,3.518c1.073,1.313,2.042,2.633,2.949,4.052
	c0.902,1.411,1.734,2.907,2.539,4.577c3.366,6.982,4.997,13.923,4.792,20.66c-0.201,6.63-2.178,13.05-6.021,19.102
	c-3.902,6.146-8.851,10.71-14.632,13.752c-5.947,3.129-12.771,4.641-20.24,4.604c-3.727-0.018-6.94-0.528-9.869-1.36
	c-2.922-0.829-5.565-1.979-8.162-3.281c-1.295-0.649-2.579-1.389-3.816-2.183c-1.069-0.687-2.113-1.418-3.109-2.174l0.628,0.542
	c1.022,0.858,2.104,1.693,3.212,2.453c1.007,0.689,2.038,1.322,3.068,1.855l0.569,0.28c0.646,0.31,1.454,0.697,1.856,1.033
	l1.615,1.353l-2.101-0.123c-1.052-0.062-2.46-0.704-3.894-1.559c-1.178-0.7-2.391-1.553-3.429-2.333l0.516,0.583l-2.659-1.195
	c0.467,0.409,0.93,0.79,1.395,1.152c0.725,0.567,1.477,1.111,2.257,1.665c0.721,0.514,1.533,1.083,2.351,1.601
	c0.813,0.515,1.64,0.985,2.398,1.306c0.413,0.175,0.779,0.367,1.139,0.556c0.459,0.241,0.913,0.479,1.399,0.637
	c0.266,0.088,0.521,0.207,0.79,0.333c0.187,0.088,0.385,0.18,0.601,0.264l0.674,0.253l0.69,0.239
	c4.232,1.422,8.07,2.146,12.152,2.168c4.096,0.021,8.465-0.664,13.749-2.061c2.087-0.551,4.038-1.179,5.876-1.879
	c1.838-0.701,3.551-1.475,5.162-2.316l7.26-3.795L96.126,110.238z"/>
</svg>
