<?xml version="1.0" encoding="utf-8"?>
<!-- Generator: Adobe Illustrator 16.0.0, SVG Export Plug-In . SVG Version: 6.00 Build 0)  -->
<!DOCTYPE svg PUBLIC "-//W3C//DTD SVG 1.1//EN" "http://www.w3.org/Graphics/SVG/1.1/DTD/svg11.dtd">
<svg version="1.1" id="Capa_1" xmlns="http://www.w3.org/2000/svg" xmlns:xlink="http://www.w3.org/1999/xlink" x="0px" y="0px"
	 width="141.732px" height="141.732px" viewBox="0 0 141.732 141.732" enable-background="new 0 0 141.732 141.732"
	 xml:space="preserve">
<polygon fill-rule="evenodd" clip-rule="evenodd" fill="#FF0009" points="70.866,40.213 102.756,47.876 134.646,55.54 
	134.646,70.866 134.646,86.193 102.756,93.856 70.866,101.52 38.977,93.856 7.086,86.193 7.086,70.866 7.086,55.54 38.977,47.876 
	"/>
<polygon fill-rule="evenodd" clip-rule="evenodd" fill="#FFFFFF" points="70.866,13.973 95.502,28.196 120.138,42.419 
	120.138,70.866 120.138,99.313 95.502,113.536 70.866,127.76 46.23,113.536 21.595,99.313 21.595,70.866 21.595,42.419 
	46.23,28.196 "/>
<g>
	<defs>
		<polygon id="SVGID_1_" points="70.866,13.973 95.502,28.196 120.138,42.419 120.138,70.866 120.138,99.313 95.502,113.536 
			70.866,127.76 46.23,113.536 21.595,99.313 21.595,70.866 21.595,42.419 46.23,28.196 		"/>
	</defs>
	<clipPath id="SVGID_2_">
		<use xlink:href="#SVGID_1_"  overflow="visible"/>
	</clipPath>
	<path clip-path="url(#SVGID_2_)" fill-rule="evenodd" clip-rule="evenodd" d="M56.964,48.543c0.992-1.493,2.038-2.714,2.589-4.218
		l0.373-0.718c0.407,0.667,2.575,2.348,2.381,5.916c-0.088,1.631-1.616,0.729-2.462,0.354
		C59.055,49.526,57.497,49.086,56.964,48.543 M59.052,59.671l-0.401-0.423c-1.315-1.579-1.659-0.148-2.717-3.661
		c-0.995-3.304,1.233-5.435,0.231-6.184c2.934,1.581,4.961,1.526,5.425,3.622c0.269,1.213,0.077,3.052-0.464,3.973
		C60.654,57.8,59.645,59.084,59.052,59.671z M63.517,94.741h0.138c0.284,1.612,0.93,3.291,3.174,5.416
		c-0.504,0.448-5.574,2.376-6.741,2.854c-1.752,0.718-1.972,0.498-2.017,2.688c-0.041,1.951,0.45,1.984,1.245,3.471
		c1.931,3.61,1.896,6.106,2.688,6.938c0.401,0.42,0.908,0.712,1.285,1.163c0.85,1.019,1.837,3.263,3.501,3.373
		c0.643-1.398,0.509-4.067,0.13-5.367c-2.367-0.395-2.102-0.556-3.205-2.349c-0.652-1.061-1.217-2.556-1.586-3.954
		c-0.413-1.567-0.505-3.116,1.407-3.485c1.042-0.201,3.924-0.652,4.848-0.497c0.249,2.544,0.348,5.781-0.309,8.139
		c-0.337,1.21-0.19,2.53-0.359,3.892c-1.228,9.921-4.058,7.921-5.987,10.966c-0.377,0.597-1.292,2.123-1.386,2.906l5.178-0.094
		c1.554-3.242,0.776-1,0.762-3.497c0.584-0.517,1.866-1.048,2.367-1.532c0.601-0.581,0.333-2.33,0.469-3.294
		c0.26-1.841,0.945-4.428,1.623-6.039c0.382-0.908,1.069-1.791,1.13-2.736c0.102-1.627-0.063-1.805,0.432-3.376
		c0.592-1.878,1.174-4.004,1.839-5.79l6.228-0.957c2.045,0.14,3.747,0.322,5.911,0.275c1.958-0.042,3.909-0.525,5.544-0.572
		c0.957,1.203,1.464,2.415,2.444,3.406c1.053,1.064,1.807,1.793,3.071,2.64c3.671,2.455,5.848,2.475,6.88,4.702
		c1.076,2.32,0.838,7.828,0.106,10.385c-0.852,2.98-4.391,3.198-4.938,6.4c0.966,0.288,3.738,0.087,4.891,0.05
		c0.547-1.484,0.532-0.747,0.429-2.526c1.12-0.346,1.824-0.588,2.575-1.26c0.075-4.363-0.13-6.365,0.946-10.852
		c0.328-1.369,1.425-3.727,0.464-4.709c-0.95-0.971-2.292-1.756-2.977-2.851c1.625,0.608,3.372,1.313,4.278,2.524
		c1.69,2.258-1.555,6.465-1.331,8.005c0.056,0.386,0.356,0.901,0.454,1.36c0.098,0.456,0.076,0.94,0.219,1.402
		c0.304,0.988,2.275,3.217,3.298,3.241c0.267-0.924,0.405-4.13,0.283-5.047c-0.532-0.214-0.818-0.265-1.269-0.653
		c-0.325-3.508,2.734-8.232,2.581-10.696c-0.899-1.292-2.881-1.514-3.892-2.521c-1.304-1.298-1.792-2.521-1.129-4.244
		c0.911-2.371,2.291-6.104,2.145-8.736c-0.009-0.155-0.055-0.59-0.048-0.71c0.003-0.038,0.011-0.091,0.015-0.124l0.11-0.348
		c1.228,2.654,1.353,4.498,1.261,7.873c-0.049,1.781-0.364,6.748,1.499,7.68l0.233-0.939c0.557,3.023,2.555,7.145,4.837,7.626
		c-0.149-0.904-0.498-1.618-0.664-2.635c-0.979-6.006-0.085-14.042-2.407-19.447c-0.981-2.285-2.896-3.823-5.305-4.176
		c-2.368-0.346-1.366-0.422-3.895-2.296c-0.592-0.439-1.14-0.912-1.743-1.355c-1.692-1.242-2.422-1.018-4.527-1.665
		c-0.375-2.804-0.523-5.508-1.006-8.282c-0.037-0.211-0.074-0.414-0.112-0.611c-0.014,0.029-0.025,0.056-0.035,0.079
		c-0.553-2.91-1.228-4.432-1.812-6.976c0.701,0.333,1.255,0.93,1.929,1.42c1.729,1.258,4.481,2.269,5.948,3.373
		c0.363,0.274,0.725,0.642,1.083,1.07v-0.041c1.478,1.745,2.918,4.536,4.287,6.041c1.154,1.27,2.104,2.056,3.176,3.188
		c3.399,3.589,4.352,2.271,8.143,0.312c2.271-1.174,2.513-0.438,4.369,0.452c-0.354-1.088-1.858-2.198-3.396-2.346
		c-2.528-0.243-2.433,0.798-4.912-0.665c-2.141-1.263-5.479-3.159-6.509-5.074c-1.346-2.507-1.771-6.401-3.444-8.303
		c-0.396-0.449-0.949-0.986-1.56-1.589l-0.153,0.178V64.7c-1.307-1.293-2.839-2.874-3.634-4.53c1.407-1.34,0.672-3.434,0.358-5.471
		c-0.08-0.522-0.329-1.561-0.371-2.067c-0.378-0.63-0.162-0.043-0.578-0.654c0.312-1.595-0.174-2.412-0.928-3.724
		c0.7-0.021,1.156,0.387,1.466,0.092c0.401-0.381,0.23-0.969-0.312-1.061l-0.497,0.031c-0.04,0-0.085,0.002-0.125,0
		c-1.688-0.072-1.906-0.211-2.071-0.821c-0.69-2.557-2.485-15.789-3.401-17.043c-0.581-0.795-0.604-0.74-1.041-0.92
		c-0.727,2.313-0.461,1.858,0.028,4.397c0.304,1.578,0.612,3.103,0.901,4.659c0.573,3.075,1.31,6.247,1.786,9.3
		c-0.584,0.018-1.539,0.067-1.837-0.032c-0.344-0.115-1.051-0.604-0.933,0.524c0.108,1.038,0.289,0.126,2.795,0.762
		c0.214,0.441-0.119,1.5,0.622,2.694c1.318,2.125,0.692,0.543,0.579,2.676c-0.139,0.383-0.216,3.661-0.25,4.346
		c-1.051-0.19-1.194-0.773-2.445-0.718c-3.179,0.141-6.259,1.983-6.87,1.977c-3.276-5.245-1.771-1.273-2.708-6.214
		c-0.5-1.398-1.214-2.354-3.069-3.314c-1.353,0.936-2.03,1.46-2.461,3.91c0.596,4.741-0.6,5.784-0.457,6.812
		c0.097,0.696,0.428,0.571,0.856,1.012c-4.797,2.418-4.614,6.917-6.061,9.07c-0.466-0.454-1.67-2.665-2.412-3.575
		c-0.802-0.985-1.941-2.21-2.941-2.945c-1.556-1.143-5.109-3.301-7.496-3.348l-0.087-0.058l-0.818,0.008
		c-0.019-0.467-0.148-1.052-0.432-1.792c0.75-1.042,2.062-1.606,2.775-2.912c0.446-0.817,1.01-3.983-0.462-4.036
		c-0.45,0.711,0.717,4.066-1.371,4.627c-0.107-0.251,0.875-10.122,1.015-11.401c0.176-1.605,0.556-3.879,1.392-4.964
		c0.38-0.493,2.824-2.942,1.844-4.174c-0.688,0.076-0.409-0.011-0.649,0.795c-0.274,0.919-0.862,2.196-1.921,2.37
		c-0.392-0.359-1.206-2.998-1.691-3.843c-0.217-0.378-0.798-1.508-1.198-1.557c-0.98-0.119-0.041,1.217,0.168,1.604
		c1.023,1.895,2.533,6.768,0.653,8.523c-0.898-0.033-2.688-1.72-3.187-2.229c-2.066-2.106-1.182-3.128-2.151-3.482
		c-0.609,0.486-0.092,1.636,0.143,2.22c0.79,1.966,0.958,5.62-1.189,6.507c-1.343-0.919-2.715-1.125-3.163-2.801
		c-0.229-0.856,0.016-1.156-0.859-1.084c-0.926,1.952,2.481,4.612,2.659,4.848c0.496,0.66,0.318,1.131,0.08,1.957
		c-0.477,1.646-0.775,2.383-2.81,1.741c-2.007-0.634-1.688-2.344-2.545-2.59c-0.5,0.729-0.349-0.046-0.165,1.019
		c0.391,2.263,2.491,2.741,4.427,3.299c-0.438,0.957-2.519,0.993-3.595,0.816c-1.813-0.297-1.873-1.569-2.714-1.545
		c-0.607,1.537,2.306,2.462,3.389,2.65c0.67,0.116,2.377,0.17,2.786,0.341c0.384,0.161,1.194,1.083,1.226,1.675
		c0.036,0.676-0.787,1.666-1.098,1.956c-0.52,0.484-1.132,1.048-2.244,0.795c-2.548-0.582-2.599-2.462-3.483-2.625
		c-0.75,1.142,1.4,2.888,2.255,3.333c0.233,0.121,0.453,0.201,0.661,0.321c0.593,0.343,0.223-0.035,0.509,0.462
		c-2.078,1.605-3.439-0.79-4.328-0.584c-0.174,0.8,0.729,1.4,1.328,1.795c0.725,0.478,1.524,0.617,2.52,0.424
		c0.937-0.181,1.666-0.444,2.669-0.563c0.864-0.103,1.696,0.079,2.399-0.436c0.677-0.496,1.779,0.254,2.214,0.432
		c-0.814-0.287-1.262-0.417-2.308-0.465c0.271,0.991,0.77,1.249,1.021,2.013l-3.811,5.292c-3.628,5.275-5.271,3.844-4.245,6.415
		c0.6,1.5,0.203,1.282,1.58,1.835c0.606,0.244,0.312,0.239,0.746,0.434c0.452,0.202,1.461,0.124,2.073,0.187
		c2.403,0.244,1.087-2.047,4.993-4.047c0.392-0.2,1.22-0.833,1.404-0.889c2.607-0.791,2.119,3.069,2.122,4.673
		c0.007,4.241-0.29,8.61,1.05,12.631C63.3,91.994,63.277,93.344,63.517,94.741z"/>
</g>
<polygon fill="none" stroke="#000000" stroke-width="2.0208" stroke-miterlimit="22.9256" points="70.866,13.973 95.501,28.197 
	120.137,42.42 120.137,70.867 120.137,99.313 95.501,113.537 70.866,127.76 46.23,113.537 21.595,99.313 21.595,70.867 
	21.595,42.42 46.23,28.197 "/>
<path fill-rule="evenodd" clip-rule="evenodd" fill="#FF0009" d="M96.126,110.238c-0.22,0.167-0.443,0.33-0.665,0.484
	c-0.203,0.142-0.411,0.278-0.619,0.405c-0.261,0.156-0.521,0.346-0.774,0.528c-0.337,0.243-0.666,0.48-1.034,0.679
	c-0.705,0.381-1.211,0.715-1.654,1.008c-0.339,0.224-0.646,0.427-0.972,0.609c-0.295,0.165-0.869,0.496-1.498,0.88l1.529-0.697
	c1.125-0.489,4.04-2.344,5.644-3.363l0.577-0.366c1.505-0.948,3.094-2.23,4.632-3.691c1.606-1.527,3.158-3.249,4.503-4.992
	c0.267-0.343,0.971-0.915,1.324-1.248c0.657-0.627,1.311-1.315,1.932-2.022c0.663-0.756,1.282-1.523,1.822-2.25l0.066-0.09
	c0.279-0.377,0.489-0.661,0.736-1.021c0.946-1.38,1.778-2.802,2.511-4.277c0.731-1.474,1.369-3.013,1.926-4.628
	c0.108-0.304,0.267-0.818,0.437-1.428l-0.388,0.568l0.285-2.739c0.044-0.43,0.159-0.986,0.293-1.641
	c0.187-0.906,0.414-2.013,0.53-3.154c0.138-1.372,0.192-2.776,0.164-4.19c-0.135,2.432-0.538,4.791-1.246,6.884l-2.271,6.716
	l0.473-3.602c-0.283,0.898-0.613,1.831-0.978,2.714c-0.662,1.603-1.447,3.065-2.29,3.931l-1.871,1.92l0.698-2.585
	c0.086-0.319,0.431-0.994,0.771-1.66c0.246-0.483,0.493-0.964,0.603-1.234c0.192-0.471,0.366-0.933,0.536-1.416
	c0.158-0.452,0.325-0.964,0.511-1.549c0.983-3.113,1.46-6.628,1.506-10.21c0.05-3.839-0.394-7.765-1.235-11.368l-0.761-3.255
	l1.152,1.544c-0.206-0.67-0.429-1.325-0.661-1.97c-0.31-0.858-0.683-1.809-1.065-2.777c-1.447-3.658-2.877-6.558-4.65-9.133
	c-1.772-2.574-3.906-4.848-6.767-7.26c-0.897-0.757-1.784-1.455-2.685-2.114c-0.903-0.661-1.824-1.283-2.789-1.889l-0.64-0.369
	c-0.541-0.307-1.158-0.656-1.432-0.904l-1.324-1.2l1.788-0.011c0.858-0.005,1.852,0.283,2.874,0.721l-0.446-0.239
	c-0.245-0.128-0.489-0.257-0.803-0.447c-0.476-0.285-1.045-0.537-1.617-0.792c-0.419-0.186-0.84-0.373-1.202-0.556l-3.142-1.585
	l1.094,0.083c-0.73-0.263-1.412-0.49-1.929-0.653c-3.599-1.136-7.378-2.195-11.234-2.878c-3.84-0.68-7.757-0.988-11.645-0.625
	c-6.048,0.564-11.486,2.31-16.162,4.836c-5.132,2.772-9.342,6.485-12.435,10.606c-2.564,3.418-5.499,8.468-7.393,14.188
	c-1.44,4.347-2.276,9.075-1.881,13.748c0.135,1.599,0.365,3.081,0.817,4.402c0.438,1.284,1.092,2.427,2.082,3.391
	c0.752,0.732,1.903,1.445,3.239,1.774c1.05,0.259,2.216,0.277,3.388-0.124c0.617-0.212,1.278-0.531,1.849-0.901
	c0.507-0.328,0.94-0.691,1.197-1.041c0.274-0.374,0.52-0.972,0.59-1.626c0.055-0.511,0-1.047-0.234-1.516
	c-0.25-0.501-0.524-0.913-0.796-1.322c-0.441-0.666-0.883-1.331-1.308-2.454c-0.226-0.599-0.422-1.23-0.597-1.872
	c-0.185-0.673-0.333-1.284-0.473-1.874c-0.013-0.058-0.017-0.112-0.012-0.164l-0.775,0.928l-0.364-1.256
	c-1.654-5.708,0.332-10.866,0.91-12.369c0.064-0.169,0.097-0.194,0.101-0.234l1.385,0.145l-0.002,0.023
	c-0.029,0.269-0.077,0.535-0.131,0.812c0.269-0.399,0.543-0.755,0.798-1.012l1.721-1.733l-0.549,2.379
	c-0.081,0.353-0.314,1-0.588,1.762c-0.35,0.974-0.771,2.147-0.996,3.047l-0.14,0.614l1.091-1.373l-0.033,0.907l0.312-0.919
	c0.22-0.627,0.451-1.247,0.721-1.919c0.257-0.64,0.514-1.271,0.778-1.891c0.26-0.61,0.531-1.22,0.825-1.833l0.227-0.473
	c0.485-1.023,0.966-2.029,1.609-3.124c0.889-1.514,2.15-3.025,3.57-4.434c1.379-1.369,2.915-2.649,4.403-3.748
	c-0.525,0.271-1.044,0.568-1.552,0.885c-2.445,1.527-4.645,3.527-6.289,5.536c-0.081,0.097-0.234,0.302-0.398,0.522
	c-0.339,0.452-0.722,0.965-0.975,1.176l-1.212,1.014l0.07-1.578c0.03-0.677,0.451-1.566,1.009-2.456
	c0.785-1.25,1.864-2.557,2.442-3.19c2.251-2.466,5.148-4.691,8.313-6.527c3.297-1.911,6.896-3.406,10.371-4.314
	c3.764-0.984,8.021-1.26,12.195-0.878c4.178,0.383,8.28,1.423,11.738,3.07l0.734,0.371c0.704,0.382,1.357,0.759,2.001,1.242
	c0.062,0.057,0.088,0.09,0.149,0.164l1.313,1.595l-1.827-0.364l0.238,0.129c0.482,0.264,0.885,0.471,1.28,0.674l0.682,0.35
	c1.519,0.793,3.495,2.037,5.294,3.391c1.524,1.148,2.938,2.388,3.862,3.518c1.073,1.313,2.042,2.633,2.949,4.052
	c0.902,1.411,1.734,2.907,2.539,4.577c3.366,6.982,4.997,13.923,4.792,20.66c-0.201,6.63-2.178,13.05-6.021,19.102
	c-3.902,6.146-8.851,10.71-14.632,13.752c-5.947,3.129-12.771,4.641-20.24,4.604c-3.727-0.018-6.94-0.528-9.869-1.36
	c-2.922-0.829-5.565-1.979-8.162-3.281c-1.295-0.649-2.579-1.389-3.816-2.183c-1.069-0.687-2.113-1.418-3.109-2.174l0.628,0.542
	c1.022,0.858,2.104,1.693,3.212,2.453c1.007,0.689,2.038,1.322,3.068,1.855l0.569,0.28c0.646,0.31,1.454,0.697,1.856,1.033
	l1.615,1.353l-2.101-0.123c-1.052-0.062-2.46-0.704-3.894-1.559c-1.178-0.7-2.391-1.553-3.429-2.333l0.516,0.583l-2.659-1.195
	c0.467,0.409,0.93,0.79,1.395,1.152c0.725,0.567,1.477,1.111,2.257,1.665c0.721,0.514,1.533,1.083,2.351,1.601
	c0.813,0.515,1.64,0.985,2.398,1.306c0.413,0.175,0.779,0.367,1.139,0.556c0.459,0.241,0.913,0.479,1.399,0.637
	c0.266,0.088,0.521,0.207,0.79,0.333c0.187,0.088,0.385,0.18,0.601,0.264l0.674,0.253l0.69,0.239
	c4.232,1.422,8.07,2.146,12.152,2.168c4.096,0.021,8.465-0.664,13.749-2.061c2.087-0.551,4.038-1.179,5.876-1.879
	c1.838-0.701,3.551-1.475,5.162-2.316l7.26-3.795L96.126,110.238z"/>
<text transform="matrix(1 0 0 1.3963 27.6323 101.3271)" font-family="'TraditionalArabic'" font-size="18.9277">XII</text>
<path fill-rule="evenodd" clip-rule="evenodd" d="M99.79,45.458c-0.801-3.997-2.342-14.873-3.169-16.004
	c-0.581-0.795-0.604-0.74-1.041-0.92c-0.726,2.314-0.46,1.858,0.028,4.397c0.304,1.578,0.612,3.103,0.902,4.659
	c0.483,2.597,1.084,5.263,1.546,7.869H99.79z"/>
</svg>
