<?xml version="1.0" encoding="utf-8"?>
<!-- Generator: Adobe Illustrator 16.0.0, SVG Export Plug-In . SVG Version: 6.00 Build 0)  -->
<!DOCTYPE svg PUBLIC "-//W3C//DTD SVG 1.1//EN" "http://www.w3.org/Graphics/SVG/1.1/DTD/svg11.dtd">
<svg version="1.1" id="Capa_1" xmlns="http://www.w3.org/2000/svg" xmlns:xlink="http://www.w3.org/1999/xlink" x="0px" y="0px"
	 width="141.732px" height="141.732px" viewBox="0 0 141.732 141.732" enable-background="new 0 0 141.732 141.732"
	 xml:space="preserve">
<polygon fill-rule="evenodd" clip-rule="evenodd" fill="#FF0009" points="70.866,40.213 102.756,47.876 134.646,55.54 
	134.646,70.866 134.646,86.193 102.756,93.856 70.866,101.52 38.977,93.856 7.086,86.193 7.086,70.866 7.086,55.54 38.977,47.876 
	"/>
<polygon fill-rule="evenodd" clip-rule="evenodd" fill="#FFFFFF" points="70.866,13.973 95.502,28.196 120.138,42.419 
	120.138,70.866 120.138,99.313 95.502,113.536 70.866,127.76 46.23,113.536 21.595,99.313 21.595,70.866 21.595,42.419 
	46.23,28.196 "/>
<g>
	<defs>
		<polygon id="SVGID_1_" points="70.866,13.973 95.502,28.196 120.138,42.419 120.138,70.866 120.138,99.313 95.502,113.536 
			70.866,127.76 46.23,113.536 21.595,99.313 21.595,70.866 21.595,42.419 46.23,28.196 		"/>
	</defs>
	<clipPath id="SVGID_2_">
		<use xlink:href="#SVGID_1_"  overflow="visible"/>
	</clipPath>
	<path clip-path="url(#SVGID_2_)" fill-rule="evenodd" clip-rule="evenodd" d="M98.969,43.375c0.313-0.284,0.861-0.567,1.265-0.848
		c1.224-0.851,2.454-1.778,3.529-2.756c0.641-0.583,1.77-1.484,1.919-2.357c0.146-0.841,0.492-2.931-0.107-3.625
		c-1.445,2.766-3.487,4.737-5.437,6.511c-0.899,0.818-2.293,1.807-3.452,2.516c-1.071,0.654-0.913,0.463-2.207,0.771
		c-4.678,1.113-7.744,4.12-9.448,8.344c-0.294,0.73-1.126,0.912-1.74,1.247c-0.9,0.492-3.003,1.607-3.743,2.148
		c-0.04,0.729,0.164,1.313,0.288,2.024c-0.337,0.497-0.941,0.967-1.321,1.385c-0.418,0.46-0.824,0.912-1.249,1.425
		c-2.607,3.143-2.583,2.902-1.126,4.679c0.839,1.023,0.487,0.456,0.58,1.997c0.15,2.518,0.981,2.713,1.588,3.618
		c-0.789,2.13-1.123,3.191-0.827,5.871c0.202,1.82,1.081,3.747,1.959,4.676c-0.337,0.865-1.033,1.846-1.416,2.695
		c-0.92,2.038-1.648,4.357-1.689,6.679c-0.034,1.919,0.185,2.28,0.289,3.82c-0.961-0.437-2.995-2.056-3.979-2.74
		c-0.691-0.48-1.329-0.93-1.993-1.417c-1.016-0.746-1.246-0.628-1.35-1.932c-0.283-3.555,0.109-2.685-2.233-4.502
		c-2.715-2.107-2.013-1.197-4.478-0.423l0.007-3.946c-0.323,0.068-1.922,1.42-2.333,1.731c-1.751,1.326-1.713,0.984-1.833,2.323
		c-0.636,0.118-1.913,0.207-2.406,0.357c-0.359,0.108-0.188-0.023-0.417,0.338c-0.064,0.103-0.161,0.293-0.226,0.412
		c-0.161,0.294-0.295,0.566-0.441,0.831c-1.327,2.412-1.002,1.414,0.164,3.443c-0.188,0.77-1.123,1.49-0.895,2.238
		c0.169,0.555,1.017,1.823,0.946,2.2c-0.051,0.269-0.516,0.782-0.634,1.087c-0.278,0.717,1.032,2.7,1.259,3.356l2.572,0.008
		c0.19,0.474-0.097,0.346,0.324,0.716l1.833,1.254c2.664-1.858,1.722-0.996,2.13-1.959c1.53-0.104,1.386,0.188,2.104,0.928
		c1.218,1.252,2.425,2.558,3.734,3.725c1.239,1.104,0.179,2.294,2.197,5.365c0.632,0.962,1.94,2.504,3.051,2.947
		c-0.351-1.02-0.994-2.076-1.025-3.395c1.131,1.444,3.712,2.776,5.474,3.389c3.341,1.16,4.717,0.379,7.569-0.156
		c-0.189,0.419-1.531,1.813-1.981,2.402c-0.646,0.847-14.028,23.775-14.676,24.659l2.796,2.235l52.213-30.855
		c-1.493-3.028-4.44-6.944-0.188-3.322c1.644,1.203,3.57,2.168,5.67,2.639c0.975,0.218,2.145,0.508,3.17,0.437
		c0.024-0.002,0.059-0.007,0.08-0.01s0.061-0.016,0.077-0.019l0.144-0.054c-1.16-0.859-1.995-1.398-2.904-2.304
		c-2.6-2.586-4.615-5.97-5.387-9.943l2.335,2.128c0.498,0.395,2.032,1.776,2.536,1.892c-0.662-3.197-3.213-7.547-4.964-10.333
		c-4.369-6.952,0.301,0.485,8.394-0.221c-0.123-0.179-1.445-0.845-1.836-1.112c-11.869-8.131-10.88-15.323-0.898-18.864
		l-0.328-0.178c-3.142-1.25-5.123-1.3-8.063-3.951c-1.969-1.774-3.841-5.226-4.661-7.834c0.929,0.357,1.902,1.033,2.65,1.537
		c0.436,0.292,0.889,0.62,1.207,0.925c0.364,0.349,0.668,0.71,1.083,0.949c0.048-1.643-0.852-3.813-1.56-4.947
		c-1.456-2.332-2.813-2.528-3.278-3.141c0.471-0.369,0.996-0.667,1.45-1.026c0.539-0.426,0.826-0.724,1.286-1.165
		c0.606-0.582,1.785-1.916,2.144-2.855l-2.998-0.013c0.333-0.757,5.56-4.966,5.014-12.179c-0.084-1.115-0.391-1.642-0.432-1.903
		c-0.006-0.04-0.028-0.048-0.046-0.07c-0.019,0.02-0.042,0.05-0.053,0.064l-0.32,0.451c-0.791,1.133-1.754,2.279-2.725,3.242
		c-1.072,1.065-2.222,2.048-3.642,3.068c-1.893,1.358-6.402,4.315-8.696,4.827c0.361-0.758,0.901-1.536,1.066-2.535l-2.355,0.268
		c0.346-0.644,0.992-1.169,1.401-1.873c1.325-2.279,2.036-4.977,1.414-7.644l-0.146,0.131c-0.019,0.02-0.044,0.043-0.063,0.066
		c-0.343,0.4-0.554,0.97-0.853,1.407c-2.092,3.051-4.479,5.703-7.552,7.789C100.73,43.502,99.775,43.385,98.969,43.375
		 M99.199,56.634c-0.318-0.192-0.113-0.001-0.353-0.339c-0.088-0.124-0.116-0.194-0.192-0.339c-0.151-0.286-0.244-0.488-0.342-0.829
		c-1.389-4.833,5.743-6.074,8.898-7.225c6.222-2.268,11.366-6.017,12.36-6.375c-0.207,1.61-3.397,3.897-4.666,4.805
		c-2.125,1.52-5.711,3.057-5.971,3.238l2.454,0.468c-1.098,1.129-3.13,1.8-5.114,2.139c2.212,1.625,3.095,5.11,0.797,7.521
		c-2.076,2.179-6.131,1.954-7.194-1.138c0.996,1.272,3.288,2.14,5.253,1.118c1.48-0.771,2.665-2.808,1.792-4.955
		C105.393,50.958,99.394,51.221,99.199,56.634z M86.852,51.885c0.145-0.781,1.363-2.475,1.783-2.952
		c2.269-2.574,5.51-4.141,9.055-4.166l1.108,0.118c-0.579,0.365-1.347,0.493-2.024,0.786c-1.333,0.578-4.332,2.219-4.797,3.215
		c1.172-0.855,4.047-1.838,5.863-2.244c2.351-0.525,5.117-0.508,7.364,0.102c-0.612,0.179-1.107,0.28-1.726,0.416
		c-2.998,0.657-6.127,0.808-9.148,2.036c-0.558,0.227-2.582,1.162-2.771,1.517c1.973-0.028,3.642,0.029,5.591,0.195l-0.526,1.088
		L86.852,51.885z M110.619,52.662c0.737-0.787,2.623-1.828,1.978-3.511l4.319,0.657c-0.587,0.191-3.698,2.203-5.292,2.725
		c0.579,0.586,3.049,1.089,3.564,1.408c-0.949,0.751-3.607,1.375-5.174,1.373l-0.247-1.105l1.778-0.19
		C111.356,53.675,110.833,52.948,110.619,52.662z M81.015,56.177c0.377-0.279,1.038-0.617,1.44-0.852
		c0.467-0.272,0.929-0.511,1.514-0.827c0.769-0.416,2.271-1.206,3.236-1.284c-0.339,0.413-0.745,0.607-1,1.019
		c2.173-0.83,4.521-0.588,6.814-0.082c-0.536,0.508-3.599,1.599-4.631,1.991c-2.354,0.892-3.155,1.341-3.943-0.233
		c-0.072-0.146-0.076-0.175-0.151-0.3c-0.105-0.176-0.057-0.112-0.172-0.236c-0.19,0.996-0.126,1.09,0.137,1.977l-0.325,0.413
		c-0.136,0.151-0.201,0.208-0.309,0.331c-0.219,0.252-0.338,0.407-0.578,0.699c-0.338,0.409-0.746,0.966-1.002,1.517
		c1.241-0.593,1.546-0.25,2.562,0.225c-0.023,0.017-0.057,0.034-0.074,0.042l-0.23,0.106c-0.101,0.036-0.144,0.038-0.252,0.068
		c-1.417,0.389-1.931,1.141-2.792,2.312c-0.845-0.171-0.853-0.359-2.001-0.286c-0.813,0.052-1.424,0.159-2.291,0.178
		c0.259-0.695,4.184-5.155,4.672-5.465C81.412,56.934,81.116,56.875,81.015,56.177z M102.845,54.606
		c2.196-0.579,2.758,2.712,0.76,3.225C101.653,58.332,100.579,55.203,102.845,54.606z M115.17,60.854
		c-2.395-0.601-3.216-0.842-5.996-0.716l0.453-1.085l1.901,0.211c-0.563-0.684-1.105-1.209-1.173-2.553
		c0.643,0.17,0.859,0.578,1.283,0.966L115.17,60.854z M87.036,58.599c3.404,0.588,3.229-2.093,5.879-3.062
		c0.063,2.432,0.202,2.683-0.904,3.484c-0.955,0.692-1.715,0.968-2.754,1.524c0.396,0.521,0.932,0.72,1.485,1.155
		c-1.869,0.225-3.782-1.013-4.668-1.772C86.163,59.69,86.835,58.789,87.036,58.599z M104.255,71.075
		c-0.682-3.776-2.627-7.03-5.175-9.47l-2.546-2.216c1.4,0.375,3.793,1.929,4.876,2.655c1.437,0.964,2.502,2.266,3.33,4.233
		c0.765,1.815,1.116,4.229,1.025,6.52c-0.058,1.442-0.591,5.218-1.258,6.163c-0.164-0.309-0.437-1.664-0.586-2.166
		c-0.214-0.718-0.456-1.38-0.699-2.065c-0.833-2.341-2.251-5.463-3.611-7.47l-2.461-3.1c1.221,0.371,3.448,2.151,4.157,2.89
		C103.676,69.518,102.905,69.113,104.255,71.075z M78.517,66.43c1.199-0.238,0.942-0.955,1.769-1.557
		c0.961-0.7,1.392-0.416,2.166-1.456c0.653-0.875,0.779-1.357,2.374-0.879c0.884,0.265,1.735,0.868,2.145,1.522
		c-0.193,0.278-0.137,0.17-0.402,0.388c-0.191,0.155-0.245,0.199-0.412,0.33c-0.3,0.234-0.444,0.318-0.79,0.561
		c0.296,0.173,1.196-0.178,2.1-0.352l0.148,0.673l-2.047,0.959l2.145,0.156l-0.179,0.865c-0.619,0.028-1.221,0.088-1.784,0.156
		c-0.436,0.053-1.296,0.055-1.634,0.352l2.483,1.558c-0.085,0.121-0.007,0.054-0.157,0.162c-0.448,0.321-1.296,0.25-1.795,0.099
		c-0.625-0.188-1.076-0.488-1.678-0.776c-2.153-1.029-2.846-0.431-4.151-0.291c-0.353-0.985-0.593-0.918-0.673-2.39L78.517,66.43z
		 M93.617,77.722c0.852-1.122,1.102-5.076,0.9-6.566c-0.386-2.851-1.119-3.476-2.016-5.454c1.884,1.601,2.806,2.163,4.17,4.707
		c0.283,0.529,0.649,1.586,0.911,1.976c0.141-2.744-0.271-3.14-0.643-5.216c0.715,0.709,1.895,3.195,2.355,4.349
		c1.393,3.481,1.72,7.584,0.495,11.16c-0.402,1.177-1.481,3.734-2.302,4.304c0.661-2.372,0.992-3.872,1.093-6.62
		c0.056-1.533-0.161-5.031-0.921-6.489l-0.091-0.146c-0.176,6.394-4.383,10.035-4.298,16.862c0.015,1.15,0.199,2.055,0.502,3.065
		c0.306,1.025,0.88,2.11,0.975,2.488c-1.438-0.619-3.164-2.97-3.818-4.759c-1.208-3.303-0.638-6.931-0.661-7.146l-0.037-0.131
		c-0.937,1.319-1.883,3.639-2.435,5.331c-1.685,5.16-0.204,10.878,3.456,14.724c0.333,0.35,0.567,0.656,0.904,1.016
		c0.303,0.323,0.69,0.647,0.936,0.946c-2.803-0.51-5.624-2.685-7.602-4.614c-0.777-0.759-1.857-2.339-2.445-3.629
		c-4.653-10.21,4.88-18.741,5.972-21.838c0.349,1.965-0.957,5.046-1.223,6.445c0.877-0.678,2.536-3.479,3.109-4.971
		c0.396-1.029,0.693-2.038,0.845-3.178c0.107-0.802-0.059-3.489,0.069-3.792c0.455,1.056,0.975,1.926,1.316,3.189
		C93.5,75.079,93.605,76.211,93.617,77.722z M78.721,74.342c0.021-1.002,0.224-1.807,0.542-2.601
		c0.353-0.883,0.507-1.357,1.52-1.452c1.399-0.131,3.226,1.222,4.306,1.67c0.207,1.389,0.051,2.419-0.305,3.597
		c-0.155-0.319-0.19-0.552-0.368-0.877c-0.171-0.313-0.284-0.476-0.443-0.671c0.009,0.588,0.018,1.143-0.096,1.729
		c-0.068,0.354-0.252,1.071-0.483,1.352c-0.333-1.407-0.892-2.879-1.47-4.155l-0.054,0.708c0.019,1.355-0.466,3.571-1.032,4.57
		c-0.159,0.28-0.113,0.169-0.192,0.233c-0.721-0.879-1.893-3.865-1.129-5.396C79.215,73.197,79.002,74.008,78.721,74.342z
		 M78.538,94.104l0.132,1.98c-0.514-1.109-0.757-3.474-0.736-4.963c0.026-1.826,0.326-3.382,0.897-4.904
		c0.774-2.066,1.753-3.79,3.232-5.29c0.229-0.234,1.195-1.112,1.528-1.264c-0.158,0.393-0.618,1.017-0.899,1.471
		c-0.258,0.417-0.593,0.983-0.895,1.554C79.9,86.259,78.542,89.735,78.538,94.104z M63.812,87.41
		c-1.381-1.514-0.073-4.01,1.556-3.167C66.982,85.079,65.56,87.409,63.812,87.41z M56.299,86.434
		c0.715-1.937,4.738-2.093,5.039-0.533c-0.37,0.427-1.542,0.869-2.231,0.947c-0.512,0.058-0.956-0.027-1.454-0.093
		C57.229,86.699,56.674,86.681,56.299,86.434z M56.374,90.654c0.151-0.812,1.56-1.683,2.747-1.747
		c1.32-0.071,2.732,0.385,3.579,1.042c-0.278,0.169-2.311,0.721-2.744,0.813C58.897,90.987,57.494,90.709,56.374,90.654z
		 M70.222,91.419l3.357,2.292c1.787,1.241,1.256,0.9,1.972,2.183c0.211,0.38,0.388,0.608,0.525,0.986
		c-0.998-0.601-2.241-1.806-3.069-2.595C72.486,93.789,70.516,91.877,70.222,91.419z M56.648,94.521
		c0.236-0.898,1.482-1.594,2.692-1.724c1.488-0.159,2.549,0.41,3.607,0.896l-1.956,0.686C59.362,94.88,58.25,94.596,56.648,94.521z
		 M52.358,57.235l16.443-0.03l0.003-11.57l-16.462,0.043L52.358,57.235z M54.801,110.892c0.295,0.318,0.513,0.577,0.807,0.898
		c0.279,0.305,0.563,0.537,0.851,0.852c0.278,0.304,0.479,0.532,0.765,0.836l3.286,3.373c0.311-0.151,6.396-6.492,6.583-6.873
		l-2.62-3.099c-0.22-0.277-0.542-0.728-0.873-1.027l-6.179,0.016l-2.591,3.117c-0.276,0.327-0.608,0.644-0.799,0.993L54.801,110.892
		z M52.381,42.307c-0.03,0.415-0.148,1.887,0.138,2.225l0.426,0.012c0.056-0.093,0.073-0.092,0.121-0.295
		c0.025-0.105,0.029-0.211,0.033-0.319l-0.035-1.616L52.381,42.307z M67.886,77.349c1.036,0.654,0.551,0.461,1.146,1.389
		c0.238-0.306,0.272-0.624,0.533-0.933c0.372-0.439,0.51-0.345,0.874-0.647c-0.449-0.183-0.633-0.247-0.893-0.613
		c-0.207-0.293-0.284-0.64-0.514-0.901c-0.574,0.797-0.257,1.102-1.405,1.511L67.886,77.349z M59.387,49.335
		c0.227,0.32,1.038,1.217,1.442,1.41l1.148-1.153c-0.154-0.439-1.05-1.235-1.361-1.496C60.237,48.312,59.645,48.968,59.387,49.335z
		 M57.271,51.383c0.175,0.31,0.071,0.146,0.367,0.426c0.414,0.391,0.65,0.763,1.06,1.053c0.545-0.322,0.874-0.913,1.34-1.327
		c-0.405-0.4-0.956-1.204-1.461-1.453L57.271,51.383z M78.262,48.081c0.574,0.323,0.826,0.177,1.309,0.753
		c0.355,0.426,0.388,0.892,0.647,1.372c0.283-0.357,0.188-0.749,0.668-1.352c0.398-0.499,0.687-0.431,1.247-0.773l-0.33-0.205
		c-0.157-0.076-0.213-0.077-0.368-0.16c-0.461-0.248-0.721-0.66-0.909-1.104l-0.308-0.66c-0.308,0.383-0.401,1.044-0.723,1.401
		C79.034,47.864,78.625,47.771,78.262,48.081z M58.478,66.346l4.096,0.022l-0.001-1.994l-4.113,0.03L58.478,66.346z M60.616,54.795
		c0.137-0.103,3.15-2.862,3.349-3.454c-0.519-0.322-0.737-0.865-1.219-1.1c-1.171,1.191-2.068,2.11-3.278,3.403L60.616,54.795z
		 M58.416,99.243c-0.028,1.453-0.174,1.766,0.469,2.237c0.453,0.332,1.213,0.979,1.625,1.142c0.675-0.479,1.386-1.008,2.103-1.502
		l-0.008-1.89c-0.644,0.16-1.46,1.083-2.095,1.367C59.858,100.342,58.994,99.361,58.416,99.243z M57.867,104.822h5.336l-0.67-2.512
		c-0.628,0.283-1.502,1.24-2.13,1.409c-0.657-0.445-1.271-1.008-1.96-1.397L57.867,104.822z M51.581,69.92
		c0.099,0.112,0.032,0.072,0.243,0.175c0.082,0.041,0.125,0.046,0.23,0.081c0.236,0.078,0.342,0.099,0.549,0.196
		c0.377,0.177,0.548,0.348,0.771,0.623c0.476,0.583,0.545,1.576,0.849,1.979c0.327-0.648,0.277-1.372,0.844-1.994
		c0.753-0.828,1.461-0.73,1.816-1.06c-1.148-0.537-1.687-0.42-2.237-1.896l-0.282-0.787c-0.074-0.16-0.079-0.16-0.14-0.239
		l-0.085,0.16c-0.23,0.501,0.052-0.154-0.071,0.162c-0.037,0.096-0.047,0.146-0.079,0.248C53.398,69.435,53.068,69.268,51.581,69.92
		z M66.582,67.154c-0.316,0.414-0.313,1.301-0.918,2.061c-0.415,0.52-1.22,0.674-1.844,1.017c2.907,0.824,2.087,2.354,2.762,3.144
		c0.384-0.667,0.33-1.747,1.225-2.44c0.131-0.102,0.115-0.082,0.254-0.169l0.704-0.369c0.136-0.058,0.177-0.068,0.29-0.132
		c0.144-0.082,0.111-0.066,0.176-0.133c-0.824-0.436-1.251-0.352-1.8-1.064C66.956,68.454,66.943,67.714,66.582,67.154z
		 M58.753,110.403c0.663,2.345,4.19,1.333,3.642-0.925c-0.21-0.867-1.112-1.635-2.265-1.363
		C59.305,108.311,58.418,109.22,58.753,110.403z M77.271,39.877c0.945,0.434,1.496,0.253,2.249,1.122
		c0.718,0.828,0.593,1.604,1.018,2.49l0.215-0.646c0.67-2.61,2.128-2.491,2.815-2.925c0.189-0.12,0.075-0.027,0.212-0.175
		c-0.919-0.244-1.837-0.644-2.26-1.278c-0.223-0.333-0.403-0.733-0.545-1.156c-0.106-0.318-0.269-1.138-0.438-1.35
		c-0.447,0.98-0.271,1.626-0.996,2.598C78.876,39.45,77.84,39.304,77.271,39.877z M57.644,41.334l5.808-0.012
		c0.263-1.783-1.351-2.992-2.839-3.017C58.981,38.277,57.379,39.549,57.644,41.334z M58.475,73.997
		c0.705-0.26,3.545-2.946,4.092-2.905l0.006-3.652l-4.109,0.001L58.475,73.997z M58.478,81.121c0.937-0.477,3.477-2.89,4.082-3.04
		l0.013-5.945c-0.405,0.197-0.76,0.5-1.097,0.776l-2.993,2.331L58.478,81.121z M54.058,44.597l14.726-0.04l0.035-2.229
		l-14.785,0.008L54.058,44.597z M52.374,61.178l5.299-0.023c0.945,1.587,0.456,0.722,0.813,2.164l4.183-0.04
		c-0.175-0.737,0.327-1.687,0.718-2.119l5.396-0.018l0.004-2.806c-0.977-0.114-15.915-0.089-16.432,0.025L52.374,61.178z
		 M60.176,107.054c1.603-0.267,3.045,1.039,3.234,2.393c0.242,1.733-1.004,3.168-2.475,3.325
		C57.168,113.176,56.373,107.686,60.176,107.054z M47.611,45.612c0.131-0.26,1.32-1.304,1.668-1.623
		c0.462-0.423,1.42-1.17,1.657-1.693c-1.938-0.021-1.035-0.175-3.266,1.787c-2.051,1.804-1.814,1.428-1.819,3.039l0.003,7.884
		c0.004,2.227-0.251,2.164,0.701,3.088l2.311,2.27c0.889,0.852,0.731,0.914,2.14,0.808l-0.021-3.352
		c-0.899-0.112-1.593-0.02-2.424-0.27c1.095-0.487,2.394,0.421,2.451-0.831c0.128-2.774-0.218-8.904,0.055-11.092L47.611,45.612z
		 M70.223,42.29c0.442,0.896,2.974,2.608,3.299,3.312l-3.361,0.032c-0.002,2.758-0.1,9.137,0.035,11.694l2.532,0.171
		c-0.883,0.355-1.636,0.18-2.59,0.322l0.002,3.337c1.096,0.175,1.361,0.05,1.876-0.502l2.405-2.283
		c0.969-0.977,0.87-0.744,0.871-1.449l-0.002-6.712c0.006-4.53,0.617-3.99-1.606-5.932C71.693,42.542,72.037,42.138,70.223,42.29z
		 M55.801,51.383c0.392-0.556,4.351-4.519,4.815-4.769c0.563,0.387,2.905,2.854,3.681,3.646c0.249,0.254,0.962,0.839,1.084,1.23
		c-0.451,0.557-4.493,4.603-4.765,4.748c-0.359-0.246-0.979-0.898-1.24-1.167C58.591,54.267,56.073,51.886,55.801,51.383z"/>
	<path clip-path="url(#SVGID_2_)" fill-rule="evenodd" clip-rule="evenodd" fill="#FFFFFF" d="M102.845,54.606
		c2.196-0.579,2.758,2.712,0.76,3.225C101.653,58.332,100.579,55.203,102.845,54.606"/>
	
		<path clip-path="url(#SVGID_2_)" fill="none" stroke="#000000" stroke-width="1.984" stroke-linecap="round" stroke-linejoin="round" stroke-miterlimit="22.9256" d="
		M110.62,52.661c0.737-0.787,2.624-1.828,1.978-3.511l4.319,0.657c-0.586,0.191-3.698,2.203-5.292,2.725
		c0.579,0.587,3.05,1.089,3.565,1.408c-0.95,0.752-3.607,1.375-5.174,1.373l-0.248-1.104l1.778-0.19
		C111.357,53.674,110.834,52.946,110.62,52.661z M86.853,51.884c0.145-0.781,1.363-2.475,1.783-2.952
		c2.269-2.574,5.51-4.141,9.055-4.166l1.108,0.117c-0.579,0.365-1.347,0.493-2.024,0.787c-1.333,0.578-4.332,2.219-4.797,3.215
		c1.172-0.855,4.047-1.838,5.863-2.245c2.351-0.525,5.117-0.508,7.364,0.102c-0.612,0.18-1.106,0.28-1.725,0.416
		c-2.999,0.658-6.128,0.808-9.149,2.036c-0.558,0.227-2.582,1.162-2.771,1.517c1.973-0.028,3.642,0.029,5.591,0.195l-0.526,1.088
		L86.853,51.884z M99.2,56.633c-0.317-0.192-0.113,0-0.353-0.338c-0.088-0.124-0.116-0.195-0.192-0.339
		c-0.151-0.286-0.244-0.489-0.342-0.829c-1.389-4.833,5.743-6.073,8.898-7.224c6.222-2.268,11.366-6.017,12.36-6.376
		c-0.206,1.61-3.396,3.897-4.666,4.805c-2.125,1.52-5.71,3.058-5.971,3.238l2.455,0.468c-1.099,1.13-3.131,1.801-5.115,2.139
		c2.212,1.625,3.095,5.11,0.798,7.521c-2.077,2.179-6.132,1.954-7.194-1.138c0.995,1.272,3.287,2.14,5.252,1.118
		c1.481-0.771,2.665-2.808,1.792-4.955C105.394,50.957,99.396,51.219,99.2,56.633z M115.172,60.853
		c-2.395-0.601-3.217-0.842-5.997-0.716l0.453-1.085l1.901,0.211c-0.563-0.684-1.105-1.209-1.172-2.553
		c0.643,0.17,0.858,0.578,1.283,0.966L115.172,60.853z"/>
	<path clip-path="url(#SVGID_2_)" fill-rule="evenodd" clip-rule="evenodd" fill="#FDFDFD" d="M110.619,52.662
		c0.737-0.787,2.623-1.828,1.978-3.511l4.319,0.657c-0.587,0.191-3.698,2.203-5.292,2.725c0.579,0.586,3.049,1.089,3.564,1.408
		c-0.949,0.751-3.607,1.375-5.174,1.373l-0.247-1.105l1.778-0.19C111.356,53.675,110.833,52.948,110.619,52.662 M86.852,51.885
		c0.145-0.781,1.363-2.475,1.783-2.952c2.269-2.574,5.51-4.141,9.055-4.166l1.108,0.118c-0.579,0.365-1.347,0.493-2.024,0.786
		c-1.333,0.578-4.332,2.219-4.797,3.215c1.172-0.855,4.047-1.838,5.863-2.244c2.351-0.525,5.117-0.508,7.364,0.101
		c-0.612,0.18-1.107,0.28-1.726,0.416c-2.998,0.657-6.127,0.808-9.148,2.036c-0.558,0.227-2.582,1.162-2.771,1.517
		c1.973-0.028,3.642,0.029,5.591,0.195l-0.526,1.088L86.852,51.885z M99.199,56.634c-0.318-0.192-0.113-0.001-0.353-0.339
		c-0.088-0.124-0.116-0.194-0.192-0.339c-0.151-0.286-0.244-0.489-0.342-0.829c-1.389-4.833,5.742-6.074,8.898-7.225
		c6.222-2.268,11.366-6.017,12.36-6.375c-0.207,1.61-3.397,3.897-4.666,4.805c-2.125,1.52-5.711,3.057-5.971,3.238l2.454,0.468
		c-1.098,1.129-3.13,1.8-5.114,2.139c2.212,1.625,3.095,5.11,0.797,7.521c-2.076,2.179-6.131,1.954-7.194-1.138
		c0.996,1.272,3.288,2.14,5.253,1.118c1.48-0.771,2.665-2.808,1.792-4.955C105.393,50.958,99.394,51.221,99.199,56.634z
		 M115.17,60.854c-2.395-0.601-3.216-0.842-5.996-0.716l0.453-1.085l1.901,0.211c-0.563-0.684-1.105-1.209-1.173-2.553
		c0.643,0.17,0.859,0.578,1.283,0.966L115.17,60.854z"/>
	<path clip-path="url(#SVGID_2_)" fill-rule="evenodd" clip-rule="evenodd" fill="#141515" d="M105.109,46.771
		c-2.11,1.307-4.643,2.632-7.644,1.478c2.016-0.444,4.043-0.657,6.013-1.089C104.064,47.031,104.54,46.933,105.109,46.771
		 M108.681,44.898c-0.081,0.038-0.156,0.066-0.226,0.083c-0.956,0.229-2.049,0.983-3.286,1.752c-2.24-0.601-4.991-0.614-7.329-0.092
		c-0.668,0.149-1.479,0.376-2.296,0.647c-0.32-0.171-0.63-0.339-0.926-0.509c0.806-0.468,1.616-0.875,2.155-1.109
		c0.678-0.293,1.445-0.421,2.024-0.786l-1.108-0.118c-1.63,0.012-3.196,0.35-4.633,0.961c-0.455-0.382-0.829-0.803-1.096-1.296
		c0.781-0.349,1.619-0.632,2.518-0.846c1.294-0.308,1.136-0.117,2.207-0.771c1.159-0.708,2.553-1.697,3.452-2.516
		c1.949-1.774,3.991-3.745,5.436-6.511c0.601,0.695,0.253,2.785,0.108,3.625c-0.149,0.873-1.278,1.774-1.919,2.357
		c-1.075,0.978-2.306,1.905-3.529,2.756c-0.403,0.28-0.951,0.564-1.265,0.848c0.807,0.01,1.762,0.127,2.3-0.238
		c3.072-2.086,5.46-4.738,7.552-7.789c0.299-0.437,0.51-1.006,0.853-1.407c0.02-0.023,0.045-0.046,0.063-0.066l0.146-0.131
		c0.622,2.667-0.089,5.364-1.414,7.644c-0.409,0.704-1.056,1.229-1.401,1.873l2.355-0.268
		C109.302,43.719,108.984,44.329,108.681,44.898z"/>
</g>
<polygon fill="none" stroke="#000000" stroke-width="2.0211" stroke-miterlimit="22.9256" points="70.866,13.973 95.501,28.197 
	120.137,42.42 120.137,70.867 120.137,99.313 95.501,113.537 70.866,127.76 46.23,113.537 21.595,99.313 21.595,70.867 
	21.595,42.42 46.23,28.197 "/>
<text transform="matrix(1 0 0 1 30.4717 100.8594)" font-family="'TraditionalArabic'" font-size="26.431">X</text>
<path fill-rule="evenodd" clip-rule="evenodd" fill="#DC2A1B" d="M96.126,110.238c-0.22,0.167-0.443,0.33-0.665,0.484
	c-0.203,0.142-0.411,0.278-0.619,0.405c-0.261,0.156-0.521,0.346-0.774,0.528c-0.337,0.243-0.666,0.48-1.034,0.679
	c-0.705,0.381-1.211,0.715-1.654,1.008c-0.339,0.224-0.646,0.427-0.972,0.609c-0.295,0.165-0.869,0.496-1.498,0.88l1.529-0.697
	c1.125-0.489,4.04-2.344,5.644-3.363l0.577-0.366c1.505-0.948,3.094-2.23,4.632-3.691c1.606-1.527,3.158-3.249,4.503-4.993
	c0.267-0.342,0.971-0.914,1.324-1.247c0.657-0.627,1.311-1.315,1.932-2.022c0.663-0.756,1.282-1.523,1.822-2.25l0.066-0.09
	c0.279-0.377,0.489-0.661,0.736-1.021c0.946-1.38,1.778-2.802,2.511-4.277c0.731-1.474,1.369-3.013,1.926-4.628
	c0.108-0.304,0.267-0.818,0.437-1.428l-0.388,0.568l0.285-2.739c0.044-0.43,0.159-0.986,0.293-1.641
	c0.187-0.906,0.414-2.013,0.53-3.154c0.138-1.372,0.192-2.776,0.164-4.19c-0.135,2.432-0.538,4.791-1.246,6.884l-2.271,6.716
	l0.473-3.602c-0.283,0.898-0.613,1.831-0.978,2.714c-0.662,1.603-1.447,3.065-2.29,3.931l-1.871,1.92l0.698-2.585
	c0.086-0.32,0.431-0.994,0.771-1.66c0.246-0.483,0.493-0.964,0.603-1.234c0.192-0.471,0.366-0.933,0.536-1.416
	c0.158-0.452,0.325-0.964,0.511-1.549c0.983-3.113,1.46-6.628,1.506-10.21c0.05-3.839-0.394-7.765-1.235-11.368l-0.761-3.255
	l1.152,1.544c-0.206-0.67-0.429-1.325-0.661-1.97c-0.31-0.858-0.683-1.809-1.065-2.777c-1.447-3.658-2.877-6.558-4.65-9.133
	c-1.773-2.574-3.906-4.848-6.767-7.26c-0.897-0.757-1.784-1.455-2.685-2.114c-0.903-0.661-1.824-1.283-2.789-1.889l-0.64-0.369
	c-0.541-0.307-1.158-0.656-1.432-0.904l-1.324-1.2l1.788-0.011c0.858-0.005,1.852,0.283,2.874,0.721l-0.446-0.239
	c-0.245-0.128-0.489-0.257-0.803-0.447c-0.476-0.285-1.045-0.537-1.617-0.792c-0.419-0.186-0.84-0.373-1.202-0.556l-3.142-1.585
	l1.094,0.083c-0.73-0.263-1.412-0.49-1.929-0.653c-3.599-1.136-7.378-2.195-11.234-2.878c-3.84-0.68-7.757-0.988-11.645-0.625
	c-6.048,0.564-11.486,2.31-16.162,4.836c-5.132,2.772-9.342,6.485-12.435,10.606c-2.564,3.418-5.499,8.468-7.393,14.188
	c-1.44,4.347-2.276,9.075-1.881,13.748c0.135,1.599,0.365,3.081,0.817,4.402c0.438,1.284,1.092,2.427,2.082,3.391
	c0.752,0.732,1.903,1.445,3.239,1.774c1.05,0.259,2.216,0.277,3.388-0.124c0.617-0.212,1.278-0.531,1.849-0.901
	c0.507-0.328,0.94-0.691,1.197-1.041c0.274-0.374,0.52-0.972,0.59-1.626c0.055-0.511,0-1.047-0.234-1.516
	c-0.25-0.501-0.524-0.913-0.796-1.322c-0.441-0.666-0.883-1.331-1.308-2.455c-0.226-0.598-0.422-1.23-0.597-1.871
	c-0.185-0.673-0.333-1.284-0.473-1.874c-0.013-0.058-0.017-0.112-0.012-0.164l-0.775,0.928l-0.364-1.256
	c-1.654-5.708,0.332-10.866,0.91-12.369c0.064-0.169,0.097-0.193,0.101-0.233l1.385,0.145l-0.002,0.023
	c-0.029,0.269-0.077,0.535-0.131,0.812c0.269-0.399,0.543-0.755,0.798-1.012l1.721-1.733l-0.549,2.379
	c-0.081,0.353-0.314,1-0.588,1.762c-0.35,0.974-0.771,2.147-0.996,3.047l-0.14,0.614l1.091-1.373l-0.033,0.907l0.312-0.919
	c0.22-0.627,0.451-1.247,0.721-1.919c0.257-0.64,0.514-1.271,0.778-1.891c0.26-0.61,0.531-1.22,0.825-1.833l0.227-0.473
	c0.485-1.023,0.966-2.029,1.609-3.124c0.889-1.514,2.15-3.025,3.57-4.434c1.379-1.369,2.915-2.649,4.403-3.748
	c-0.525,0.271-1.044,0.568-1.552,0.885c-2.445,1.527-4.645,3.527-6.289,5.536c-0.081,0.097-0.234,0.302-0.398,0.522
	c-0.339,0.452-0.722,0.965-0.975,1.176l-1.212,1.014l0.07-1.578c0.03-0.677,0.451-1.566,1.009-2.456
	c0.785-1.25,1.864-2.557,2.442-3.19c2.251-2.466,5.148-4.691,8.313-6.527c3.297-1.911,6.896-3.407,10.371-4.314
	c3.764-0.984,8.021-1.26,12.195-0.878c4.178,0.383,8.28,1.423,11.738,3.07l0.734,0.371c0.704,0.382,1.357,0.759,2.001,1.242
	c0.062,0.057,0.088,0.09,0.149,0.164l1.313,1.595l-1.827-0.365l0.238,0.129c0.482,0.264,0.885,0.471,1.28,0.674l0.682,0.35
	c1.519,0.793,3.495,2.037,5.294,3.391c1.524,1.148,2.938,2.388,3.862,3.518c1.073,1.313,2.042,2.633,2.949,4.052
	c0.902,1.411,1.734,2.907,2.539,4.577c3.366,6.982,4.997,13.923,4.792,20.66c-0.201,6.63-2.178,13.05-6.021,19.102
	c-3.902,6.146-8.851,10.71-14.632,13.752c-5.947,3.129-12.771,4.641-20.24,4.604c-3.727-0.018-6.94-0.528-9.869-1.36
	c-2.922-0.829-5.565-1.979-8.162-3.281c-1.295-0.649-2.579-1.389-3.816-2.183c-1.069-0.687-2.113-1.418-3.109-2.174l0.628,0.542
	c1.022,0.858,2.104,1.693,3.212,2.453c1.007,0.689,2.038,1.322,3.068,1.855l0.569,0.28c0.646,0.31,1.454,0.697,1.856,1.033
	l1.615,1.353l-2.101-0.123c-1.052-0.062-2.46-0.704-3.894-1.559c-1.178-0.7-2.391-1.553-3.429-2.333l0.516,0.583l-2.659-1.195
	c0.467,0.409,0.93,0.79,1.395,1.152c0.725,0.567,1.477,1.111,2.257,1.665c0.721,0.514,1.533,1.083,2.351,1.601
	c0.813,0.515,1.64,0.985,2.398,1.306c0.413,0.175,0.779,0.367,1.139,0.556c0.459,0.241,0.913,0.479,1.399,0.637
	c0.266,0.088,0.521,0.207,0.79,0.333c0.187,0.088,0.385,0.18,0.601,0.264l0.674,0.253l0.69,0.239
	c4.232,1.422,8.07,2.146,12.152,2.168c4.096,0.021,8.465-0.664,13.749-2.061c2.087-0.551,4.038-1.179,5.876-1.879
	c1.838-0.701,3.551-1.475,5.162-2.316l7.26-3.795L96.126,110.238z"/>
<path fill-rule="evenodd" clip-rule="evenodd" fill="#FFFFFF" d="M102.845,54.606c2.195-0.579,2.758,2.712,0.76,3.225
	C101.653,58.332,100.579,55.203,102.845,54.606"/>
<path d="M101.178,57.014c0.133,0.111,0.252,0.24,0.354,0.386c0.27,0.297,0.717,0.545,1.241,0.657
	c0.464,0.099,0.969,0.067,1.426-0.171c0.38-0.198,0.722-0.581,0.896-1.061c0.142-0.391,0.154-0.856-0.044-1.344
	c-0.239-0.588-0.683-0.98-1.184-1.16c-0.322-0.115-0.673-0.146-1.014-0.089c-0.316,0.053-0.614,0.186-0.857,0.4
	c-0.438,0.386-0.748,1.063-0.784,2.073C101.209,56.811,101.196,56.914,101.178,57.014 M114.648,62.803l-0.247-0.062
	c-1.987-0.5-2.773-0.698-5.141-0.591c-0.522,0.022-1.008-0.156-1.38-0.467c-0.609,0.488-1.292,0.856-2.005,1.101
	c-1.07,0.368-2.228,0.466-3.323,0.28c-1.15-0.196-2.238-0.701-3.108-1.53c-0.643-0.612-1.156-1.385-1.478-2.319
	c-0.115-0.334-0.137-0.679-0.079-1.004c-0.078-0.053-0.163-0.124-0.283-0.239l-0.004-0.004l-0.004,0.004
	c-0.223-0.214-0.271-0.299-0.371-0.47c-0.021-0.036,0.017,0.006-0.021-0.047c-0.156-0.222-0.214-0.335-0.296-0.494
	c-0.058-0.113,0.135,0.262-0.038-0.066c-0.089-0.169-0.169-0.331-0.262-0.552c-0.099-0.234-0.175-0.443-0.238-0.664
	c-0.172-0.6-0.266-1.158-0.291-1.678l-9.243-0.104c-1.111-0.009-2.006-0.917-1.997-2.029c0.001-0.119,0.012-0.234,0.032-0.347H84.87
	c0.11-0.595,0.441-1.289,0.833-1.937c0.485-0.803,1.115-1.645,1.416-1.986c1.332-1.511,2.957-2.726,4.775-3.562
	c1.772-0.815,3.733-1.269,5.787-1.283c0.071,0,0.143,0.003,0.213,0.01v-0.002l1.108,0.118c0.82,0.083,1.475,0.648,1.713,1.384
	c0.302-0.01,0.604-0.013,0.904-0.009c1.438,0.02,2.854,0.197,4.113,0.539c0.574,0.156,1.022,0.544,1.272,1.036
	c4.044-1.54,7.621-3.72,9.705-4.99c0.991-0.604,0.869,0.385,1.366,0.206c1.046-0.375,1.918-0.334,2.293,0.712
	c0.11,0.309,0.141-0.282,0.103,0.022c-0.179,1.386-0.204,2.755-1.486,3.913c-0.868,0.784-1.834,1.503-2.523,2.002l0.753,0.115
	c1.104,0.166,1.863,1.194,1.697,2.297c-0.118,0.79-0.68,1.404-1.394,1.628c-0.102,0.052-0.546,0.305-1.093,0.617
	c0.801,0.623,1.021,1.763,0.475,2.646c-0.148,0.242-0.341,0.441-0.561,0.594c-0.653,0.483-1.64,0.892-2.686,1.185l2.865,2.578
	c0.828,0.746,0.896,2.021,0.149,2.85C116.146,62.787,115.357,62.993,114.648,62.803z"/>
<path fill-rule="evenodd" clip-rule="evenodd" fill="#FFFFFF" d="M110.619,52.662c0.737-0.787,2.623-1.828,1.978-3.511l4.319,0.657
	c-0.587,0.191-3.698,2.203-5.292,2.725c0.579,0.586,3.049,1.089,3.564,1.408c-0.949,0.751-3.607,1.375-5.174,1.373l-0.247-1.105
	l1.778-0.19C111.356,53.675,110.833,52.948,110.619,52.662 M86.852,51.885c0.145-0.781,1.363-2.475,1.783-2.952
	c2.269-2.574,5.51-4.141,9.055-4.166l1.108,0.118c-0.579,0.365-1.347,0.493-2.024,0.786c-1.333,0.578-4.332,2.219-4.797,3.215
	c1.172-0.855,4.047-1.838,5.863-2.244c2.351-0.525,5.117-0.508,7.364,0.101c-0.612,0.18-1.107,0.28-1.726,0.416
	c-2.998,0.657-6.127,0.808-9.148,2.036c-0.558,0.227-2.582,1.162-2.771,1.517c1.973-0.028,3.642,0.029,5.591,0.195l-0.526,1.088
	L86.852,51.885z M99.199,56.634c-0.318-0.192-0.113-0.001-0.353-0.339c-0.088-0.124-0.116-0.194-0.192-0.339
	c-0.151-0.286-0.244-0.489-0.342-0.829c-1.389-4.833,5.742-6.074,8.898-7.225c6.222-2.268,11.366-6.017,12.36-6.375
	c-0.207,1.61-3.397,3.897-4.666,4.805c-2.125,1.52-5.711,3.057-5.971,3.238l2.454,0.468c-1.098,1.129-3.13,1.8-5.114,2.139
	c2.212,1.625,3.095,5.11,0.797,7.521c-2.076,2.179-6.131,1.954-7.194-1.138c0.996,1.272,3.288,2.14,5.253,1.118
	c1.48-0.771,2.665-2.808,1.792-4.955C105.393,50.958,99.394,51.221,99.199,56.634z M115.17,60.854
	c-2.395-0.601-3.216-0.842-5.996-0.716l0.453-1.085l1.901,0.211c-0.563-0.684-1.105-1.209-1.173-2.553
	c0.643,0.17,0.859,0.578,1.283,0.966L115.17,60.854z"/>
<path fill-rule="evenodd" clip-rule="evenodd" fill="#FFFFFF" d="M87.036,58.599c3.404,0.588,3.229-2.093,5.879-3.062
	c0.063,2.432,0.202,2.683-0.904,3.484c-0.955,0.692-1.715,0.968-2.754,1.524c0.396,0.521,0.932,0.72,1.485,1.155
	c-1.869,0.225-3.782-1.013-4.668-1.772C86.163,59.69,86.835,58.789,87.036,58.599"/>
<path fill-rule="evenodd" clip-rule="evenodd" fill="#FFFFFF" d="M103.139,40.333l-3.26,0.642c-0.065,0.013-0.088,0.063-0.121,0.121
	l-1.792,3.073c-0.033,0.058,0.055,0.121,0.122,0.122l5.051,0.053c0.066,0.001,0.121-0.055,0.121-0.121v-3.768
	C103.26,40.388,103.204,40.321,103.139,40.333"/>
<path fill-rule="evenodd" clip-rule="evenodd" d="M105.109,46.771c-2.11,1.307-4.643,2.632-7.644,1.478
	c2.016-0.444,4.043-0.657,6.013-1.089C104.064,47.03,104.54,46.933,105.109,46.771 M108.681,44.898
	c-0.081,0.038-0.156,0.066-0.226,0.083c-0.956,0.229-2.049,0.983-3.286,1.752c-2.24-0.601-4.991-0.614-7.329-0.092
	c-0.668,0.149-1.479,0.376-2.296,0.647c-0.32-0.171-0.63-0.339-0.926-0.509c0.806-0.468,1.616-0.875,2.155-1.109
	c0.678-0.293,1.445-0.421,2.024-0.786l-1.108-0.118c-1.63,0.012-3.196,0.35-4.633,0.961c-0.455-0.382-0.829-0.803-1.096-1.296
	c0.781-0.349,1.619-0.632,2.518-0.846c1.294-0.308,1.136-0.117,2.207-0.771c1.159-0.708,2.553-1.697,3.452-2.516
	c1.949-1.774,3.991-3.745,5.436-6.511c0.601,0.695,1.938,0.993,1.793,1.834c-0.15,0.873-2.963,3.566-3.604,4.148
	c-1.075,0.978-2.306,1.905-3.529,2.756c-0.403,0.28-0.951,0.564-1.265,0.848c0.807,0.01,1.762,0.127,2.3-0.238
	c3.072-2.086,5.46-4.738,7.552-7.789l1.23,1.444c-0.181,1.621-0.765,3.188-1.583,4.595c-0.409,0.704-1.056,1.229-1.401,1.873
	l2.355-0.268C109.302,43.719,108.984,44.329,108.681,44.898z"/>
<path fill-rule="evenodd" clip-rule="evenodd" fill="#141515" d="M57.867,104.822h5.336l-0.67-2.512
	c-0.628,0.283-1.502,1.24-2.13,1.409c-0.657-0.445-1.271-1.008-1.96-1.397L57.867,104.822z"/>
<path fill-rule="evenodd" clip-rule="evenodd" fill="#141515" d="M58.416,99.243c-0.028,1.453-0.174,1.766,0.469,2.237
	c0.453,0.332,1.213,0.979,1.625,1.142c0.675-0.479,1.386-1.009,2.103-1.502l-0.008-1.89c-0.644,0.16-1.46,1.083-2.095,1.367
	C59.858,100.342,58.994,99.361,58.416,99.243"/>
<path fill-rule="evenodd" clip-rule="evenodd" fill="#141515" d="M54.801,110.892c0.295,0.318,0.513,0.577,0.807,0.898
	c0.279,0.305,0.563,0.537,0.851,0.852c0.278,0.304,0.479,0.532,0.765,0.836l3.286,3.373c0.311-0.151,6.396-6.492,6.583-6.873
	l-2.62-3.099c-0.22-0.277-0.542-0.728-0.873-1.027l-6.179,0.016l-2.591,3.117c-0.275,0.327-0.607,0.644-0.798,0.993L54.801,110.892z
	"/>
<path fill-rule="evenodd" clip-rule="evenodd" fill="#FFFFFF" d="M60.176,107.054c1.603-0.267,3.045,1.039,3.234,2.393
	c0.242,1.733-1.004,3.168-2.475,3.325C57.168,113.176,56.373,107.686,60.176,107.054"/>
<path fill-rule="evenodd" clip-rule="evenodd" d="M58.753,110.403c0.664,2.345,4.19,1.333,3.642-0.925
	c-0.21-0.867-1.112-1.635-2.265-1.363C59.305,108.311,58.418,109.22,58.753,110.403"/>
</svg>
