<?xml version="1.0" encoding="utf-8"?>
<!-- Generator: Adobe Illustrator 16.0.0, SVG Export Plug-In . SVG Version: 6.00 Build 0)  -->
<!DOCTYPE svg PUBLIC "-//W3C//DTD SVG 1.1//EN" "http://www.w3.org/Graphics/SVG/1.1/DTD/svg11.dtd">
<svg version="1.1" id="Capa_1" xmlns="http://www.w3.org/2000/svg" xmlns:xlink="http://www.w3.org/1999/xlink" x="0px" y="0px"
	 width="141.732px" height="141.732px" viewBox="0 0 141.732 141.732" enable-background="new 0 0 141.732 141.732"
	 xml:space="preserve">
<polygon fill-rule="evenodd" clip-rule="evenodd" fill="#FF0009" points="70.866,40.213 102.756,47.876 134.646,55.54 
	134.646,70.866 134.646,86.193 102.756,93.856 70.866,101.52 38.977,93.856 7.086,86.193 7.086,70.866 7.086,55.54 38.977,47.876 
	"/>
<polygon fill-rule="evenodd" clip-rule="evenodd" fill="#FFFFFF" points="70.866,13.973 95.501,28.197 120.137,42.42 
	120.137,70.867 120.137,99.313 95.501,113.537 70.866,127.76 46.23,113.537 21.595,99.313 21.595,70.867 21.595,42.42 46.23,28.197 
	"/>
<polygon fill="none" stroke="#141515" stroke-width="2.021" stroke-miterlimit="22.9256" points="70.866,13.973 95.501,28.197 
	120.137,42.42 120.137,70.867 120.137,99.313 95.501,113.537 70.866,127.76 46.23,113.537 21.595,99.313 21.595,70.867 
	21.595,42.42 46.23,28.197 "/>
<polygon fill-rule="evenodd" clip-rule="evenodd" fill="#FF0009" points="70.898,19.162 93.752,32.074 116.637,45.005 
	116.637,70.866 116.637,96.728 93.752,109.658 70.898,122.571 "/>
<path fill-rule="evenodd" clip-rule="evenodd" d="M70.898,102.005c12.004,0.049,21.606,1.194,21.606,2.601
	c0,1.405-9.603,2.551-21.606,2.6v15.366l-0.032,0.018L47.98,109.658L25.095,96.728V70.866V45.005L47.98,32.074l22.886-12.931
	l0.032,0.018V102.005z"/>
<path fill-rule="evenodd" clip-rule="evenodd" fill="#FFFFFF" d="M80.016,45.845l-2.831,5.48l-1.224-0.591l1.659-6.006
	L80.016,45.845z M57.147,58.404l-0.525,1.364l-6.032-1.955l0.917-2.351L57.147,58.404z M65.843,50.562l-1.136,0.804l-2.977-5.518
	l2.348-1.085C64.653,45.676,65.644,49.344,65.843,50.562z M91.291,57.67c-1.167,0.74-4.579,1.6-6.104,2.056l-0.617-1.24l5.72-3.082
	L91.291,57.67z M99.392,65.8l-12.367-0.365l-0.29-1.686l12.686-0.778L99.392,65.8z M54.917,63.691c0.095,0.222,0.185,0.3,0.034,0.9
	c-0.059,0.233-0.243,0.624-0.345,0.858c-2.243,0.233-10.382,0.629-12.32,0.298l0.011-2.686L54.917,63.691z M92.063,45.152
	c-0.277,0.542-0.015,0.085-0.264,0.432c-0.004,0.005-0.271,0.341-0.276,0.346l-1.892,1.813c-0.894,0.826-1.658,1.522-2.557,2.359
	l-5.013,4.917l-1.224-1.252l5.766-6.51c0.437-0.475,0.723-0.958,1.14-1.41c0.523-0.569,0.669-0.557,1.157-1.205
	c0.423-0.562,0.702-0.78,1.169-1.296C90.398,43.703,91.261,44.749,92.063,45.152z M60.956,53.684
	c-0.278,0.483-0.605,0.951-1.158,1.353c-2.095-1.678-8.968-8.91-9.975-9.594l1.956-2.151l4.582,5.216
	C57.685,49.809,59.239,52.006,60.956,53.684z M71.129,50.114l-1.301-0.01l-0.5-14.159l1.793-0.006l1.186,0.037l-0.422,14.139
	L71.129,50.114z M87.212,71.967c-1.294,0.724-1.745,2.032-3.502,2.771c-0.485-1.057-2.322-2.243-3.192-3.064
	c-0.565-0.534-1.007-1.055-1.571-1.569c-0.626-0.57-0.979-1.088-1.83-1.578c-0.734,1.424-3.346,4.066-4.158,5.22
	c-0.615,0.874-0.917,1.451-1.783,1.799l-4.151-5.245l-4.253,3.618c-0.371,0.301-0.456,0.477-0.797,0.772
	c-0.393,0.342-0.398,0.278-0.864,0.707c-0.615,0.568-0.23,0.375-0.921,0.65c-0.595-0.561-2.026-1.819-2.657-2.453
	c-0.753-0.757-1.47-1.622-2.472-2.554c0.185-1.22,1.837-4.661,2.482-5.754c1.223-2.071,1.695-3.089,3.222-5.05
	c0.903-1.159,2.84-3.085,4.117-3.943c1.748-1.175,3.539-2,6.146-2.159c3.982-0.104,6.049,1.808,8.432,4.193l1.534,1.638
	c0.131,0.164,0.411,0.565,0.49,0.674C82.643,62.217,86.887,68.91,87.212,71.967z M88.141,74.8c0.077,0.086,0.134,0.123,0.29,0.393
	l0.946,3.196c1.711,7.609,0.899,16.865-5.319,22.185c-0.558,0.478-2.226,1.729-2.873,1.898c-5.975,3.019-13.488,3.715-19.621,0.446
	c-1.084-0.579-2.274-1.204-3.167-1.95l-1.668-1.477c-4.905-5.029-5.845-12.162-4.598-19.34c0.287-1.649,1.092-5.401,2.003-6.334
	L59.3,79.38l5.468-4.043c0.493-0.39,1.207-1.058,1.865-1.362c0.693,0.606,2.671,3.614,3.369,4.594
	c0.213,0.298,0.353,0.52,0.558,0.83c0.222,0.335,0.319,0.406,0.5,0.666c0.311-0.366,0.298-0.491,0.659-0.848
	c0.425-0.42,0.351-0.237,0.78-0.791c1.058-1.362,3.846-4.291,4.535-5.505c1.341,0.309,0.901,0.595,2.595,2.03l3.937,3.698
	C84.438,78.387,86.45,76.044,88.141,74.8z"/>
</svg>
